<?xml version="1.0" encoding="utf-8"?>
<!-- Generator: Adobe Illustrator 24.1.1, SVG Export Plug-In . SVG Version: 6.00 Build 0)  -->
<svg version="1.1" id="Layer_2_1_" xmlns="http://www.w3.org/2000/svg" xmlns:xlink="http://www.w3.org/1999/xlink" x="0px" y="0px"
	 viewBox="0 0 1819.5 645.2" style="enable-background:new 0 0 1819.5 645.2;" xml:space="preserve">
<style type="text/css">
	.st0{fill:#02A44C;}
	.st1{fill:#F9B617;}
	.st2{fill:#1A91CC;}
	.st3{fill:#383838;}
</style>
<path class="st0" d="M335.9,0h4.4c0.9,0,1.6,0.8,1.5,1.6l-6,55c-0.1,1.3,0.8,2.4,2.1,2.6l1.2,0.1c1.4,0.2,2.4,1.4,2.3,2.8
	l-10.5,99.1c0,0.4-0.3,0.7-0.7,0.9l-6.6,2.7c-0.8,0.3-1.3,1.1-1.2,2l3.7,47.3c0.1,1.5,1.4,2.6,2.9,2.6l130.5-0.2
	c2.8,0,3.9,3.6,1.5,5.2l-7.3,4.7c-9.7,6.2-21,9.6-32.6,9.6l-94.2-0.1c-1.4,0-2.5,1.2-2.4,2.6l3.2,31.5c0.1,1.4,1.3,2.4,2.7,2.4
	l215.8-0.1c2.7,0,3.7,3.5,1.5,5l-6.4,4.3c-9.9,6.7-21.6,10.3-33.5,10.3l-180,0.1c-1.1,0-2,1-1.9,2.1l3,31.4c0.1,1.5,1.4,2.6,2.8,2.6
	h294.2c2.7,0,3.8,3.6,1.5,5l-11,7.1c-7.6,4.9-16.5,7.5-25.6,7.5l-552.3-0.2c-11.9,0-23.3-4.3-32.3-12l-5.3-4.6
	c-1.5-1.3-1-3.8,0.9-4.4l109-35.9l-3-1c-1.9-0.6-3.7-1.4-5.5-2.2l0,0c-2.7-1.4-5.3-3-7.7-4.9l-9.4-7.3c-1.6-1.3-1.2-3.9,0.8-4.5
	l112.8-36.8l-2.4-0.9c-2.3-0.9-4.5-2-6.5-3.3l-3.7-2.4l-10.3-8.2c-1.4-1.2-1.1-3.4,0.6-4.1l133.4-55.7c0.7-0.3,1.1-0.9,1.2-1.6
	l10.3-96.1c0.2-1.5,1.5-2.6,3-2.5l1.6,0.2c0.8,0.1,1.5-0.5,1.6-1.3L334,1.6C334.4,0.6,335.1,0,335.9,0z"/>
<path class="st0" d="M290,370.6h230.4c40.5,0,72.4,35.4,67.7,75.6l-1.7,15.7c-1.3,10.9-10,24.6-19.8,29.5L535.7,507
	c-1.3,0.7-2.9-0.4-2.7-1.9l6.8-53.6c1.7-14-11-28.7-25.1-28.7l-189.9-0.4c-21.4,0.2-38.8-20.1-36-43L290,370.6z"/>
<path class="st1" d="M161.7,370.6H390c42.2,0,74.9,36.8,70,78.7l-9.5,79.8c-1.4,11.8-8.6,22.2-19.3,27.5l-34.1,17.1
	c-1.7,0.8-3.6-0.5-3.4-2.4l14.6-119.6c1.9-15.6-10.3-29.4-26.1-29.4H196.5c-21.4,0.2-38.8-20.1-36-43L161.7,370.6z"/>
<path class="st2" d="M22.9,370.6h228.3c42.2,0,74.9,36.8,70,78.7l-17.7,151.1c-1.4,11.8-8.6,22.2-19.3,27.5L250.1,645
	c-1.7,0.8-3.6-0.5-3.4-2.4l22.9-190.9c1.9-15.6-10.3-29.4-26.1-29.4H57.8c-21.4,0.2-38.8-20.1-36-43L22.9,370.6z"/>
<g>
	<g>
		<path class="st3" d="M869.7,293.4c0-22.6,0.1-45.6,0.7-59.5h-0.2c-5.3,22.2-18.2,64.3-31.7,110.4h-19.8
			c-10.4-39.5-24.6-87.4-30.4-110.3h-0.2c0.8,14.8,1.7,40.4,1.7,62.1v48.2h-20.5V216.5H802c12,40.4,24.7,80.7,27.9,96.4h0.2
			c4.7-18.7,17.3-58,28.7-96.4h32.8v127.9h-21.8L869.7,293.4L869.7,293.4z"/>
		<path class="st3" d="M933.4,304c0.7,13.3,8.6,23.4,21.5,23.4c10.2,0,15.4-4.2,18.6-10.9h21.5c-4.5,15.7-16,30.3-40.5,30.3
			c-30.7,0-42.6-25-42.6-48.8c0-26.8,15-49.1,42.4-49.1c30.1,0,41.8,25.2,41.8,48.9c0,2.1,0,3.6-0.1,6.2H933.4z M974.1,287.8
			c-0.5-8.3-4.3-20.5-19.9-20.5c-13.9,0-19.6,9.5-20.5,20.5H974.1z"/>
		<path class="st3" d="M1004.2,251.4h14.5v-28.1h21.6v28.1h18.8v18.9h-18.8v42.8c0,8.8,1.6,12.8,9.5,12.8c2.2,0,4.8-0.1,7-0.6v17.8
			c-4,1.4-9.1,2-14.6,2c-18.3,0-23.6-9.5-23.6-27.7v-47.1h-14.5L1004.2,251.4L1004.2,251.4z"/>
		<path class="st3" d="M1074.5,276.7c0-8.4,0-16.8-0.2-25.2h21c0.4,3.1,0.6,13.2,0.6,19.3c4.6-12.9,14.7-22.1,30.6-21.7v23.5
			c-17.7-0.3-30.6,9.5-30.6,36.3v35.5h-21.5L1074.5,276.7L1074.5,276.7z"/>
		<path class="st3" d="M1223.1,297.8c0,27.7-15.7,49-44.4,49c-28.2,0-43.1-23.3-43.1-49c0-25.9,15.5-49,44-49
			C1208.9,248.9,1223.1,274.2,1223.1,297.8z M1157.5,297.9c0,15.5,7.6,29.3,21.8,29.3c14.8,0,21.6-13.4,21.6-29
			c0-15.5-7-29.7-21.8-29.7S1157.5,282.2,1157.5,297.9z"/>
	</g>
</g>
<g>
	<g>
		<path class="st3" d="M800.4,504.3c0,39.8-12.5,56.6-44,56.6c-6,0-14.5-0.5-19.6-2.1v-26.2c2.9,0.5,10.2,1.1,15.1,1.1
			c16.7,0,19.1-12.9,19.1-27.5V384.3h29.4V504.3z"/>
		<path class="st3" d="M927.2,526.7c0,12.1,0.9,28.3,1.6,31.7H902c-0.9-2.6-1.6-9.2-1.7-14.1c-4.2,7.7-12.6,17.1-33.8,17.1
			c-27.9,0-39.6-20.3-39.6-40.2c0-29.2,21-42.7,55.3-42.7c6.5,0,13.7,0,17.7,0v-9c0-10-3.1-20.6-20.4-20.6
			c-15.6,0-18.6,7.9-20.4,17.5h-26.9c1.7-21.3,13.5-40.5,48.2-40.4c30.2,0.2,46.8,13.5,46.8,43.8L927.2,526.7L927.2,526.7z
			 M899.8,498.1c-3.1,0-10.1,0-15,0c-20.7,0-29.7,6.8-29.7,21.2c0,10.8,6.2,19.3,18.7,19.3c23,0,26-17.6,26-36.7L899.8,498.1
			L899.8,498.1z"/>
		<path class="st3" d="M958.4,374.3h28.1v70c5-9.2,14.9-18.4,34.6-18.4c30.9,0,47.5,28.3,47.5,65.2c0,37.8-17.4,70.1-50.6,70.1
			c-17.7,0-26.1-6.4-31.8-16.9c0,5.1-0.5,10.5-1.1,13.8h-27c0.3-14.2,0.3-28.5,0.3-42.6L958.4,374.3L958.4,374.3z M1040,491.9
			c0-23.7-8.6-40.5-27-40.5c-20.5,0-27.8,15-27.8,42.9c0,23.5,6.4,41.8,27.2,41.8C1030.2,536.1,1040,518.7,1040,491.9z"/>
		<path class="st3" d="M1185.4,526.7c0,12.1,0.9,28.3,1.6,31.7h-26.9c-0.9-2.6-1.6-9.2-1.7-14.1c-4.2,7.7-12.6,17.1-33.8,17.1
			c-27.9,0-39.6-20.3-39.6-40.2c0-29.2,21-42.7,55.3-42.7c6.5,0,13.7,0,17.7,0v-9c0-10-3.1-20.6-20.4-20.6
			c-15.6,0-18.6,7.9-20.4,17.5h-26.9c1.7-21.3,13.5-40.5,48.2-40.4c30.2,0.2,46.8,13.5,46.8,43.8L1185.4,526.7L1185.4,526.7z
			 M1157.9,498.1c-3.1,0-10.1,0-15,0c-20.7,0-29.7,6.8-29.7,21.2c0,10.8,6.2,19.3,18.7,19.3c23,0,26-17.6,26-36.7V498.1
			L1157.9,498.1z"/>
		<path class="st3" d="M1216.5,464.1c0-14.6-0.1-25.6-0.3-35.1h27.6c0.4,3.2,0.8,15.1,0.8,24c5.4-15.7,18.4-26.7,38-27v30.1
			c-23.5-0.2-38,9.1-38,43.6v58.5h-28.1V464.1z"/>
		<path class="st3" d="M1352.8,401.9h-48.4l3.6-18.6h116.4l-3.6,18.6h-48.6L1343,558.4h-19.5L1352.8,401.9z"/>
		<path class="st3" d="M1428.1,468.5c2.4-12.5,4.7-26.1,6.6-37.7h17.8c-0.2,3.3-2,16.1-4.2,27c8.2-18,22.5-29.5,39.9-29.5l-4.1,21.6
			c-21.6,1.8-37.9,20.1-43.3,48.7l-11.2,59.7h-18.6L1428.1,468.5z"/>
		<path class="st3" d="M1577.7,526.7c-2,10.7-4.7,26.5-5.3,31.6h-18.2c0.4-4.6,1.6-12.5,2.9-19.6c-5.7,10.2-15.3,22.1-38.5,22.1
			c-22.8,0-31.2-16.9-31.2-32.1c0-36.4,30.4-44.3,53.1-46.8c11.8-1.2,21.8-1.2,27.5-1.4l1.4-8.6c2.2-12,1.4-27.5-20.4-27.5
			c-19.1,0-24.4,11.2-27.8,21h-18.9c3.9-18.9,16.5-37.1,48.3-37.1c26.1,0,42.9,13.2,37.2,43.8L1577.7,526.7z M1565.3,496
			c-6.1,0.2-13.7,0.3-23.3,1.4c-18.4,2.2-34.8,7.8-34.8,28.2c0,9.7,5.8,17.8,18.3,17.8c24.8,0,34.6-21.7,39.5-45.4L1565.3,496z"/>
		<path class="st3" d="M1623.6,463.2c2-11,4-21.8,5.7-32.4h18.2c-0.4,4-2.6,18.3-3.4,21.7c6.4-11.6,17.4-24.3,38.2-24.3
			c21.6,0,35.2,14,28.2,50.3l-14.9,79.8h-18.5l14.8-79.2c3.7-19.3-0.2-32.5-17.5-32.5c-21.1,0-33.1,21.8-38.1,47.9l-12,63.8h-18.6
			L1623.6,463.2z"/>
		<path class="st3" d="M1744.4,520c1.3,13.2,8.5,24,26.5,24c15.2,0,23.2-8.4,23.2-20.6c0-11.8-7.4-17.5-23.5-24.1
			c-24.4-9.6-31.9-19.3-31.9-34c0-19.8,13.6-37,40.9-37c29.4,0,40.5,18.6,40,36.8h-18.8c-0.8-9-4.5-20.2-22.9-20.2
			c-11.9,0-20.4,6.6-20.4,18c0,9,6.5,13.2,22.5,19.7c23.9,9.6,33.6,20.3,33.6,38c0,25.4-18.2,40.2-45.3,40.2
			c-28.9,0-42.8-17-42.6-40.8H1744.4z"/>
	</g>
</g>
</svg>
