<svg xmlns="http://www.w3.org/2000/svg" xml:space="preserve" id="Layer_2_1_" x="0" y="0" version="1.1" viewBox="0 0 1819.5 645.2"><style>.st0{fill:#02a44c}.st3{fill:#383838}</style><path d="M335.9 0h4.4c.9 0 1.6.8 1.5 1.6l-6 55c-.1 1.3.8 2.4 2.1 2.6l1.2.1c1.4.2 2.4 1.4 2.3 2.8l-10.5 99.1c0 .4-.3.7-.7.9l-6.6 2.7c-.8.3-1.3 1.1-1.2 2l3.7 47.3c.1 1.5 1.4 2.6 2.9 2.6l130.5-.2c2.8 0 3.9 3.6 1.5 5.2l-7.3 4.7c-9.7 6.2-21 9.6-32.6 9.6l-94.2-.1c-1.4 0-2.5 1.2-2.4 2.6l3.2 31.5c.1 1.4 1.3 2.4 2.7 2.4l215.8-.1c2.7 0 3.7 3.5 1.5 5l-6.4 4.3c-9.9 6.7-21.6 10.3-33.5 10.3l-180 .1c-1.1 0-2 1-1.9 2.1l3 31.4c.1 1.5 1.4 2.6 2.8 2.6h294.2c2.7 0 3.8 3.6 1.5 5l-11 7.1c-7.6 4.9-16.5 7.5-25.6 7.5l-552.3-.2c-11.9 0-23.3-4.3-32.3-12l-5.3-4.6c-1.5-1.3-1-3.8.9-4.4l109-35.9-3-1c-1.9-.6-3.7-1.4-5.5-2.2-2.7-1.4-5.3-3-7.7-4.9l-9.4-7.3c-1.6-1.3-1.2-3.9.8-4.5l112.8-36.8-2.4-.9c-2.3-.9-4.5-2-6.5-3.3l-3.7-2.4-10.3-8.2c-1.4-1.2-1.1-3.4.6-4.1l133.4-55.7c.7-.3 1.1-.9 1.2-1.6l10.3-96.1c.2-1.5 1.5-2.6 3-2.5l1.6.2c.8.1 1.5-.5 1.6-1.3L334 1.6c.4-1 1.1-1.6 1.9-1.6M290 370.6h230.4c40.5 0 72.4 35.4 67.7 75.6l-1.7 15.7c-1.3 10.9-10 24.6-19.8 29.5L535.7 507c-1.3.7-2.9-.4-2.7-1.9l6.8-53.6c1.7-14-11-28.7-25.1-28.7l-189.9-.4c-21.4.2-38.8-20.1-36-43z" class="st0"/><path d="M161.7 370.6H390c42.2 0 74.9 36.8 70 78.7l-9.5 79.8c-1.4 11.8-8.6 22.2-19.3 27.5l-34.1 17.1c-1.7.8-3.6-.5-3.4-2.4l14.6-119.6c1.9-15.6-10.3-29.4-26.1-29.4H196.5c-21.4.2-38.8-20.1-36-43z" style="fill:#f9b617"/><path d="M22.9 370.6h228.3c42.2 0 74.9 36.8 70 78.7l-17.7 151.1c-1.4 11.8-8.6 22.2-19.3 27.5L250.1 645c-1.7.8-3.6-.5-3.4-2.4l22.9-190.9c1.9-15.6-10.3-29.4-26.1-29.4H57.8c-21.4.2-38.8-20.1-36-43z" style="fill:#1a91cc"/><path d="M869.7 293.4c0-22.6.1-45.6.7-59.5h-.2c-5.3 22.2-18.2 64.3-31.7 110.4h-19.8c-10.4-39.5-24.6-87.4-30.4-110.3h-.2c.8 14.8 1.7 40.4 1.7 62.1v48.2h-20.5V216.5H802c12 40.4 24.7 80.7 27.9 96.4h.2c4.7-18.7 17.3-58 28.7-96.4h32.8v127.9h-21.8zM933.4 304c.7 13.3 8.6 23.4 21.5 23.4 10.2 0 15.4-4.2 18.6-10.9H995c-4.5 15.7-16 30.3-40.5 30.3-30.7 0-42.6-25-42.6-48.8 0-26.8 15-49.1 42.4-49.1 30.1 0 41.8 25.2 41.8 48.9 0 2.1 0 3.6-.1 6.2zm40.7-16.2c-.5-8.3-4.3-20.5-19.9-20.5-13.9 0-19.6 9.5-20.5 20.5zM1004.2 251.4h14.5v-28.1h21.6v28.1h18.8v18.9h-18.8v42.8c0 8.8 1.6 12.8 9.5 12.8 2.2 0 4.8-.1 7-.6v17.8c-4 1.4-9.1 2-14.6 2-18.3 0-23.6-9.5-23.6-27.7v-47.1h-14.5zM1074.5 276.7c0-8.4 0-16.8-.2-25.2h21c.4 3.1.6 13.2.6 19.3 4.6-12.9 14.7-22.1 30.6-21.7v23.5c-17.7-.3-30.6 9.5-30.6 36.3v35.5h-21.5zM1223.1 297.8c0 27.7-15.7 49-44.4 49-28.2 0-43.1-23.3-43.1-49 0-25.9 15.5-49 44-49 29.3.1 43.5 25.4 43.5 49m-65.6.1c0 15.5 7.6 29.3 21.8 29.3 14.8 0 21.6-13.4 21.6-29 0-15.5-7-29.7-21.8-29.7s-21.6 13.7-21.6 29.4M800.4 504.3c0 39.8-12.5 56.6-44 56.6-6 0-14.5-.5-19.6-2.1v-26.2c2.9.5 10.2 1.1 15.1 1.1 16.7 0 19.1-12.9 19.1-27.5V384.3h29.4zM927.2 526.7c0 12.1.9 28.3 1.6 31.7H902c-.9-2.6-1.6-9.2-1.7-14.1-4.2 7.7-12.6 17.1-33.8 17.1-27.9 0-39.6-20.3-39.6-40.2 0-29.2 21-42.7 55.3-42.7h17.7v-9c0-10-3.1-20.6-20.4-20.6-15.6 0-18.6 7.9-20.4 17.5h-26.9c1.7-21.3 13.5-40.5 48.2-40.4 30.2.2 46.8 13.5 46.8 43.8zm-27.4-28.6h-15c-20.7 0-29.7 6.8-29.7 21.2 0 10.8 6.2 19.3 18.7 19.3 23 0 26-17.6 26-36.7zM958.4 374.3h28.1v70c5-9.2 14.9-18.4 34.6-18.4 30.9 0 47.5 28.3 47.5 65.2 0 37.8-17.4 70.1-50.6 70.1-17.7 0-26.1-6.4-31.8-16.9 0 5.1-.5 10.5-1.1 13.8h-27c.3-14.2.3-28.5.3-42.6zm81.6 117.6c0-23.7-8.6-40.5-27-40.5-20.5 0-27.8 15-27.8 42.9 0 23.5 6.4 41.8 27.2 41.8 17.8 0 27.6-17.4 27.6-44.2M1185.4 526.7c0 12.1.9 28.3 1.6 31.7h-26.9c-.9-2.6-1.6-9.2-1.7-14.1-4.2 7.7-12.6 17.1-33.8 17.1-27.9 0-39.6-20.3-39.6-40.2 0-29.2 21-42.7 55.3-42.7h17.7v-9c0-10-3.1-20.6-20.4-20.6-15.6 0-18.6 7.9-20.4 17.5h-26.9c1.7-21.3 13.5-40.5 48.2-40.4 30.2.2 46.8 13.5 46.8 43.8zm-27.5-28.6h-15c-20.7 0-29.7 6.8-29.7 21.2 0 10.8 6.2 19.3 18.7 19.3 23 0 26-17.6 26-36.7zM1216.5 464.1c0-14.6-.1-25.6-.3-35.1h27.6c.4 3.2.8 15.1.8 24 5.4-15.7 18.4-26.7 38-27v30.1c-23.5-.2-38 9.1-38 43.6v58.5h-28.1zM1352.8 401.9h-48.4l3.6-18.6h116.4l-3.6 18.6h-48.6L1343 558.4h-19.5zM1428.1 468.5c2.4-12.5 4.7-26.1 6.6-37.7h17.8c-.2 3.3-2 16.1-4.2 27 8.2-18 22.5-29.5 39.9-29.5l-4.1 21.6c-21.6 1.8-37.9 20.1-43.3 48.7l-11.2 59.7H1411zM1577.7 526.7c-2 10.7-4.7 26.5-5.3 31.6h-18.2c.4-4.6 1.6-12.5 2.9-19.6-5.7 10.2-15.3 22.1-38.5 22.1-22.8 0-31.2-16.9-31.2-32.1 0-36.4 30.4-44.3 53.1-46.8 11.8-1.2 21.8-1.2 27.5-1.4l1.4-8.6c2.2-12 1.4-27.5-20.4-27.5-19.1 0-24.4 11.2-27.8 21h-18.9c3.9-18.9 16.5-37.1 48.3-37.1 26.1 0 42.9 13.2 37.2 43.8zm-12.4-30.7c-6.1.2-13.7.3-23.3 1.4-18.4 2.2-34.8 7.8-34.8 28.2 0 9.7 5.8 17.8 18.3 17.8 24.8 0 34.6-21.7 39.5-45.4zM1623.6 463.2c2-11 4-21.8 5.7-32.4h18.2c-.4 4-2.6 18.3-3.4 21.7 6.4-11.6 17.4-24.3 38.2-24.3 21.6 0 35.2 14 28.2 50.3l-14.9 79.8h-18.5l14.8-79.2c3.7-19.3-.2-32.5-17.5-32.5-21.1 0-33.1 21.8-38.1 47.9l-12 63.8h-18.6zM1744.4 520c1.3 13.2 8.5 24 26.5 24 15.2 0 23.2-8.4 23.2-20.6 0-11.8-7.4-17.5-23.5-24.1-24.4-9.6-31.9-19.3-31.9-34 0-19.8 13.6-37 40.9-37 29.4 0 40.5 18.6 40 36.8h-18.8c-.8-9-4.5-20.2-22.9-20.2-11.9 0-20.4 6.6-20.4 18 0 9 6.5 13.2 22.5 19.7 23.9 9.6 33.6 20.3 33.6 38 0 25.4-18.2 40.2-45.3 40.2-28.9 0-42.8-17-42.6-40.8z" class="st3"/></svg>