<svg xmlns="http://www.w3.org/2000/svg" viewBox="0 0 1275.59 1275.59"><defs><style>.cls-1{fill:#d8ecf6;}.cls-2{fill:#1a91cc;}.cls-3{fill:#fff;}.cls-4{fill:#afc9d3;}.cls-5{fill:none;stroke:#000;stroke-miterlimit:10;stroke-width:2px;}</style></defs><g id="Layer_2" data-name="Layer 2"><g id="Layer_1-2" data-name="Layer 1"><rect class="cls-1" x="30" y="30" width="1215.59" height="1215.59" rx="140.08"/><path class="cls-2" d="M1105.51,60a110.07,110.07,0,0,1,110.08,110.08v935.43a110.07,110.07,0,0,1-110.08,110.08H170.08A110.07,110.07,0,0,1,60,1105.51V170.08A110.07,110.07,0,0,1,170.08,60h935.43m0-60H170.08A170.08,170.08,0,0,0,0,170.08v935.43a170.08,170.08,0,0,0,170.08,170.08h935.43a170.08,170.08,0,0,0,170.08-170.08V170.08A170.08,170.08,0,0,0,1105.51,0Z"/><path class="cls-2" d="M231.24,955.08V404.14H166.38V261.63h942.83V404.14H1052V955.08h-98.6V404.14H322V955.08ZM322,522.18H342.1V740.06H322v22H953.42V742.51H934V519.74h19.4v-20.8H322ZM424.61,955.84V873H626.92v82.88h23.24V873h201v82.88h23.52V870.72h27V846.08H373.1V873H400v82.88ZM559.93,358.19V305.06H548.36v21.16H528.11V305.06H516.54v53.13h11.57V336.42h20.25v21.77Zm44.14-53.13H589.76l-17.5,53.13H584l3.8-12.64h17.74l3.8,12.64h12Zm-13.54,30.67,3.27-11,2.59-9.14h.38l2.66,9.14,3.27,11Zm75,12.18H645.25V305.06H633.68v53.13H665.5Zm44.37-42.85H669.53v10.28h14.39v42.85h11.57V315.34h14.38Zm49,42.85H734.31V336.42h21.08v-10.2H734.31V315.34h24.58V305.06H722.74v53.13h36.15Z"/><rect class="cls-3" x="373.1" y="523.86" width="248.25" height="216.2"/><rect class="cls-3" x="653.42" y="523.86" width="248.25" height="216.2"/><rect x="373.1" y="523.86" width="248.25" height="86.14"/><rect class="cls-4" x="373.1" y="610" width="248.25" height="53.36"/><rect class="cls-4" x="653.42" y="523.58" width="248.25" height="26.68"/><rect class="cls-4" x="653.42" y="624.33" width="248.25" height="26.68"/><rect class="cls-4" x="665.91" y="657.9" width="109.5" height="26.68"/><rect class="cls-4" x="782.05" y="657.9" width="109.5" height="26.68"/><rect class="cls-4" x="665.91" y="690.48" width="109.5" height="26.68"/><rect class="cls-4" x="782.05" y="690.48" width="109.5" height="26.68"/><rect class="cls-4" x="665.91" y="556.21" width="109.5" height="26.68"/><rect class="cls-4" x="782.05" y="556.21" width="109.5" height="26.68"/><rect class="cls-4" x="665.91" y="589.74" width="109.5" height="26.68"/><rect class="cls-4" x="782.05" y="589.74" width="109.5" height="26.68"/><rect class="cls-4" x="373.1" y="728.02" width="248.25" height="12.03"/><rect class="cls-4" x="653.42" y="728.02" width="248.25" height="12.03"/><rect class="cls-3" x="463" y="537.23" width="64.64" height="64.64" rx="8.5"/><path d="M514.45,555.08h-2v-5.69a1.64,1.64,0,0,0-1.05-1.44s-5.44-1.76-16.13-1.76S479.2,548,479.2,548a1.62,1.62,0,0,0-1.05,1.44v5.69H476.2a1.11,1.11,0,0,0-1.11,1.1v8.35a1.1,1.1,0,0,0,1.11,1.09h1.95v19.61a1.1,1.1,0,0,0,1.11,1.09h2.41v3.45a1.26,1.26,0,0,0,1.35,1.14h2.52a1.27,1.27,0,0,0,1.36-1.14v-3.45H504v3.45a1.26,1.26,0,0,0,1.35,1.14h2.52a1.26,1.26,0,0,0,1.35-1.14v-3.45h2.19a1.1,1.1,0,0,0,1.11-1.09V566.16h0v-.53h2a1.1,1.1,0,0,0,1.11-1.09v-8.35a1.11,1.11,0,0,0-1.11-1.1m-31.23,25.86a2.3,2.3,0,1,1,2.34-2.3,2.32,2.32,0,0,1-2.34,2.3m24.39,0a2.3,2.3,0,1,1,2.33-2.3,2.32,2.32,0,0,1-2.33,2.3m2.76-17.71v8.23a2.22,2.22,0,0,1-1.7,2.07,85.9,85.9,0,0,1-13.35,1,85,85,0,0,1-13.34-1,2.2,2.2,0,0,1-1.7-2.06V554.29a2.23,2.23,0,0,1,1.69-2.07,83,83,0,0,1,13.18-1,89.87,89.87,0,0,1,13.52,1,2.21,2.21,0,0,1,1.7,2.06Z"/><line class="cls-5" x1="682.83" y1="533.76" x2="742.36" y2="533.76"/><line class="cls-5" x1="682.83" y1="541.41" x2="742.36" y2="541.41"/><rect x="665.91" y="532.13" width="10.29" height="10.29" rx="5.14"/><line class="cls-5" x1="682.83" y1="633.17" x2="742.36" y2="633.17"/><line class="cls-5" x1="682.83" y1="640.82" x2="742.36" y2="640.82"/><line class="cls-5" x1="390.55" y1="682.45" x2="450.07" y2="682.45"/><line class="cls-5" x1="390.55" y1="690.1" x2="450.07" y2="690.1"/><line class="cls-5" x1="390.55" y1="701.41" x2="450.07" y2="701.41"/><line class="cls-5" x1="390.55" y1="709.06" x2="450.07" y2="709.06"/><line class="cls-5" x1="525.12" y1="680.76" x2="584.64" y2="680.76"/><line class="cls-5" x1="525.12" y1="688.41" x2="584.64" y2="688.41"/><line class="cls-5" x1="438.97" y1="632.85" x2="551.68" y2="632.85"/><line class="cls-5" x1="438.97" y1="647.34" x2="551.68" y2="647.34"/><rect x="665.91" y="631.54" width="10.29" height="10.29" rx="5.14"/></g></g></svg>