<svg xmlns="http://www.w3.org/2000/svg" viewBox="0 0 1275.59 1275.59"><defs><style>.cls-1{fill:#d8ecf6;}.cls-2{fill:#1a91cc;}.cls-3{fill:#fff;}.cls-4,.cls-5{fill:none;stroke:#000;stroke-miterlimit:10;}.cls-4{stroke-width:2px;}.cls-6{fill:#afc9d3;}</style></defs><g id="Layer_2" data-name="Layer 2"><g id="Layer_1-2" data-name="Layer 1"><rect class="cls-1" x="30" y="30" width="1215.59" height="1215.59" rx="140.08"/><path class="cls-2" d="M1105.51,60a110.07,110.07,0,0,1,110.08,110.08v935.43a110.07,110.07,0,0,1-110.08,110.08H170.08A110.07,110.07,0,0,1,60,1105.51V170.08A110.07,110.07,0,0,1,170.08,60h935.43m0-60H170.08A170.08,170.08,0,0,0,0,170.08v935.43a170.08,170.08,0,0,0,170.08,170.08h935.43a170.08,170.08,0,0,0,170.08-170.08V170.08A170.08,170.08,0,0,0,1105.51,0Z"/><path class="cls-2" d="M843.23,558.74V123.58h279.1V558.74Zm238.23-179.63H883.22v32.57h198.24Z"/><rect class="cls-3" x="883.22" y="153.65" width="198.24" height="198.24"/><rect class="cls-3" x="883.22" y="439.92" width="198.24" height="106.83"/><path class="cls-2" d="M1034.7,191.07h-5.34V175.48a4.45,4.45,0,0,0-2.88-3.94s-14.87-4.82-44.14-4.82-44.13,4.82-44.13,4.82a4.44,4.44,0,0,0-2.88,3.94v15.59H930a3,3,0,0,0-3,3v22.86a3,3,0,0,0,3,3h5.34V273.6a3,3,0,0,0,3,3H945v9.46c0,1.71,1.67,3.11,3.71,3.11h6.89c2,0,3.71-1.4,3.71-3.11v-9.46H1006v9.46c0,1.71,1.67,3.11,3.71,3.11h6.89c2,0,3.71-1.4,3.71-3.11v-9.46h6a3,3,0,0,0,3-3V219.91h5.34a3,3,0,0,0,3-3V194.06a3,3,0,0,0-3-3m-85.48,70.8a6.3,6.3,0,1,1,6.38-6.29,6.34,6.34,0,0,1-6.38,6.29m66.75,0a6.3,6.3,0,1,1,6.39-6.29,6.34,6.34,0,0,1-6.39,6.29m7.56-48.49v22.53a6.11,6.11,0,0,1-4.64,5.68,237.7,237.7,0,0,1-36.55,2.63,234.86,234.86,0,0,1-36.54-2.66,6.07,6.07,0,0,1-4.65-5.65v-47a6.11,6.11,0,0,1,4.65-5.67,226.9,226.9,0,0,1,36.06-2.63,245.61,245.61,0,0,1,37,2.66,6.06,6.06,0,0,1,4.65,5.64Z"/><path class="cls-2" d="M936,336.82v-33h16a8.63,8.63,0,0,1,6.38,2.32,8.29,8.29,0,0,1,2.32,6.15,8.55,8.55,0,0,1-.83,4,5.16,5.16,0,0,1-2.22,2.24,7.69,7.69,0,0,1-3.1.81v.28a7.59,7.59,0,0,1,2.46.43,7.83,7.83,0,0,1,2.41,1.32,6.61,6.61,0,0,1,1.85,2.39,8.36,8.36,0,0,1,.7,3.61,10.06,10.06,0,0,1-1.11,4.73,9,9,0,0,1-3,3.4,7.73,7.73,0,0,1-4.37,1.28Zm7.19-26.94v7.46h7.14A3.47,3.47,0,0,0,952,317a2.38,2.38,0,0,0,1-1,3.59,3.59,0,0,0,.35-1.63V312.9a3.59,3.59,0,0,0-.35-1.63,2.38,2.38,0,0,0-1-1,3.47,3.47,0,0,0-1.63-.35Zm0,13.33v7.56h8.27a3.44,3.44,0,0,0,1.63-.36,2.54,2.54,0,0,0,1.07-1,3.22,3.22,0,0,0,.38-1.61v-1.61a3.18,3.18,0,0,0-.38-1.6,2.63,2.63,0,0,0-1.07-1,3.44,3.44,0,0,0-1.63-.35Z"/><path class="cls-2" d="M970.41,303.82h7v20.24a10.66,10.66,0,0,0,.6,3.85,4.45,4.45,0,0,0,1.91,2.32,6.73,6.73,0,0,0,3.45.78,6.62,6.62,0,0,0,3.43-.78,4.65,4.65,0,0,0,1.91-2.32,10.41,10.41,0,0,0,.62-3.85V303.82h7V323.3a21.33,21.33,0,0,1-1.27,8,8.72,8.72,0,0,1-4.12,4.61,19.92,19.92,0,0,1-15.12,0,8.81,8.81,0,0,1-4.12-4.61,21.33,21.33,0,0,1-1.27-8Z"/><path class="cls-2" d="M1017.16,337.39a16.36,16.36,0,0,1-7.35-1.52,17.35,17.35,0,0,1-5.18-3.82l4.73-4.78a10.64,10.64,0,0,0,8.27,3.78,6,6,0,0,0,3.93-1.08,3.61,3.61,0,0,0,1.27-2.89,4.08,4.08,0,0,0-.31-1.63,2.6,2.6,0,0,0-1.13-1.23,6.09,6.09,0,0,0-2.39-.68l-3.26-.43a16.25,16.25,0,0,1-5.7-1.72,8.23,8.23,0,0,1-3.33-3.31,10.18,10.18,0,0,1-1.09-4.8,9.22,9.22,0,0,1,1.49-5.22,10,10,0,0,1,4.26-3.53,15.76,15.76,0,0,1,6.64-1.27,16.74,16.74,0,0,1,6.57,1.2,14,14,0,0,1,4.87,3.43l-4.77,4.82a9.62,9.62,0,0,0-2.87-2.24,9,9,0,0,0-4.23-.88,6.23,6.23,0,0,0-3.59.85,2.76,2.76,0,0,0-1.18,2.37,3.69,3.69,0,0,0,.4,1.84,2.63,2.63,0,0,0,1.28,1.09,10.29,10.29,0,0,0,2.24.61l3.27.52a17,17,0,0,1,5.62,1.75,8.2,8.2,0,0,1,3.31,3.21,10,10,0,0,1,1.09,4.83,10.38,10.38,0,0,1-1.49,5.57,10.1,10.1,0,0,1-4.38,3.79A16.22,16.22,0,0,1,1017.16,337.39Z"/><line class="cls-4" x1="907.93" y1="459.98" x2="949.22" y2="459.98"/><line class="cls-4" x1="907.93" y1="471.22" x2="944.92" y2="471.22"/><line class="cls-5" x1="1023.21" y1="459.98" x2="1060.2" y2="459.98"/><rect x="907.93" y="487.82" width="12.55" height="12.55" rx="6.27"/><rect x="926.42" y="487.82" width="12.55" height="12.55" rx="6.27"/><rect x="944.92" y="487.82" width="12.55" height="12.55" rx="6.27"/><rect class="cls-6" x="907.93" y="520.45" width="152.27" height="26.3"/><path class="cls-2" d="M244.08,1112.28V561.34H179.23V418.83h942.82V561.34h-57.19v550.94h-98.6V561.34H334.8v550.94Zm90.72-432.9h20.14V897.26H334.8v22H966.26V899.7h-19.4V676.94h19.4v-20.8H334.8ZM437.46,1113v-82.87h202.3V1113H663v-82.87H864V1113h23.52v-85.11h27v-24.64H385.94v26.88h26.88V1113ZM572.77,515.39V462.26H561.2v21.16H541V462.26H529.39v53.13H541V493.62H561.2v21.77Zm44.15-53.13H602.61L585.1,515.39h11.72l3.81-12.64h17.73l3.81,12.64h12Zm-13.55,30.67,3.27-11,2.59-9.14h.38l2.66,9.14,3.28,11Zm75,12.18H658.09V462.26H646.52v53.13h31.82Zm44.38-42.85H682.38v10.27h14.38v42.86h11.57V472.53h14.39Zm49,42.85H747.15V493.62h21.08v-10.2H747.15V472.53h24.58V462.26H735.58v53.13h36.15Z"/><rect class="cls-3" x="385.94" y="681.06" width="248.25" height="216.2"/><rect class="cls-3" x="666.27" y="681.06" width="248.25" height="216.2"/><rect x="385.94" y="681.06" width="248.25" height="86.14"/><rect class="cls-6" x="385.94" y="767.2" width="248.25" height="53.36"/><rect class="cls-6" x="666.27" y="680.78" width="248.25" height="26.68"/><rect class="cls-6" x="666.27" y="781.53" width="248.25" height="26.68"/><rect class="cls-6" x="678.75" y="815.1" width="109.5" height="26.68"/><rect class="cls-6" x="794.9" y="815.1" width="109.5" height="26.68"/><rect class="cls-6" x="678.75" y="847.67" width="109.5" height="26.68"/><rect class="cls-6" x="794.9" y="847.67" width="109.5" height="26.68"/><rect class="cls-6" x="678.75" y="713.41" width="109.5" height="26.68"/><rect class="cls-6" x="794.9" y="713.41" width="109.5" height="26.68"/><rect class="cls-6" x="678.75" y="746.94" width="109.5" height="26.68"/><rect class="cls-6" x="794.9" y="746.94" width="109.5" height="26.68"/><rect class="cls-6" x="385.94" y="885.22" width="248.25" height="12.03"/><rect class="cls-6" x="666.27" y="885.22" width="248.25" height="12.03"/><rect class="cls-3" x="475.85" y="694.43" width="64.64" height="64.64" rx="8.5"/><path d="M527.29,712.28h-1.95v-5.7a1.61,1.61,0,0,0-1.05-1.43s-5.43-1.76-16.12-1.76-16.12,1.76-16.12,1.76a1.61,1.61,0,0,0-1.05,1.43v5.7h-2a1.09,1.09,0,0,0-1.1,1.09v8.35a1.1,1.1,0,0,0,1.1,1.1h2v19.61a1.09,1.09,0,0,0,1.1,1.09h2.41V747a1.27,1.27,0,0,0,1.36,1.14h2.52a1.26,1.26,0,0,0,1.35-1.14v-3.45h17.08V747a1.26,1.26,0,0,0,1.35,1.14h2.52a1.27,1.27,0,0,0,1.36-1.14v-3.45h2.18a1.1,1.1,0,0,0,1.11-1.09V723.36h0v-.53h1.95a1.11,1.11,0,0,0,1.11-1.1v-8.35a1.1,1.1,0,0,0-1.11-1.09m-31.22,25.86a2.3,2.3,0,1,1,2.33-2.3,2.32,2.32,0,0,1-2.33,2.3m24.38,0a2.3,2.3,0,1,1,2.33-2.3,2.31,2.31,0,0,1-2.33,2.3m2.76-17.71v8.23a2.23,2.23,0,0,1-1.69,2.07,86.06,86.06,0,0,1-13.35,1,85,85,0,0,1-13.35-1,2.21,2.21,0,0,1-1.7-2.06V711.49a2.24,2.24,0,0,1,1.7-2.07,83,83,0,0,1,13.17-1,90.1,90.1,0,0,1,13.53,1,2.2,2.2,0,0,1,1.69,2.06Z"/><line class="cls-4" x1="695.68" y1="690.96" x2="755.2" y2="690.96"/><line class="cls-4" x1="695.68" y1="698.61" x2="755.2" y2="698.61"/><rect x="678.75" y="689.32" width="10.29" height="10.29" rx="5.14"/><line class="cls-4" x1="695.68" y1="790.37" x2="755.2" y2="790.37"/><line class="cls-4" x1="695.68" y1="798.02" x2="755.2" y2="798.02"/><line class="cls-4" x1="403.39" y1="839.64" x2="462.91" y2="839.64"/><line class="cls-4" x1="403.39" y1="847.3" x2="462.91" y2="847.3"/><line class="cls-4" x1="403.39" y1="858.61" x2="462.91" y2="858.61"/><line class="cls-4" x1="403.39" y1="866.26" x2="462.91" y2="866.26"/><line class="cls-4" x1="537.96" y1="837.95" x2="597.49" y2="837.95"/><line class="cls-4" x1="537.96" y1="845.61" x2="597.49" y2="845.61"/><line class="cls-4" x1="451.81" y1="790.05" x2="564.52" y2="790.05"/><line class="cls-4" x1="451.81" y1="804.54" x2="564.52" y2="804.54"/><rect x="678.75" y="788.73" width="10.29" height="10.29" rx="5.14"/></g></g></svg>