<svg xmlns="http://www.w3.org/2000/svg" viewBox="0 0 197.04 693.45"><defs><style>.cls-1{fill:#1a91cc;}.cls-2{fill:#fff;}.cls-3{fill:#afc9d3;}.cls-4,.cls-5{fill:none;stroke:#000;stroke-miterlimit:10;}.cls-4{stroke-width:2px;}</style></defs><g id="Layer_2" data-name="Layer 2"><g id="Layer_1-2" data-name="Layer 1"><rect class="cls-1" x="40.3" width="28" height="693.45"/><polygon class="cls-1" points="68.3 0 197.04 0 197.04 255.43 68.3 255.43 68.3 245.53 75.5 245.53 75.5 140.1 68.3 140.1 68.3 124.78 75.5 124.78 75.5 10.43 68.3 10.43 68.3 0"/><rect class="cls-1" y="439.68" width="108.6" height="161.01"/><path class="cls-2" d="M116.65,44.11a5.5,5.5,0,1,1-5.5-5.51A5.5,5.5,0,0,1,116.65,44.11Zm-5.5-3.83a3.65,3.65,0,1,0,3.65,3.65A3.64,3.64,0,0,0,111.15,40.28Z"/><path class="cls-2" d="M161.92,44.11a5.51,5.51,0,1,1-5.51-5.51A5.51,5.51,0,0,1,161.92,44.11Zm-5.51-3.83a3.65,3.65,0,1,0,3.65,3.65A3.64,3.64,0,0,0,156.41,40.28Z"/><path class="cls-2" d="M100.92,23.2h72.59l2.88,9.74V44.11H163.62a6.86,6.86,0,0,0-6.86-6.86h-.64a6.86,6.86,0,0,0-6.86,6.86H117.83v-.8a6.7,6.7,0,0,0-6.7-6.7h0a6.7,6.7,0,0,0-6.7,6.7v.8H97.57V36.77Zm59.14,2.66V33.2h13.29l-2-7.34Zm-13,0V33.2h11.17V25.86Zm-12.65,0V33.2h11.06V25.86Zm-13.73,0V33.2h12.13V25.86Zm-12.55,0V33.2h11.07V25.86Zm-5.53,0L101,33.2h6V25.86Z"/><rect class="cls-2" x="80.98" y="105.97" width="109.02" height="14.42"/><rect class="cls-3" x="81.23" y="120.63" width="35.03" height="40.95"/><path class="cls-2" d="M116,120.88v40.44H81.48V120.88H116m.5-.5H81v41.44H116.5V120.38Z"/><rect class="cls-3" x="116.75" y="120.63" width="36.23" height="40.95"/><path class="cls-2" d="M152.73,120.88v40.44H117V120.88h35.73m.5-.5H116.5v41.44h36.73V120.38Z"/><rect class="cls-3" x="153.48" y="120.65" width="36.23" height="40.95"/><path class="cls-2" d="M189.46,120.9v40.45H153.73V120.9h35.73m.5-.5H153.23v41.45H190V120.4Z"/><rect class="cls-3" x="81.23" y="162.1" width="35.03" height="40.95"/><path class="cls-2" d="M116,162.35v40.44H81.48V162.35H116m.5-.5H81v41.44H116.5V161.85Z"/><rect class="cls-3" x="116.75" y="162.1" width="36.23" height="40.95"/><path class="cls-2" d="M152.73,162.35v40.44H117V162.35h35.73m.5-.5H116.5v41.44h36.73V161.85Z"/><rect class="cls-3" x="153.48" y="162.12" width="36.23" height="40.95"/><path class="cls-2" d="M189.46,162.37v40.45H153.73V162.37h35.73m.5-.5H153.23v41.45H190V161.87Z"/><rect class="cls-3" x="81.23" y="203.61" width="35.03" height="40.95"/><path class="cls-2" d="M116,203.86v40.45H81.48V203.86H116m.5-.5H81v41.45H116.5V203.36Z"/><rect class="cls-3" x="116.75" y="203.61" width="36.23" height="40.95"/><path class="cls-2" d="M152.73,203.86v40.45H117V203.86h35.73m.5-.5H116.5v41.45h36.73V203.36Z"/><rect class="cls-3" x="153.48" y="203.63" width="36.23" height="40.95"/><path class="cls-2" d="M189.46,203.88v40.45H153.73V203.88h35.73m.5-.5H153.23v41.45H190V203.38Z"/><rect class="cls-2" x="7.76" y="446.96" width="92.51" height="145.49"/><line class="cls-4" x1="19.29" y1="456.32" x2="38.56" y2="456.32"/><line class="cls-4" x1="19.29" y1="461.57" x2="36.55" y2="461.57"/><line class="cls-5" x1="73.09" y1="456.32" x2="90.35" y2="456.32"/><rect x="19.29" y="469.32" width="5.86" height="5.86" rx="2.93"/><rect x="27.92" y="469.32" width="5.86" height="5.86" rx="2.93"/><rect x="36.55" y="469.32" width="5.86" height="5.86" rx="2.93"/><rect class="cls-3" x="19.29" y="484.54" width="71.06" height="26.84"/><rect class="cls-3" x="19.29" y="517.63" width="71.06" height="26.84"/><rect class="cls-3" x="19.29" y="550.72" width="71.06" height="26.84"/><path class="cls-1" d="M28.93,439.68H79.11a19.46,19.46,0,0,0-19.46-19.46H48.39a19.46,19.46,0,0,0-19.46,19.46Z"/></g></g></svg>