<svg xmlns="http://www.w3.org/2000/svg" viewBox="0 0 1275.59 1275.59"><defs><style>.cls-1{fill:#d8ecf6;}.cls-2{fill:#1a91cc;}.cls-3{fill:#fff;}.cls-4,.cls-5{fill:none;stroke:#000;stroke-miterlimit:10;}.cls-4{stroke-width:2px;}.cls-6{fill:#afc9d3;}</style></defs><g id="Layer_2" data-name="Layer 2"><g id="Layer_1-2" data-name="Layer 1"><rect class="cls-1" x="30" y="30" width="1215.59" height="1215.59" rx="140.08"/><path class="cls-2" d="M1105.51,60a110.07,110.07,0,0,1,110.08,110.08v935.43a110.07,110.07,0,0,1-110.08,110.08H170.08A110.07,110.07,0,0,1,60,1105.51V170.08A110.07,110.07,0,0,1,170.08,60h935.43m0-60H170.08A170.08,170.08,0,0,0,0,170.08v935.43a170.08,170.08,0,0,0,170.08,170.08h935.43a170.08,170.08,0,0,0,170.08-170.08V170.08A170.08,170.08,0,0,0,1105.51,0Z"/><path class="cls-2" d="M323.41,1242V261.66H952.19V1242ZM860.12,837.33H413.51v73.38H860.12Z"/><rect class="cls-3" x="413.51" y="329.4" width="446.6" height="446.6"/><rect class="cls-3" x="413.51" y="974.33" width="446.6" height="240.68"/><path class="cls-2" d="M754.77,413.71h-12V378.58a10,10,0,0,0-6.48-8.87s-33.5-10.87-99.44-10.87-99.43,10.87-99.43,10.87a10,10,0,0,0-6.48,8.87v35.13h-12a6.81,6.81,0,0,0-6.83,6.74V472a6.79,6.79,0,0,0,6.83,6.73h12v121a6.8,6.8,0,0,0,6.83,6.73h14.86v21.31c0,3.86,3.76,7,8.35,7h15.54c4.59,0,8.35-3.15,8.35-7V606.37H690.18v21.31c0,3.86,3.76,7,8.35,7h15.53c4.6,0,8.36-3.15,8.36-7V606.37H735.9a6.8,6.8,0,0,0,6.83-6.73v-121h12A6.79,6.79,0,0,0,761.6,472v-51.5a6.81,6.81,0,0,0-6.83-6.74M562.18,573.21A14.18,14.18,0,1,1,576.58,559a14.29,14.29,0,0,1-14.4,14.18m150.39,0A14.18,14.18,0,1,1,727,559a14.28,14.28,0,0,1-14.39,14.18M729.6,464v50.77a13.77,13.77,0,0,1-10.46,12.79s-34.32,5.93-82.33,5.93-82.32-6-82.32-6A13.67,13.67,0,0,1,544,514.73V408.82A13.77,13.77,0,0,1,554.48,396s33.23-5.93,81.24-5.93,83.42,6,83.42,6a13.67,13.67,0,0,1,10.46,12.72Z"/><path class="cls-2" d="M532.4,742.06V667.73h36.1q9.15,0,14.38,5.21t5.22,13.85a19.19,19.19,0,0,1-1.87,9.1,11.61,11.61,0,0,1-5,5.06,17.16,17.16,0,0,1-7,1.81v.64a17.51,17.51,0,0,1,5.54,1,18,18,0,0,1,5.43,3,14.83,14.83,0,0,1,4.15,5.38,18.77,18.77,0,0,1,1.6,8.15,22.66,22.66,0,0,1-2.5,10.65,20.41,20.41,0,0,1-6.82,7.67,17.39,17.39,0,0,1-9.85,2.87Zm16.19-60.7v16.82h16.08a8,8,0,0,0,3.67-.79,5.37,5.37,0,0,0,2.34-2.35,7.92,7.92,0,0,0,.8-3.67v-3.2a7.92,7.92,0,0,0-.8-3.67,5.3,5.3,0,0,0-2.34-2.34,7.82,7.82,0,0,0-3.67-.8Zm0,30v17h18.63a7.89,7.89,0,0,0,3.67-.8,5.64,5.64,0,0,0,2.4-2.29,7.16,7.16,0,0,0,.85-3.62V718.1a7.16,7.16,0,0,0-.85-3.62,5.7,5.7,0,0,0-2.4-2.29,7.89,7.89,0,0,0-3.67-.8Z"/><path class="cls-2" d="M609.93,667.73h15.76v45.58A24.34,24.34,0,0,0,627,722a10,10,0,0,0,4.31,5.21,15.12,15.12,0,0,0,7.78,1.76,14.83,14.83,0,0,0,7.72-1.76,10.35,10.35,0,0,0,4.31-5.21,23.61,23.61,0,0,0,1.38-8.68V667.73h15.77V711.6q0,11-2.88,18A19.73,19.73,0,0,1,656.14,740q-6.39,3.35-17,3.35t-17-3.35a19.77,19.77,0,0,1-9.27-10.39q-2.88-7-2.87-18Z"/><path class="cls-2" d="M715.25,743.34a37,37,0,0,1-16.56-3.41A39.27,39.27,0,0,1,687,731.31l10.65-10.76a24,24,0,0,0,18.63,8.52q6,0,8.84-2.45a8.1,8.1,0,0,0,2.88-6.5,9.45,9.45,0,0,0-.69-3.67,6,6,0,0,0-2.56-2.77,13.77,13.77,0,0,0-5.38-1.54l-7.35-1a36.52,36.52,0,0,1-12.83-3.89,18.35,18.35,0,0,1-7.51-7.46,22.79,22.79,0,0,1-2.45-10.8,20.76,20.76,0,0,1,3.36-11.77,22.45,22.45,0,0,1,9.58-7.94,35.63,35.63,0,0,1,15-2.87,37.61,37.61,0,0,1,14.8,2.71,31.29,31.29,0,0,1,11,7.72l-10.76,10.87a21.43,21.43,0,0,0-6.44-5.06,20.56,20.56,0,0,0-9.53-2q-5.43,0-8.1,1.92a6.19,6.19,0,0,0-2.66,5.32,8.26,8.26,0,0,0,.91,4.15,5.74,5.74,0,0,0,2.87,2.45,22.75,22.75,0,0,0,5.06,1.39l7.35,1.17a38,38,0,0,1,12.67,3.94,18.42,18.42,0,0,1,7.46,7.24,22.37,22.37,0,0,1,2.45,10.86,23.4,23.4,0,0,1-3.36,12.57,22.65,22.65,0,0,1-9.85,8.52A36.45,36.45,0,0,1,715.25,743.34Z"/><line class="cls-4" x1="469.17" y1="1019.53" x2="562.18" y2="1019.53"/><line class="cls-4" x1="469.17" y1="1044.85" x2="552.5" y2="1044.85"/><line class="cls-5" x1="728.88" y1="1019.53" x2="812.22" y2="1019.53"/><rect x="469.17" y="1082.25" width="28.27" height="28.27" rx="14.13"/><rect x="510.83" y="1082.25" width="28.27" height="28.27" rx="14.13"/><rect x="552.5" y="1082.25" width="28.27" height="28.27" rx="14.13"/><rect class="cls-6" x="469.17" y="1155.76" width="343.05" height="59.25"/></g></g></svg>