<svg xmlns="http://www.w3.org/2000/svg" viewBox="0 0 228.79 693.45"><defs><style>.cls-1{fill:#1a91cc;}.cls-2{fill:#fff;}.cls-3,.cls-4{fill:none;stroke:#000;stroke-miterlimit:10;}.cls-3{stroke-width:2px;}.cls-5{fill:#afc9d3;}</style></defs><g id="Layer_2" data-name="Layer 2"><g id="Layer_1-2" data-name="Layer 1"><path class="cls-1" d="M0,693.45V0H228.79V693.45h-33.5v-51.3H32.79v51.3ZM195.29,200.38H32.79v38.7h162.5Z"/><rect class="cls-2" x="32.79" y="20.65" width="162.5" height="162.5"/><rect class="cls-2" x="32.79" y="257.14" width="162.5" height="353.95"/><path class="cls-1" d="M157,51.33h-4.37V38.55a3.66,3.66,0,0,0-2.36-3.23S138,31.37,114,31.37s-36.18,3.95-36.18,3.95a3.65,3.65,0,0,0-2.36,3.23V51.33H71.12a2.48,2.48,0,0,0-2.49,2.46V72.52A2.48,2.48,0,0,0,71.12,75H75.5v44A2.47,2.47,0,0,0,78,121.43h5.41v7.76a2.84,2.84,0,0,0,3,2.55h5.65a2.84,2.84,0,0,0,3-2.55v-7.76h38.33v7.76a2.84,2.84,0,0,0,3,2.55h5.65a2.84,2.84,0,0,0,3.05-2.55v-7.76h4.9a2.48,2.48,0,0,0,2.49-2.45V75H157a2.48,2.48,0,0,0,2.49-2.45V53.79A2.48,2.48,0,0,0,157,51.33m-70.07,58a5.16,5.16,0,1,1,5.24-5.16,5.2,5.2,0,0,1-5.24,5.16m54.72,0a5.16,5.16,0,1,1,5.24-5.16,5.2,5.2,0,0,1-5.24,5.16m6.2-39.75V88.09A5,5,0,0,1,144,92.74,194.37,194.37,0,0,1,114,94.9a192.69,192.69,0,0,1-30-2.18,5,5,0,0,1-3.81-4.63V49.55a5,5,0,0,1,3.81-4.65,186.48,186.48,0,0,1,29.56-2.15A201.6,201.6,0,0,1,144,44.93a5,5,0,0,1,3.81,4.62Z"/><line class="cls-3" x1="53.04" y1="273.58" x2="86.88" y2="273.58"/><line class="cls-3" x1="53.04" y1="282.8" x2="83.36" y2="282.8"/><line class="cls-4" x1="147.54" y1="273.58" x2="177.86" y2="273.58"/><rect x="53.04" y="296.4" width="10.29" height="10.29" rx="5.14"/><rect x="68.2" y="296.4" width="10.29" height="10.29" rx="5.14"/><rect x="83.36" y="296.4" width="10.29" height="10.29" rx="5.14"/><rect class="cls-5" x="53.04" y="323.15" width="124.82" height="47.14"/><rect class="cls-5" x="53.04" y="382.72" width="124.82" height="47.14"/><rect class="cls-5" x="53.04" y="442.3" width="124.82" height="47.14"/><rect class="cls-5" x="53.04" y="501.87" width="124.82" height="47.14"/><rect class="cls-5" x="32.79" y="563.94" width="162.5" height="47.14"/></g></g></svg>