<svg xmlns="http://www.w3.org/2000/svg" viewBox="0 0 1275.59 1275.59"><defs><style>.cls-1{fill:#d8ecf6;}.cls-2{fill:#1a91cc;}.cls-3{fill:#fff;}.cls-4{fill:#afc9d3;}</style></defs><g id="Layer_2" data-name="Layer 2"><g id="Layer_1-2" data-name="Layer 1"><rect class="cls-1" x="30" y="30" width="1215.59" height="1215.59" rx="140.08"/><path class="cls-2" d="M1105.51,60a110.07,110.07,0,0,1,110.08,110.08v935.43a110.07,110.07,0,0,1-110.08,110.08H170.08A110.07,110.07,0,0,1,60,1105.51V170.08A110.07,110.07,0,0,1,170.08,60h935.43m0-60H170.08A170.08,170.08,0,0,0,0,170.08v935.43a170.08,170.08,0,0,0,170.08,170.08h935.43a170.08,170.08,0,0,0,170.08-170.08V170.08A170.08,170.08,0,0,0,1105.51,0Z"/><rect class="cls-2" x="398.86" y="261.63" width="85.36" height="953.03"/><polygon class="cls-2" points="484.22 261.63 876.73 261.63 876.73 1040.39 484.22 1040.39 484.22 1010.2 506.18 1010.2 506.18 688.76 484.22 688.76 484.22 642.07 506.18 642.07 506.18 293.43 484.22 293.43 484.22 261.63"/><path class="cls-3" d="M590.92,531V459.38h34.76q8.82,0,13.84,5t5,13.33a18.61,18.61,0,0,1-1.79,8.77,11.2,11.2,0,0,1-4.82,4.86,16.67,16.67,0,0,1-6.72,1.75v.61a16.78,16.78,0,0,1,5.34.93,17,17,0,0,1,5.22,2.87,14.27,14.27,0,0,1,4,5.17,18.1,18.1,0,0,1,1.54,7.85,21.74,21.74,0,0,1-2.41,10.25,19.45,19.45,0,0,1-6.56,7.38,16.67,16.67,0,0,1-9.48,2.77Zm15.58-58.44v16.2H622a7.63,7.63,0,0,0,3.53-.77,5.09,5.09,0,0,0,2.26-2.26,7.63,7.63,0,0,0,.77-3.53v-3.08a7.67,7.67,0,0,0-.77-3.54,5.12,5.12,0,0,0-2.26-2.25,7.5,7.5,0,0,0-3.53-.77Zm0,28.91v16.41h18a7.63,7.63,0,0,0,3.53-.77,5.57,5.57,0,0,0,2.31-2.2,6.91,6.91,0,0,0,.82-3.49v-3.49a6.87,6.87,0,0,0-.82-3.48,5.53,5.53,0,0,0-2.31-2.21,7.63,7.63,0,0,0-3.53-.77Z"/><path class="cls-3" d="M665.56,459.38h15.18v43.89a23.37,23.37,0,0,0,1.28,8.36,9.64,9.64,0,0,0,4.15,5,14.63,14.63,0,0,0,7.49,1.69,14.32,14.32,0,0,0,7.43-1.69,10,10,0,0,0,4.15-5,22.63,22.63,0,0,0,1.34-8.36V459.38h15.17v42.25q0,10.56-2.76,17.33a19,19,0,0,1-8.93,10q-6.15,3.24-16.4,3.23T677.25,529a19,19,0,0,1-8.92-10q-2.76-6.76-2.77-17.33Z"/><path class="cls-3" d="M767,532.18a35.56,35.56,0,0,1-16-3.28,37.68,37.68,0,0,1-11.22-8.3l10.25-10.36a23.15,23.15,0,0,0,17.94,8.2q5.75,0,8.51-2.35a7.81,7.81,0,0,0,2.77-6.26,9.15,9.15,0,0,0-.66-3.54,5.8,5.8,0,0,0-2.47-2.66,13.4,13.4,0,0,0-5.17-1.49l-7.08-.92a35,35,0,0,1-12.35-3.74,17.67,17.67,0,0,1-7.23-7.18A22,22,0,0,1,742,479.89a20,20,0,0,1,3.23-11.33,21.66,21.66,0,0,1,9.23-7.64,34.22,34.22,0,0,1,14.4-2.77,36.31,36.31,0,0,1,14.26,2.62,30.07,30.07,0,0,1,10.56,7.43l-10.36,10.46a21,21,0,0,0-6.2-4.87,19.83,19.83,0,0,0-9.18-1.9q-5.24,0-7.79,1.85a6,6,0,0,0-2.56,5.13,8.1,8.1,0,0,0,.86,4,5.64,5.64,0,0,0,2.77,2.35,22.19,22.19,0,0,0,4.87,1.34l7.08,1.12a36.77,36.77,0,0,1,12.2,3.8,17.69,17.69,0,0,1,7.18,7,21.53,21.53,0,0,1,2.36,10.46,22.59,22.59,0,0,1-3.23,12.1,21.85,21.85,0,0,1-9.49,8.2A35.17,35.17,0,0,1,767,532.18Z"/><path class="cls-3" d="M631.65,396.1a16.79,16.79,0,1,1-16.79-16.78A16.79,16.79,0,0,1,631.65,396.1Zm-16.79-11.68A11.13,11.13,0,1,0,626,395.55,11.13,11.13,0,0,0,614.86,384.42Z"/><path class="cls-3" d="M769.65,396.1a16.78,16.78,0,1,1-16.78-16.78A16.78,16.78,0,0,1,769.65,396.1Zm-16.78-11.68A11.13,11.13,0,1,0,764,395.55,11.13,11.13,0,0,0,752.87,384.42Z"/><path class="cls-3" d="M583.68,332.38H805l8.76,29.67V396.1H774.84a20.92,20.92,0,0,0-20.91-20.92H752a20.92,20.92,0,0,0-20.92,20.92H635.24v-2.43a20.43,20.43,0,0,0-20.43-20.43h0a20.43,20.43,0,0,0-20.43,20.43v2.43H573.46V373.72ZM764,340.48v22.38h40.51l-6.16-22.38Zm-39.58,0v22.38h34.05V340.48Zm-38.59,0v22.38h33.72V340.48Zm-41.83,0v22.38h37V340.48Zm-38.27,0v22.38h33.73V340.48Zm-16.86,0L584,362.86h18.22V340.48Z"/><rect class="cls-3" x="522.87" y="584.72" width="332.38" height="43.97"/><rect class="cls-4" x="523.12" y="628.89" width="107.81" height="125.86"/><path class="cls-3" d="M630.68,629.14V754.5H523.37V629.14H630.68m.5-.5H522.87V755H631.18V628.64Z"/><rect class="cls-4" x="631.43" y="628.89" width="111.48" height="125.86"/><path class="cls-3" d="M742.67,629.14V754.5h-111V629.14h111m.5-.5h-112V755h112V628.64Z"/><rect class="cls-4" x="743.42" y="628.95" width="111.48" height="125.86"/><path class="cls-3" d="M854.65,629.2V754.57h-111V629.2h111m.5-.5h-112V755.07h112V628.7Z"/><rect class="cls-4" x="523.12" y="755.32" width="107.81" height="125.86"/><path class="cls-3" d="M630.68,755.57V880.93H523.37V755.57H630.68m.5-.5H522.87V881.43H631.18V755.07Z"/><rect class="cls-4" x="631.43" y="755.32" width="111.48" height="125.86"/><path class="cls-3" d="M742.67,755.57V880.93h-111V755.57h111m.5-.5h-112V881.43h112V755.07Z"/><rect class="cls-4" x="743.42" y="755.38" width="111.48" height="125.86"/><path class="cls-3" d="M854.65,755.63V881h-111V755.63h111m.5-.5h-112V881.5h112V755.13Z"/><rect class="cls-4" x="523.12" y="881.88" width="107.81" height="125.86"/><path class="cls-3" d="M630.68,882.13v125.36H523.37V882.13H630.68m.5-.5H522.87V1008H631.18V881.63Z"/><rect class="cls-4" x="631.43" y="881.88" width="111.48" height="125.86"/><path class="cls-3" d="M742.67,882.13v125.36h-111V882.13h111m.5-.5h-112V1008h112V881.63Z"/><rect class="cls-4" x="743.42" y="881.95" width="111.48" height="125.86"/><path class="cls-3" d="M854.65,882.2v125.36h-111V882.2h111m.5-.5h-112v126.36h112V881.7Z"/></g></g></svg>