<svg xmlns="http://www.w3.org/2000/svg" viewBox="0 0 1265.75 694.2"><defs><style>.cls-1{fill:#1a91cc;}.cls-2{fill:#fff;}.cls-3{fill:#afc9d3;}.cls-4,.cls-5{fill:none;stroke:#000;stroke-miterlimit:10;}.cls-4{stroke-width:2px;}</style></defs><g id="Layer_2" data-name="Layer 2"><g id="Layer_1-2" data-name="Layer 1"><path class="cls-1" d="M64.86,693.45V142.51H0V0H942.82V142.51H885.63V693.45H787V142.51H155.57V693.45Zm90.71-432.9h20.15V478.43H155.57v22H787V480.87h-19.4V258.11H787v-20.8H155.57ZM258.23,694.2V611.33H460.54V694.2h23.24V611.33h201V694.2H708.3V609.09h27V584.45H206.72v26.88h26.87V694.2ZM393.54,96.56V43.43H382V64.59H361.73V43.43H350.16V96.56h11.57V74.79H382V96.56Zm44.15-53.13H423.38L405.87,96.56H417.6l3.8-12.64h17.74l3.8,12.64h12ZM424.14,74.1l3.27-11L430,53.93h.38l2.67,9.14,3.27,11Zm75,12.18H478.87V43.43H467.3V96.56h31.81Zm44.38-42.85H503.15V53.7h14.38V96.56H529.1V53.7h14.39Zm49,42.85H567.92V74.79H589V64.59H567.92V53.7h24.59V43.43H556.35V96.56h36.16Z"/><rect class="cls-2" x="206.72" y="262.23" width="248.25" height="216.2"/><rect class="cls-2" x="487.04" y="262.23" width="248.25" height="216.2"/><rect x="206.72" y="262.23" width="248.25" height="86.14"/><rect class="cls-3" x="206.72" y="348.37" width="248.25" height="53.36"/><rect class="cls-3" x="487.04" y="261.95" width="248.25" height="26.68"/><rect class="cls-3" x="487.04" y="362.7" width="248.25" height="26.68"/><rect class="cls-3" x="499.53" y="396.27" width="109.5" height="26.68"/><rect class="cls-3" x="615.67" y="396.27" width="109.5" height="26.68"/><rect class="cls-3" x="499.53" y="428.84" width="109.5" height="26.68"/><rect class="cls-3" x="615.67" y="428.84" width="109.5" height="26.68"/><rect class="cls-3" x="499.53" y="294.58" width="109.5" height="26.68"/><rect class="cls-3" x="615.67" y="294.58" width="109.5" height="26.68"/><rect class="cls-3" x="499.53" y="328.11" width="109.5" height="26.68"/><rect class="cls-3" x="615.67" y="328.11" width="109.5" height="26.68"/><rect class="cls-3" x="206.72" y="466.39" width="248.25" height="12.03"/><rect class="cls-3" x="487.04" y="466.39" width="248.25" height="12.03"/><rect class="cls-2" x="296.62" y="275.6" width="64.64" height="64.64" rx="8.5"/><path d="M348.07,293.45h-2v-5.7a1.61,1.61,0,0,0-1.05-1.43s-5.43-1.77-16.12-1.77-16.12,1.77-16.12,1.77a1.61,1.61,0,0,0-1.05,1.43v5.7h-1.95a1.1,1.1,0,0,0-1.11,1.09v8.35a1.11,1.11,0,0,0,1.11,1.1h1.95V323.6a1.1,1.1,0,0,0,1.11,1.09h2.41v3.45a1.26,1.26,0,0,0,1.35,1.14h2.52a1.26,1.26,0,0,0,1.35-1.14v-3.45h17.08v3.45a1.27,1.27,0,0,0,1.36,1.14h2.51a1.27,1.27,0,0,0,1.36-1.14v-3.45H345a1.1,1.1,0,0,0,1.1-1.09V304.53h0V304h2a1.11,1.11,0,0,0,1.1-1.1v-8.35a1.1,1.1,0,0,0-1.1-1.09m-31.23,25.86a2.3,2.3,0,1,1,2.33-2.3,2.31,2.31,0,0,1-2.33,2.3m24.38,0a2.3,2.3,0,1,1,2.34-2.3,2.31,2.31,0,0,1-2.34,2.3M344,301.6v8.23a2.24,2.24,0,0,1-1.7,2.07,86.93,86.93,0,0,1-13.35,1,86.06,86.06,0,0,1-13.35-1,2.2,2.2,0,0,1-1.69-2.06V292.66a2.23,2.23,0,0,1,1.69-2.07,82.13,82.13,0,0,1,13.17-1,89,89,0,0,1,13.53,1,2.21,2.21,0,0,1,1.7,2.06Z"/><line class="cls-4" x1="516.45" y1="272.12" x2="575.97" y2="272.12"/><line class="cls-4" x1="516.45" y1="279.78" x2="575.97" y2="279.78"/><rect x="499.53" y="270.49" width="10.29" height="10.29" rx="5.14"/><line class="cls-4" x1="516.45" y1="371.54" x2="575.97" y2="371.54"/><line class="cls-4" x1="516.45" y1="379.19" x2="575.97" y2="379.19"/><line class="cls-4" x1="224.16" y1="420.81" x2="283.69" y2="420.81"/><line class="cls-4" x1="224.16" y1="428.47" x2="283.69" y2="428.47"/><line class="cls-4" x1="224.16" y1="439.78" x2="283.69" y2="439.78"/><line class="cls-4" x1="224.16" y1="447.43" x2="283.69" y2="447.43"/><line class="cls-4" x1="358.73" y1="419.12" x2="418.26" y2="419.12"/><line class="cls-4" x1="358.73" y1="426.78" x2="418.26" y2="426.78"/><line class="cls-4" x1="272.59" y1="371.22" x2="385.29" y2="371.22"/><line class="cls-4" x1="272.59" y1="385.71" x2="385.29" y2="385.71"/><rect x="499.53" y="369.9" width="10.29" height="10.29" rx="5.14"/><rect class="cls-1" x="1109" width="28" height="693.45"/><polygon class="cls-1" points="1137 0 1265.75 0 1265.75 255.43 1137 255.43 1137 245.53 1144.2 245.53 1144.2 140.1 1137 140.1 1137 124.78 1144.2 124.78 1144.2 10.43 1137 10.43 1137 0"/><rect class="cls-1" x="1068.7" y="439.68" width="108.6" height="161.01"/><path class="cls-2" d="M1185.36,44.11a5.51,5.51,0,1,1-5.51-5.51A5.51,5.51,0,0,1,1185.36,44.11Zm-5.51-3.83a3.65,3.65,0,1,0,3.65,3.65A3.65,3.65,0,0,0,1179.85,40.28Z"/><path class="cls-2" d="M1230.62,44.11a5.51,5.51,0,1,1-5.5-5.51A5.5,5.5,0,0,1,1230.62,44.11Zm-5.5-3.83a3.65,3.65,0,1,0,3.65,3.65A3.64,3.64,0,0,0,1225.12,40.28Z"/><path class="cls-2" d="M1169.62,23.2h72.6l2.87,9.74V44.11h-12.76a6.87,6.87,0,0,0-6.86-6.86h-.64A6.86,6.86,0,0,0,1218,44.1h-31.43v-.8a6.7,6.7,0,0,0-6.7-6.7h0a6.7,6.7,0,0,0-6.71,6.7v.8h-6.86V36.77Zm59.15,2.66V33.2h13.29l-2-7.34Zm-13,0V33.2H1227V25.86Zm-12.66,0V33.2h11.06V25.86Zm-13.72,0V33.2h12.12V25.86Zm-12.55,0V33.2h11.06V25.86Zm-5.53,0-1.6,7.34h6V25.86Z"/><rect class="cls-2" x="1149.68" y="105.97" width="109.02" height="14.42"/><rect class="cls-3" x="1149.93" y="120.63" width="35.03" height="40.95"/><path class="cls-2" d="M1184.71,120.88v40.44h-34.53V120.88h34.53m.5-.5h-35.53v41.44h35.53V120.38Z"/><rect class="cls-3" x="1185.46" y="120.63" width="36.23" height="40.95"/><path class="cls-2" d="M1221.44,120.88v40.44h-35.73V120.88h35.73m.5-.5h-36.73v41.44h36.73V120.38Z"/><rect class="cls-3" x="1222.19" y="120.65" width="36.23" height="40.95"/><path class="cls-2" d="M1258.17,120.9v40.45h-35.73V120.9h35.73m.5-.5h-36.73v41.45h36.73V120.4Z"/><rect class="cls-3" x="1149.93" y="162.1" width="35.03" height="40.95"/><path class="cls-2" d="M1184.71,162.35v40.44h-34.53V162.35h34.53m.5-.5h-35.53v41.44h35.53V161.85Z"/><rect class="cls-3" x="1185.46" y="162.1" width="36.23" height="40.95"/><path class="cls-2" d="M1221.44,162.35v40.44h-35.73V162.35h35.73m.5-.5h-36.73v41.44h36.73V161.85Z"/><rect class="cls-3" x="1222.19" y="162.12" width="36.23" height="40.95"/><path class="cls-2" d="M1258.17,162.37v40.45h-35.73V162.37h35.73m.5-.5h-36.73v41.45h36.73V161.87Z"/><rect class="cls-3" x="1149.93" y="203.61" width="35.03" height="40.95"/><path class="cls-2" d="M1184.71,203.86v40.45h-34.53V203.86h34.53m.5-.5h-35.53v41.45h35.53V203.36Z"/><rect class="cls-3" x="1185.46" y="203.61" width="36.23" height="40.95"/><path class="cls-2" d="M1221.44,203.86v40.45h-35.73V203.86h35.73m.5-.5h-36.73v41.45h36.73V203.36Z"/><rect class="cls-3" x="1222.19" y="203.63" width="36.23" height="40.95"/><path class="cls-2" d="M1258.17,203.88v40.45h-35.73V203.88h35.73m.5-.5h-36.73v41.45h36.73V203.38Z"/><rect class="cls-2" x="1076.47" y="446.96" width="92.51" height="145.49"/><line class="cls-4" x1="1088" y1="456.32" x2="1107.26" y2="456.32"/><line class="cls-4" x1="1088" y1="461.57" x2="1105.26" y2="461.57"/><line class="cls-5" x1="1141.79" y1="456.32" x2="1159.06" y2="456.32"/><rect x="1088" y="469.32" width="5.86" height="5.86" rx="2.93"/><rect x="1096.63" y="469.32" width="5.86" height="5.86" rx="2.93"/><rect x="1105.26" y="469.32" width="5.86" height="5.86" rx="2.93"/><rect class="cls-3" x="1088" y="484.54" width="71.06" height="26.84"/><rect class="cls-3" x="1088" y="517.63" width="71.06" height="26.84"/><rect class="cls-3" x="1088" y="550.72" width="71.06" height="26.84"/><path class="cls-1" d="M1097.63,439.68h50.19a19.47,19.47,0,0,0-19.47-19.46h-11.26a19.46,19.46,0,0,0-19.46,19.46Z"/></g></g></svg>