<svg xmlns="http://www.w3.org/2000/svg" viewBox="0 0 242.12 693.51"><defs><style>.cls-1{fill:#1a91cc}.cls-2{fill:#fff}</style></defs><g id="Layer_2" data-name="Layer 2"><g id="Layer_1-2" data-name="Layer 1"><path d="M108.66 281.65h24.71v411.86h-24.71z" class="cls-1"/><rect width="241.49" height="281.59" x=".27" y=".06" class="cls-1" rx="17.27"/><rect width="214.45" height="209.8" x="13.51" y="14.56" class="cls-2" rx="10.32"/><path d="M75.1 101.08a12.44 12.44 0 1 1-12.44-12.43 12.44 12.44 0 0 1 12.44 12.43m-12.44-8.65a8.25 8.25 0 1 0 8.25 8.25 8.24 8.24 0 0 0-8.25-8.25M177.37 101.08a12.44 12.44 0 1 1-12.44-12.43 12.44 12.44 0 0 1 12.44 12.43m-12.44-8.65a8.25 8.25 0 1 0 8.25 8.25 8.24 8.24 0 0 0-8.25-8.25" class="cls-1"/><path d="M39.55 53.86h164l6.49 22v25.23h-28.82a15.5 15.5 0 0 0-15.5-15.5h-1.44a15.49 15.49 0 0 0-15.5 15.5h-71v-1.8a15.14 15.14 0 0 0-15.16-15.15 15.14 15.14 0 0 0-15.14 15.14v1.8H32V84.5Zm133.63 6v16.59h30l-4.57-16.58Zm-29.33 0v16.59h25.23V59.87Zm-28.6 0v16.59h25V59.87Zm-31 0v16.59h27.4V59.87Zm-28.36 0v16.59h25V59.87Zm-12.49 0-3.61 16.59h13.5V59.87Z" class="cls-1"/><path d="M31.98 127.79h178.08" style="fill:none;stroke:#1a91cc;stroke-miterlimit:10;stroke-width:3px"/><path d="M57.51 195.7a20.9 20.9 0 0 1-9.32-1.91 22.2 22.2 0 0 1-6.57-4.86l6-6.05a13.54 13.54 0 0 0 10.49 4.79 7.5 7.5 0 0 0 5-1.38 4.55 4.55 0 0 0 1.62-3.65 5.3 5.3 0 0 0-.39-2.07 3.35 3.35 0 0 0-1.47-1.57 7.8 7.8 0 0 0-3-.87l-4.14-.54a20.4 20.4 0 0 1-7.22-2.19 10.23 10.23 0 0 1-4.23-4.19 12.84 12.84 0 0 1-1.38-6.09 11.7 11.7 0 0 1 1.89-6.62 12.64 12.64 0 0 1 5.4-4.47 20.1 20.1 0 0 1 8.42-1.61 21.2 21.2 0 0 1 8.31 1.58 17.6 17.6 0 0 1 6.17 4.35l-6 6.11a12.3 12.3 0 0 0-3.63-2.84 11.5 11.5 0 0 0-5.36-1.11 7.8 7.8 0 0 0-4.56 1.08 3.48 3.48 0 0 0-1.5 3 4.7 4.7 0 0 0 .51 2.34 3.28 3.28 0 0 0 1.62 1.38A12.8 12.8 0 0 0 57 169l4.13.66a21.5 21.5 0 0 1 7.14 2.22 10.3 10.3 0 0 1 4.16 4.12 12.6 12.6 0 0 1 1.38 6.12 13.24 13.24 0 0 1-1.88 7.07 12.74 12.74 0 0 1-5.55 4.8 20.5 20.5 0 0 1-8.87 1.71M112.66 161.24h-11.33V195h-9.11v-33.76H80.89v-8.1h31.77ZM138.07 195.7a18.7 18.7 0 0 1-9.68-2.45A16.2 16.2 0 0 1 122 186a27.7 27.7 0 0 1-2.28-11.9 27.66 27.66 0 0 1 2.28-11.96 16.23 16.23 0 0 1 6.44-7.26 20.41 20.41 0 0 1 19.39 0 16.3 16.3 0 0 1 6.42 7.26 27.7 27.7 0 0 1 2.28 11.92A27.7 27.7 0 0 1 154.2 186a16.3 16.3 0 0 1-6.42 7.29 18.6 18.6 0 0 1-9.71 2.41m0-8.09a8.65 8.65 0 0 0 4.71-1.23 7.8 7.8 0 0 0 3-3.56 13.7 13.7 0 0 0 1-5.64V171a13.7 13.7 0 0 0-1-5.67 7.83 7.83 0 0 0-3-3.53 9.56 9.56 0 0 0-9.38 0 7.85 7.85 0 0 0-3 3.53 13.7 13.7 0 0 0-1.05 5.67v6.23a13.7 13.7 0 0 0 1.05 5.64 7.83 7.83 0 0 0 3 3.56 8.65 8.65 0 0 0 4.67 1.18M177.1 195H168v-41.86h19.79a13 13 0 0 1 6.74 1.68 11.4 11.4 0 0 1 4.41 4.71 16.45 16.45 0 0 1 0 13.94 11.7 11.7 0 0 1-4.41 4.7 12.86 12.86 0 0 1-6.74 1.71H177.1Zm0-33.92V172h9.59a5.1 5.1 0 0 0 2.33-.48 3.5 3.5 0 0 0 1.5-1.41 4.4 4.4 0 0 0 .54-2.25v-2.64a4.3 4.3 0 0 0-.54-2.27 3.57 3.57 0 0 0-1.5-1.38 5.1 5.1 0 0 0-2.33-.48Z" class="cls-1"/><path d="M.09 72.11 72.07.14h34.95L.09 107.06zM134.54 281.65l107.58-107.59-.36 35.31-72.28 72.28zM0 188.19 188.19 0l34.89.06L0 223.14zM17.17 281.65 241.76 57.06V92L52.12 281.65z" class="cls-2"/></g></g></svg>
