<svg xmlns="http://www.w3.org/2000/svg" viewBox="0 0 1275.59 1275.59"><defs><style>.cls-1{fill:#d8ecf6;}.cls-2{fill:#1a91cc;}.cls-3{fill:#fff;}.cls-4{stroke:#fff;}.cls-4,.cls-5{stroke-miterlimit:10;}.cls-5{fill:none;stroke:#000;stroke-width:4px;}</style></defs><g id="Layer_2" data-name="Layer 2"><g id="Layer_1-2" data-name="Layer 1"><rect class="cls-1" x="30" y="30" width="1215.59" height="1215.59" rx="140.08"/><path class="cls-2" d="M1105.51,60a110.07,110.07,0,0,1,110.08,110.08v935.43a110.07,110.07,0,0,1-110.08,110.08H170.08A110.07,110.07,0,0,1,60,1105.51V170.08A110.07,110.07,0,0,1,170.08,60h935.43m0-60H170.08A170.08,170.08,0,0,0,0,170.08v935.43a170.08,170.08,0,0,0,170.08,170.08h935.43a170.08,170.08,0,0,0,170.08-170.08V170.08A170.08,170.08,0,0,0,1105.51,0Z"/><rect class="cls-2" x="619.03" y="779.98" width="61.75" height="469.53"/><rect class="cls-2" x="372.5" y="261.63" width="556.12" height="648.46" rx="39.77"/><rect class="cls-3" x="402.98" y="295.03" width="493.84" height="483.15" rx="23.76"/><path class="cls-4" d="M544.81,494.27a28.64,28.64,0,1,1-28.64-28.64A28.64,28.64,0,0,1,544.81,494.27Zm-28.64-19.92a19,19,0,1,0,19,19A19,19,0,0,0,516.17,474.35Z"/><path class="cls-4" d="M780.33,494.27a28.64,28.64,0,1,1-28.64-28.64A28.64,28.64,0,0,1,780.33,494.27Zm-28.64-19.92a19,19,0,1,0,19,19A19,19,0,0,0,751.69,474.35Z"/><path class="cls-4" d="M463,385.52H840.66l14.94,50.64v58.11H789.19a35.7,35.7,0,0,0-35.69-35.7h-3.32a35.7,35.7,0,0,0-35.7,35.7H551v-4.15a34.87,34.87,0,0,0-34.87-34.87h0a34.87,34.87,0,0,0-34.87,34.87v4.15H445.52V456.08Zm307.73,13.84v38.18h69.15l-10.52-38.18Zm-67.54,0v38.18h58.1V399.36Zm-65.86,0v38.18h57.55V399.36Zm-71.39,0v38.18H629V399.36Zm-65.31,0v38.18h57.56V399.36Zm-28.77,0-8.3,38.18H494.6V399.36Z"/><line class="cls-5" x1="445.52" y1="561.78" x2="855.6" y2="561.78"/><path d="M504.3,712.17q-12.56,0-21.46-4.41a51.15,51.15,0,0,1-15.12-11.19l13.81-13.94a31.22,31.22,0,0,0,24.16,11q7.72,0,11.45-3.18a10.5,10.5,0,0,0,3.73-8.42,12.13,12.13,0,0,0-.9-4.76,7.67,7.67,0,0,0-3.31-3.59,17.84,17.84,0,0,0-7-2l-9.53-1.25q-10.08-1.38-16.63-5a23.59,23.59,0,0,1-9.73-9.66,29.49,29.49,0,0,1-3.18-14A26.93,26.93,0,0,1,475,626.52a29.16,29.16,0,0,1,12.42-10.29q8.08-3.72,19.4-3.72A48.67,48.67,0,0,1,526,616a40.36,40.36,0,0,1,14.21,10l-13.94,14.08a28,28,0,0,0-8.35-6.55A26.6,26.6,0,0,0,505.55,631c-4.7,0-8.19.83-10.5,2.49a8,8,0,0,0-3.45,6.9,10.75,10.75,0,0,0,1.18,5.38,7.54,7.54,0,0,0,3.73,3.18,29.06,29.06,0,0,0,6.55,1.79l9.53,1.52A49.57,49.57,0,0,1,529,657.37a23.75,23.75,0,0,1,9.67,9.39,29,29,0,0,1,3.17,14.08,30.38,30.38,0,0,1-4.35,16.29,29.34,29.34,0,0,1-12.76,11Q516.31,712.18,504.3,712.17Z"/><path d="M631.3,632.8H605.21v77.72h-21V632.8H558.14V614.16H631.3Z"/><path d="M689.83,712.17a43,43,0,0,1-22.29-5.66,37.3,37.3,0,0,1-14.84-16.77q-5.25-11.12-5.25-27.4t5.25-27.47a37.38,37.38,0,0,1,14.84-16.7,43,43,0,0,1,22.29-5.66q12.84,0,22.37,5.66A37.53,37.53,0,0,1,727,634.87q5.24,11,5.24,27.47T727,689.74a37.45,37.45,0,0,1-14.77,16.77Q702.68,712.18,689.83,712.17Zm0-18.63a20,20,0,0,0,10.84-2.83,18.25,18.25,0,0,0,6.9-8.22,31.54,31.54,0,0,0,2.42-13V655.16a31.43,31.43,0,0,0-2.42-13,18.27,18.27,0,0,0-6.9-8.15,22,22,0,0,0-21.6,0,18,18,0,0,0-7,8.15,31.27,31.27,0,0,0-2.42,13v14.36a31.38,31.38,0,0,0,2.42,13,18,18,0,0,0,7,8.22A20,20,0,0,0,689.83,693.54Z"/><path d="M779.7,710.52h-21V614.16h45.55A30,30,0,0,1,819.8,618,26.33,26.33,0,0,1,830,628.86,34.71,34.71,0,0,1,833.54,645,34.26,34.26,0,0,1,830,661a26.83,26.83,0,0,1-10.15,10.83,29.55,29.55,0,0,1-15.53,3.94H779.7Zm0-78.14v25.13h22.09a11.89,11.89,0,0,0,5.38-1.11,8.05,8.05,0,0,0,3.45-3.24,10.14,10.14,0,0,0,1.24-5.18v-6.07a10.05,10.05,0,0,0-1.24-5.25,8.26,8.26,0,0,0-3.45-3.17,11.89,11.89,0,0,0-5.38-1.11Z"/></g></g></svg>