<svg xmlns="http://www.w3.org/2000/svg" viewBox="0 0 241.49 693.45"><defs><style>.cls-1{fill:#1a91cc;}.cls-2{fill:#fff;}.cls-3{stroke:#fff;}.cls-3,.cls-4{stroke-miterlimit:10;}.cls-4{fill:none;stroke:#000;stroke-width:4px;}</style></defs><g id="Layer_2" data-name="Layer 2"><g id="Layer_1-2" data-name="Layer 1"><rect class="cls-1" x="108.39" y="281.59" width="24.71" height="411.86"/><rect class="cls-1" width="241.49" height="281.59" rx="17.27"/><rect class="cls-2" x="13.24" y="14.5" width="214.45" height="209.8" rx="10.32"/><path class="cls-3" d="M74.82,101A12.44,12.44,0,1,1,62.39,88.58,12.43,12.43,0,0,1,74.82,101ZM62.39,92.37a8.25,8.25,0,1,0,8.24,8.25A8.25,8.25,0,0,0,62.39,92.37Z"/><path class="cls-3" d="M177.1,101a12.44,12.44,0,1,1-12.44-12.44A12.44,12.44,0,0,1,177.1,101Zm-12.44-8.65a8.25,8.25,0,1,0,8.24,8.25A8.25,8.25,0,0,0,164.66,92.37Z"/><path class="cls-3" d="M39.28,53.8h164l6.49,22V101H180.94a15.5,15.5,0,0,0-15.5-15.5H164A15.5,15.5,0,0,0,148.5,101h-71v-1.8A15.14,15.14,0,0,0,62.35,84.08h0A15.14,15.14,0,0,0,47.21,99.22V101H31.71V84.44Zm133.62,6V76.39h30l-4.56-16.58Zm-29.33,0V76.39h25.24V59.81Zm-28.59,0V76.39h25V59.81Zm-31,0V76.39h27.39V59.81Zm-28.36,0V76.39h25V59.81Zm-12.5,0-3.6,16.58H53V59.81Z"/><line class="cls-4" x1="31.71" y1="127.73" x2="209.78" y2="127.73"/></g></g></svg>