<svg xmlns="http://www.w3.org/2000/svg" viewBox="0 0 1275.59 1275.59"><defs><style>.cls-1{fill:#d8ecf6;}.cls-2{fill:#1a91cc;}.cls-3{fill:#3cf;}.cls-4{fill:#fff;}.cls-5{fill:none;stroke:#1a91cc;stroke-miterlimit:10;stroke-width:3px;}</style></defs><g id="Layer_2" data-name="Layer 2"><g id="Layer_1-2" data-name="Layer 1"><rect class="cls-1" x="30" y="30" width="1215.59" height="1215.59" rx="140.08"/><path class="cls-2" d="M1105.51,60a110.07,110.07,0,0,1,110.08,110.08v935.43a110.07,110.07,0,0,1-110.08,110.08H170.08A110.07,110.07,0,0,1,60,1105.51V170.08A110.07,110.07,0,0,1,170.08,60h935.43m0-60H170.08A170.08,170.08,0,0,0,0,170.08v935.43a170.08,170.08,0,0,0,170.08,170.08h935.43a170.08,170.08,0,0,0,170.08-170.08V170.08A170.08,170.08,0,0,0,1105.51,0Z"/><rect class="cls-3" x="605.64" y="914.04" width="63.78" height="306.12"/><rect class="cls-3" x="357.07" y="261.71" width="559.43" height="652.32" rx="40.01"/><rect class="cls-4" x="387.74" y="295.31" width="496.79" height="486.03" rx="23.9"/><path class="cls-3" d="M530.41,495.74a28.81,28.81,0,1,1-28.81-28.81A28.81,28.81,0,0,1,530.41,495.74Zm-28.81-20a19.1,19.1,0,1,0,19.1,19.1A19.1,19.1,0,0,0,501.6,475.7Z"/><path class="cls-3" d="M767.33,495.74a28.81,28.81,0,1,1-28.81-28.81A28.81,28.81,0,0,1,767.33,495.74Zm-28.81-20a19.1,19.1,0,1,0,19.11,19.1A19.1,19.1,0,0,0,738.52,475.7Z"/><path class="cls-3" d="M448.06,386.34H828l15,50.94v58.46H776.25a35.91,35.91,0,0,0-35.91-35.91H737a35.91,35.91,0,0,0-35.91,35.91H536.58v-4.18a35.07,35.07,0,0,0-35.07-35.07h0a35.07,35.07,0,0,0-35.07,35.07v4.18H430.53V457.33Zm309.57,13.92v38.41h69.56l-10.58-38.41Zm-68,0v38.41h58.45V400.26Zm-66.25,0v38.41h57.9V400.26Zm-71.82,0v38.41h63.47V400.26Zm-65.69,0v38.41h57.9V400.26Zm-28.95,0-8.35,38.41H479.9V400.26Z"/><line class="cls-5" x1="430.53" y1="557.61" x2="843.06" y2="557.61"/><path class="cls-3" d="M489.66,714.94q-12.63,0-21.59-4.44a51.21,51.21,0,0,1-15.2-11.25l13.88-14a31.3,31.3,0,0,0,24.3,11.11q7.77,0,11.53-3.19a10.57,10.57,0,0,0,3.75-8.47,12.1,12.1,0,0,0-.91-4.79,7.71,7.71,0,0,0-3.33-3.61,18,18,0,0,0-7-2L485.5,673q-10.14-1.38-16.73-5.07a23.84,23.84,0,0,1-9.8-9.72,29.68,29.68,0,0,1-3.19-14.09,27.19,27.19,0,0,1,4.37-15.35,29.36,29.36,0,0,1,12.5-10.34q8.13-3.75,19.51-3.75a49,49,0,0,1,19.3,3.54,40.8,40.8,0,0,1,14.31,10.07l-14,14.16a28,28,0,0,0-8.4-6.59,26.67,26.67,0,0,0-12.43-2.57q-7.08,0-10.55,2.5a8.08,8.08,0,0,0-3.47,6.94,10.91,10.91,0,0,0,1.18,5.42,7.55,7.55,0,0,0,3.75,3.19,29.93,29.93,0,0,0,6.59,1.81l9.58,1.52a49.62,49.62,0,0,1,16.53,5.14,24,24,0,0,1,9.72,9.44,29.12,29.12,0,0,1,3.2,14.17,30.58,30.58,0,0,1-4.38,16.38,29.46,29.46,0,0,1-12.84,11.11Q501.75,714.95,489.66,714.94Z"/><path class="cls-3" d="M617.42,635.09H591.17v78.18h-21.1V635.09H543.82V616.35h73.6Z"/><path class="cls-3" d="M676.3,714.94a43.29,43.29,0,0,1-22.43-5.69A37.52,37.52,0,0,1,639,692.37q-5.28-11.18-5.28-27.56T639,637.18a37.6,37.6,0,0,1,14.92-16.81,43.38,43.38,0,0,1,22.43-5.69q12.91,0,22.5,5.69a37.84,37.84,0,0,1,14.86,16.81q5.26,11.1,5.27,27.63t-5.27,27.56a37.76,37.76,0,0,1-14.86,16.88Q689.21,714.95,676.3,714.94Zm0-18.75a20,20,0,0,0,10.9-2.84,18.32,18.32,0,0,0,6.94-8.26A31.82,31.82,0,0,0,696.57,672V657.59a31.62,31.62,0,0,0-2.43-13.12,18.37,18.37,0,0,0-6.94-8.2,22.2,22.2,0,0,0-21.73,0,18.14,18.14,0,0,0-7,8.2A31.47,31.47,0,0,0,656,657.59V672a31.65,31.65,0,0,0,2.43,13.06,18.09,18.09,0,0,0,7,8.26A20.06,20.06,0,0,0,676.3,696.19Z"/><path class="cls-3" d="M766.7,713.27H745.59V616.35h45.83A30.25,30.25,0,0,1,807,620.23a26.47,26.47,0,0,1,10.21,10.9,35,35,0,0,1,3.61,16.18,34.53,34.53,0,0,1-3.61,16.11A27,27,0,0,1,807,674.32a29.8,29.8,0,0,1-15.62,4H766.7Zm0-78.59V660h22.22a12,12,0,0,0,5.41-1.11,8.23,8.23,0,0,0,3.48-3.26,10.25,10.25,0,0,0,1.25-5.21v-6.11a10.16,10.16,0,0,0-1.25-5.28,8.32,8.32,0,0,0-3.48-3.19,12,12,0,0,0-5.41-1.11Z"/><polygon class="cls-4" points="356.65 428.63 523.4 261.88 604.36 261.88 356.65 509.59 356.65 428.63"/><polygon class="cls-4" points="668.1 914.04 917.33 664.81 916.51 746.59 749.07 914.04 668.1 914.04"/><polygon class="cls-4" points="356.44 697.54 792.41 261.57 873.23 261.71 356.44 778.5 356.44 697.54"/><polygon class="cls-4" points="396.22 914.04 916.51 393.75 916.51 474.71 477.18 914.04 396.22 914.04"/></g></g></svg>