<svg xmlns="http://www.w3.org/2000/svg" viewBox="0 0 1275.59 1275.59"><defs><style>.cls-2{fill:#1a91cc}</style></defs><g id="Layer_2" data-name="Layer 2"><g id="Layer_1-2" data-name="Layer 1"><rect width="1215.59" height="1215.59" x="30" y="30" rx="140.08" style="fill:#d8ecf6"/><path d="M1105.51 60a110.07 110.07 0 0 1 110.08 110.08v935.43a110.07 110.07 0 0 1-110.08 110.08H170.08A110.07 110.07 0 0 1 60 1105.51V170.08A110.07 110.07 0 0 1 170.08 60zm0-60H170.08A170.08 170.08 0 0 0 0 170.08v935.43a170.08 170.08 0 0 0 170.08 170.08h935.43a170.08 170.08 0 0 0 170.08-170.08V170.08A170.08 170.08 0 0 0 1105.51 0" class="cls-2"/><path d="M1008 377.11h-37.75V266.83c0-11.64-9.15-24.16-20.35-27.84 0 0-105.15-34.1-312.11-34.1S325.7 239 325.7 239c-11.19 3.68-20.35 16.2-20.35 27.84v110.27h-37.77a21.37 21.37 0 0 0-21.46 21.15V559.9a21.36 21.36 0 0 0 21.46 21.1h37.77v379.69a21.38 21.38 0 0 0 21.46 21.13h46.63v66.89c0 12.1 11.79 22 26.21 22h48.76c14.43 0 26.23-9.89 26.23-22v-66.89h330.64v66.89c0 12.1 11.81 22 26.22 22h48.75c14.44 0 26.25-9.89 26.25-22v-66.89h42.29a21.38 21.38 0 0 0 21.46-21.13V581H1008a21.35 21.35 0 0 0 21.44-21.14v-161.6a21.36 21.36 0 0 0-21.44-21.15M403.55 877.75c-24.94 0-45.18-19.93-45.18-44.51s20.24-44.52 45.18-44.52 45.17 19.94 45.17 44.52-20.23 44.51-45.17 44.51m472 0c-24.94 0-45.17-19.93-45.17-44.51s20.23-44.52 45.17-44.52 45.18 19.94 45.18 44.52-20.22 44.51-45.18 44.51M929 534.83v159.35c0 18.21-14.75 36.26-32.83 40.13 0 0-107.74 18.63-258.42 18.63s-258.38-18.82-258.38-18.82c-18.08-3.74-32.88-21.73-32.88-39.94V361.76c0-18.19 14.78-36.25 32.84-40.11 0 0 104.31-18.62 255-18.62s261.83 18.81 261.83 18.81c18.07 3.75 32.86 21.73 32.86 39.92Z" class="cls-2"/></g></g></svg>
