<svg xmlns="http://www.w3.org/2000/svg" viewBox="0 0 1275.59 1275.59"><defs><style>.cls-1{fill:#d8ecf6;}.cls-2{fill:#1a91cc;}.cls-3{fill:#fff;}.cls-4{fill:#afc9d3;}.cls-5{fill:none;stroke:#000;stroke-miterlimit:10;stroke-width:2px;}</style></defs><g id="Layer_2" data-name="Layer 2"><g id="Layer_1-2" data-name="Layer 1"><rect class="cls-1" x="30" y="30" width="1215.59" height="1215.59" rx="140.08"/><path class="cls-2" d="M1105.51,60a110.07,110.07,0,0,1,110.08,110.08v935.43a110.07,110.07,0,0,1-110.08,110.08H170.08A110.07,110.07,0,0,1,60,1105.51V170.08A110.07,110.07,0,0,1,170.08,60h935.43m0-60H170.08A170.08,170.08,0,0,0,0,170.08v935.43a170.08,170.08,0,0,0,170.08,170.08h935.43a170.08,170.08,0,0,0,170.08-170.08V170.08A170.08,170.08,0,0,0,1105.51,0Z"/><path class="cls-2" d="M244.08,1112.78V561.84H179.23V419.33h942.82V561.84h-57.19v550.94h-98.6V561.84H334.8v550.94Zm90.72-432.9h20.14V897.76H334.8v22H966.26V900.2h-19.4V677.44h19.4v-20.8H334.8Zm102.66,433.65v-82.87H639.77v82.87H663v-82.87H864v82.87h23.52v-85.11h27v-24.64H385.94v26.88h26.88v82.87ZM572.77,515.89V462.76H561.2v21.16H541V462.76H529.39v53.13H541V494.12H561.2v21.77Zm44.15-53.13H602.61L585.1,515.89h11.72l3.81-12.64h17.73l3.81,12.64h12Zm-13.55,30.67,3.27-11,2.59-9.14h.38l2.66,9.14,3.28,11Zm75,12.18H658.09V462.76H646.52v53.13h31.82Zm44.38-42.85H682.38V473h14.38v42.86h11.57V473h14.39Zm49,42.85H747.15V494.12h21.08v-10.2H747.15V473h24.58V462.76H735.58v53.13h36.15Z"/><rect class="cls-3" x="385.94" y="681.56" width="248.25" height="216.2"/><rect class="cls-3" x="666.27" y="681.56" width="248.25" height="216.2"/><rect x="385.94" y="681.56" width="248.25" height="86.14"/><rect class="cls-4" x="385.94" y="767.7" width="248.25" height="53.36"/><rect class="cls-4" x="666.27" y="681.28" width="248.25" height="26.68"/><rect class="cls-4" x="666.27" y="782.03" width="248.25" height="26.68"/><rect class="cls-4" x="678.75" y="815.6" width="109.5" height="26.68"/><rect class="cls-4" x="794.9" y="815.6" width="109.5" height="26.68"/><rect class="cls-4" x="678.75" y="848.17" width="109.5" height="26.68"/><rect class="cls-4" x="794.9" y="848.17" width="109.5" height="26.68"/><rect class="cls-4" x="678.75" y="713.91" width="109.5" height="26.68"/><rect class="cls-4" x="794.9" y="713.91" width="109.5" height="26.68"/><rect class="cls-4" x="678.75" y="747.44" width="109.5" height="26.68"/><rect class="cls-4" x="794.9" y="747.44" width="109.5" height="26.68"/><rect class="cls-4" x="385.94" y="885.72" width="248.25" height="12.03"/><rect class="cls-4" x="666.27" y="885.72" width="248.25" height="12.03"/><rect class="cls-3" x="475.85" y="694.93" width="64.64" height="64.64" rx="8.5"/><path d="M527.29,712.78h-1.95v-5.7a1.61,1.61,0,0,0-1.05-1.43s-5.43-1.76-16.12-1.76-16.12,1.76-16.12,1.76a1.61,1.61,0,0,0-1.05,1.43v5.7h-2a1.09,1.09,0,0,0-1.1,1.09v8.35a1.1,1.1,0,0,0,1.1,1.1h2v19.61a1.09,1.09,0,0,0,1.1,1.09h2.41v3.45a1.27,1.27,0,0,0,1.36,1.14h2.52a1.26,1.26,0,0,0,1.35-1.14V744h17.08v3.45a1.26,1.26,0,0,0,1.35,1.14h2.52a1.27,1.27,0,0,0,1.36-1.14V744h2.18a1.1,1.1,0,0,0,1.11-1.09V723.86h0v-.53h1.95a1.11,1.11,0,0,0,1.11-1.1v-8.35a1.1,1.1,0,0,0-1.11-1.09m-31.22,25.86a2.3,2.3,0,1,1,2.33-2.3,2.32,2.32,0,0,1-2.33,2.3m24.38,0a2.3,2.3,0,1,1,2.33-2.3,2.31,2.31,0,0,1-2.33,2.3m2.76-17.71v8.23a2.23,2.23,0,0,1-1.69,2.07,86.06,86.06,0,0,1-13.35,1,85,85,0,0,1-13.35-1,2.21,2.21,0,0,1-1.7-2.06V712a2.24,2.24,0,0,1,1.7-2.07A83,83,0,0,1,508,709a90.1,90.1,0,0,1,13.53,1,2.2,2.2,0,0,1,1.69,2.06Z"/><line class="cls-5" x1="695.68" y1="691.46" x2="755.2" y2="691.46"/><line class="cls-5" x1="695.68" y1="699.11" x2="755.2" y2="699.11"/><rect x="678.75" y="689.82" width="10.29" height="10.29" rx="5.14"/><line class="cls-5" x1="695.68" y1="790.87" x2="755.2" y2="790.87"/><line class="cls-5" x1="695.68" y1="798.52" x2="755.2" y2="798.52"/><line class="cls-5" x1="403.39" y1="840.14" x2="462.91" y2="840.14"/><line class="cls-5" x1="403.39" y1="847.8" x2="462.91" y2="847.8"/><line class="cls-5" x1="403.39" y1="859.11" x2="462.91" y2="859.11"/><line class="cls-5" x1="403.39" y1="866.76" x2="462.91" y2="866.76"/><line class="cls-5" x1="537.96" y1="838.45" x2="597.49" y2="838.45"/><line class="cls-5" x1="537.96" y1="846.11" x2="597.49" y2="846.11"/><line class="cls-5" x1="451.81" y1="790.55" x2="564.52" y2="790.55"/><line class="cls-5" x1="451.81" y1="805.04" x2="564.52" y2="805.04"/><rect x="678.75" y="789.23" width="10.29" height="10.29" rx="5.14"/><rect class="cls-2" x="966.23" y="124.16" width="27.71" height="307.1"/><polygon class="cls-2" points="993.94 124.16 1121.36 124.16 1121.36 376.96 993.94 376.96 993.94 367.16 1001.07 367.16 1001.07 262.82 993.94 262.82 993.94 247.66 1001.07 247.66 1001.07 134.48 993.94 134.48 993.94 124.16"/><path class="cls-3" d="M1028.58,211.59V188.35h11.28a6,6,0,0,1,4.49,1.64,5.81,5.81,0,0,1,1.63,4.32,6,6,0,0,1-.58,2.85,3.66,3.66,0,0,1-1.56,1.58,5.41,5.41,0,0,1-2.18.56v.2a5.48,5.48,0,0,1,1.73.3,5.35,5.35,0,0,1,1.69.94,4.52,4.52,0,0,1,1.3,1.68,5.75,5.75,0,0,1,.5,2.54,7.11,7.11,0,0,1-.78,3.33,6.35,6.35,0,0,1-2.13,2.4,5.43,5.43,0,0,1-3.08.9Zm5.05-19v5.26h5a2.44,2.44,0,0,0,1.15-.25,1.66,1.66,0,0,0,.73-.73,2.41,2.41,0,0,0,.25-1.15v-1a2.4,2.4,0,0,0-.25-1.14,1.74,1.74,0,0,0-.73-.74,2.57,2.57,0,0,0-1.15-.25Zm0,9.39v5.33h5.83a2.57,2.57,0,0,0,1.15-.25,1.86,1.86,0,0,0,.75-.72,2.33,2.33,0,0,0,.26-1.13V204.1a2.3,2.3,0,0,0-.26-1.13,1.86,1.86,0,0,0-.75-.72,2.44,2.44,0,0,0-1.15-.25Z"/><path class="cls-3" d="M1052.81,188.35h4.92V202.6a7.52,7.52,0,0,0,.42,2.71,3.13,3.13,0,0,0,1.35,1.63,4.7,4.7,0,0,0,2.43.55,4.62,4.62,0,0,0,2.41-.55,3.22,3.22,0,0,0,1.35-1.63,7.3,7.3,0,0,0,.43-2.71V188.35h4.93v13.72a15,15,0,0,1-.9,5.62,6.18,6.18,0,0,1-2.9,3.25,14,14,0,0,1-10.65,0,6.12,6.12,0,0,1-2.89-3.25,15,15,0,0,1-.9-5.62Z"/><path class="cls-3" d="M1085.72,212a11.51,11.51,0,0,1-5.17-1.07,12.49,12.49,0,0,1-3.65-2.69l3.33-3.37a7.65,7.65,0,0,0,2.65,2,7.75,7.75,0,0,0,3.18.67,4.19,4.19,0,0,0,2.76-.77,2.54,2.54,0,0,0,.9-2,2.88,2.88,0,0,0-.22-1.15,1.83,1.83,0,0,0-.8-.86,4.2,4.2,0,0,0-1.68-.49l-2.29-.3a11.3,11.3,0,0,1-4-1.21,5.73,5.73,0,0,1-2.35-2.33,7.14,7.14,0,0,1-.77-3.38,6.51,6.51,0,0,1,1.05-3.68,7.06,7.06,0,0,1,3-2.48,11,11,0,0,1,4.67-.9,11.84,11.84,0,0,1,4.63.85,9.81,9.81,0,0,1,3.43,2.42l-3.36,3.39a6.85,6.85,0,0,0-2-1.58,6.4,6.4,0,0,0-3-.61,4.36,4.36,0,0,0-2.53.59,2,2,0,0,0-.83,1.67,2.75,2.75,0,0,0,.28,1.3,1.85,1.85,0,0,0,.9.76,7,7,0,0,0,1.58.43l2.3.37a12.16,12.16,0,0,1,4,1.23A5.73,5.73,0,0,1,1094,201a7,7,0,0,1,.77,3.39,7.31,7.31,0,0,1-1,3.93,7.08,7.08,0,0,1-3.08,2.66A11.46,11.46,0,0,1,1085.72,212Z"/><path class="cls-3" d="M1041.8,167.81a5.45,5.45,0,1,1-5.45-5.45A5.45,5.45,0,0,1,1041.8,167.81Zm-5.45-3.79a3.61,3.61,0,1,0,3.61,3.61A3.61,3.61,0,0,0,1036.35,164Z"/><path class="cls-3" d="M1086.6,167.81a5.45,5.45,0,1,1-5.45-5.45A5.45,5.45,0,0,1,1086.6,167.81Zm-5.45-3.79a3.61,3.61,0,1,0,3.61,3.61A3.61,3.61,0,0,0,1081.15,164Z"/><path class="cls-3" d="M1026.23,147.13h71.84l2.84,9.63v11.05h-12.63a6.79,6.79,0,0,0-6.79-6.79h-.63a6.79,6.79,0,0,0-6.79,6.79H1043V167a6.63,6.63,0,0,0-6.63-6.63h0a6.63,6.63,0,0,0-6.63,6.63v.79h-6.79v-7.26Zm58.53,2.63V157h13.15l-2-7.26Zm-12.85,0V157h11v-7.26Zm-12.53,0V157h10.95v-7.26Zm-13.57,0V157h12v-7.26Zm-12.43,0V157h10.95v-7.26Zm-5.47,0-1.58,7.26h5.92v-7.26Z"/><rect class="cls-3" x="1006.49" y="229.04" width="107.9" height="14.27"/><rect class="cls-4" x="1006.74" y="243.55" width="34.66" height="40.52"/><path class="cls-3" d="M1041.15,243.8v40H1007v-40h34.16m.5-.5h-35.16v41h35.16v-41Z"/><rect class="cls-4" x="1041.9" y="243.55" width="35.85" height="40.52"/><path class="cls-3" d="M1077.5,243.8v40h-35.35v-40h35.35m.5-.5h-36.35v41H1078v-41Z"/><rect class="cls-4" x="1078.25" y="243.57" width="35.85" height="40.52"/><path class="cls-3" d="M1113.85,243.82v40H1078.5v-40h35.35m.5-.5H1078v41h36.35v-41Z"/><rect class="cls-4" x="1006.74" y="284.59" width="34.66" height="40.52"/><path class="cls-3" d="M1041.15,284.84v40H1007v-40h34.16m.5-.5h-35.16v41h35.16v-41Z"/><rect class="cls-4" x="1041.9" y="284.59" width="35.85" height="40.52"/><path class="cls-3" d="M1077.5,284.84v40h-35.35v-40h35.35m.5-.5h-36.35v41H1078v-41Z"/><rect class="cls-4" x="1078.25" y="284.61" width="35.85" height="40.52"/><path class="cls-3" d="M1113.85,284.86v40H1078.5v-40h35.35m.5-.5H1078v41h36.35v-41Z"/><rect class="cls-4" x="1006.74" y="325.67" width="34.66" height="40.52"/><path class="cls-3" d="M1041.15,325.92v40H1007v-40h34.16m.5-.5h-35.16v41h35.16v-41Z"/><rect class="cls-4" x="1041.9" y="325.67" width="35.85" height="40.52"/><path class="cls-3" d="M1077.5,325.92v40h-35.35v-40h35.35m.5-.5h-36.35v41H1078v-41Z"/><rect class="cls-4" x="1078.25" y="325.7" width="35.85" height="40.52"/><path class="cls-3" d="M1113.85,326v40H1078.5V326h35.35m.5-.5H1078v41h36.35v-41Z"/></g></g></svg>