<svg xmlns="http://www.w3.org/2000/svg" viewBox="0 0 1275.59 1275.59"><defs><style>.cls-1{fill:#d8ecf6;}.cls-2{fill:#1a91cc;}.cls-3{fill:#fff;}.cls-4{stroke:#fff;}.cls-4,.cls-5,.cls-7{stroke-miterlimit:10;}.cls-5,.cls-7{fill:none;stroke:#000;}.cls-5{stroke-width:4px;}.cls-6{fill:#afc9d3;}.cls-7{stroke-width:2px;}</style></defs><g id="Layer_2" data-name="Layer 2"><g id="Layer_1-2" data-name="Layer 1"><rect class="cls-1" x="30" y="30" width="1215.59" height="1215.59" rx="140.08"/><path class="cls-2" d="M1105.51,60a110.07,110.07,0,0,1,110.08,110.08v935.43a110.07,110.07,0,0,1-110.08,110.08H170.08A110.07,110.07,0,0,1,60,1105.51V170.08A110.07,110.07,0,0,1,170.08,60h935.43m0-60H170.08A170.08,170.08,0,0,0,0,170.08v935.43a170.08,170.08,0,0,0,170.08,170.08h935.43a170.08,170.08,0,0,0,170.08-170.08V170.08A170.08,170.08,0,0,0,1105.51,0Z"/><rect class="cls-2" x="978.41" y="385.19" width="33.39" height="385.96"/><rect class="cls-2" x="882.07" y="121.31" width="226.3" height="263.88" rx="16.18"/><rect class="cls-3" x="894.47" y="134.9" width="200.96" height="196.61" rx="9.67"/><path class="cls-4" d="M952.18,216a11.65,11.65,0,1,1-11.65-11.65A11.65,11.65,0,0,1,952.18,216Zm-11.65-8.1a7.73,7.73,0,1,0,7.73,7.72A7.73,7.73,0,0,0,940.53,207.88Z"/><path class="cls-4" d="M1048,216a11.66,11.66,0,1,1-11.66-11.65A11.66,11.66,0,0,1,1048,216Zm-11.66-8.1a7.73,7.73,0,1,0,7.73,7.72A7.73,7.73,0,0,0,1036.37,207.88Z"/><path class="cls-4" d="M918.87,171.73h153.71l6.08,20.61V216h-27a14.52,14.52,0,0,0-14.52-14.52h-1.36A14.52,14.52,0,0,0,1021.23,216H954.68v-1.69a14.18,14.18,0,0,0-14.19-14.18h0a14.19,14.19,0,0,0-14.19,14.18V216H911.78V200.44Zm125.23,5.63V192.9h28.14L1068,177.36Zm-27.49,0V192.9h23.65V177.36Zm-26.8,0V192.9h23.42V177.36Zm-29,0V192.9h25.67V177.36Zm-26.57,0V192.9h23.42V177.36Zm-11.71,0L919.1,192.9h12.65V177.36Z"/><line class="cls-5" x1="911.78" y1="241.01" x2="1078.66" y2="241.01"/><path d="M935.7,304.66a19.42,19.42,0,0,1-8.73-1.8,21,21,0,0,1-6.16-4.55l5.62-5.68a12.74,12.74,0,0,0,9.83,4.5,7.11,7.11,0,0,0,4.67-1.29,4.28,4.28,0,0,0,1.51-3.43,5,5,0,0,0-.36-1.94,3.19,3.19,0,0,0-1.35-1.46,7.42,7.42,0,0,0-2.84-.81l-3.87-.51a19.12,19.12,0,0,1-6.77-2.05,9.61,9.61,0,0,1-4-3.93A11.93,11.93,0,0,1,922,276a11,11,0,0,1,1.77-6.21,11.92,11.92,0,0,1,5.06-4.19,18.73,18.73,0,0,1,7.89-1.51,19.75,19.75,0,0,1,7.81,1.43,16.52,16.52,0,0,1,5.79,4.07l-5.68,5.73a11.51,11.51,0,0,0-3.4-2.67,10.83,10.83,0,0,0-5-1,7.27,7.27,0,0,0-4.27,1,3.25,3.25,0,0,0-1.41,2.8,4.45,4.45,0,0,0,.48,2.2,3.06,3.06,0,0,0,1.52,1.29,12,12,0,0,0,2.66.73l3.88.62a20.14,20.14,0,0,1,6.69,2.07,9.72,9.72,0,0,1,3.93,3.82A11.83,11.83,0,0,1,951,291.9a12.35,12.35,0,0,1-1.77,6.63A12,12,0,0,1,944,303,19.38,19.38,0,0,1,935.7,304.66Z"/><path d="M987.38,272.36H976.77V304h-8.54V272.36H957.61v-7.59h29.77Z"/><path d="M1011.2,304.66a17.45,17.45,0,0,1-9.07-2.31,15.12,15.12,0,0,1-6-6.82,30.2,30.2,0,0,1,0-22.33,15.17,15.17,0,0,1,6-6.8,19.09,19.09,0,0,1,18.17,0,15.29,15.29,0,0,1,6,6.8,30.33,30.33,0,0,1,0,22.33,15.23,15.23,0,0,1-6,6.82A17.44,17.44,0,0,1,1011.2,304.66Zm0-7.59a8.09,8.09,0,0,0,4.41-1.15,7.43,7.43,0,0,0,2.81-3.34,12.93,12.93,0,0,0,1-5.28v-5.84a12.88,12.88,0,0,0-1-5.31,7.49,7.49,0,0,0-2.81-3.32,9,9,0,0,0-8.79,0,7.42,7.42,0,0,0-2.84,3.32,12.72,12.72,0,0,0-1,5.31v5.84a12.76,12.76,0,0,0,1,5.28,7.37,7.37,0,0,0,2.84,3.34A8.08,8.08,0,0,0,1011.2,297.07Z"/><path d="M1047.77,304h-8.54V264.77h18.54a12.32,12.32,0,0,1,6.32,1.57,10.72,10.72,0,0,1,4.13,4.41,14.2,14.2,0,0,1,1.46,6.55,13.94,13.94,0,0,1-1.46,6.51,10.85,10.85,0,0,1-4.13,4.41,12,12,0,0,1-6.32,1.61h-10Zm0-31.79v10.22h9A4.86,4.86,0,0,0,1059,282a3.25,3.25,0,0,0,1.4-1.32,4.1,4.1,0,0,0,.51-2.11v-2.47a4,4,0,0,0-.51-2.13,3.3,3.3,0,0,0-1.4-1.29,4.86,4.86,0,0,0-2.19-.45Z"/><path class="cls-2" d="M231.27,1112.78V561.84H166.41V419.33h942.82V561.84H1052v550.94h-98.6V561.84H322v550.94ZM322,679.88h20.14V897.76H322v22H953.44V900.2H934V677.44h19.4v-20.8H322Zm102.66,433.65v-82.87H627v82.87h23.24v-82.87h201v82.87h23.52v-85.11h27v-24.64H373.13v26.88H400v82.87ZM560,515.89V462.76H548.38v21.16H528.14V462.76H516.57v53.13h11.57V494.12h20.24v21.77Zm44.15-53.13H589.79l-17.51,53.13H584l3.81-12.64h17.73l3.81,12.64h12Zm-13.55,30.67,3.27-11,2.59-9.14h.38l2.67,9.14,3.27,11Zm75,12.18H645.28V462.76H633.71v53.13h31.81Zm44.38-42.85H669.56V473h14.38v42.86h11.57V473H709.9Zm49,42.85H734.33V494.12h21.08v-10.2H734.33V473h24.58V462.76H722.76v53.13h36.15Z"/><rect class="cls-3" x="373.13" y="681.56" width="248.25" height="216.2"/><rect class="cls-3" x="653.45" y="681.56" width="248.25" height="216.2"/><rect x="373.13" y="681.56" width="248.25" height="86.14"/><rect class="cls-6" x="373.13" y="767.7" width="248.25" height="53.36"/><rect class="cls-6" x="653.45" y="681.28" width="248.25" height="26.68"/><rect class="cls-6" x="653.45" y="782.03" width="248.25" height="26.68"/><rect class="cls-6" x="665.93" y="815.6" width="109.5" height="26.68"/><rect class="cls-6" x="782.08" y="815.6" width="109.5" height="26.68"/><rect class="cls-6" x="665.93" y="848.17" width="109.5" height="26.68"/><rect class="cls-6" x="782.08" y="848.17" width="109.5" height="26.68"/><rect class="cls-6" x="665.93" y="713.91" width="109.5" height="26.68"/><rect class="cls-6" x="782.08" y="713.91" width="109.5" height="26.68"/><rect class="cls-6" x="665.93" y="747.44" width="109.5" height="26.68"/><rect class="cls-6" x="782.08" y="747.44" width="109.5" height="26.68"/><rect class="cls-6" x="373.13" y="885.72" width="248.25" height="12.03"/><rect class="cls-6" x="653.45" y="885.72" width="248.25" height="12.03"/><rect class="cls-3" x="463.03" y="694.93" width="64.64" height="64.64" rx="8.5"/><path d="M514.47,712.78h-2v-5.7a1.61,1.61,0,0,0-1-1.43s-5.43-1.76-16.12-1.76-16.12,1.76-16.12,1.76a1.61,1.61,0,0,0-1.05,1.43v5.7h-1.95a1.1,1.1,0,0,0-1.11,1.09v8.35a1.11,1.11,0,0,0,1.11,1.1h1.95v19.61a1.1,1.1,0,0,0,1.1,1.09h2.41v3.45a1.27,1.27,0,0,0,1.36,1.14h2.52a1.26,1.26,0,0,0,1.35-1.14V744H504v3.45a1.26,1.26,0,0,0,1.35,1.14h2.52a1.27,1.27,0,0,0,1.36-1.14V744h2.18a1.1,1.1,0,0,0,1.11-1.09V723.86h0v-.53h2a1.11,1.11,0,0,0,1.11-1.1v-8.35a1.1,1.1,0,0,0-1.11-1.09m-31.22,25.86a2.3,2.3,0,1,1,2.33-2.3,2.32,2.32,0,0,1-2.33,2.3m24.38,0a2.3,2.3,0,1,1,2.34-2.3,2.31,2.31,0,0,1-2.34,2.3m2.76-17.71v8.23a2.23,2.23,0,0,1-1.69,2.07,86.06,86.06,0,0,1-13.35,1,85.2,85.2,0,0,1-13.35-1,2.21,2.21,0,0,1-1.7-2.06V712a2.24,2.24,0,0,1,1.7-2.07,83,83,0,0,1,13.17-1,89.93,89.93,0,0,1,13.53,1,2.2,2.2,0,0,1,1.69,2.06Z"/><line class="cls-7" x1="682.86" y1="691.46" x2="742.38" y2="691.46"/><line class="cls-7" x1="682.86" y1="699.11" x2="742.38" y2="699.11"/><rect x="665.93" y="689.82" width="10.29" height="10.29" rx="5.14"/><line class="cls-7" x1="682.86" y1="790.87" x2="742.38" y2="790.87"/><line class="cls-7" x1="682.86" y1="798.52" x2="742.38" y2="798.52"/><line class="cls-7" x1="390.57" y1="840.14" x2="450.1" y2="840.14"/><line class="cls-7" x1="390.57" y1="847.8" x2="450.1" y2="847.8"/><line class="cls-7" x1="390.57" y1="859.11" x2="450.1" y2="859.11"/><line class="cls-7" x1="390.57" y1="866.76" x2="450.1" y2="866.76"/><line class="cls-7" x1="525.14" y1="838.45" x2="584.67" y2="838.45"/><line class="cls-7" x1="525.14" y1="846.11" x2="584.67" y2="846.11"/><line class="cls-7" x1="438.99" y1="790.55" x2="551.7" y2="790.55"/><line class="cls-7" x1="438.99" y1="805.04" x2="551.7" y2="805.04"/><rect x="665.93" y="789.23" width="10.29" height="10.29" rx="5.14"/></g></g></svg>