<svg xmlns="http://www.w3.org/2000/svg" viewBox="0 0 11.48 11.48"><defs><style>.cls-1{fill:#d7df23;}.cls-2{fill:#fff;}</style></defs><g id="Layer_2" data-name="Layer 2"><g id="MAIN_ARTBOARD" data-name="MAIN ARTBOARD"><g id="Layer_41" data-name="Layer 41"><rect class="cls-1" width="11.48" height="11.48" rx="2.68"/><path class="cls-2" d="M.72,8.1A.14.14,0,0,1,.7,8V3.58a.14.14,0,0,1,0-.06l.06,0h.77l.06,0a.14.14,0,0,1,0,.06V5.34a0,0,0,0,0,0,0s0,0,0,0l1.18-1.8a.14.14,0,0,1,.1,0H3.8a.06.06,0,0,1,.06,0,0,0,0,0,1,0,.06L2.63,5.49a0,0,0,0,0,0,0L3.92,8l0,0s0,0-.08,0H3a.1.1,0,0,1-.09-.06L2,6.25l0,0,0,0-.29.43,0,0V8a.14.14,0,0,1,0,.06l-.06,0H.78Z"/><path class="cls-2" d="M7,7.79a1.61,1.61,0,0,1-1,.33H4.46l0,0a.09.09,0,0,1,0-.06V3.58a.09.09,0,0,1,0-.06l0,0H5.84a1.71,1.71,0,0,1,1.1.31,1.16,1.16,0,0,1,.39,1,1,1,0,0,1-.51.94s0,0,0,0a1.15,1.15,0,0,1,.58,1.09A1.13,1.13,0,0,1,7,7.79ZM5.31,4.33v1s0,0,0,0h.5a.58.58,0,0,0,.41-.14.53.53,0,0,0,.16-.41.56.56,0,0,0-.15-.41.61.61,0,0,0-.42-.14h-.5S5.31,4.31,5.31,4.33Zm1,2.83a.6.6,0,0,0,.15-.44.6.6,0,0,0-.15-.44.52.52,0,0,0-.41-.17H5.35a0,0,0,0,0,0,0V7.28s0,0,0,0H5.9A.54.54,0,0,0,6.31,7.16Z"/><path class="cls-2" d="M10.33,3.67a1.22,1.22,0,0,1,.48.5,1.64,1.64,0,0,1,.17.74,1.54,1.54,0,0,1-.17.73,1.17,1.17,0,0,1-.48.48,1.45,1.45,0,0,1-.7.17H8.92a0,0,0,0,0,0,0V8a.07.07,0,0,1,0,.06l0,0H8l0,0A.09.09,0,0,1,8,8V3.57A.12.12,0,0,1,8,3.49h1.6A1.35,1.35,0,0,1,10.33,3.67ZM9.89,5.38a.65.65,0,0,0,.16-.45.69.69,0,0,0-.16-.46.53.53,0,0,0-.41-.17H8.92s0,0,0,0V5.52s0,0,0,0h.56A.5.5,0,0,0,9.89,5.38Z"/></g></g></g></svg>