<svg xmlns="http://www.w3.org/2000/svg" viewBox="0 0 33.72 33.72"><defs><style>.cls-1{fill:#2b3990;}.cls-2,.cls-4,.cls-5{fill:#fff;}.cls-3{fill:#009444;}.cls-4{font-size:19.41px;font-family:Barlow-Bold, Barlow;font-weight:700;}.cls-5{font-size:5.18px;font-family:Barlow-SemiBold, Barlow;font-weight:600;}</style></defs><g id="Layer_2" data-name="Layer 2"><g id="Layer_1-2" data-name="Layer 1"><rect class="cls-1" x="0.34" y="0.34" width="33.04" height="33.04" rx="5.69"/><path class="cls-2" d="M27.69.69A5.34,5.34,0,0,1,33,6V27.69A5.34,5.34,0,0,1,27.69,33H6A5.34,5.34,0,0,1,.69,27.69V6A5.34,5.34,0,0,1,6,.69H27.69m0-.69H6A6,6,0,0,0,0,6V27.69a6,6,0,0,0,6,6H27.69a6,6,0,0,0,6-6V6a6,6,0,0,0-6-6Z"/><path class="cls-3" d="M33,25.76v1.93A5.34,5.34,0,0,1,27.69,33H6A5.34,5.34,0,0,1,.69,27.69V25.76"/><text class="cls-4" transform="translate(5.99 20.91)">22</text><text class="cls-5" transform="translate(13.81 31.42)">SE</text></g></g></svg>