<svg xmlns="http://www.w3.org/2000/svg" viewBox="0 0 11.48 11.48"><defs><style>.cls-1{fill:#ed1c24;}.cls-2{fill:#fff;}</style></defs><g id="Layer_2" data-name="Layer 2"><g id="MAIN_ARTBOARD" data-name="MAIN ARTBOARD"><g id="Layer_41" data-name="Layer 41"><rect class="cls-1" width="11.48" height="11.48" rx="5.74"/><path class="cls-2" d="M5.42,7.31H7.24l0,0a.09.09,0,0,1,0,.06V8a.09.09,0,0,1,0,.06l0,0h-3l-.06,0a.14.14,0,0,1,0-.06V7.43a.1.1,0,0,1,0-.09l.66-.7.42-.46c.12-.15.25-.28.38-.42a1.88,1.88,0,0,0,.6-1,.5.5,0,0,0-.17-.38.65.65,0,0,0-.43-.14.67.67,0,0,0-.43.14.51.51,0,0,0-.16.4V5a.14.14,0,0,1,0,.06L5,5H4.24l0,0a.09.09,0,0,1,0-.06V4.64A1.15,1.15,0,0,1,4.39,4a1.27,1.27,0,0,1,.54-.42,2.06,2.06,0,0,1,.76-.14,1.87,1.87,0,0,1,.82.17A1.36,1.36,0,0,1,7,4.09a1.18,1.18,0,0,1,.19.66,1.33,1.33,0,0,1-.14.57A3.18,3.18,0,0,1,6.68,6q-.21.25-.45.51l-.7.72-.1.1A0,0,0,0,0,5.42,7.31Z"/></g></g></g></svg>