<svg xmlns="http://www.w3.org/2000/svg" viewBox="0 0 11.48 11.48"><defs><style>.cls-1{fill:#fff;}.cls-2{fill:#f7941d;}</style></defs><g id="Layer_2" data-name="Layer 2"><g id="MAIN_ARTBOARD" data-name="MAIN ARTBOARD"><g id="Layer_41" data-name="Layer 41"><rect class="cls-1" x="0.37" y="0.37" width="10.74" height="10.74" rx="2.31"/><path class="cls-2" d="M8.8.74a1.94,1.94,0,0,1,1.94,1.94V8.8A1.94,1.94,0,0,1,8.8,10.74H2.68A1.94,1.94,0,0,1,.74,8.8V2.68A1.94,1.94,0,0,1,2.68.74H8.8M8.8,0H2.68A2.68,2.68,0,0,0,0,2.68V8.8a2.68,2.68,0,0,0,2.68,2.68H8.8A2.68,2.68,0,0,0,11.48,8.8V2.68A2.68,2.68,0,0,0,8.8,0Z"/><path class="cls-2" d="M2.1,8.1a.14.14,0,0,1,0-.06V3.58a.14.14,0,0,1,0-.06l.06,0h.77l.06,0a.14.14,0,0,1,0,.06V5.43a0,0,0,0,0,0,0h0L4.58,3.55a.12.12,0,0,1,.09,0h.88a.06.06,0,0,1,.06,0,.06.06,0,0,1,0,.07L4.13,5.48s0,0,0,0L5.68,8a.1.1,0,0,1,0,0s0,0-.07,0H4.75a.11.11,0,0,1-.09,0L3.49,6.17l0,0,0,0L3,6.69s0,0,0,0V8A.14.14,0,0,1,3,8.1l-.06,0H2.16Z"/><path class="cls-2" d="M9.47,6.13a.11.11,0,0,1,0,.06v.66a.11.11,0,0,1,0,.06.07.07,0,0,1-.06,0H9.13s0,0,0,0V8a.09.09,0,0,1,0,.06L9,8.12H8.24l-.05,0a.07.07,0,0,1,0-.06V7a0,0,0,0,0,0,0h-2s-.05,0-.06,0,0,0,0-.06V6.33a.2.2,0,0,1,0-.1L7.23,3.56a.1.1,0,0,1,.1-.06h.82l.06,0s0,0,0,.07L7.11,6.07s0,0,0,0a0,0,0,0,0,0,0h1a0,0,0,0,0,0,0V5.26s0,0,0-.06,0,0,.05,0H9s0,0,.05,0a.07.07,0,0,1,0,.06v.81s0,0,0,0h.28A.07.07,0,0,1,9.47,6.13Z"/></g></g></g></svg>