<svg xmlns="http://www.w3.org/2000/svg" viewBox="0 0 11.48 11.48"><g data-name="Layer 2"><g data-name="MAIN ARTBOARD"><g data-name="Layer 41"><rect width="11.48" height="11.48" rx="2.68" style="fill:#85191b"/><path d="M2.28 8.1a.07.07 0 0 1 0-.06V3.58a.07.07 0 0 1 0-.06H4a1.94 1.94 0 0 1 .86.18 1.33 1.33 0 0 1 .58.49 1.27 1.27 0 0 1 .2.73v1.8a1.27 1.27 0 0 1-.2.73 1.35 1.35 0 0 1-.58.5 2.1 2.1 0 0 1-.86.17H2.33Zm.94-.78H4a.66.66 0 0 0 .49-.2.8.8 0 0 0 .19-.55V5.05a.8.8 0 0 0-.18-.55.7.7 0 0 0-.5-.2h-.78zm4.24-.01h1.82a.12.12 0 0 1 .08.08V8a.1.1 0 0 1 0 .06H6.25a.14.14 0 0 1 0-.06v-.57a.1.1 0 0 1 0-.09l.66-.7.42-.46c.12-.15.25-.28.38-.42a1.88 1.88 0 0 0 .6-1 .5.5 0 0 0-.17-.38.65.65 0 0 0-.43-.14.67.67 0 0 0-.43.14.51.51 0 0 0-.16.4V5a.14.14 0 0 1 0 .06L7.06 5h-.78a.09.09 0 0 1-.08 0v-.36A1.15 1.15 0 0 1 6.43 4 1.27 1.27 0 0 1 7 3.59a2.1 2.1 0 0 1 .76-.14 1.9 1.9 0 0 1 .82.17 1.36 1.36 0 0 1 .53.47 1.2 1.2 0 0 1 .19.66 1.3 1.3 0 0 1-.14.57 3.2 3.2 0 0 1-.44.68q-.21.25-.45.51l-.7.72-.1.1z" style="fill:#fff"/></g></g></g></svg>