<svg xmlns="http://www.w3.org/2000/svg" viewBox="0 0 11.63 4.85"><defs><style>.cls-1{fill:#c82128;}.cls-2{fill:#fff;}</style></defs><g id="Layer_2" data-name="Layer 2"><g id="MAIN_ARTBOARD" data-name="MAIN ARTBOARD"><g id="Layer_41" data-name="Layer 41"><rect class="cls-1" width="11.63" height="4.85" rx="2.42"/><path class="cls-2" d="M5,3.88,4,2.57,3.65,3v.88H3V.72h.62V2.15L4.91.72h.81L4.47,2.09,5.73,3.88Z"/><path class="cls-2" d="M7.34,3.94a1.62,1.62,0,0,1-1.15-.45A1.58,1.58,0,0,1,5.73,2.3,1.55,1.55,0,0,1,6.2,1.11,1.58,1.58,0,0,1,7.34.65a1.45,1.45,0,0,1,1,.31,1.37,1.37,0,0,1,.47.74l-.58.18a.77.77,0,0,0-.28-.45.83.83,0,0,0-.58-.19.93.93,0,0,0-.68.28,1,1,0,0,0-.3.78,1,1,0,0,0,.29.76.94.94,0,0,0,.69.28.88.88,0,0,0,.6-.19,1,1,0,0,0,.29-.46l.58.18a1.73,1.73,0,0,1-.16.37,1.59,1.59,0,0,1-.29.35,1.28,1.28,0,0,1-.43.25A1.59,1.59,0,0,1,7.34,3.94Z"/></g></g></g></svg>