<svg xmlns="http://www.w3.org/2000/svg" viewBox="0 0 11.48 11.48"><defs><style>.cls-1{fill:#fff;}.cls-2{fill:#2e3192;}</style></defs><g id="Layer_2" data-name="Layer 2"><g id="MAIN_ARTBOARD" data-name="MAIN ARTBOARD"><g id="Layer_41" data-name="Layer 41"><rect class="cls-1" x="0.37" y="0.37" width="10.74" height="10.73" rx="2.31"/><path class="cls-2" d="M8.8.74a1.94,1.94,0,0,1,1.94,1.94V8.8A1.94,1.94,0,0,1,8.8,10.74H2.68A1.94,1.94,0,0,1,.74,8.8V2.68A1.94,1.94,0,0,1,2.68.74H8.8M8.8,0H2.68A2.68,2.68,0,0,0,0,2.68V8.8a2.68,2.68,0,0,0,2.68,2.68H8.8A2.68,2.68,0,0,0,11.48,8.8V2.68A2.68,2.68,0,0,0,8.8,0Z"/><path class="cls-2" d="M2.25,8.1a.14.14,0,0,1,0-.06V3.58a.14.14,0,0,1,0-.06l.06,0h.77l.06,0a.14.14,0,0,1,0,.06V5.43s0,0,0,0h0L4.72,3.55a.14.14,0,0,1,.1,0h.87s.06,0,.07,0,0,0,0,.07L4.27,5.48a0,0,0,0,0,0,0L5.83,8a.43.43,0,0,0,0,.05s0,0-.07,0H4.9a.11.11,0,0,1-.09,0L3.64,6.17l0,0,0,0-.42.52a.08.08,0,0,0,0,0V8a.14.14,0,0,1,0,.06l-.06,0H2.31Z"/><path class="cls-2" d="M7.49,7.31s0,0,0,0H9.3a.07.07,0,0,1,.06,0,.08.08,0,0,1,0,.05V8a.14.14,0,0,1,0,.06l-.06,0h-3l0,0a.09.09,0,0,1,0-.06V7.43a.15.15,0,0,1,0-.09L7,6.65l.43-.47.37-.42a1.88,1.88,0,0,0,.6-1,.46.46,0,0,0-.16-.37.69.69,0,0,0-.86,0,.48.48,0,0,0-.16.39V5a.09.09,0,0,1,0,.06l0,0H6.31L6.25,5a.14.14,0,0,1,0-.06V4.64A1.2,1.2,0,0,1,6.45,4,1.37,1.37,0,0,1,7,3.59a2,2,0,0,1,.76-.14,1.86,1.86,0,0,1,.81.17,1.33,1.33,0,0,1,.54.48,1.22,1.22,0,0,1,.19.66,1.32,1.32,0,0,1-.14.56A2.87,2.87,0,0,1,8.74,6a6.66,6.66,0,0,1-.44.51c-.16.17-.39.41-.71.72l-.09.1S7.48,7.3,7.49,7.31Z"/></g></g></g></svg>