<svg xmlns="http://www.w3.org/2000/svg" viewBox="0 0 11.48 11.48"><defs><style>.cls-1{fill:#fff;}.cls-2{fill:#754c29;}</style></defs><g id="Layer_2" data-name="Layer 2"><g id="MAIN_ARTBOARD" data-name="MAIN ARTBOARD"><g id="Layer_41" data-name="Layer 41"><rect class="cls-1" x="0.37" y="0.37" width="10.74" height="10.74" rx="2.31"/><path class="cls-2" d="M8.8.74a1.94,1.94,0,0,1,1.94,1.94V8.8A1.94,1.94,0,0,1,8.8,10.74H2.68A1.94,1.94,0,0,1,.74,8.8V2.68A1.94,1.94,0,0,1,2.68.74H8.8M8.8,0H2.68A2.68,2.68,0,0,0,0,2.68V8.8a2.68,2.68,0,0,0,2.68,2.68H8.8A2.68,2.68,0,0,0,11.48,8.8V2.68A2.68,2.68,0,0,0,8.8,0Z"/><path class="cls-2" d="M2.32,8.1a.09.09,0,0,1,0-.06V3.58a.09.09,0,0,1,0-.06l.05,0h.78l.05,0a.09.09,0,0,1,0,.06V5.43s0,0,0,0h0L4.79,3.55a.14.14,0,0,1,.1,0h.87a.08.08,0,0,1,.07,0,.11.11,0,0,1,0,.07L4.34,5.48s0,0,0,0L5.89,8a.1.1,0,0,1,0,0s0,0-.06,0H5s-.08,0-.09,0L3.7,6.17l0,0,0,0-.41.52a.06.06,0,0,0,0,0V8a.09.09,0,0,1,0,.06l-.05,0H2.37Z"/><path class="cls-2" d="M9.3,6.62a1.84,1.84,0,0,1-.12.66,1.28,1.28,0,0,1-.53.66,1.67,1.67,0,0,1-.88.23,1.54,1.54,0,0,1-.88-.25,1.4,1.4,0,0,1-.54-.68,1.63,1.63,0,0,1-.11-.55c0-.06,0-.08.08-.08H7.1c.05,0,.08,0,.08.08A1.42,1.42,0,0,0,7.25,7a.53.53,0,0,0,.19.27.6.6,0,0,0,.33.09.49.49,0,0,0,.5-.32,1.11,1.11,0,0,0,.1-.46,1.22,1.22,0,0,0-.1-.51.52.52,0,0,0-.51-.31.28.28,0,0,0-.15,0,.92.92,0,0,0-.19.13H7.36a.09.09,0,0,1-.06,0l-.39-.55a.09.09,0,0,1,0,0,.06.06,0,0,1,0-.06L8,4.34s0,0,0,0H6.41l0,0a.09.09,0,0,1,0-.06V3.58a.09.09,0,0,1,0-.06l0,0H9.16l.06,0a.07.07,0,0,1,0,.06V4.3a.13.13,0,0,1,0,.1l-.87.8s0,0,0,0,0,0,0,0a1.07,1.07,0,0,1,.82.68A1.68,1.68,0,0,1,9.3,6.62Z"/></g></g></g></svg>