<svg xmlns="http://www.w3.org/2000/svg" viewBox="0 0 11.48 11.48"><defs><style>.cls-2{fill:#f7941d}</style></defs><g id="Layer_2" data-name="Layer 2"><g id="MAIN_ARTBOARD" data-name="MAIN ARTBOARD"><g id="Layer_41" data-name="Layer 41"><rect width="10.74" height="10.74" x=".37" y=".37" rx="2.31" style="fill:#fff"/><path d="M8.8.74a1.94 1.94 0 0 1 1.94 1.94V8.8a1.94 1.94 0 0 1-1.94 1.94H2.68A1.94 1.94 0 0 1 .74 8.8V2.68A1.94 1.94 0 0 1 2.68.74zm0-.74H2.68A2.68 2.68 0 0 0 0 2.68V8.8a2.68 2.68 0 0 0 2.68 2.68H8.8a2.68 2.68 0 0 0 2.68-2.68V2.68A2.68 2.68 0 0 0 8.8 0" class="cls-2"/><path d="M2.1 8.1a.14.14 0 0 1 0-.06V3.58a.14.14 0 0 1 0-.06h.89a.14.14 0 0 1 0 .06v1.85l1.59-1.88a.12.12 0 0 1 .09 0h.88a.06.06 0 0 1 .06 0 .06.06 0 0 1 0 .07L4.13 5.48 5.68 8h-.93a.11.11 0 0 1-.09 0L3.49 6.17 3 6.69V8a.14.14 0 0 1 0 .1h-.84Zm7.37-1.97a.1.1 0 0 1 0 .06v.66a.1.1 0 0 1 0 .06.07.07 0 0 1-.06 0h-.28V8a.1.1 0 0 1 0 .06L9 8.12h-.81a.07.07 0 0 1 0-.06V7H6.13c-.01 0 0 0 0-.06v-.61a.2.2 0 0 1 0-.1l1.1-2.67a.1.1 0 0 1 .1-.06h.88v.07l-1.1 2.5h1V5.2c0-.06 0 0 .05 0h.89a.07.07 0 0 1 0 .06v.81h.28a.07.07 0 0 1 .14.06" class="cls-2"/></g></g></g></svg>