<svg xmlns="http://www.w3.org/2000/svg" viewBox="0 0 11.63 4.85"><g data-name="Layer 2"><g data-name="MAIN ARTBOARD"><g data-name="Layer 41"><rect width="11.63" height="4.85" rx="2.42" style="fill:#2a3b90"/><path d="M4.82.71H6a1 1 0 0 1 .66.29.81.81 0 0 1 .26.62.75.75 0 0 1-.13.38.6.6 0 0 1-.33.25.76.76 0 0 1 .4.26A.8.8 0 0 1 7 3a.83.83 0 0 1-.26.64 1 1 0 0 1-.74.23H4.82ZM5.42 2h.44a.44.44 0 0 0 .33-.11.36.36 0 0 0 .12-.29.35.35 0 0 0-.12-.28.5.5 0 0 0-.34-.11h-.43Zm0 1.34h.5a.48.48 0 0 0 .35-.11A.35.35 0 0 0 6.4 3a.4.4 0 0 0-.12-.31.54.54 0 0 0-.35-.11h-.51Z" style="fill:#fff"/></g></g></g></svg>