<svg xmlns="http://www.w3.org/2000/svg" viewBox="0 0 11.48 11.48"><defs><style>.cls-1{fill:#fff;}.cls-2{fill:#00a651;}</style></defs><g id="Layer_2" data-name="Layer 2"><g id="MAIN_ARTBOARD" data-name="MAIN ARTBOARD"><g id="Layer_41" data-name="Layer 41"><rect class="cls-1" x="0.37" y="0.37" width="10.74" height="10.73" rx="2.31"/><path class="cls-2" d="M8.8.74a1.94,1.94,0,0,1,1.94,1.94V8.8A1.94,1.94,0,0,1,8.8,10.74H2.68A1.94,1.94,0,0,1,.74,8.8V2.68A1.94,1.94,0,0,1,2.68.74H8.8M8.8,0H2.68A2.68,2.68,0,0,0,0,2.68V8.8a2.68,2.68,0,0,0,2.68,2.68H8.8A2.68,2.68,0,0,0,11.48,8.8V2.68A2.68,2.68,0,0,0,8.8,0Z"/><path class="cls-2" d="M2.32,8.1A.14.14,0,0,1,2.3,8V3.58a.14.14,0,0,1,0-.06l.06,0h.77l.06,0a.14.14,0,0,1,0,.06V5.43s0,0,0,0h0L4.79,3.55a.14.14,0,0,1,.1,0h.87s.06,0,.07,0,0,0,0,.07L4.34,5.48a0,0,0,0,0,0,0L5.9,8a.1.1,0,0,0,0,0s0,0-.07,0H5a.11.11,0,0,1-.09,0L3.7,6.17l0,0,0,0-.42.52a.08.08,0,0,0,0,0V8a.14.14,0,0,1,0,.06l-.06,0H2.38Z"/><path class="cls-2" d="M9.37,6.64a1.66,1.66,0,0,1-.11.61,1.34,1.34,0,0,1-.53.67,1.69,1.69,0,0,1-.9.25A1.59,1.59,0,0,1,7,7.93a1.3,1.3,0,0,1-.54-.66,2.42,2.42,0,0,1-.1-.36v0s0-.07.08-.07h.8a.08.08,0,0,1,.08.07.64.64,0,0,0,0,.07s0,0,0,0a.59.59,0,0,0,.2.26.54.54,0,0,0,.31.09.56.56,0,0,0,.33-.1A.54.54,0,0,0,8.35,7a.78.78,0,0,0,.07-.34.9.9,0,0,0-.06-.34A.48.48,0,0,0,8.17,6a.57.57,0,0,0-.32-.09A.67.67,0,0,0,7.51,6a.47.47,0,0,0-.22.22.08.08,0,0,1-.08.07H6.4l-.06,0a.07.07,0,0,1,0-.06V3.58a.07.07,0,0,1,0-.06l.06,0H9.12l.06,0a.14.14,0,0,1,0,.06v.64a.14.14,0,0,1,0,.06l-.06,0H7.28a0,0,0,0,0,0,0v1s0,0,0,0A1.23,1.23,0,0,1,8,5.14a1.5,1.5,0,0,1,.81.23A1.29,1.29,0,0,1,9.27,6,2.29,2.29,0,0,1,9.37,6.64Z"/></g></g></g></svg>