<svg xmlns="http://www.w3.org/2000/svg" viewBox="0 0 11.48 11.48"><defs><style>.cls-1{fill:#85191b;}.cls-2{fill:#fff;}</style></defs><g id="Layer_2" data-name="Layer 2"><g id="MAIN_ARTBOARD" data-name="MAIN ARTBOARD"><g id="Layer_41" data-name="Layer 41"><rect class="cls-1" width="11.48" height="11.48" rx="2.68"/><path class="cls-2" d="M2.28,8.1a.07.07,0,0,1,0-.06V3.58a.07.07,0,0,1,0-.06l.05,0H4a1.94,1.94,0,0,1,.86.18,1.33,1.33,0,0,1,.58.49,1.27,1.27,0,0,1,.2.73V6.72a1.27,1.27,0,0,1-.2.73,1.35,1.35,0,0,1-.58.5A2.09,2.09,0,0,1,4,8.12H2.33Zm.94-.78H4a.66.66,0,0,0,.49-.2.81.81,0,0,0,.19-.55V5.05a.81.81,0,0,0-.18-.55A.69.69,0,0,0,4,4.3H3.22a0,0,0,0,0,0,0v3A0,0,0,0,0,3.22,7.32Z"/><path class="cls-2" d="M7.46,7.31H9.28a.12.12,0,0,1,.08.08V8a.09.09,0,0,1,0,.06l-.05,0h-3l-.06,0a.14.14,0,0,1,0-.06V7.43a.1.1,0,0,1,0-.09l.66-.7.42-.46c.12-.15.25-.28.38-.42a1.88,1.88,0,0,0,.6-1,.5.5,0,0,0-.17-.38.65.65,0,0,0-.43-.14.67.67,0,0,0-.43.14.51.51,0,0,0-.16.4V5a.14.14,0,0,1,0,.06L7.06,5H6.28l0,0A.09.09,0,0,1,6.2,5V4.64A1.15,1.15,0,0,1,6.43,4,1.27,1.27,0,0,1,7,3.59a2.06,2.06,0,0,1,.76-.14,1.87,1.87,0,0,1,.82.17,1.36,1.36,0,0,1,.53.47,1.18,1.18,0,0,1,.19.66,1.33,1.33,0,0,1-.14.57A3.18,3.18,0,0,1,8.72,6q-.21.25-.45.51l-.7.72-.1.1A0,0,0,0,0,7.46,7.31Z"/></g></g></g></svg>