<svg xmlns="http://www.w3.org/2000/svg" viewBox="0 0 11.48 11.48"><defs><style>.cls-1{fill:#fff;}.cls-2{fill:#662d91;}</style></defs><g id="Layer_2" data-name="Layer 2"><g id="MAIN_ARTBOARD" data-name="MAIN ARTBOARD"><g id="Layer_41" data-name="Layer 41"><rect class="cls-1" x="0.37" y="0.37" width="10.74" height="10.74" rx="2.31"/><path class="cls-2" d="M8.8.74a1.94,1.94,0,0,1,1.94,1.94V8.8A1.94,1.94,0,0,1,8.8,10.74H2.68A1.94,1.94,0,0,1,.74,8.8V2.68A1.94,1.94,0,0,1,2.68.74H8.8M8.8,0H2.68A2.68,2.68,0,0,0,0,2.68V8.8a2.68,2.68,0,0,0,2.68,2.68H8.8A2.68,2.68,0,0,0,11.48,8.8V2.68A2.68,2.68,0,0,0,8.8,0Z"/><path class="cls-2" d="M6.3,4.28l0,0H4.09a0,0,0,0,0,0,0v1a0,0,0,0,0,0,0H5.51l0,0a.09.09,0,0,1,0,.06v.64a.12.12,0,0,1-.08.08H4.09a0,0,0,0,0,0,0V8A.09.09,0,0,1,4,8.1L4,8.12H3.21l-.06,0a.07.07,0,0,1,0-.06V3.58a.07.07,0,0,1,0-.06l.06,0h3l0,0a.09.09,0,0,1,0,.06v.64A.09.09,0,0,1,6.3,4.28Z"/><path class="cls-2" d="M7.51,3.5h.8l0,0a.09.09,0,0,1,0,.06V8a.09.09,0,0,1,0,.06l0,0H7.53l0,0a.07.07,0,0,1,0-.06V4.43l0,0h0l-.66.18h0s-.06,0-.06-.08l0-.56a.1.1,0,0,1,.06-.1l.69-.32Z"/></g></g></g></svg>