<svg xmlns="http://www.w3.org/2000/svg" viewBox="0 0 113.39 113.39"><defs><style>.cls-1{fill:#22b473;}</style></defs><g id="Layer_2" data-name="Layer 2"><g id="Type_2B_Braga" data-name="Type 2B Braga"><g id="Layer_41" data-name="Layer 41"><path class="cls-1" d="M56.69,12A44.7,44.7,0,1,1,12,56.69,44.75,44.75,0,0,1,56.69,12m0-12h0a56.7,56.7,0,0,0,0,113.39h0A56.7,56.7,0,1,0,56.69,0Z"/><path class="cls-1" d="M40.17,53.86H34.09V25.94H52.61v5.4H40.17v5.72h10.6v5.36H40.17Z"/><path class="cls-1" d="M57.49,53.86V25.94H68a13,13,0,0,1,6.48,1.56,10.44,10.44,0,0,1,4.28,4.66,17.59,17.59,0,0,1,1.52,7.74,17.59,17.59,0,0,1-1.52,7.74,10.44,10.44,0,0,1-4.28,4.66A13,13,0,0,1,68,53.86Zm6.08-5.4H68a6.77,6.77,0,0,0,3.12-.68,4.57,4.57,0,0,0,2-2.1,8.14,8.14,0,0,0,.7-3.62V37.74a8.11,8.11,0,0,0-.7-3.64,4.58,4.58,0,0,0-2-2.08A6.77,6.77,0,0,0,68,31.34H63.57Z"/><path class="cls-1" d="M67.85,89.86H48.41V85h7.52V66.3h-.36l-5.68,7.44-3.84-3,6.68-8.8h9.2V85h5.92Z"/></g></g></g></svg>