<svg xmlns="http://www.w3.org/2000/svg" viewBox="0 0 11.63 4.85"><g data-name="Layer 2"><g data-name="MAIN ARTBOARD"><g data-name="Layer 41"><rect width="11.63" height="4.85" rx="2.42" style="fill:#1d75bc"/><path d="M5.9 3.94a1.62 1.62 0 0 1-1.15-.45 1.58 1.58 0 0 1-.46-1.19A1.59 1.59 0 0 1 5.9.65a1.45 1.45 0 0 1 1 .31 1.37 1.37 0 0 1 .47.74l-.58.18a.77.77 0 0 0-.28-.45.83.83 0 0 0-.58-.19.93.93 0 0 0-.68.28 1 1 0 0 0-.3.78 1 1 0 0 0 .29.76.94.94 0 0 0 .69.28.84.84 0 0 0 .59-.19.93.93 0 0 0 .3-.46l.58.18a1.7 1.7 0 0 1-.16.37 1.6 1.6 0 0 1-.29.35 1.3 1.3 0 0 1-.43.25 1.6 1.6 0 0 1-.62.1" style="fill:#fff"/></g></g></g></svg>