<svg xmlns="http://www.w3.org/2000/svg" viewBox="0 0 11.48 11.48"><g data-name="Layer 2"><g data-name="MAIN ARTBOARD"><g data-name="Layer 41"><rect width="11.48" height="11.48" rx="5.74" style="fill:#ec008c"/><path d="M7.3 6.64a1.7 1.7 0 0 1-.11.61 1.3 1.3 0 0 1-.53.67 1.64 1.64 0 0 1-.9.25 1.6 1.6 0 0 1-.88-.24 1.35 1.35 0 0 1-.54-.66 2 2 0 0 1-.09-.36s0-.07.07-.07h.8a.08.08 0 0 1 .09.07.14.14 0 0 0 0 .07.52.52 0 0 0 .2.26.52.52 0 0 0 .31.09.5.5 0 0 0 .32-.1.55.55 0 0 0 .24-.23.7.7 0 0 0 .07-.35.9.9 0 0 0-.06-.34.47.47 0 0 0-.18-.31.6.6 0 0 0-.33-.09.67.67 0 0 0-.34.09.4.4 0 0 0-.21.22s0 .07-.09.07h-.87a.14.14 0 0 1 0-.06V3.58a.14.14 0 0 1 0-.06h2.84a.1.1 0 0 1 0 .06v.64a.1.1 0 0 1 0 .06h-1.9v1a1.23 1.23 0 0 1 .69-.19 1.45 1.45 0 0 1 .81.23A1.3 1.3 0 0 1 7.2 6a2 2 0 0 1 .1.64" style="fill:#fff"/></g></g></g></svg>