<svg xmlns="http://www.w3.org/2000/svg" viewBox="0 0 33.72 33.72"><g data-name="Layer 2"><g data-name="Layer 1"><rect width="33.04" height="33.04" x=".34" y=".34" rx="5.69" style="fill:#00aeef"/><path d="M27.69.69A5.34 5.34 0 0 1 33 6v21.69A5.34 5.34 0 0 1 27.69 33H6a5.34 5.34 0 0 1-5.31-5.31V6A5.34 5.34 0 0 1 6 .69zm0-.69H6a6 6 0 0 0-6 6v21.69a6 6 0 0 0 6 6h21.69a6 6 0 0 0 6-6V6a6 6 0 0 0-6-6" style="fill:#fff"/><path d="M33 25.76v1.93A5.34 5.34 0 0 1 27.69 33H6a5.34 5.34 0 0 1-5.31-5.31v-1.93" style="fill:#223e7e"/><text style="fill:#fff;font-size:19.41px;font-family:Barlow-Bold,Barlow;font-weight:700" transform="translate(5.55 20.9)">24</text></g></g></svg>