<svg xmlns="http://www.w3.org/2000/svg" viewBox="0 0 11.48 11.48"><defs><style>.cls-2{fill:#00a651}</style></defs><g id="Layer_2" data-name="Layer 2"><g id="MAIN_ARTBOARD" data-name="MAIN ARTBOARD"><g id="Layer_41" data-name="Layer 41"><rect width="10.74" height="10.73" x=".37" y=".37" rx="2.31" style="fill:#fff"/><path d="M8.8.74a1.94 1.94 0 0 1 1.94 1.94V8.8a1.94 1.94 0 0 1-1.94 1.94H2.68A1.94 1.94 0 0 1 .74 8.8V2.68A1.94 1.94 0 0 1 2.68.74zm0-.74H2.68A2.68 2.68 0 0 0 0 2.68V8.8a2.68 2.68 0 0 0 2.68 2.68H8.8a2.68 2.68 0 0 0 2.68-2.68V2.68A2.68 2.68 0 0 0 8.8 0" class="cls-2"/><path d="M2.32 8.1A.14.14 0 0 1 2.3 8V3.58a.14.14 0 0 1 0-.06h.89a.14.14 0 0 1 0 .06v1.85l1.6-1.88a.14.14 0 0 1 .1 0h.94c.01 0 0 0 0 .07L4.34 5.48 5.9 8H5a.11.11 0 0 1-.09 0L3.7 6.17l-.42.52V8a.14.14 0 0 1 0 .06h-.9Zm7.05-1.46a1.7 1.7 0 0 1-.11.61 1.34 1.34 0 0 1-.53.67 1.7 1.7 0 0 1-.9.25A1.6 1.6 0 0 1 7 7.93a1.3 1.3 0 0 1-.54-.66 2.4 2.4 0 0 1-.1-.36s0-.07.08-.07h.8a.08.08 0 0 1 .08.07v.07a.6.6 0 0 0 .2.26.54.54 0 0 0 .31.09.56.56 0 0 0 .33-.1.54.54 0 0 0 .19-.23.8.8 0 0 0 .07-.34.9.9 0 0 0-.06-.34.48.48 0 0 0-.19-.32.57.57 0 0 0-.32-.09.67.67 0 0 0-.34.09.47.47 0 0 0-.22.22.08.08 0 0 1-.08.07h-.87a.07.07 0 0 1 0-.06V3.58a.07.07 0 0 1 0-.06h2.84a.14.14 0 0 1 0 .06v.64a.14.14 0 0 1 0 .06h-1.9v1A1.23 1.23 0 0 1 8 5.14a1.5 1.5 0 0 1 .81.23 1.3 1.3 0 0 1 .46.63 2.3 2.3 0 0 1 .1.64" class="cls-2"/></g></g></g></svg>