<svg xmlns="http://www.w3.org/2000/svg" viewBox="0 0 33.72 33.72"><g data-name="Layer 2"><g data-name="Layer 1"><rect width="33.04" height="33.04" x=".34" y=".34" rx="5.69" style="fill:#fff200"/><path d="M27.69.69A5.34 5.34 0 0 1 33 6v21.69A5.34 5.34 0 0 1 27.69 33H6a5.34 5.34 0 0 1-5.31-5.31V6A5.34 5.34 0 0 1 6 .69zm0-.69H6a6 6 0 0 0-6 6v21.69a6 6 0 0 0 6 6h21.69a6 6 0 0 0 6-6V6a6 6 0 0 0-6-6" style="fill:#fff"/><path d="M33 25.76v1.93A5.34 5.34 0 0 1 27.69 33H6a5.34 5.34 0 0 1-5.31-5.31v-1.93" style="fill:#156635"/><text style="font-size:19.41px;fill:#231f20;font-family:Barlow-Bold,Barlow;font-weight:700" transform="translate(6.39 20.91)">35</text><text style="fill:#fff;font-size:5.18px;font-family:Barlow-SemiBold,Barlow;font-weight:600" transform="translate(13.68 31.42)">CB</text></g></g></svg>