<svg xmlns="http://www.w3.org/2000/svg" viewBox="0 0 11.48 11.48"><defs><style>.cls-1{fill:#fff;}.cls-2{fill:#ed1c24;}</style></defs><g id="Layer_2" data-name="Layer 2"><g id="MAIN_ARTBOARD" data-name="MAIN ARTBOARD"><g id="Layer_41" data-name="Layer 41"><rect class="cls-1" x="0.37" y="0.37" width="10.74" height="10.74" rx="2.31"/><path class="cls-2" d="M8.8.74a1.94,1.94,0,0,1,1.94,1.94V8.8A1.94,1.94,0,0,1,8.8,10.74H2.68A1.94,1.94,0,0,1,.74,8.8V2.68A1.94,1.94,0,0,1,2.68.74H8.8M8.8,0H2.68A2.68,2.68,0,0,0,0,2.68V8.8a2.68,2.68,0,0,0,2.68,2.68H8.8A2.68,2.68,0,0,0,11.48,8.8V2.68A2.68,2.68,0,0,0,8.8,0Z"/><path class="cls-2" d="M2.93,8.1a.14.14,0,0,1,0-.06V3.58a.14.14,0,0,1,0-.06L3,3.5h.77l.06,0a.14.14,0,0,1,0,.06V5.43s0,0,0,0h0L5.4,3.55a.14.14,0,0,1,.1,0h.87s.06,0,.07,0,0,0,0,.07L5,5.48a0,0,0,0,0,0,0L6.51,8a.43.43,0,0,0,0,.05s0,0-.07,0H5.58a.11.11,0,0,1-.09,0L4.32,6.17l0,0,0,0-.42.52a.08.08,0,0,0,0,0V8a.14.14,0,0,1,0,.06l-.06,0H3Z"/><path class="cls-2" d="M7.73,3.5h.8l.05,0a.07.07,0,0,1,0,.06V8a.07.07,0,0,1,0,.06l-.05,0H7.75l0,0a.09.09,0,0,1,0-.06V4.4h0L7,4.57H7s0,0,0-.08l0-.56a.12.12,0,0,1,.06-.1l.7-.32A.22.22,0,0,1,7.73,3.5Z"/></g></g></g></svg>