<svg xmlns="http://www.w3.org/2000/svg" viewBox="0 0 11.48 11.48"><defs><style>.cls-2{fill:#3499cc}</style></defs><g id="Layer_2" data-name="Layer 2"><g id="MAIN_ARTBOARD" data-name="MAIN ARTBOARD"><g id="Layer_41" data-name="Layer 41"><rect width="10.74" height="10.73" x=".37" y=".37" rx="2.31" style="fill:#fff"/><path d="M8.8.74a1.94 1.94 0 0 1 1.94 1.94V8.8a1.94 1.94 0 0 1-1.94 1.94H2.68A1.94 1.94 0 0 1 .74 8.8V2.68A1.94 1.94 0 0 1 2.68.74zm0-.74H2.68A2.68 2.68 0 0 0 0 2.68V8.8a2.68 2.68 0 0 0 2.68 2.68H8.8a2.68 2.68 0 0 0 2.68-2.68V2.68A2.68 2.68 0 0 0 8.8 0" class="cls-2"/><path d="M5.62 4.28H3.41v1h1.48a.14.14 0 0 1 0 .06v.64H3.41V8a.1.1 0 0 1 0 .06h-.94a.07.07 0 0 1 0-.06V3.58a.07.07 0 0 1 0-.06h3.06a.1.1 0 0 1 0 .06v.64a.09.09 0 0 1 .09.06m1.65 3.03h1.82a.05.05 0 0 1 .05 0s0 0 0 .05V8a.07.07 0 0 1 0 .06H6.03A.07.07 0 0 1 6 8v-.57a.11.11 0 0 1 0-.09l.66-.69.42-.47.37-.41c.41-.45.61-.78.61-1A.47.47 0 0 0 8 4.4a.6.6 0 0 0-.43-.15.63.63 0 0 0-.43.15.48.48 0 0 0-.14.39V5a.07.07 0 0 1 0 .06h-.91L6 5v-.36A1.2 1.2 0 0 1 6.23 4a1.4 1.4 0 0 1 .55-.42 2.1 2.1 0 0 1 .76-.14 1.9 1.9 0 0 1 .82.17 1.3 1.3 0 0 1 .53.48 1.14 1.14 0 0 1 .19.66 1.3 1.3 0 0 1-.14.56 2.7 2.7 0 0 1-.42.69 7 7 0 0 1-.44.51l-.7.72-.1.1z" class="cls-2"/></g></g></g></svg>