<svg xmlns="http://www.w3.org/2000/svg" viewBox="0 0 11.48 11.48"><g data-name="Layer 2"><g data-name="MAIN ARTBOARD"><g data-name="Layer 41"><rect width="11.48" height="11.48" rx="2.68" style="fill:#c36"/><path d="M2.34 8.1a.14.14 0 0 1 0-.06V3.58a.14.14 0 0 1 0-.06h1.71a2.1 2.1 0 0 1 .87.17 1.4 1.4 0 0 1 .57.5 1.3 1.3 0 0 1 .21.73v1.8a1.3 1.3 0 0 1-.21.73 1.3 1.3 0 0 1-.57.5 2.1 2.1 0 0 1-.87.17H2.4Zm.94-.78h.8a.65.65 0 0 0 .49-.2.82.82 0 0 0 .2-.55V5.05a.8.8 0 0 0-.19-.55.68.68 0 0 0-.51-.2h-.79zm6.03-.55a1.34 1.34 0 0 1-.16.68 1.3 1.3 0 0 1-.53.55 1.7 1.7 0 0 1-.84.19A1.75 1.75 0 0 1 7 8a1.2 1.2 0 0 1-.55-.54 1.4 1.4 0 0 1-.16-.68 1.6 1.6 0 0 1 .15-.68 1 1 0 0 1 .33-.38.94.94 0 0 1-.27-.32 1.15 1.15 0 0 1-.15-.59A1.2 1.2 0 0 1 6.56 4a1.2 1.2 0 0 1 .51-.4 1.7 1.7 0 0 1 .71-.15 1.7 1.7 0 0 1 .72.15A1.4 1.4 0 0 1 9 4a1.27 1.27 0 0 1 .26.79 1.14 1.14 0 0 1-.17.61 1.3 1.3 0 0 1-.27.29.93.93 0 0 1 .34.39 1.5 1.5 0 0 1 .15.69m-.93-.09a.76.76 0 0 0-.1-.41.51.51 0 0 0-.5-.27.5.5 0 0 0-.49.27.77.77 0 0 0-.1.42.8.8 0 0 0 .11.43.51.51 0 0 0 .48.25.51.51 0 0 0 .47-.23.8.8 0 0 0 .13-.46m-1.16-1.9a.64.64 0 0 0 .09.34.51.51 0 0 0 .47.24.55.55 0 0 0 .48-.24.7.7 0 0 0 .08-.35.7.7 0 0 0-.06-.27.5.5 0 0 0-.2-.21.6.6 0 0 0-.31-.08.57.57 0 0 0-.29.08.5.5 0 0 0-.19.21.55.55 0 0 0-.07.28" style="fill:#fff"/></g></g></g></svg>