<svg xmlns="http://www.w3.org/2000/svg" viewBox="0 0 11.48 11.48"><g data-name="Layer 2"><g data-name="MAIN ARTBOARD"><g data-name="Layer 41"><rect width="11.48" height="11.48" rx="2.68" style="fill:#754c29"/><path d="M1.77 8.1a.1.1 0 0 1 0-.06V3.58a.1.1 0 0 1 0-.06h1.7a2 2 0 0 1 .87.18 1.33 1.33 0 0 1 .58.49 1.35 1.35 0 0 1 .2.73v1.8A1.31 1.31 0 0 1 4.34 8a2.1 2.1 0 0 1-.87.17H1.82Zm.94-.78h.8a.66.66 0 0 0 .49-.2.8.8 0 0 0 .19-.55V5.05A.77.77 0 0 0 4 4.5a.65.65 0 0 0-.5-.2h-.79v3s-.02.02 0 .02m3.8-3.82h.85a.1.1 0 0 1 0 .06V8a.1.1 0 0 1 0 .06h-.88a.07.07 0 0 1 0-.06V4.42l-.66.18s-.06 0-.06-.08v-.56a.1.1 0 0 1 .06-.1l.69-.32Zm2.38 0h.86a.14.14 0 0 1 0 .06V8a.14.14 0 0 1 0 .06h-.89a.14.14 0 0 1 0-.06V4.42l-.66.18s-.06 0-.06-.08v-.56a.1.1 0 0 1 .06-.1l.69-.32Z" style="fill:#fff"/></g></g></g></svg>