<svg xmlns="http://www.w3.org/2000/svg" viewBox="0 0 11.48 11.48"><g data-name="Layer 2"><g data-name="MAIN ARTBOARD"><g data-name="Layer 41"><rect width="11.48" height="11.48" rx="5.74" style="fill:#f04b23"/><path d="M7.29 6.64a1.9 1.9 0 0 1-.12.69 1.33 1.33 0 0 1-.54.61 1.56 1.56 0 0 1-.85.23 1.57 1.57 0 0 1-.88-.24 1.28 1.28 0 0 1-.54-.65 1.7 1.7 0 0 1-.11-.64v-2A1.1 1.1 0 0 1 4.43 4 1.24 1.24 0 0 1 5 3.6a1.9 1.9 0 0 1 .77-.15 1.8 1.8 0 0 1 .76.15A1.16 1.16 0 0 1 7 4a1.1 1.1 0 0 1 .18.62v.18a.1.1 0 0 1 0 .06.07.07 0 0 1-.06 0h-.79a.07.07 0 0 1-.06 0 .1.1 0 0 1 0-.06.53.53 0 0 0-.14-.37.6.6 0 0 0-.78 0 .48.48 0 0 0-.15.37v.6a1.06 1.06 0 0 1 .72-.23 1.4 1.4 0 0 1 .71.18 1.26 1.26 0 0 1 .5.52 1.7 1.7 0 0 1 .16.77m-.93 0a.84.84 0 0 0-.1-.44.52.52 0 0 0-.48-.2.51.51 0 0 0-.5.27.8.8 0 0 0-.1.44.8.8 0 0 0 .09.4.49.49 0 0 0 .5.29.5.5 0 0 0 .49-.29.76.76 0 0 0 .1-.45Z" style="fill:#fff"/></g></g></g></svg>