<svg xmlns="http://www.w3.org/2000/svg" viewBox="0 0 11.48 11.48"><defs><style>.cls-2{fill:#754c29}</style></defs><g id="Layer_2" data-name="Layer 2"><g id="MAIN_ARTBOARD" data-name="MAIN ARTBOARD"><g id="Layer_41" data-name="Layer 41"><rect width="10.74" height="10.74" x=".37" y=".37" rx="2.31" style="fill:#fff"/><path d="M8.8.74a1.94 1.94 0 0 1 1.94 1.94V8.8a1.94 1.94 0 0 1-1.94 1.94H2.68A1.94 1.94 0 0 1 .74 8.8V2.68A1.94 1.94 0 0 1 2.68.74zm0-.74H2.68A2.68 2.68 0 0 0 0 2.68V8.8a2.68 2.68 0 0 0 2.68 2.68H8.8a2.68 2.68 0 0 0 2.68-2.68V2.68A2.68 2.68 0 0 0 8.8 0" class="cls-2"/><path d="M2.32 8.1a.1.1 0 0 1 0-.06V3.58a.1.1 0 0 1 0-.06h.8800000000000001a.1.1 0 0 1 0 .06v1.85l1.59-1.88a.14.14 0 0 1 .1 0h.87a.08.08 0 0 1 .07 0 .1.1 0 0 1 0 .07L4.34 5.48 5.89 8h-.9799999999999999L3.7 6.17l-.41.52V8a.1.1 0 0 1 0 .06h-.92ZM9.3 6.62a1.8 1.8 0 0 1-.12.66 1.28 1.28 0 0 1-.53.66 1.67 1.67 0 0 1-.88.23 1.54 1.54 0 0 1-.88-.25 1.4 1.4 0 0 1-.54-.68 1.6 1.6 0 0 1-.11-.55c0-.06 0-.08.08-.08h.78c.05 0 .08 0 .08.08a1.4 1.4 0 0 0 .07.31.53.53 0 0 0 .19.27.6.6 0 0 0 .33.09.49.49 0 0 0 .5-.32 1.1 1.1 0 0 0 .1-.46 1.2 1.2 0 0 0-.1-.51.52.52 0 0 0-.51-.31.3.3 0 0 0-.15 0 1 1 0 0 0-.19.13h-.06a.1.1 0 0 1-.06 0l-.39-.55a.06.06 0 0 1 0-.06L8 4.34H6.41a.1.1 0 0 1 0-.06v-.7a.1.1 0 0 1 0-.06h2.81a.07.07 0 0 1 0 .06v.72a.13.13 0 0 1 0 .1l-.87.8a1.07 1.07 0 0 1 .82.68 1.7 1.7 0 0 1 .13.74" class="cls-2"/></g></g></g></svg>