<svg xmlns="http://www.w3.org/2000/svg" viewBox="0 0 11.48 11.48"><g data-name="Layer 2"><g data-name="MAIN ARTBOARD"><g data-name="Layer 41"><rect width="11.48" height="11.48" rx="5.74" style="fill:#562b63"/><path d="M7.24 6.62a1.8 1.8 0 0 1-.12.66 1.4 1.4 0 0 1-.53.66 1.6 1.6 0 0 1-.88.23 1.5 1.5 0 0 1-.88-.25 1.32 1.32 0 0 1-.55-.68 2 2 0 0 1-.11-.55.07.07 0 0 1 .08-.08H5c.06 0 .08 0 .08.08a1.4 1.4 0 0 0 .1.31.5.5 0 0 0 .2.27.6.6 0 0 0 .32.1.5.5 0 0 0 .51-.33 1.1 1.1 0 0 0 .09-.46 1.1 1.1 0 0 0-.1-.51.53.53 0 0 0-.51-.31.4.4 0 0 0-.15 0 1.3 1.3 0 0 0-.19.13.07.07 0 0 1-.06 0l-.39-.55a.07.07 0 0 1 0-.06l1-.92H4.29a.07.07 0 0 1 0-.06v-.72a.07.07 0 0 1 0-.06h2.86a.1.1 0 0 1 0 .06v.73a.2.2 0 0 1 0 .1l-.86.79a1.08 1.08 0 0 1 .82.68 1.9 1.9 0 0 1 .13.74" style="fill:#fff"/></g></g></g></svg>