<svg xmlns="http://www.w3.org/2000/svg" viewBox="0 0 11.48 11.48"><defs><style>.cls-1{fill:#fff;}.cls-2{fill:#3499cc;}</style></defs><g id="Layer_2" data-name="Layer 2"><g id="MAIN_ARTBOARD" data-name="MAIN ARTBOARD"><g id="Layer_41" data-name="Layer 41"><rect class="cls-1" x="0.37" y="0.37" width="10.74" height="10.73" rx="2.31"/><path class="cls-2" d="M8.8.74a1.94,1.94,0,0,1,1.94,1.94V8.8A1.94,1.94,0,0,1,8.8,10.74H2.68A1.94,1.94,0,0,1,.74,8.8V2.68A1.94,1.94,0,0,1,2.68.74H8.8M8.8,0H2.68A2.68,2.68,0,0,0,0,2.68V8.8a2.68,2.68,0,0,0,2.68,2.68H8.8A2.68,2.68,0,0,0,11.48,8.8V2.68A2.68,2.68,0,0,0,8.8,0Z"/><path class="cls-2" d="M5.62,4.28l0,0H3.41a0,0,0,0,0,0,0v1a0,0,0,0,0,0,0H4.83l.06,0a.14.14,0,0,1,0,.06v.64a.08.08,0,0,1,0,0l-.06,0H3.41a0,0,0,0,0,0,0V8a.09.09,0,0,1,0,.06l-.05,0H2.53l-.06,0a.07.07,0,0,1,0-.06V3.58a.07.07,0,0,1,0-.06l.06,0h3l0,0a.09.09,0,0,1,0,.06v.64A.09.09,0,0,1,5.62,4.28Z"/><path class="cls-2" d="M7.27,7.31s0,0,0,0H9.09a.05.05,0,0,1,.05,0s0,0,0,.05V8a.07.07,0,0,1,0,.06l-.05,0h-3l-.06,0A.07.07,0,0,1,6,8V7.43a.11.11,0,0,1,0-.09l.66-.69.42-.47.37-.41c.41-.45.61-.78.61-1A.47.47,0,0,0,8,4.4a.61.61,0,0,0-.43-.15.63.63,0,0,0-.43.15A.48.48,0,0,0,7,4.79V5a.07.07,0,0,1,0,.06l0,0H6.09L6,5A.11.11,0,0,1,6,5V4.64A1.2,1.2,0,0,1,6.23,4a1.37,1.37,0,0,1,.55-.42,2.06,2.06,0,0,1,.76-.14,1.9,1.9,0,0,1,.82.17,1.3,1.3,0,0,1,.53.48,1.14,1.14,0,0,1,.19.66,1.32,1.32,0,0,1-.14.56A2.65,2.65,0,0,1,8.52,6a6.66,6.66,0,0,1-.44.51l-.7.72-.1.1A0,0,0,0,0,7.27,7.31Z"/></g></g></g></svg>