<svg xmlns="http://www.w3.org/2000/svg" viewBox="0 0 11.48 11.48"><defs><style>.cls-2{fill:#ed1c24}</style></defs><g id="Layer_2" data-name="Layer 2"><g id="MAIN_ARTBOARD" data-name="MAIN ARTBOARD"><g id="Layer_41" data-name="Layer 41"><rect width="10.74" height="10.74" x=".37" y=".37" rx="2.31" style="fill:#fff"/><path d="M8.8.74a1.94 1.94 0 0 1 1.94 1.94V8.8a1.94 1.94 0 0 1-1.94 1.94H2.68A1.94 1.94 0 0 1 .74 8.8V2.68A1.94 1.94 0 0 1 2.68.74zm0-.74H2.68A2.68 2.68 0 0 0 0 2.68V8.8a2.68 2.68 0 0 0 2.68 2.68H8.8a2.68 2.68 0 0 0 2.68-2.68V2.68A2.68 2.68 0 0 0 8.8 0" class="cls-2"/><path d="M2.93 8.1a.14.14 0 0 1 0-.06V3.58a.14.14 0 0 1 0-.06L3 3.5h.8300000000000001a.14.14 0 0 1 0 .06v1.87L5.4 3.55a.14.14 0 0 1 .1 0h.94c.01 0 0 0 0 .07L5 5.48 6.51 8v.05h-.9299999999999999a.11.11 0 0 1-.09 0L4.32 6.17l-.42.52V8a.14.14 0 0 1 0 .06H3ZM7.73 3.5h.8500000000000001a.07.07 0 0 1 0 .06V8a.07.07 0 0 1 0 .06h-.8300000000000001a.1.1 0 0 1 0-.06V4.4L7 4.57v-.64a.12.12 0 0 1 .06-.1l.7-.32z" class="cls-2"/></g></g></g></svg>