<svg xmlns="http://www.w3.org/2000/svg" viewBox="0 0 11.48 11.48"><defs><style>.cls-1{fill:#754c29;}.cls-2{fill:#fff;}</style></defs><g id="Layer_2" data-name="Layer 2"><g id="MAIN_ARTBOARD" data-name="MAIN ARTBOARD"><g id="Layer_41" data-name="Layer 41"><rect class="cls-1" width="11.48" height="11.48" rx="2.68"/><path class="cls-2" d="M1.77,8.1a.09.09,0,0,1,0-.06V3.58a.09.09,0,0,1,0-.06l.05,0H3.47a2,2,0,0,1,.87.18,1.33,1.33,0,0,1,.58.49,1.35,1.35,0,0,1,.2.73V6.72A1.31,1.31,0,0,1,4.34,8a2.14,2.14,0,0,1-.87.17H1.82Zm.94-.78h.8A.66.66,0,0,0,4,7.12a.81.81,0,0,0,.19-.55V5.05A.77.77,0,0,0,4,4.5a.65.65,0,0,0-.5-.2H2.71s0,0,0,0v3S2.69,7.32,2.71,7.32Z"/><path class="cls-2" d="M6.51,3.5h.8l.05,0a.09.09,0,0,1,0,.06V8a.09.09,0,0,1,0,.06l-.05,0H6.54l-.06,0a.07.07,0,0,1,0-.06V4.42l0,0h0l-.66.18h0s-.06,0-.06-.08l0-.56a.1.1,0,0,1,.06-.1l.69-.32Z"/><path class="cls-2" d="M8.89,3.5h.8l.06,0a.14.14,0,0,1,0,.06V8a.14.14,0,0,1,0,.06l-.06,0H8.92l-.06,0a.14.14,0,0,1,0-.06V4.42l0,0s0,0,0,0l-.66.18h0s-.06,0-.06-.08l0-.56a.1.1,0,0,1,.06-.1l.69-.32Z"/></g></g></g></svg>