<svg xmlns="http://www.w3.org/2000/svg" viewBox="0 0 11.48 11.48"><g data-name="Layer 2"><g data-name="MAIN ARTBOARD"><g data-name="Layer 41"><rect width="11.48" height="11.48" rx="5.74" style="fill:#2e3192"/><path d="M7.4 6.13a.1.1 0 0 1 0 .06v.66a.07.07 0 0 1 0 .06s0 0-.05 0h-.29V8a.14.14 0 0 1-.06.1v.02h-.88A.14.14 0 0 1 6.1 8V7H4a.07.07 0 0 1-.06 0 .1.1 0 0 1 0-.06v-.61a.4.4 0 0 1 0-.1l1.23-2.67a.1.1 0 0 1 .09-.06h.89a.08.08 0 0 1 0 .07L5 6.07h1v-.81a.1.1 0 0 1 0-.06.07.07 0 0 1 .06 0H7a.1.1 0 0 1 0 .06v.82h.29Z" style="fill:#fff"/></g></g></g></svg>