<svg xmlns="http://www.w3.org/2000/svg" viewBox="0 0 11.48 11.48"><defs><style>.cls-1{fill:#f04b23;}.cls-2{fill:#fff;}</style></defs><g id="Layer_2" data-name="Layer 2"><g id="MAIN_ARTBOARD" data-name="MAIN ARTBOARD"><g id="Layer_41" data-name="Layer 41"><rect class="cls-1" width="11.48" height="11.48" rx="5.74"/><path class="cls-2" d="M7.29,6.64a1.85,1.85,0,0,1-.12.69,1.33,1.33,0,0,1-.54.61,1.56,1.56,0,0,1-.85.23,1.57,1.57,0,0,1-.88-.24,1.28,1.28,0,0,1-.54-.65,1.66,1.66,0,0,1-.11-.64v-2A1.11,1.11,0,0,1,4.43,4,1.24,1.24,0,0,1,5,3.6a1.86,1.86,0,0,1,.77-.15,1.81,1.81,0,0,1,.76.15A1.16,1.16,0,0,1,7,4a1.1,1.1,0,0,1,.18.62v.18a.11.11,0,0,1,0,.06.07.07,0,0,1-.06,0H6.33a.07.07,0,0,1-.06,0,.11.11,0,0,1,0-.06v0a.53.53,0,0,0-.14-.37.6.6,0,0,0-.78,0,.48.48,0,0,0-.15.37V5.4s0,0,0,0h0a1.06,1.06,0,0,1,.72-.23,1.39,1.39,0,0,1,.71.18,1.26,1.26,0,0,1,.5.52A1.72,1.72,0,0,1,7.29,6.64Zm-.93,0a.84.84,0,0,0-.1-.44A.52.52,0,0,0,5.78,6a.51.51,0,0,0-.5.27.82.82,0,0,0-.1.44.82.82,0,0,0,.09.4.49.49,0,0,0,.5.29.5.5,0,0,0,.49-.29A.76.76,0,0,0,6.36,6.66Z"/></g></g></g></svg>