<svg xmlns="http://www.w3.org/2000/svg" viewBox="0 0 11.48 11.48"><g data-name="Layer 2"><g data-name="MAIN ARTBOARD"><g data-name="Layer 41"><rect width="11.48" height="11.48" rx="5.74" style="fill:#ed1c24"/><path d="M5.42 7.31h1.82a.1.1 0 0 1 0 .06V8a.1.1 0 0 1 0 .06H4.18a.14.14 0 0 1 0-.06v-.57a.1.1 0 0 1 0-.09l.66-.7.42-.46c.12-.15.25-.28.38-.42a1.88 1.88 0 0 0 .6-1 .5.5 0 0 0-.17-.38.65.65 0 0 0-.43-.14.67.67 0 0 0-.43.14.51.51 0 0 0-.16.4V5a.14.14 0 0 1 0 .06L5 5h-.76a.1.1 0 0 1 0-.06v-.3A1.15 1.15 0 0 1 4.39 4a1.27 1.27 0 0 1 .54-.42 2.1 2.1 0 0 1 .76-.14 1.9 1.9 0 0 1 .82.17 1.36 1.36 0 0 1 .49.48 1.2 1.2 0 0 1 .19.66 1.3 1.3 0 0 1-.14.57 3.2 3.2 0 0 1-.37.68q-.21.25-.45.51l-.7.72-.1.1z" style="fill:#fff"/></g></g></g></svg>