<svg xmlns="http://www.w3.org/2000/svg" viewBox="0 0 11.48 11.48"><defs><style>.cls-2{fill:#fff}</style></defs><g id="Layer_2" data-name="Layer 2"><g id="MAIN_ARTBOARD" data-name="MAIN ARTBOARD"><g id="Layer_41" data-name="Layer 41"><rect width="11.48" height="11.48" rx="2.68" style="fill:#f288b7"/><path d="M.79 8.1A.14.14 0 0 1 .77 8V3.58a.14.14 0 0 1 0-.06h1.5a1.66 1.66 0 0 1 .78.17 1.2 1.2 0 0 1 .53.46 1.4 1.4 0 0 1 .18.71v1.92a1.4 1.4 0 0 1-.18.71 1.35 1.35 0 0 1-.53.51 1.8 1.8 0 0 1-.78.16H.85Zm.94-.78h.55a.48.48 0 0 0 .39-.17.7.7 0 0 0 .16-.46V5a.73.73 0 0 0-.15-.48.53.53 0 0 0-.4-.17h-.55v3zM7.07 6.66a2 2 0 0 1-.07.62 1.2 1.2 0 0 1-.46.66 1.5 1.5 0 0 1-.85.23A1.3 1.3 0 0 1 4.94 8a1.08 1.08 0 0 1-.47-.52 1.4 1.4 0 0 1-.17-.72V4.64a1.08 1.08 0 0 1 .37-.87 1.45 1.45 0 0 1 1-.32 1.38 1.38 0 0 1 1 .32 1.08 1.08 0 0 1 .33.86v.19a.14.14 0 0 1 0 .06h-.9300000000000002a.14.14 0 0 1 0-.06v-.1a.5.5 0 0 0-.11-.33.37.37 0 0 0-.29-.13.42.42 0 0 0-.32.13.5.5 0 0 0-.12.34v.63a.9.9 0 0 1 .6-.21 1.12 1.12 0 0 1 .68.21 1.27 1.27 0 0 1 .43.64 1.8 1.8 0 0 1 .13.66m-.94 0a1.2 1.2 0 0 0-.07-.44.41.41 0 0 0-.78 0 1.1 1.1 0 0 0-.07.45 1.5 1.5 0 0 0 0 .39.4.4 0 0 0 .41.33.41.41 0 0 0 .46-.39 1.6 1.6 0 0 0 .05-.36ZM10 8.05l-.2-.64H8.53l-.15.64s0 .07-.09.07h-.8s-.08 0-.06-.09l1.15-4.46a.1.1 0 0 1 .1-.07h1a.1.1 0 0 1 .1.07L10.92 8s0 .06-.07.06H10zm-1.32-1.4h.93l-.45-1.94-.48 1.91s-.01.02 0 .03" class="cls-2"/></g></g></g></svg>