<svg xmlns="http://www.w3.org/2000/svg" viewBox="0 0 11.48 11.48"><defs><style>.cls-1{fill:#c36;}.cls-2{fill:#fff;}</style></defs><g id="Layer_2" data-name="Layer 2"><g id="MAIN_ARTBOARD" data-name="MAIN ARTBOARD"><g id="Layer_41" data-name="Layer 41"><rect class="cls-1" width="11.48" height="11.48" rx="2.68"/><path class="cls-2" d="M2.34,8.1a.14.14,0,0,1,0-.06V3.58a.14.14,0,0,1,0-.06l.06,0H4.05a2.14,2.14,0,0,1,.87.17,1.39,1.39,0,0,1,.57.5,1.28,1.28,0,0,1,.21.73V6.72a1.28,1.28,0,0,1-.21.73,1.32,1.32,0,0,1-.57.5,2.14,2.14,0,0,1-.87.17H2.4Zm.94-.78h.8a.65.65,0,0,0,.49-.2.82.82,0,0,0,.2-.55V5.05a.81.81,0,0,0-.19-.55.68.68,0,0,0-.51-.2H3.28a0,0,0,0,0,0,0v3A0,0,0,0,0,3.28,7.32Z"/><path class="cls-2" d="M9.31,6.77a1.34,1.34,0,0,1-.16.68A1.29,1.29,0,0,1,8.62,8a1.68,1.68,0,0,1-.84.19A1.75,1.75,0,0,1,7,8a1.2,1.2,0,0,1-.55-.54,1.42,1.42,0,0,1-.16-.68,1.57,1.57,0,0,1,.15-.68,1,1,0,0,1,.33-.38s0,0,0,0a.94.94,0,0,1-.27-.32,1.15,1.15,0,0,1-.15-.59A1.21,1.21,0,0,1,6.56,4a1.19,1.19,0,0,1,.51-.4,1.67,1.67,0,0,1,.71-.15,1.66,1.66,0,0,1,.72.15A1.41,1.41,0,0,1,9,4a1.27,1.27,0,0,1,.26.79,1.14,1.14,0,0,1-.17.61,1.26,1.26,0,0,1-.27.29s0,0,0,0a.93.93,0,0,1,.34.39A1.51,1.51,0,0,1,9.31,6.77Zm-.93-.09a.76.76,0,0,0-.1-.41A.51.51,0,0,0,7.78,6a.5.5,0,0,0-.49.27.77.77,0,0,0-.1.42.78.78,0,0,0,.11.43.51.51,0,0,0,.48.25.51.51,0,0,0,.47-.23A.81.81,0,0,0,8.38,6.68ZM7.22,4.78a.64.64,0,0,0,.09.34.51.51,0,0,0,.47.24.55.55,0,0,0,.48-.24.72.72,0,0,0,.08-.35.66.66,0,0,0-.06-.27.51.51,0,0,0-.2-.21.62.62,0,0,0-.31-.08.57.57,0,0,0-.29.08.48.48,0,0,0-.19.21A.55.55,0,0,0,7.22,4.78Z"/></g></g></g></svg>