<svg xmlns="http://www.w3.org/2000/svg" viewBox="0 0 11.48 11.48"><defs><style>.cls-1{fill:#f288b7;}.cls-2{fill:#fff;}</style></defs><g id="Layer_2" data-name="Layer 2"><g id="MAIN_ARTBOARD" data-name="MAIN ARTBOARD"><g id="Layer_41" data-name="Layer 41"><rect class="cls-1" width="11.48" height="11.48" rx="2.68"/><path class="cls-2" d="M.79,8.1A.14.14,0,0,1,.77,8V3.58a.14.14,0,0,1,0-.06l.06,0H2.27a1.66,1.66,0,0,1,.78.17,1.19,1.19,0,0,1,.53.46,1.39,1.39,0,0,1,.18.71V6.78a1.39,1.39,0,0,1-.18.71A1.35,1.35,0,0,1,3.05,8a1.78,1.78,0,0,1-.78.16H.85Zm.94-.78h.55a.48.48,0,0,0,.39-.17.69.69,0,0,0,.16-.46V5a.73.73,0,0,0-.15-.48.53.53,0,0,0-.4-.17H1.73a0,0,0,0,0,0,0v3A0,0,0,0,0,1.73,7.32Z"/><path class="cls-2" d="M7.07,6.66A2,2,0,0,1,7,7.28a1.21,1.21,0,0,1-.46.66,1.52,1.52,0,0,1-.85.23A1.32,1.32,0,0,1,4.94,8a1.08,1.08,0,0,1-.47-.52v0l0,0a1.42,1.42,0,0,1-.17-.72V4.64a1.08,1.08,0,0,1,.37-.87,1.45,1.45,0,0,1,1-.32,1.38,1.38,0,0,1,1,.32A1.08,1.08,0,0,1,7,4.63v.19a.14.14,0,0,1,0,.06l-.06,0H6.13l-.06,0a.14.14,0,0,1,0-.06v-.1a.5.5,0,0,0-.11-.33.37.37,0,0,0-.29-.13.42.42,0,0,0-.32.13.49.49,0,0,0-.12.34v.63l0,0h0a.9.9,0,0,1,.6-.21,1.12,1.12,0,0,1,.68.21A1.27,1.27,0,0,1,6.94,6,1.8,1.8,0,0,1,7.07,6.66Zm-.94,0a1.16,1.16,0,0,0-.07-.44.41.41,0,0,0-.78,0,1.12,1.12,0,0,0-.07.45,1.48,1.48,0,0,0,0,.39.4.4,0,0,0,.41.33A.41.41,0,0,0,6.08,7,1.6,1.6,0,0,0,6.13,6.64Z"/><path class="cls-2" d="M10,8.05,9.8,7.41l0,0H8.53a0,0,0,0,0,0,0l-.15.64s0,.07-.09.07h-.8s-.08,0-.06-.09L8.58,3.57a.1.1,0,0,1,.1-.07h1a.1.1,0,0,1,.1.07L10.92,8v0s0,.06-.07.06H10A.09.09,0,0,1,10,8.05ZM8.68,6.65h.93s0,0,0,0L9.16,4.71s0,0,0,0,0,0,0,0L8.68,6.62S8.67,6.64,8.68,6.65Z"/></g></g></g></svg>