<svg xmlns="http://www.w3.org/2000/svg" viewBox="0 0 11.48 11.48"><defs><style>.cls-2{fill:#662d91}</style></defs><g id="Layer_2" data-name="Layer 2"><g id="MAIN_ARTBOARD" data-name="MAIN ARTBOARD"><g id="Layer_41" data-name="Layer 41"><rect width="10.74" height="10.74" x=".37" y=".37" rx="2.31" style="fill:#fff"/><path d="M8.8.74a1.94 1.94 0 0 1 1.94 1.94V8.8a1.94 1.94 0 0 1-1.94 1.94H2.68A1.94 1.94 0 0 1 .74 8.8V2.68A1.94 1.94 0 0 1 2.68.74zm0-.74H2.68A2.68 2.68 0 0 0 0 2.68V8.8a2.68 2.68 0 0 0 2.68 2.68H8.8a2.68 2.68 0 0 0 2.68-2.68V2.68A2.68 2.68 0 0 0 8.8 0" class="cls-2"/><path d="M6.3 4.28H4.09v1h1.42a.1.1 0 0 1 0 .06v.64a.12.12 0 0 1-.08.08H4.09V8a.09.09 0 0 1-.09.1v.02h-.8500000000000001a.07.07 0 0 1 0-.06V3.58a.07.07 0 0 1 0-.06h3.06a.1.1 0 0 1 0 .06v.64a.09.09 0 0 1 .09.06M7.51 3.5h.8a.1.1 0 0 1 0 .06V8a.1.1 0 0 1 0 .06h-.78a.07.07 0 0 1 0-.06V4.43l-.66.18s-.06 0-.06-.08v-.56a.1.1 0 0 1 .06-.1l.69-.32Z" class="cls-2"/></g></g></g></svg>