<svg xmlns="http://www.w3.org/2000/svg" viewBox="0 0 11.48 11.48"><defs><style>.cls-1{fill:#562b63;}.cls-2{fill:#fff;}</style></defs><g id="Layer_2" data-name="Layer 2"><g id="MAIN_ARTBOARD" data-name="MAIN ARTBOARD"><g id="Layer_41" data-name="Layer 41"><rect class="cls-1" width="11.48" height="11.48" rx="5.74"/><path class="cls-2" d="M7.24,6.62a1.84,1.84,0,0,1-.12.66,1.39,1.39,0,0,1-.53.66,1.61,1.61,0,0,1-.88.23,1.52,1.52,0,0,1-.88-.25,1.32,1.32,0,0,1-.55-.68,1.92,1.92,0,0,1-.11-.55.07.07,0,0,1,.08-.08H5c.06,0,.08,0,.08.08A1.42,1.42,0,0,0,5.18,7a.51.51,0,0,0,.2.27.58.58,0,0,0,.32.1.5.5,0,0,0,.51-.33,1.08,1.08,0,0,0,.09-.46,1.08,1.08,0,0,0-.1-.51.53.53,0,0,0-.51-.31.42.42,0,0,0-.15,0,1.3,1.3,0,0,0-.19.13l0,0a.07.07,0,0,1-.06,0l-.39-.55a.08.08,0,0,1,0,0,.07.07,0,0,1,0-.06l1-.92a0,0,0,0,0,0,0H4.35l-.06,0a.07.07,0,0,1,0-.06V3.58a.07.07,0,0,1,0-.06l.06,0H7.1l.05,0a.09.09,0,0,1,0,.06v.73a.19.19,0,0,1,0,.1l-.86.79s0,0,0,0,0,0,0,0a1.08,1.08,0,0,1,.82.68A1.86,1.86,0,0,1,7.24,6.62Z"/></g></g></g></svg>