<svg xmlns="http://www.w3.org/2000/svg" viewBox="0 0 11.48 11.48"><defs><style>.cls-1{fill:#2e3192;}.cls-2{fill:#fff;}</style></defs><g id="Layer_2" data-name="Layer 2"><g id="MAIN_ARTBOARD" data-name="MAIN ARTBOARD"><g id="Layer_41" data-name="Layer 41"><rect class="cls-1" width="11.48" height="11.48" rx="5.74"/><path class="cls-2" d="M7.4,6.13a.09.09,0,0,1,0,.06v.66a.07.07,0,0,1,0,.06s0,0-.05,0H7.06s0,0,0,0V8A.14.14,0,0,1,7,8.1L7,8.12H6.18l-.06,0A.14.14,0,0,1,6.1,8V7s0,0,0,0H4a.07.07,0,0,1-.06,0,.11.11,0,0,1,0-.06V6.33a.44.44,0,0,1,0-.1L5.17,3.56a.1.1,0,0,1,.09-.06h.83l.06,0a.08.08,0,0,1,0,.07L5,6.07v0s0,0,0,0h1a0,0,0,0,0,0,0V5.26a.11.11,0,0,1,0-.06.07.07,0,0,1,.06,0H7A.07.07,0,0,1,7,5.2a.11.11,0,0,1,0,.06v.82a0,0,0,0,0,0,0h.29Z"/></g></g></g></svg>