<svg xmlns="http://www.w3.org/2000/svg" viewBox="0 0 11.48 11.48"><defs><style>.cls-1{fill:#ec008c;}.cls-2{fill:#fff;}</style></defs><g id="Layer_2" data-name="Layer 2"><g id="MAIN_ARTBOARD" data-name="MAIN ARTBOARD"><g id="Layer_41" data-name="Layer 41"><rect class="cls-1" width="11.48" height="11.48" rx="5.74"/><path class="cls-2" d="M7.3,6.64a1.66,1.66,0,0,1-.11.61,1.29,1.29,0,0,1-.53.67,1.64,1.64,0,0,1-.9.25,1.61,1.61,0,0,1-.88-.24,1.35,1.35,0,0,1-.54-.66,2.11,2.11,0,0,1-.09-.36v0s0-.07.07-.07h.8a.08.08,0,0,1,.09.07.14.14,0,0,0,0,.07l0,0a.52.52,0,0,0,.2.26.52.52,0,0,0,.31.09.51.51,0,0,0,.32-.1A.55.55,0,0,0,6.28,7a.73.73,0,0,0,.07-.35.9.9,0,0,0-.06-.34A.47.47,0,0,0,6.11,6a.6.6,0,0,0-.33-.09A.67.67,0,0,0,5.44,6a.4.4,0,0,0-.21.22s0,.07-.09.07H4.33l-.06,0a.14.14,0,0,1,0-.06V3.58a.14.14,0,0,1,0-.06l.06,0H7.06l.05,0a.09.09,0,0,1,0,.06v.64a.09.09,0,0,1,0,.06l-.05,0H5.21a0,0,0,0,0,0,0v1s0,0,0,0a1.23,1.23,0,0,1,.69-.19,1.45,1.45,0,0,1,.81.23A1.29,1.29,0,0,1,7.2,6,2,2,0,0,1,7.3,6.64Z"/></g></g></g></svg>