<svg xmlns="http://www.w3.org/2000/svg" viewBox="0 0 11.63 4.85"><defs><style>.cls-1{fill:#2a3b90;}.cls-2{fill:#fff;}</style></defs><g id="Layer_2" data-name="Layer 2"><g id="MAIN_ARTBOARD" data-name="MAIN ARTBOARD"><g id="Layer_41" data-name="Layer 41"><rect class="cls-1" width="11.63" height="4.85" rx="2.42"/><path class="cls-2" d="M4.82.71H6A1,1,0,0,1,6.66,1a.81.81,0,0,1,.26.62A.75.75,0,0,1,6.79,2a.61.61,0,0,1-.33.25.76.76,0,0,1,.4.26A.81.81,0,0,1,7,3a.83.83,0,0,1-.26.64A1,1,0,0,1,6,3.87H4.82ZM5.42,2h.44a.44.44,0,0,0,.33-.11.36.36,0,0,0,.12-.29.35.35,0,0,0-.12-.28.5.5,0,0,0-.34-.11H5.42Zm0,1.34h.5a.48.48,0,0,0,.35-.11A.35.35,0,0,0,6.4,3a.41.41,0,0,0-.12-.31.54.54,0,0,0-.35-.11H5.42Z"/></g></g></g></svg>