<svg xmlns="http://www.w3.org/2000/svg" viewBox="0 0 11.48 11.48"><defs><style>.cls-2{fill:#fff}</style></defs><g id="Layer_2" data-name="Layer 2"><g id="MAIN_ARTBOARD" data-name="MAIN ARTBOARD"><g id="Layer_41" data-name="Layer 41"><rect width="11.48" height="11.48" rx="2.68" style="fill:#d7df23"/><path d="M.72 8.1A.14.14 0 0 1 .7 8V3.58a.14.14 0 0 1 0-.06h.8900000000000001a.14.14 0 0 1 0 .06v1.76l1.18-1.8a.14.14 0 0 1 .1 0h.93a.06.06 0 0 1 .06 0v.06L2.63 5.49 3.92 8H3a.1.1 0 0 1-.09-.06L2 6.25l-.29.43V8a.14.14 0 0 1 0 .06H.78ZM7 7.79a1.6 1.6 0 0 1-1 .33H4.46a.1.1 0 0 1 0-.06V3.58a.1.1 0 0 1 0-.06h1.38a1.7 1.7 0 0 1 1.1.31 1.16 1.16 0 0 1 .39 1 1 1 0 0 1-.51.94 1.15 1.15 0 0 1 .58 1.09 1.13 1.13 0 0 1-.4.93M5.31 4.33v1h.5a.58.58 0 0 0 .41-.14.53.53 0 0 0 .16-.41.56.56 0 0 0-.15-.41.6.6 0 0 0-.42-.14h-.5zm1 2.83a.6.6 0 0 0 .15-.44.6.6 0 0 0-.15-.44.52.52 0 0 0-.41-.17h-.55v1.17h.55a.54.54 0 0 0 .41-.12M10.33 3.67a1.2 1.2 0 0 1 .48.5 1.64 1.64 0 0 1 .17.74 1.54 1.54 0 0 1-.17.73 1.17 1.17 0 0 1-.48.48 1.45 1.45 0 0 1-.7.17h-.71V8a.07.07 0 0 1 0 .06H8A.1.1 0 0 1 8 8V3.57a.12.12 0 0 1 0-.08h1.6a1.35 1.35 0 0 1 .73.18m-.44 1.71a.65.65 0 0 0 .16-.45.7.7 0 0 0-.16-.46.53.53 0 0 0-.41-.17h-.56v1.22h.56a.5.5 0 0 0 .41-.14" class="cls-2"/></g></g></g></svg>