<svg xmlns="http://www.w3.org/2000/svg" viewBox="0 0 11.48 11.48"><defs><style>.cls-2{fill:#2e3192}</style></defs><g id="Layer_2" data-name="Layer 2"><g id="MAIN_ARTBOARD" data-name="MAIN ARTBOARD"><g id="Layer_41" data-name="Layer 41"><rect width="10.74" height="10.73" x=".37" y=".37" rx="2.31" style="fill:#fff"/><path d="M8.8.74a1.94 1.94 0 0 1 1.94 1.94V8.8a1.94 1.94 0 0 1-1.94 1.94H2.68A1.94 1.94 0 0 1 .74 8.8V2.68A1.94 1.94 0 0 1 2.68.74zm0-.74H2.68A2.68 2.68 0 0 0 0 2.68V8.8a2.68 2.68 0 0 0 2.68 2.68H8.8a2.68 2.68 0 0 0 2.68-2.68V2.68A2.68 2.68 0 0 0 8.8 0" class="cls-2"/><path d="M2.25 8.1a.14.14 0 0 1 0-.06V3.58a.14.14 0 0 1 0-.06h.89a.14.14 0 0 1 0 .06v1.85l1.58-1.88a.14.14 0 0 1 .1 0h.94c.01 0 0 0 0 .07L4.27 5.48 5.83 8v.05H4.9a.11.11 0 0 1-.09 0L3.64 6.17l-.42.52V8a.14.14 0 0 1 0 .06h-.91Zm5.24-.79H9.3a.07.07 0 0 1 .06 0 .1.1 0 0 1 0 .05V8a.14.14 0 0 1 0 .06H6.3a.1.1 0 0 1 0-.06v-.57a.15.15 0 0 1 0-.09l.7-.69.43-.47.37-.42a1.88 1.88 0 0 0 .6-1 .46.46 0 0 0-.16-.37.69.69 0 0 0-.86 0 .48.48 0 0 0-.16.39V5a.1.1 0 0 1 0 .06h-.91L6.25 5a.14.14 0 0 1 0-.06v-.3a1.2 1.2 0 0 1 .2-.64A1.4 1.4 0 0 1 7 3.59a2 2 0 0 1 .76-.14 1.86 1.86 0 0 1 .81.17 1.33 1.33 0 0 1 .54.48 1.2 1.2 0 0 1 .19.66 1.3 1.3 0 0 1-.14.56 3 3 0 0 1-.42.68 7 7 0 0 1-.44.51c-.16.17-.39.41-.71.72l-.09.1s-.02-.03-.01-.02" class="cls-2"/></g></g></g></svg>