<svg xmlns="http://www.w3.org/2000/svg" viewBox="0 0 242.12 693.51"><defs><style>.cls-1{fill:#1a91cc;}.cls-2{fill:#fff;}.cls-3{fill:none;stroke:#1a91cc;stroke-miterlimit:10;stroke-width:3px;}</style></defs><g id="Layer_2" data-name="Layer 2"><g id="Layer_1-2" data-name="Layer 1"><rect class="cls-1" x="108.66" y="281.65" width="24.71" height="411.86"/><rect class="cls-1" x="0.27" y="0.06" width="241.49" height="281.59" rx="17.27"/><rect class="cls-2" x="13.51" y="14.56" width="214.45" height="209.8" rx="10.32"/><path class="cls-1" d="M75.1,101.08A12.44,12.44,0,1,1,62.66,88.65,12.44,12.44,0,0,1,75.1,101.08ZM62.66,92.43a8.25,8.25,0,1,0,8.25,8.25A8.24,8.24,0,0,0,62.66,92.43Z"/><path class="cls-1" d="M177.37,101.08a12.44,12.44,0,1,1-12.44-12.43A12.44,12.44,0,0,1,177.37,101.08Zm-12.44-8.65a8.25,8.25,0,1,0,8.25,8.25A8.24,8.24,0,0,0,164.93,92.43Z"/><path class="cls-1" d="M39.55,53.86h164l6.49,22v25.23H181.22a15.5,15.5,0,0,0-15.5-15.5h-1.44a15.49,15.49,0,0,0-15.5,15.5h-71v-1.8A15.14,15.14,0,0,0,62.62,84.14h0A15.14,15.14,0,0,0,47.48,99.28v1.8H32V84.5Zm133.63,6V76.45h30l-4.57-16.58Zm-29.33,0V76.45h25.23V59.87Zm-28.6,0V76.45h25V59.87Zm-31,0V76.45h27.4V59.87Zm-28.36,0V76.45h25V59.87Zm-12.49,0L39.79,76.45h13.5V59.87Z"/><line class="cls-3" x1="31.98" y1="127.79" x2="210.06" y2="127.79"/><path class="cls-1" d="M57.51,195.7a20.9,20.9,0,0,1-9.32-1.91,22.21,22.21,0,0,1-6.57-4.86l6-6.05a13.54,13.54,0,0,0,10.49,4.79,7.5,7.5,0,0,0,5-1.38,4.55,4.55,0,0,0,1.62-3.65,5.3,5.3,0,0,0-.39-2.07A3.35,3.35,0,0,0,62.87,179a7.77,7.77,0,0,0-3-.87l-4.14-.54a20.44,20.44,0,0,1-7.22-2.19,10.23,10.23,0,0,1-4.23-4.19,12.84,12.84,0,0,1-1.38-6.09,11.71,11.71,0,0,1,1.89-6.62,12.64,12.64,0,0,1,5.4-4.47,20.08,20.08,0,0,1,8.42-1.61A21.16,21.16,0,0,1,66.92,154a17.56,17.56,0,0,1,6.17,4.35l-6,6.11a12.28,12.28,0,0,0-3.63-2.84,11.51,11.51,0,0,0-5.36-1.11,7.82,7.82,0,0,0-4.56,1.08,3.48,3.48,0,0,0-1.5,3,4.72,4.72,0,0,0,.51,2.34,3.28,3.28,0,0,0,1.62,1.38A12.77,12.77,0,0,0,57,169l4.13.66a21.46,21.46,0,0,1,7.14,2.22A10.29,10.29,0,0,1,72.43,176a12.58,12.58,0,0,1,1.38,6.12,13.24,13.24,0,0,1-1.88,7.07,12.74,12.74,0,0,1-5.55,4.8A20.52,20.52,0,0,1,57.51,195.7Z"/><path class="cls-1" d="M112.66,161.24H101.33V195H92.22V161.24H80.89v-8.1h31.77Z"/><path class="cls-1" d="M138.07,195.7a18.7,18.7,0,0,1-9.68-2.45A16.21,16.21,0,0,1,122,186a27.72,27.72,0,0,1-2.28-11.9A27.66,27.66,0,0,1,122,162.14a16.23,16.23,0,0,1,6.44-7.26,20.41,20.41,0,0,1,19.39,0,16.31,16.31,0,0,1,6.42,7.26,27.66,27.66,0,0,1,2.28,11.92A27.72,27.72,0,0,1,154.2,186a16.29,16.29,0,0,1-6.42,7.29A18.61,18.61,0,0,1,138.07,195.7Zm0-8.09a8.65,8.65,0,0,0,4.71-1.23,7.81,7.81,0,0,0,3-3.56,13.72,13.72,0,0,0,1-5.64V171a13.67,13.67,0,0,0-1-5.67,7.83,7.83,0,0,0-3-3.53,9.56,9.56,0,0,0-9.38,0,7.85,7.85,0,0,0-3,3.53,13.67,13.67,0,0,0-1.05,5.67v6.23a13.72,13.72,0,0,0,1.05,5.64,7.83,7.83,0,0,0,3,3.56A8.65,8.65,0,0,0,138.07,187.61Z"/><path class="cls-1" d="M177.1,195H168V153.14h19.79a13,13,0,0,1,6.74,1.68,11.4,11.4,0,0,1,4.41,4.71,16.45,16.45,0,0,1,0,13.94,11.68,11.68,0,0,1-4.41,4.7,12.86,12.86,0,0,1-6.74,1.71H177.1Zm0-33.92V172h9.59a5.12,5.12,0,0,0,2.33-.48,3.52,3.52,0,0,0,1.5-1.41,4.41,4.41,0,0,0,.54-2.25v-2.64a4.31,4.31,0,0,0-.54-2.27,3.57,3.57,0,0,0-1.5-1.38,5.12,5.12,0,0,0-2.33-.48Z"/><polygon class="cls-2" points="0.09 72.11 72.07 0.14 107.02 0.14 0.09 107.06 0.09 72.11"/><polygon class="cls-2" points="134.54 281.65 242.12 174.06 241.76 209.37 169.48 281.65 134.54 281.65"/><polygon class="cls-2" points="0 188.19 188.19 0 223.08 0.06 0 223.14 0 188.19"/><polygon class="cls-2" points="17.17 281.65 241.76 57.06 241.76 92 52.12 281.65 17.17 281.65"/></g></g></svg>