<svg xmlns="http://www.w3.org/2000/svg" xml:space="preserve" width="800" height="800" viewBox="0 0 385.331 385.331"><path d="M264.943 156.665h108.273c6.833 0 11.934-5.39 11.934-12.211 0-6.833-5.101-11.85-11.934-11.838h-96.242V36.181c0-6.833-5.197-12.03-12.03-12.03s-12.03 5.197-12.03 12.03v108.273c0 .036.012.06.012.084 0 .036-.012.06-.012.096-.001 6.713 5.316 12.043 12.029 12.031M120.291 24.247c-6.821 0-11.838 5.113-11.838 11.934v96.242H12.03c-6.833 0-12.03 5.197-12.03 12.03s5.197 12.03 12.03 12.03h108.273c.036 0 .06-.012.084-.012.036 0 .06.012.096.012 6.713 0 12.03-5.317 12.03-12.03V36.181c.001-6.821-5.389-11.922-12.222-11.934M120.387 228.666H12.115c-6.833.012-11.934 5.39-11.934 12.223s5.101 11.85 11.934 11.838h96.242v96.423c0 6.833 5.197 12.03 12.03 12.03s12.03-5.197 12.03-12.03V240.877c0-.036-.012-.06-.012-.084 0-.036.012-.06.012-.096.001-6.714-5.317-12.031-12.03-12.031M373.3 228.666H265.028c-.036 0-.06.012-.084.012-.036 0-.06-.012-.096-.012-6.713 0-12.03 5.317-12.03 12.03v108.273c0 6.833 5.39 11.922 12.223 11.934 6.821.012 11.838-5.101 11.838-11.922v-96.242H373.3c6.833 0 12.03-5.197 12.03-12.03s-5.196-12.031-12.03-12.043"/></svg>