<svg width="259" height="82" viewBox="0 0 259 82" fill="none" xmlns="http://www.w3.org/2000/svg">
<path d="M93.71 11.66H87.59V29H83.48V11.66H77.33V8H93.71V11.66ZM100.877 17.66C100.257 17.44 99.6967 17.33 99.1967 17.33C98.4967 17.33 97.9067 17.52 97.4267 17.9C96.9667 18.26 96.6567 18.73 96.4967 19.31V29H92.5967V14H95.6267L96.0767 15.98H96.1967C96.5367 15.24 96.9967 14.67 97.5767 14.27C98.1567 13.87 98.8367 13.67 99.6167 13.67C100.137 13.67 100.727 13.78 101.387 14L100.877 17.66ZM103.024 14.87C103.824 14.51 104.774 14.23 105.874 14.03C106.974 13.81 108.124 13.7 109.324 13.7C110.364 13.7 111.234 13.83 111.934 14.09C112.634 14.33 113.184 14.68 113.584 15.14C114.004 15.6 114.294 16.15 114.454 16.79C114.634 17.43 114.724 18.15 114.724 18.95C114.724 19.83 114.694 20.72 114.634 21.62C114.574 22.5 114.534 23.37 114.514 24.23C114.514 25.09 114.544 25.93 114.604 26.75C114.664 27.55 114.814 28.31 115.054 29.03H111.874L111.244 26.96H111.094C110.694 27.58 110.134 28.12 109.414 28.58C108.714 29.02 107.804 29.24 106.684 29.24C105.984 29.24 105.354 29.14 104.794 28.94C104.234 28.72 103.754 28.42 103.354 28.04C102.954 27.64 102.644 27.18 102.424 26.66C102.204 26.12 102.094 25.52 102.094 24.86C102.094 23.94 102.294 23.17 102.694 22.55C103.114 21.91 103.704 21.4 104.464 21.02C105.244 20.62 106.164 20.35 107.224 20.21C108.304 20.05 109.504 20 110.824 20.06C110.964 18.94 110.884 18.14 110.584 17.66C110.284 17.16 109.614 16.91 108.574 16.91C107.794 16.91 106.964 16.99 106.084 17.15C105.224 17.31 104.514 17.52 103.954 17.78L103.024 14.87ZM107.974 26.03C108.754 26.03 109.374 25.86 109.834 25.52C110.294 25.16 110.634 24.78 110.854 24.38V22.43C110.234 22.37 109.634 22.36 109.054 22.4C108.494 22.44 107.994 22.53 107.554 22.67C107.114 22.81 106.764 23.01 106.504 23.27C106.244 23.53 106.114 23.86 106.114 24.26C106.114 24.82 106.274 25.26 106.594 25.58C106.934 25.88 107.394 26.03 107.974 26.03ZM127.177 29V20.48C127.177 19.26 126.997 18.38 126.637 17.84C126.297 17.3 125.707 17.03 124.867 17.03C124.127 17.03 123.497 17.25 122.977 17.69C122.477 18.11 122.117 18.64 121.897 19.28V29H117.997V14H121.087L121.537 15.98H121.657C122.117 15.34 122.727 14.78 123.487 14.3C124.247 13.82 125.227 13.58 126.427 13.58C127.167 13.58 127.827 13.68 128.407 13.88C128.987 14.08 129.477 14.41 129.877 14.87C130.277 15.33 130.577 15.96 130.777 16.76C130.977 17.54 131.077 18.51 131.077 19.67V29H127.177ZM140.555 24.86C140.555 24.46 140.385 24.14 140.045 23.9C139.705 23.66 139.285 23.44 138.785 23.24C138.285 23.04 137.735 22.84 137.135 22.64C136.535 22.42 135.985 22.13 135.485 21.77C134.985 21.39 134.565 20.92 134.225 20.36C133.885 19.78 133.715 19.04 133.715 18.14C133.715 16.66 134.155 15.53 135.035 14.75C135.915 13.97 137.185 13.58 138.845 13.58C139.985 13.58 141.015 13.7 141.935 13.94C142.855 14.18 143.575 14.45 144.095 14.75L143.225 17.57C142.765 17.39 142.185 17.2 141.485 17C140.785 16.8 140.075 16.7 139.355 16.7C138.195 16.7 137.615 17.15 137.615 18.05C137.615 18.41 137.785 18.7 138.125 18.92C138.465 19.14 138.885 19.35 139.385 19.55C139.885 19.73 140.435 19.93 141.035 20.15C141.635 20.37 142.185 20.66 142.685 21.02C143.185 21.36 143.605 21.81 143.945 22.37C144.285 22.93 144.455 23.65 144.455 24.53C144.455 26.05 143.965 27.25 142.985 28.13C142.025 28.99 140.575 29.42 138.635 29.42C137.575 29.42 136.575 29.28 135.635 29C134.715 28.74 133.965 28.43 133.385 28.07L134.465 25.16C134.925 25.42 135.535 25.68 136.295 25.94C137.055 26.18 137.835 26.3 138.635 26.3C139.215 26.3 139.675 26.19 140.015 25.97C140.375 25.75 140.555 25.38 140.555 24.86ZM147.001 14H149.851L150.301 15.8H150.421C150.941 15.04 151.551 14.48 152.251 14.12C152.971 13.76 153.841 13.58 154.861 13.58C156.741 13.58 158.151 14.18 159.091 15.38C160.031 16.56 160.501 18.47 160.501 21.11C160.501 22.39 160.351 23.55 160.051 24.59C159.751 25.61 159.301 26.48 158.701 27.2C158.121 27.92 157.401 28.47 156.541 28.85C155.701 29.23 154.731 29.42 153.631 29.42C153.011 29.42 152.501 29.37 152.101 29.27C151.701 29.19 151.301 29.05 150.901 28.85V35H147.001V14ZM153.691 16.88C152.931 16.88 152.331 17.07 151.891 17.45C151.471 17.83 151.141 18.4 150.901 19.16V25.4C151.181 25.62 151.481 25.8 151.801 25.94C152.141 26.06 152.581 26.12 153.121 26.12C154.241 26.12 155.081 25.73 155.641 24.95C156.201 24.15 156.481 22.84 156.481 21.02C156.481 19.7 156.261 18.68 155.821 17.96C155.381 17.24 154.671 16.88 153.691 16.88ZM162.482 21.5C162.482 18.96 163.102 17.01 164.342 15.65C165.582 14.27 167.322 13.58 169.562 13.58C170.762 13.58 171.802 13.77 172.682 14.15C173.562 14.53 174.292 15.07 174.872 15.77C175.452 16.45 175.882 17.28 176.162 18.26C176.462 19.24 176.612 20.32 176.612 21.5C176.612 24.04 175.992 26 174.752 27.38C173.532 28.74 171.802 29.42 169.562 29.42C168.362 29.42 167.322 29.23 166.442 28.85C165.562 28.47 164.822 27.94 164.222 27.26C163.642 26.56 163.202 25.72 162.902 24.74C162.622 23.76 162.482 22.68 162.482 21.5ZM166.502 21.5C166.502 22.16 166.562 22.77 166.682 23.33C166.802 23.89 166.982 24.38 167.222 24.8C167.462 25.22 167.772 25.55 168.152 25.79C168.552 26.01 169.022 26.12 169.562 26.12C170.582 26.12 171.342 25.75 171.842 25.01C172.342 24.27 172.592 23.1 172.592 21.5C172.592 20.12 172.362 19.01 171.902 18.17C171.442 17.31 170.662 16.88 169.562 16.88C168.602 16.88 167.852 17.24 167.312 17.96C166.772 18.68 166.502 19.86 166.502 21.5ZM187.595 17.66C186.975 17.44 186.415 17.33 185.915 17.33C185.215 17.33 184.625 17.52 184.145 17.9C183.685 18.26 183.375 18.73 183.215 19.31V29H179.315V14H182.345L182.795 15.98H182.915C183.255 15.24 183.715 14.67 184.295 14.27C184.875 13.87 185.555 13.67 186.335 13.67C186.855 13.67 187.445 13.78 188.105 14L187.595 17.66ZM189.181 14H191.251V11.18L195.151 10.07V14H198.811V17.3H195.151V23.06C195.151 24.1 195.251 24.85 195.451 25.31C195.671 25.75 196.071 25.97 196.651 25.97C197.051 25.97 197.391 25.93 197.671 25.85C197.971 25.77 198.301 25.65 198.661 25.49L199.351 28.49C198.811 28.75 198.181 28.97 197.461 29.15C196.741 29.33 196.011 29.42 195.271 29.42C193.891 29.42 192.871 29.07 192.211 28.37C191.571 27.65 191.251 26.48 191.251 24.86V17.3H189.181V14ZM207.408 14H209.478V13.16C209.478 11.26 209.878 9.89 210.678 9.05C211.478 8.19 212.638 7.76 214.158 7.76C215.758 7.76 217.088 7.95 218.148 8.33L217.398 11.45C216.938 11.29 216.528 11.19 216.168 11.15C215.828 11.09 215.468 11.06 215.088 11.06C214.688 11.06 214.368 11.12 214.128 11.24C213.908 11.36 213.738 11.55 213.618 11.81C213.518 12.05 213.448 12.36 213.408 12.74C213.388 13.1 213.378 13.52 213.378 14H216.678V17.3H213.378V29H209.478V17.3H207.408V14ZM217.56 21.5C217.56 18.96 218.18 17.01 219.42 15.65C220.66 14.27 222.4 13.58 224.64 13.58C225.84 13.58 226.88 13.77 227.76 14.15C228.64 14.53 229.37 15.07 229.95 15.77C230.53 16.45 230.96 17.28 231.24 18.26C231.54 19.24 231.69 20.32 231.69 21.5C231.69 24.04 231.07 26 229.83 27.38C228.61 28.74 226.88 29.42 224.64 29.42C223.44 29.42 222.4 29.23 221.52 28.85C220.64 28.47 219.9 27.94 219.3 27.26C218.72 26.56 218.28 25.72 217.98 24.74C217.7 23.76 217.56 22.68 217.56 21.5ZM221.58 21.5C221.58 22.16 221.64 22.77 221.76 23.33C221.88 23.89 222.06 24.38 222.3 24.8C222.54 25.22 222.85 25.55 223.23 25.79C223.63 26.01 224.1 26.12 224.64 26.12C225.66 26.12 226.42 25.75 226.92 25.01C227.42 24.27 227.67 23.1 227.67 21.5C227.67 20.12 227.44 19.01 226.98 18.17C226.52 17.31 225.74 16.88 224.64 16.88C223.68 16.88 222.93 17.24 222.39 17.96C221.85 18.68 221.58 19.86 221.58 21.5ZM242.674 17.66C242.054 17.44 241.494 17.33 240.994 17.33C240.294 17.33 239.704 17.52 239.224 17.9C238.764 18.26 238.454 18.73 238.294 19.31V29H234.394V14H237.424L237.874 15.98H237.994C238.334 15.24 238.794 14.67 239.374 14.27C239.954 13.87 240.634 13.67 241.414 13.67C241.934 13.67 242.524 13.78 243.184 14L242.674 17.66ZM92.93 48.89C92.93 49.41 92.86 49.93 92.72 50.45C92.6 50.97 92.39 51.45 92.09 51.89C91.79 52.31 91.4 52.69 90.92 53.03C90.44 53.35 89.86 53.59 89.18 53.75V53.93C89.78 54.03 90.35 54.2 90.89 54.44C91.43 54.68 91.9 55.01 92.3 55.43C92.7 55.85 93.01 56.36 93.23 56.96C93.47 57.56 93.59 58.27 93.59 59.09C93.59 60.17 93.36 61.11 92.9 61.91C92.44 62.69 91.82 63.33 91.04 63.83C90.28 64.33 89.41 64.7 88.43 64.94C87.45 65.18 86.44 65.3 85.4 65.3C85.06 65.3 84.62 65.3 84.08 65.3C83.56 65.3 82.99 65.28 82.37 65.24C81.77 65.22 81.15 65.18 80.51 65.12C79.89 65.06 79.32 64.97 78.8 64.85V44.15C79.18 44.09 79.61 44.03 80.09 43.97C80.59 43.91 81.12 43.86 81.68 43.82C82.24 43.78 82.81 43.75 83.39 43.73C83.99 43.71 84.58 43.7 85.16 43.7C86.14 43.7 87.09 43.78 88.01 43.94C88.95 44.08 89.78 44.34 90.5 44.72C91.24 45.1 91.83 45.63 92.27 46.31C92.71 46.99 92.93 47.85 92.93 48.89ZM85.43 61.91C85.93 61.91 86.41 61.85 86.87 61.73C87.35 61.61 87.77 61.43 88.13 61.19C88.49 60.93 88.78 60.61 89 60.23C89.22 59.85 89.33 59.4 89.33 58.88C89.33 58.22 89.2 57.7 88.94 57.32C88.68 56.94 88.34 56.65 87.92 56.45C87.5 56.23 87.03 56.09 86.51 56.03C85.99 55.97 85.47 55.94 84.95 55.94H82.76V61.73C82.86 61.77 83.02 61.8 83.24 61.82C83.46 61.84 83.69 61.86 83.93 61.88C84.19 61.88 84.45 61.89 84.71 61.91C84.99 61.91 85.23 61.91 85.43 61.91ZM84.08 52.82C84.36 52.82 84.68 52.81 85.04 52.79C85.42 52.77 85.73 52.74 85.97 52.7C86.73 52.46 87.38 52.1 87.92 51.62C88.48 51.14 88.76 50.51 88.76 49.73C88.76 49.21 88.66 48.78 88.46 48.44C88.26 48.1 87.99 47.83 87.65 47.63C87.33 47.43 86.96 47.29 86.54 47.21C86.12 47.13 85.68 47.09 85.22 47.09C84.7 47.09 84.22 47.1 83.78 47.12C83.34 47.14 83 47.17 82.76 47.21V52.82H84.08ZM96.3446 50.87C97.1446 50.51 98.0946 50.23 99.1946 50.03C100.295 49.81 101.445 49.7 102.645 49.7C103.685 49.7 104.555 49.83 105.255 50.09C105.955 50.33 106.505 50.68 106.905 51.14C107.325 51.6 107.615 52.15 107.775 52.79C107.955 53.43 108.045 54.15 108.045 54.95C108.045 55.83 108.015 56.72 107.955 57.62C107.895 58.5 107.855 59.37 107.835 60.23C107.835 61.09 107.865 61.93 107.925 62.75C107.985 63.55 108.135 64.31 108.375 65.03H105.195L104.565 62.96H104.415C104.015 63.58 103.455 64.12 102.735 64.58C102.035 65.02 101.125 65.24 100.005 65.24C99.3046 65.24 98.6746 65.14 98.1146 64.94C97.5546 64.72 97.0746 64.42 96.6746 64.04C96.2746 63.64 95.9646 63.18 95.7446 62.66C95.5246 62.12 95.4146 61.52 95.4146 60.86C95.4146 59.94 95.6146 59.17 96.0146 58.55C96.4346 57.91 97.0246 57.4 97.7846 57.02C98.5646 56.62 99.4846 56.35 100.545 56.21C101.625 56.05 102.825 56 104.145 56.06C104.285 54.94 104.205 54.14 103.905 53.66C103.605 53.16 102.935 52.91 101.895 52.91C101.115 52.91 100.285 52.99 99.4046 53.15C98.5446 53.31 97.8346 53.52 97.2746 53.78L96.3446 50.87ZM101.295 62.03C102.075 62.03 102.695 61.86 103.155 61.52C103.615 61.16 103.955 60.78 104.175 60.38V58.43C103.555 58.37 102.955 58.36 102.375 58.4C101.815 58.44 101.315 58.53 100.875 58.67C100.435 58.81 100.085 59.01 99.8246 59.27C99.5646 59.53 99.4346 59.86 99.4346 60.26C99.4346 60.82 99.5946 61.26 99.9146 61.58C100.255 61.88 100.715 62.03 101.295 62.03ZM120.497 65V56.48C120.497 55.26 120.317 54.38 119.957 53.84C119.617 53.3 119.027 53.03 118.187 53.03C117.447 53.03 116.817 53.25 116.297 53.69C115.797 54.11 115.437 54.64 115.217 55.28V65H111.317V50H114.407L114.857 51.98H114.977C115.437 51.34 116.047 50.78 116.807 50.3C117.567 49.82 118.547 49.58 119.747 49.58C120.487 49.58 121.147 49.68 121.727 49.88C122.307 50.08 122.797 50.41 123.197 50.87C123.597 51.33 123.897 51.96 124.097 52.76C124.297 53.54 124.397 54.51 124.397 55.67V65H120.497ZM140.415 59.72C140.415 60.56 140.425 61.4 140.445 62.24C140.465 63.08 140.555 64.01 140.715 65.03H137.925L137.385 63.08H137.265C136.865 63.78 136.285 64.35 135.525 64.79C134.785 65.21 133.905 65.42 132.885 65.42C131.005 65.42 129.545 64.8 128.505 63.56C127.465 62.32 126.945 60.38 126.945 57.74C126.945 55.18 127.525 53.19 128.685 51.77C129.845 50.35 131.545 49.64 133.785 49.64C134.405 49.64 134.915 49.68 135.315 49.76C135.715 49.82 136.115 49.93 136.515 50.09V44H140.415V59.72ZM133.785 62.12C134.545 62.12 135.145 61.94 135.585 61.58C136.025 61.2 136.335 60.66 136.515 59.96V53.6C136.235 53.38 135.925 53.22 135.585 53.12C135.245 53 134.805 52.94 134.265 52.94C133.165 52.94 132.335 53.31 131.775 54.05C131.235 54.79 130.965 56.06 130.965 57.86C130.965 59.14 131.185 60.17 131.625 60.95C132.085 61.73 132.805 62.12 133.785 62.12ZM147.587 50V58.52C147.587 59.74 147.727 60.62 148.007 61.16C148.307 61.7 148.877 61.97 149.717 61.97C150.457 61.97 151.067 61.75 151.547 61.31C152.047 60.87 152.417 60.33 152.657 59.69V50H156.557V60.44C156.557 61.26 156.597 62.07 156.677 62.87C156.757 63.65 156.877 64.36 157.037 65H154.097L153.407 62.78H153.287C152.827 63.54 152.187 64.17 151.367 64.67C150.547 65.17 149.577 65.42 148.457 65.42C147.697 65.42 147.017 65.32 146.417 65.12C145.817 64.92 145.317 64.59 144.917 64.13C144.517 63.67 144.207 63.05 143.987 62.27C143.787 61.49 143.687 60.51 143.687 59.33V50H147.587ZM169.16 65V56.48C169.16 55.26 168.98 54.38 168.62 53.84C168.28 53.3 167.69 53.03 166.85 53.03C166.11 53.03 165.48 53.25 164.96 53.69C164.46 54.11 164.1 54.64 163.88 55.28V65H159.98V50H163.07L163.52 51.98H163.64C164.1 51.34 164.71 50.78 165.47 50.3C166.23 49.82 167.21 49.58 168.41 49.58C169.15 49.58 169.81 49.68 170.39 49.88C170.97 50.08 171.46 50.41 171.86 50.87C172.26 51.33 172.56 51.96 172.76 52.76C172.96 53.54 173.06 54.51 173.06 55.67V65H169.16ZM189.017 65C189.017 67.18 188.427 68.78 187.247 69.8C186.067 70.84 184.417 71.36 182.297 71.36C180.857 71.36 179.717 71.26 178.877 71.06C178.057 70.86 177.437 70.65 177.017 70.43L177.827 67.34C178.287 67.52 178.817 67.7 179.417 67.88C180.037 68.06 180.797 68.15 181.697 68.15C183.057 68.15 183.977 67.85 184.457 67.25C184.957 66.67 185.207 65.85 185.207 64.79V63.83H185.087C184.387 64.77 183.147 65.24 181.367 65.24C179.427 65.24 177.977 64.64 177.017 63.44C176.077 62.24 175.607 60.36 175.607 57.8C175.607 55.12 176.247 53.09 177.527 51.71C178.807 50.33 180.667 49.64 183.107 49.64C184.387 49.64 185.527 49.73 186.527 49.91C187.547 50.09 188.377 50.3 189.017 50.54V65ZM182.417 62.12C183.177 62.12 183.757 61.95 184.157 61.61C184.577 61.27 184.897 60.76 185.117 60.08V53.33C184.497 53.07 183.727 52.94 182.807 52.94C181.807 52.94 181.027 53.32 180.467 54.08C179.907 54.82 179.627 56.01 179.627 57.65C179.627 59.11 179.867 60.22 180.347 60.98C180.827 61.74 181.517 62.12 182.417 62.12Z" fill="#00A64F"/>
<path d="M31.1652 67.4386L32.199 67.4393C32.2392 67.4584 32.2391 67.4772 32.1984 67.4956H31.1657C31.1251 67.4769 31.125 67.4579 31.1652 67.4386Z" fill="white"/>
<path d="M0 35.8586C0.109246 35.7207 0.0103732 35.5363 0.115043 35.3974C0.133885 35.6487 0.116457 35.9014 0.063296 36.1478C0.0411357 36.1849 0.0200371 36.1844 0 36.1462V35.8586Z" fill="white"/>
<path d="M0.11575 39.5414C0.0103584 39.4025 0.10976 39.2177 0 39.0798V38.7922C0.0201115 38.7541 0.041984 38.7532 0.0656177 38.7894C0.116137 39.0367 0.133 39.2896 0.11575 39.5414Z" fill="white"/>
<path d="M63.3129 37.873L63.313 37.0656C63.331 37.0259 63.348 37.0262 63.3642 37.0665V37.8718C63.3481 37.9121 63.331 37.9125 63.3129 37.873Z" fill="white"/>
<path d="M63.3642 37.0665L63.3386 37.065L63.313 37.0656V36.7204C63.3301 36.7192 63.3472 36.7195 63.3642 36.7214L63.3642 37.0665Z" fill="white"/>
<path d="M63.3128 37.8729C63.3299 37.8739 63.3471 37.8735 63.3642 37.8718V38.2169L63.3383 38.2184L63.3125 38.2179L63.3128 37.8729Z" fill="white"/>
<path d="M30.0084 7.54861C30.0083 7.53244 30.0092 7.51627 30.0114 7.50024H30.3152C30.3562 7.51977 30.3548 7.53609 30.311 7.5492L30.0084 7.54861Z" fill="white"/>
<path d="M31.0442 7.50024C30.9519 7.57893 30.8405 7.5532 30.7334 7.55131C30.712 7.53712 30.7059 7.52483 30.7151 7.51442C30.718 7.51036 30.7218 7.507 30.7262 7.50455C30.7306 7.5021 30.7354 7.50063 30.7404 7.50024H31.0442Z" fill="white"/>
<path d="M32.631 7.55105C32.5238 7.55328 32.4124 7.57887 32.3199 7.50024H32.6237C32.648 7.50862 32.6572 7.51891 32.6513 7.5312C32.6449 7.54442 32.6382 7.55105 32.631 7.55105Z" fill="white"/>
<path d="M33.3528 7.50024C33.3556 7.51601 33.3567 7.53204 33.3562 7.54805L33.0531 7.54938C33.0094 7.53613 33.0081 7.51976 33.049 7.50027L33.3528 7.50024Z" fill="white"/>
<path d="M31.1653 67.4386C31.1659 67.4576 31.1661 67.4766 31.1658 67.4956H30.862L30.8619 67.4371C30.9623 67.4187 31.0652 67.4192 31.1653 67.4386Z" fill="white"/>
<path d="M32.1985 67.4956C32.1984 67.4768 32.1986 67.4581 32.1991 67.4393C32.2991 67.4191 32.4021 67.4184 32.5024 67.4373L32.5023 67.4956H32.1985Z" fill="white"/>
<path d="M30.7405 7.50024C30.7387 7.51735 30.7364 7.53439 30.7335 7.55134L30.493 7.55073C30.455 7.5308 30.4565 7.51397 30.4975 7.50024H30.7405Z" fill="white"/>
<path d="M32.6311 7.55105C32.6282 7.53418 32.6257 7.51724 32.6238 7.50024H32.8668C32.9073 7.51363 32.9089 7.53031 32.8715 7.55026L32.6311 7.55105Z" fill="white"/>
<path d="M0.0625817 36.3202C0.0688845 36.4031 0.0810362 36.4874 0 36.5488V36.3187C0.0219222 36.2798 0.0427828 36.2803 0.0625817 36.3202Z" fill="white"/>
<path d="M0 38.3895C0.0820705 38.4512 0.0685422 38.5359 0.0615473 38.619C0.0414756 38.658 0.0209598 38.6582 0 38.6196V38.3895Z" fill="white"/>
<path d="M30.4974 7.50024C30.4975 7.51718 30.496 7.5341 30.493 7.55079L30.311 7.54921C30.3135 7.53299 30.3148 7.51663 30.3152 7.50024H30.4974Z" fill="white"/>
<path d="M32.8714 7.55026C32.8686 7.53373 32.867 7.51701 32.8667 7.50024H33.049C33.0491 7.5167 33.0505 7.53312 33.053 7.54939L32.8714 7.55026Z" fill="white"/>
<path d="M0.0625817 36.3202L0 36.3187V36.1462L0.063296 36.1478L0.0625817 36.3202Z" fill="white"/>
<path d="M0 38.6196L0.0615399 38.619L0.0656103 38.7894L0 38.7922V38.6196Z" fill="white"/>
<path d="M63.3102 35.4591C63.2852 33.9944 63.099 32.5369 62.7549 31.1129C62.1595 28.4868 61.197 25.9578 59.8957 23.6005C59.2618 22.4515 58.5535 21.3452 57.7753 20.2887C56.699 18.8304 55.4992 17.4675 54.189 16.2151C53.423 15.4882 52.6192 14.8021 51.7811 14.1597C50.2429 12.9612 48.5948 11.911 46.8587 11.0232C44.8063 9.96365 42.6463 9.12696 40.4156 8.52743C38.1132 7.87834 35.7337 7.54252 33.3415 7.52902H32.6329C32.5288 7.51533 32.4189 7.55859 32.32 7.5H31.044C30.9433 7.5586 30.8329 7.51534 30.7276 7.52902H30.0173C29.7743 7.52793 29.532 7.55147 29.2908 7.55257C28.0193 7.56979 26.7522 7.70325 25.505 7.95128C21.5389 8.68668 17.7437 10.1515 14.3119 12.2713C12.2897 13.5184 10.4185 14.9951 8.73538 16.6719C8.37329 17.0328 8.00715 17.3915 7.66472 17.7677C6.5385 19.0008 5.51494 20.3238 4.60429 21.7236C3.63529 23.209 2.80373 24.7796 2.11996 26.416C1.47994 27.9527 0.974792 29.5422 0.610235 31.1665C0.271177 32.5623 0.0868999 33.9913 0.0607362 35.4274C0.0681641 35.6581 0.0579147 35.889 0.0300779 36.118V36.2971C0.0179336 36.3809 0.0590024 36.4702 0 36.5485V38.3892C0.0590024 38.4692 0.0179336 38.5596 0.0300779 38.6445V38.8241C0.0587803 39.0539 0.0690325 39.2855 0.0607362 39.5169C0.0509062 39.7184 0.0850322 39.9183 0.0879194 40.1188C0.136111 41.3434 0.310162 42.5598 0.607325 43.7488C1.32283 46.9477 2.57888 50.0011 4.32141 52.7776C6.01409 55.4689 8.1154 57.8803 10.5499 59.9252C13.5977 62.4967 17.0979 64.478 20.8713 65.7678C24.0922 66.9005 27.4829 67.475 30.8971 67.4667H32.4756C33.0292 67.4108 33.5868 67.4262 34.1415 67.4174C35.6548 67.368 37.1598 67.1722 38.6353 66.8325C41.7252 66.1783 44.7047 65.0818 47.4816 63.5771C49.8183 62.3048 51.9903 60.751 53.949 58.9504C54.7467 58.2076 55.5027 57.4212 56.2135 56.5949C57.6359 54.9758 58.8753 53.2047 59.9091 51.3137C60.9528 49.4179 61.7788 47.4101 62.3714 45.3287C62.7294 44.0846 62.9979 42.8164 63.1748 41.5339C63.3025 40.4215 63.3556 39.3017 63.3339 38.1822V36.75C63.3299 36.3196 63.3119 35.8885 63.3102 35.4591ZM31.5461 60.2314C18.2042 60.1608 7.64387 49.8563 7.64098 37.4707C7.63866 25.026 18.295 14.7052 31.6912 14.6997C45.1066 14.7101 55.7548 25.0589 55.7328 37.508C55.7109 49.9286 45.0407 60.3026 31.5461 60.2314Z" fill="#00A64F"/>
<path d="M42.7069 41.2168C42.4459 40.2438 41.9527 39.3487 41.2696 38.6083C40.5866 37.8678 39.734 37.3042 38.7852 36.9658C38.1005 36.6977 37.3902 36.5008 36.6652 36.3781C36.5825 36.3639 36.505 36.3579 36.5015 36.2505C36.4986 36.1503 36.5287 36.1005 36.6444 36.0736C36.9093 36.0134 37.1709 35.9396 37.4282 35.8524C38.3464 35.5847 39.1921 35.1126 39.902 34.4717C40.612 33.8307 41.1676 33.0374 41.5275 32.1512C42.0721 30.7449 42.1973 29.2108 41.8878 27.7348C41.709 26.8483 41.329 26.0148 40.777 25.2986C40.225 24.5823 39.5158 24.0024 38.7042 23.6037C37.8806 23.162 37.0012 22.8336 36.0897 22.6272C34.4213 22.2555 32.7176 22.0647 31.0083 22.0582C29.7531 22.0336 28.4985 22.073 27.2444 22.1206C26.5168 22.148 25.7891 22.1924 25.0626 22.2455C23.8827 22.332 22.7079 22.4673 21.5366 22.6283C21.1577 22.6804 21.1565 22.6743 21.1565 23.0456V51.2239C21.1599 51.2908 21.1595 51.3579 21.1554 51.4249C21.1398 51.5722 21.1907 51.6472 21.359 51.679C21.9646 51.7934 22.5719 51.8942 23.1851 51.9588C24.5537 52.1029 25.9268 52.1872 27.3023 52.2354C28.4962 52.277 29.6912 52.2442 30.8857 52.2568C32.1704 52.267 33.453 52.1488 34.7142 51.9041C36.3406 51.6235 37.8993 51.038 39.3081 50.1783C40.9846 49.1996 42.2147 47.6072 42.7381 45.7378C43.1421 44.2564 43.1313 42.6925 42.7069 41.2168ZM27.0247 27.2496C27.0247 26.967 27.0264 26.9686 27.3127 26.9396C28.6722 26.8097 30.0391 26.7754 31.4033 26.8372C32.2832 26.8471 33.1512 27.0407 33.9519 27.4057C34.5053 27.6372 34.9798 28.0242 35.3179 28.5199C35.6559 29.0155 35.8431 29.5985 35.8566 30.1983C35.8864 30.6097 35.8529 31.0233 35.7571 31.4245C35.5899 32.0698 35.2236 32.6461 34.7102 33.0713C33.8729 33.7714 32.8992 34.2898 31.851 34.5938C31.4185 34.697 30.9752 34.7485 30.5305 34.7472C29.4396 34.8052 28.347 34.8135 27.2549 34.8042C27.0293 34.802 27.0253 34.7992 27.0253 34.5763C27.0235 33.3408 27.0233 32.1054 27.0247 30.8702V27.2496ZM36.6635 43.9245C36.5708 44.4755 36.3557 44.9986 36.0341 45.4555C35.7124 45.9123 35.2925 46.2912 34.805 46.5643C34.0145 47.0292 33.1345 47.3216 32.223 47.4225C31.3979 47.5114 30.5669 47.5307 29.7386 47.48C29.0208 47.4608 28.303 47.434 27.5875 47.3672C27.0247 47.3146 27.0247 47.3184 27.0247 46.8025V39.501C27.0247 39.4336 27.027 39.3668 27.0247 39.2994C27.0229 39.2184 27.0576 39.174 27.1484 39.1767C27.1884 39.1784 27.2294 39.1757 27.2699 39.1762C28.5951 39.18 29.9214 39.1494 31.2466 39.2019C32.1667 39.2057 33.0817 39.3403 33.964 39.6017C34.7008 39.8258 35.3661 40.239 35.8936 40.8C36.3591 41.3254 36.6364 41.9907 36.682 42.6912C36.7282 43.1014 36.722 43.5158 36.6635 43.9245Z" fill="#00A64F"/>
</svg>
