<svg width="150" height="150" viewBox="0 0 150 150" fill="none" xmlns="http://www.w3.org/2000/svg">
<circle cx="75" cy="75" r="75" fill="#FFFFFF"/>
<path d="M80.1804 57.1185H78.6452C77.1542 56.9987 75.6668 57.3893 74.427 58.2261C73.1872 59.063 72.2687 60.2964 71.8222 61.724C71.8222 62.2357 71.4242 62.7475 70.7419 62.8043C70.5433 62.8383 70.3393 62.819 70.1507 62.7482C69.9621 62.6775 69.7957 62.5579 69.6684 62.4018C69.5412 62.2456 69.4577 62.0585 69.4265 61.8595C69.3954 61.6604 69.4176 61.4567 69.491 61.2691C69.9334 59.5708 70.8546 58.0355 72.1449 56.846C73.4352 55.6564 75.0403 54.8629 76.7689 54.5598C77.9683 54.3033 79.2084 54.3033 80.4078 54.5598C80.5976 54.5417 80.7889 54.5741 80.9621 54.6538C81.1353 54.7335 81.2843 54.8576 81.3941 55.0135C81.5038 55.1695 81.5703 55.3516 81.5868 55.5416C81.6033 55.7315 81.5693 55.9225 81.4882 56.095C81.4744 56.2501 81.429 56.4007 81.3547 56.5375C81.2805 56.6743 81.1789 56.7944 81.0563 56.8904C80.9337 56.9863 80.7927 57.0561 80.642 57.0953C80.4914 57.1345 80.3342 57.1424 80.1804 57.1185Z" fill="#00152B"/>
<path d="M78.4741 61.6092C78.0009 61.5196 77.5113 61.6098 77.1011 61.8622C76.691 62.1146 76.3898 62.511 76.2566 62.9738C76.2115 63.1291 76.1353 63.2736 76.0327 63.3985C75.9301 63.5235 75.8031 63.6263 75.6596 63.7008C75.516 63.7752 75.3588 63.8197 75.1976 63.8316C75.0363 63.8434 74.8743 63.8224 74.7214 63.7698C74.5674 63.7075 74.4273 63.6152 74.3094 63.4982C74.1915 63.3812 74.098 63.2419 74.0345 63.0884C73.971 62.9349 73.9387 62.7703 73.9395 62.6042C73.9403 62.4381 73.9741 62.2738 74.0391 62.1209C74.363 61.1504 75.0208 60.3262 75.8954 59.7952C76.77 59.2642 77.8047 59.0608 78.8152 59.2211C79.7818 59.2211 80.1798 59.9034 80.0661 60.6426C79.9524 61.3817 79.4975 61.666 78.4741 61.6092Z" fill="#00152B"/>
<path d="M80.3516 65.3627C80.3518 65.5169 80.3206 65.6696 80.2599 65.8114C80.1992 65.9532 80.1103 66.0812 79.9986 66.1876C79.887 66.2939 79.7548 66.3765 79.6102 66.4302C79.4656 66.4838 79.3116 66.5076 79.1575 66.4998C78.7351 66.3914 78.3584 66.1509 78.0823 65.8134C77.8061 65.4759 77.645 65.059 77.6223 64.6235C77.6142 64.4646 77.6395 64.3056 77.6966 64.1571C77.7537 64.0085 77.8414 63.8736 77.9539 63.761C78.0665 63.6485 78.2014 63.5608 78.35 63.5037C78.4985 63.4466 78.6574 63.4213 78.8164 63.4295C79.2575 63.5222 79.6524 63.7661 79.9327 64.1191C80.213 64.4721 80.3612 64.912 80.3516 65.3627Z" fill="#00152B"/>
<path d="M113.613 104.652L112.078 102.036C111.995 101.816 111.995 101.574 112.078 101.354C112.419 97.7719 112.76 94.1329 113.158 90.494C113.664 87.3322 113.331 84.0932 112.194 81.1001C111.057 78.107 109.154 75.4645 106.677 73.4364C103.663 70.8209 100.593 68.3191 97.5792 65.7605C97.1243 65.3746 96.7396 64.9129 96.4421 64.3959C93.2011 58.71 89.9602 53.0242 86.6624 47.3383C86.3625 46.7208 85.9345 46.1742 85.4069 45.735C84.8793 45.2958 84.2642 44.974 83.6025 44.7911C82.9408 44.6082 82.2478 44.5683 81.5695 44.6742C80.8912 44.7801 80.2433 45.0293 79.6688 45.4051L75.2907 47.9069L73.4712 48.9303V41.7662C73.4833 40.3602 73.0495 38.9866 72.2323 37.8425C71.4151 36.6984 70.2564 35.8426 68.9225 35.398C68.5814 35 68.1834 35.2843 67.8422 35H41.6873C40.8601 35.045 40.058 35.2993 39.3561 35.7392C38.3466 36.3086 37.5051 37.134 36.9162 38.1322C36.3272 39.1304 36.0117 40.2661 36.0014 41.425V91.4606C35.971 92.9462 36.4347 94.3999 37.3196 95.5936C38.2046 96.7874 39.4609 97.6535 40.8912 98.0561C41.9716 98.3973 41.9716 98.3973 41.9716 99.5913V111.418C41.9112 111.759 41.953 112.111 42.0916 112.429C42.2303 112.747 42.4597 113.017 42.751 113.205C43.0424 113.393 43.3828 113.491 43.7296 113.487C44.0764 113.483 44.4143 113.376 44.7008 113.181L46.0085 112.555C46.2831 112.39 46.5976 112.302 46.9183 112.302C47.2389 112.302 47.5534 112.39 47.828 112.555L49.6475 113.351C50.0415 113.56 50.4807 113.67 50.9268 113.67C51.3728 113.67 51.8121 113.56 52.2061 113.351L54.0256 112.498C54.2562 112.387 54.5088 112.33 54.7647 112.33C55.0206 112.33 55.2733 112.387 55.5039 112.498L57.6077 113.408C57.9655 113.602 58.3662 113.704 58.7733 113.704C59.1804 113.704 59.581 113.602 59.9389 113.408C60.5075 113.067 61.1329 112.839 61.7015 112.555C61.9158 112.458 62.1484 112.407 62.3838 112.407C62.6192 112.407 62.8518 112.458 63.0661 112.555C63.6949 112.874 64.3402 113.158 64.9993 113.408C65.2666 113.528 65.559 113.581 65.8514 113.564C66.1438 113.546 66.4277 113.458 66.6789 113.308C66.9301 113.157 67.1412 112.948 67.2942 112.698C67.4472 112.448 67.5377 112.165 67.5579 111.873C67.5861 111.532 67.5861 111.19 67.5579 110.849V99.4776C67.5579 98.4542 67.5579 98.4542 68.5245 98.113C69.7952 97.737 70.9289 96.9991 71.7872 95.9893C72.6454 94.9796 73.1911 93.7418 73.3575 92.4272C73.4439 91.1967 73.4439 89.9618 73.3575 88.7313C73.5317 89.1283 73.741 89.5088 73.9829 89.8685C74.2899 90.2668 74.4924 90.7356 74.5718 91.2321C74.6513 91.7287 74.6052 92.2372 74.4378 92.7114C74.3233 93.3889 74.3233 94.0809 74.4378 94.7584C74.5081 95.4036 74.721 96.0251 75.0611 96.578C75.4012 97.1308 75.8599 97.6011 76.4041 97.9549C76.9483 98.3086 77.5644 98.5369 78.2077 98.6233C78.851 98.7096 79.5054 98.6519 80.1237 98.4542C80.3117 98.3112 80.5413 98.2338 80.7775 98.2338C81.0137 98.2338 81.2434 98.3112 81.4314 98.4542C81.9515 98.9506 82.5932 99.3013 83.2919 99.471C83.9906 99.6407 84.7216 99.6233 85.4115 99.4208C86.0369 99.4208 86.2075 99.4208 86.435 99.9325C87.6524 103.289 89.5936 106.337 92.1208 108.859C93.792 110.34 95.1793 112.112 96.2146 114.09C96.2992 114.313 96.4365 114.512 96.6147 114.671C96.7929 114.829 97.0068 114.942 97.2381 115H98.5458C99.1144 114.545 99.5693 113.977 99.1144 113.294C98.1749 111.33 96.9057 109.542 95.3617 108.006C91.2306 104.477 88.5228 99.5669 87.7427 94.1898C87.3817 90.7899 87.1919 87.3741 87.1741 83.9552C87.1387 82.8604 86.8465 81.7892 86.3212 80.828C85.1272 78.838 83.99 76.7342 82.796 74.6873C82.4832 74.2165 82.3242 73.6602 82.3411 73.0952C82.4124 72.6528 82.6039 72.2386 82.8947 71.8976C83.1855 71.5567 83.5644 71.3022 83.99 71.162C84.4534 71.0466 84.9417 71.0839 85.3822 71.2683C85.8228 71.4527 86.192 71.7744 86.435 72.1855C87.231 73.4932 87.9133 74.801 88.7093 76.1087C88.7718 76.2617 88.8686 76.3982 88.9921 76.5079C89.1157 76.6175 89.2627 76.6974 89.422 76.7413C89.5812 76.7853 89.7484 76.7921 89.9107 76.7613C90.073 76.7305 90.2261 76.6628 90.3582 76.5636C90.5049 76.4779 90.6317 76.3618 90.7299 76.2231C90.8282 76.0845 90.8958 75.9264 90.928 75.7596C90.9603 75.5927 90.9566 75.4209 90.9172 75.2556C90.8778 75.0903 90.8035 74.9353 90.6993 74.801C89.9033 73.4364 89.1642 72.0149 88.3113 70.7072C87.8971 69.9825 87.274 69.3995 86.5234 69.0343C85.7728 68.6692 84.9296 68.5388 84.1038 68.6603C83.3149 68.7131 82.5535 68.9706 81.8945 69.4075C81.2355 69.8443 80.7018 70.4454 80.3459 71.1514C79.9901 71.8573 79.8243 72.6439 79.8651 73.4335C79.9059 74.223 80.1518 74.9883 80.5785 75.6539C81.2608 76.9048 81.9431 78.1557 82.7391 79.3497C84.2718 81.3453 85.0202 83.8333 84.8429 86.3433C84.8429 86.855 84.8429 87.1393 84.2743 87.3667L80.5785 89.5274C80.2566 89.7644 79.8847 89.9244 79.4914 89.9953C79.098 90.0661 78.6936 90.0458 78.3093 89.936C77.9249 89.8262 77.5709 89.6298 77.2743 89.3618C76.9777 89.0938 76.7465 88.7615 76.5984 88.3902L67.8422 73.3795L67.5011 72.8109C67.4306 72.6797 67.3337 72.5645 67.2166 72.4725C67.0995 72.3806 66.9646 72.3138 66.8205 72.2764C66.6763 72.239 66.526 72.2319 66.3789 72.2554C66.2318 72.2788 66.0912 72.3325 65.9659 72.4129C65.8233 72.479 65.696 72.5738 65.5919 72.6915C65.4878 72.8092 65.4092 72.9472 65.3612 73.0968C65.3131 73.2464 65.2965 73.4043 65.3125 73.5606C65.3285 73.7169 65.3767 73.8682 65.4541 74.005L65.9659 74.801L67.5011 77.5302C66.8059 77.3993 66.0924 77.3993 65.3973 77.5302H63.4641C63.169 77.5061 62.8721 77.5445 62.5928 77.643C62.3136 77.7415 62.0583 77.8978 61.8436 78.1017C61.6289 78.3057 61.4597 78.5526 61.347 78.8265C61.2344 79.1003 61.1808 79.3949 61.1898 79.6908C61.133 80.5048 61.133 81.3218 61.1898 82.1357C61.1819 82.4291 61.2339 82.7209 61.3426 82.9935C61.4513 83.2661 61.6143 83.5137 61.8218 83.7212C62.0293 83.9287 62.2769 84.0917 62.5495 84.2004C62.822 84.309 63.1139 84.3611 63.4072 84.3532H66.0227C67.7853 84.3532 68.5814 83.5004 68.5814 81.7377V79.8045C69.3055 80.8267 69.9699 81.8898 70.5714 82.9886C70.6901 83.3778 70.6901 83.7935 70.5714 84.1827C70.5714 86.5139 70.5714 88.8451 70.5714 91.1763C70.5954 91.7875 70.4927 92.3971 70.2697 92.9667C70.0468 93.5364 69.7084 94.0537 69.2759 94.4862C68.8433 94.9188 68.326 95.2572 67.7563 95.4801C67.1867 95.7031 66.5771 95.8058 65.9659 95.7818H43.2224C42.6 95.8424 41.9719 95.7654 41.3826 95.5562C40.7933 95.347 40.2572 95.0108 39.8123 94.5713C39.3674 94.1318 39.0246 93.5999 38.8082 93.0132C38.5918 92.4265 38.5071 91.7994 38.56 91.1763V41.9936C38.5084 41.3682 38.5935 40.7391 38.8096 40.15C39.0256 39.5609 39.3673 39.0259 39.811 38.5822C40.2547 38.1385 40.7897 37.7967 41.3789 37.5807C41.968 37.3647 42.5971 37.2795 43.2224 37.3312H66.3639C66.9595 37.2899 67.5571 37.3759 68.117 37.5833C68.6769 37.7908 69.1862 38.1151 69.6111 38.5346C70.0359 38.9541 70.3667 39.4592 70.5813 40.0164C70.7959 40.5736 70.8894 41.17 70.8557 41.7662C70.8557 44.4954 70.8557 47.452 70.8557 49.8969C70.8557 49.8969 70.8557 50.4087 70.8557 50.5224L68.7519 51.7164V46.3717C68.7519 44.6091 68.1265 43.9268 66.307 43.9268H43.5636C41.6873 43.8699 40.9481 44.5522 40.8912 46.3717V50.8635C40.8912 51.7164 41.3461 52.2281 42.0853 52.2281C42.2521 52.2289 42.4173 52.1947 42.5701 52.1277C42.7229 52.0607 42.86 51.9624 42.9725 51.8392C43.085 51.716 43.1704 51.5706 43.2233 51.4123C43.2761 51.2541 43.2952 51.0865 43.2793 50.9204V46.7697C43.2793 46.3717 43.2793 46.258 43.791 46.258H65.6247C66.0227 46.258 66.1933 46.258 66.1933 46.8266C66.1933 48.7598 66.1933 50.6551 66.1933 52.5124C66.1916 52.6874 66.1362 52.8577 66.0345 53.0001C65.9328 53.1425 65.7897 53.2501 65.6247 53.3085L60.8486 56.0945C59.9415 56.6185 59.2291 57.4231 58.8189 58.3871C58.4087 59.3511 58.3229 60.4222 58.5743 61.4392C58.5743 61.951 58.5743 62.1215 58.0625 62.1215H43.9047C43.3362 62.1215 43.2793 62.1215 43.2793 61.4392V55.7534C43.2793 54.9005 42.8244 54.3888 42.1421 54.3888C41.4598 54.3888 40.9481 54.9005 40.8912 55.7534V62.2921C40.8912 63.8842 41.6304 64.5665 43.2793 64.5665H59.3134C59.5505 64.5469 59.7878 64.6023 59.9918 64.7247C60.1958 64.8471 60.3562 65.0304 60.4506 65.2488C61.1898 66.6702 62.0426 68.0348 62.8387 69.4563C63.0254 69.8309 63.3523 70.1169 63.7484 70.2523C63.984 70.2958 64.2271 70.2706 64.4489 70.1799C64.6706 70.0892 64.8617 69.9367 64.9993 69.7406C65.1387 69.5404 65.2134 69.3022 65.2134 69.0583C65.2134 68.8143 65.1387 68.5762 64.9993 68.376C63.8621 66.3291 62.6681 64.2822 61.474 62.2353C61.1526 61.9011 60.9217 61.4905 60.8029 61.0423C60.6842 60.5941 60.6816 60.1231 60.7954 59.6736C60.9092 59.2241 61.1356 58.811 61.4533 58.4733C61.771 58.1356 62.1695 57.8844 62.6112 57.7434L80.4079 47.7363C80.7372 47.4648 81.1266 47.2761 81.5437 47.186C81.9608 47.0959 82.3935 47.1069 82.8054 47.2183C83.2173 47.3296 83.5966 47.538 83.9116 47.8259C84.2265 48.1139 84.4678 48.4731 84.6155 48.8735L89.7328 57.7434L99.8536 75.4264C100.062 75.7367 100.202 76.088 100.263 76.4568C100.324 76.8255 100.306 77.2031 100.209 77.5641C100.112 77.9251 99.9386 78.2611 99.7008 78.5495C99.4629 78.8379 99.1661 79.072 98.8301 79.236L95.1912 81.3397C94.6794 81.624 94.5089 81.3397 94.2814 81.0554L93.258 79.2928C93.1861 79.1484 93.0857 79.02 92.9628 78.9154C92.8399 78.8108 92.697 78.7323 92.5429 78.6845C92.3888 78.6366 92.2266 78.6205 92.0661 78.6371C91.9056 78.6538 91.7501 78.7027 91.6091 78.7811C91.4594 78.8557 91.328 78.9625 91.2243 79.0937C91.1205 79.225 91.0471 79.3775 91.009 79.5404C90.971 79.7033 90.9694 79.8726 91.0044 80.0362C91.0393 80.1998 91.1099 80.3537 91.2111 80.4869L92.5757 82.8749C93.2011 83.8984 93.7129 84.9218 94.3383 85.9453C94.414 86.0864 94.5186 86.2099 94.6453 86.3078C94.772 86.4057 94.918 86.4758 95.0737 86.5133C95.2293 86.5509 95.3912 86.5552 95.5486 86.5259C95.706 86.4966 95.8555 86.4343 95.9872 86.3433C96.2343 86.1704 96.4106 85.9142 96.4838 85.6217C96.5569 85.3291 96.5219 85.02 96.3852 84.7512V84.2395C96.1009 83.8415 96.3852 83.6141 96.3852 83.3866L100.365 81.1123C101.378 80.4563 102.113 79.4488 102.428 78.2836C102.743 77.1185 102.616 75.878 102.071 74.801C101.616 73.9481 101.161 73.0952 100.65 72.2992C100.138 71.5032 100.65 72.2992 100.65 71.7875L104.971 75.4264C107.285 77.4433 108.997 80.0603 109.918 82.9886C110.693 86.1737 110.79 89.4864 110.202 92.7114L109.349 101.581C109.209 101.948 109.209 102.352 109.349 102.719C109.974 103.742 110.543 104.822 111.168 105.903C111.794 106.983 112.249 106.926 112.874 106.585C113.5 106.244 114.068 105.505 113.613 104.652ZM83.6489 91.0625C83.6489 90.4371 84.388 90.3234 84.7861 90.1528C85.1841 89.9822 84.7861 90.4371 84.7861 90.6077C84.8057 92.0186 84.9388 93.4256 85.1841 94.8152V95.8955C85.1841 96.7484 85.1841 97.1464 84.1038 97.1464C83.8646 97.1476 83.628 97.0985 83.409 97.0023C83.1901 96.9062 82.9939 96.765 82.833 96.5881C82.6722 96.4112 82.5503 96.2024 82.4754 95.9753C82.4005 95.7483 82.3741 95.508 82.398 95.2701C83.0234 93.8486 83.3646 92.4271 83.6489 91.0625ZM77.1102 93.9055C77.1102 92.5409 77.1102 92.5409 78.5316 92.6546C79.3659 92.7032 80.2007 92.5673 80.9765 92.2566C80.9765 93.2232 80.6354 94.0761 80.4079 94.8152C80.2885 95.2258 80.0141 95.5739 79.6428 95.7861C79.2715 95.9983 78.8323 96.0579 78.4179 95.9524C78.0168 95.8711 77.6584 95.6484 77.4078 95.3248C77.1573 95.0012 77.0315 94.5984 77.0533 94.1898C77.0497 94.0919 77.0692 93.9945 77.1102 93.9055ZM65.7384 81.8515H64.8856C63.5778 81.8515 63.6347 81.8515 63.5778 80.5437C63.521 79.236 63.5778 79.634 64.317 79.7477H64.715C66.1933 79.7477 66.1933 79.7477 66.1933 81.226C66.1933 81.6809 66.0796 81.9083 65.6247 81.8515H65.7384ZM45.2694 98.1699H64.4307C64.9424 98.1699 65.113 98.1699 65.113 98.8522V109.826C65.113 110.451 65.113 110.508 64.4876 110.224C63.892 109.767 63.1626 109.52 62.4122 109.52C61.6619 109.52 60.9324 109.767 60.3369 110.224C59.8784 110.544 59.3326 110.716 58.7733 110.716C58.2139 110.716 57.6681 110.544 57.2097 110.224C54.4236 108.916 55.2196 108.973 52.5472 110.224C52.0932 110.5 51.5719 110.646 51.0405 110.646C50.509 110.646 49.9878 110.5 49.5337 110.224C48.8245 109.666 47.9357 109.387 47.035 109.44C46.1342 109.492 45.2838 109.872 44.6439 110.508V98.5679C44.5302 97.9993 44.8145 98.1699 45.1556 98.1699H45.2694Z" fill="#00152B"/>
<path d="M68.5818 88.5035C68.6145 88.2039 68.5825 87.9007 68.4879 87.6146C68.3933 87.3284 68.2383 87.0659 68.0334 86.8448C67.8285 86.6238 67.5786 86.4493 67.3004 86.3333C67.0222 86.2173 66.7224 86.1624 66.4211 86.1723H63.3508C63.0745 86.1647 62.7994 86.2117 62.5413 86.3105C62.2831 86.4092 62.047 86.5579 61.8463 86.748C61.6457 86.9381 61.4844 87.1659 61.3718 87.4183C61.2593 87.6708 61.1975 87.9429 61.1901 88.2192C61.1332 89.128 61.1332 90.0396 61.1901 90.9484C61.2196 91.4964 61.462 92.0112 61.8656 92.383C62.2693 92.7547 62.8022 92.9541 63.3508 92.9385H66.3643C66.9524 92.9385 67.5164 92.7048 67.9323 92.289C68.3481 91.8731 68.5818 91.3091 68.5818 90.721C68.6286 89.9826 68.6286 89.2419 68.5818 88.5035ZM65.5683 90.7778H64.886C63.5782 90.7778 63.6351 90.7778 63.5782 89.4701C63.5213 88.1623 63.5782 88.6172 64.3742 88.6741H64.7154C66.1937 88.6741 66.1937 88.6741 66.1937 90.2092C66.1937 90.721 66.0231 90.8347 65.5683 90.7778Z" fill="#00152B"/>
<path d="M48.2832 88.3901C48.3147 87.8412 48.13 87.3017 47.7687 86.8873C47.4073 86.4728 46.8981 86.2163 46.35 86.1726H42.8248C42.307 86.202 41.8211 86.4324 41.4706 86.8147C41.1202 87.1971 40.9328 87.7011 40.9485 88.2195C40.8915 89.1094 40.8915 90.002 40.9485 90.8919C40.9477 91.4156 41.1476 91.9197 41.5072 92.3005C41.8669 92.6812 42.3587 92.9097 42.8817 92.9388H46.2932C46.8312 92.9097 47.3375 92.6752 47.7078 92.2838C48.078 91.8924 48.284 91.3738 48.2832 90.835V88.3901ZM45.952 89.4135C45.952 90.7782 45.952 90.7782 44.4737 90.7782C44.1325 90.7782 43.5071 90.7782 43.3365 90.7782C43.2214 90.2345 43.2214 89.6729 43.3365 89.1293C43.3365 88.7881 43.3365 88.845 43.7345 88.845H45.6109C45.8952 88.845 46.0089 88.845 46.0089 89.243C46.0089 89.641 45.952 89.2998 45.952 89.4135Z" fill="#00152B"/>
<path d="M46.2363 77.4163H42.8816C42.3684 77.4446 41.8846 77.6651 41.5264 78.0338C41.1683 78.4025 40.9619 78.8925 40.9484 79.4063C40.8915 80.3152 40.8915 81.2267 40.9484 82.1355C40.9328 82.6539 41.1202 83.158 41.4706 83.5403C41.8211 83.9226 42.307 84.153 42.8248 84.1824H46.35C46.8682 84.1404 47.3525 83.908 47.7095 83.53C48.0665 83.1521 48.2709 82.6553 48.2832 82.1355V79.52C48.2834 78.9718 48.0696 78.4451 47.6873 78.0522C47.3049 77.6592 46.7843 77.4311 46.2363 77.4163ZM44.5874 81.8512C43.2796 81.8512 43.2796 81.8512 43.2796 80.4866C43.2796 79.122 43.2796 79.6906 44.0188 79.7475H44.8148C45.952 79.7475 45.952 79.7475 45.952 80.8278C45.952 81.9081 45.952 81.8512 44.5874 81.8512Z" fill="#00152B"/>
<path d="M46.2363 68.489H42.9385C42.6646 68.4962 42.395 68.5583 42.1456 68.6715C41.8962 68.7848 41.6721 68.947 41.4865 69.1485C41.301 69.35 41.1577 69.5867 41.0653 69.8445C40.9728 70.1024 40.9331 70.3761 40.9484 70.6496C40.8915 71.4826 40.8915 72.3185 40.9484 73.1514C40.9328 73.6849 41.1261 74.2034 41.4872 74.5964C41.8484 74.9894 42.3487 75.2258 42.8816 75.2552C44.0159 75.3692 45.1588 75.3692 46.2931 75.2552C46.8311 75.2261 47.3375 74.9916 47.7077 74.6002C48.078 74.2088 48.284 73.6902 48.2832 73.1514V70.6496C48.2907 70.3733 48.2438 70.0983 48.145 69.8401C48.0462 69.582 47.8975 69.3458 47.7074 69.1452C47.5173 68.9445 47.2896 68.7833 47.0371 68.6707C46.7847 68.5581 46.5126 68.4964 46.2363 68.489ZM45.2697 72.924H44.5305C43.2796 72.924 43.3365 72.924 43.2796 71.6162C43.2228 70.3085 43.2796 70.7634 44.0756 70.8202H44.5305C45.952 70.8202 45.8951 70.8202 45.952 72.1848C46.0088 73.5494 45.7814 72.9808 45.2697 72.924Z" fill="#00152B"/>
<path d="M58.7445 79.4632C58.7035 78.9242 58.4671 78.4187 58.0797 78.0418C57.6923 77.6649 57.1806 77.4424 56.6407 77.4163H53.0586C52.5639 77.4421 52.0953 77.6465 51.7398 77.9916C51.3843 78.3366 51.166 78.7989 51.1254 79.2926C51.0402 80.3143 51.0402 81.3413 51.1254 82.363C51.1544 82.8557 51.3709 83.3187 51.7303 83.657C52.0897 83.9953 52.565 84.1833 53.0586 84.1824H56.527C56.8079 84.1977 57.0891 84.1565 57.3539 84.0612C57.6186 83.9659 57.8616 83.8185 58.0683 83.6276C58.2751 83.4368 58.4414 83.2064 58.5576 82.9501C58.6737 82.6938 58.7373 82.4168 58.7445 82.1355V79.4632ZM56.3564 81.3395C56.3564 81.7375 56.3564 81.8512 55.8447 81.8512H54.2526C53.5703 81.8512 53.3997 81.8512 53.3997 80.9984C53.3997 80.1455 53.3997 79.8043 54.7075 79.8043C56.0152 79.8043 56.129 79.7475 56.0721 81.3395H56.3564Z" fill="#00152B"/>
<path d="M58.7451 70.5928C58.7308 70.0394 58.5045 69.5126 58.113 69.1211C57.7216 68.7297 57.1948 68.5034 56.6414 68.489H53.0593C52.5495 68.515 52.0666 68.7254 51.7004 69.0811C51.3343 69.4367 51.11 69.9134 51.0692 70.4222C51.0124 71.388 51.0124 72.3562 51.0692 73.322C51.11 73.8308 51.3343 74.3075 51.7004 74.6631C52.0666 75.0188 52.5495 75.2292 53.0593 75.2552C54.1936 75.3692 55.3365 75.3692 56.4708 75.2552C56.7611 75.2788 57.0531 75.2419 57.3284 75.1468C57.6036 75.0517 57.8561 74.9005 58.0699 74.7027C58.2837 74.505 58.4541 74.265 58.5704 73.9979C58.6866 73.7309 58.7461 73.4426 58.7451 73.1514V70.5928ZM55.9022 72.924H54.1965C53.5142 72.924 53.4004 72.924 53.4004 72.1848C53.4004 71.4457 53.4004 70.8771 54.8219 70.8771C55.1631 70.8771 55.8454 70.8771 56.0159 70.8771C56.1017 71.4424 56.1017 72.0175 56.0159 72.5828C56.0159 72.5828 55.8454 72.924 55.6179 72.924H55.9022Z" fill="#00152B"/>
<path d="M58.7445 88.3901C58.7534 88.0867 58.6983 87.7847 58.5828 87.504C58.4672 87.2233 58.2938 86.9701 58.0739 86.7609C57.854 86.5517 57.5924 86.3912 57.3063 86.2898C57.0201 86.1884 56.7158 86.1485 56.4132 86.1726H53.0586C52.5639 86.1984 52.0953 86.4028 51.7398 86.7479C51.3843 87.0929 51.166 87.5552 51.1254 88.0489C51.0402 89.0706 51.0402 90.0976 51.1254 91.1193C51.1622 91.5801 51.3582 92.0137 51.6798 92.3457C52.0014 92.6777 52.4286 92.8874 52.888 92.9388H56.4132C56.6942 92.9701 56.9785 92.9445 57.2494 92.8635C57.5202 92.7825 57.7719 92.6478 57.9895 92.4674C58.2071 92.2869 58.3861 92.0645 58.5158 91.8133C58.6455 91.5622 58.7233 91.2875 58.7445 91.0056V88.3901ZM55.5604 90.7781H54.8212C53.4566 90.7781 53.4566 90.7781 53.3997 89.4135C53.3429 88.0489 53.3997 88.5606 54.1389 88.6744H54.8212C56.0721 88.6744 56.0152 88.6744 56.0721 89.9821C56.129 91.2899 55.9015 90.8919 55.2761 90.7781H55.5604Z" fill="#00152B"/>
</svg>
