<svg xmlns="http://www.w3.org/2000/svg" width="150" height="150" fill="none" viewBox="0 0 150 150"><circle cx="75" cy="75" r="75" fill="#FFF"/><path fill="#00152B" d="M80.18 57.119h-1.535a6.596 6.596 0 0 0-6.823 4.605c0 .512-.398 1.024-1.08 1.08a1.136 1.136 0 0 1-1.251-1.535 9.15 9.15 0 0 1 7.278-6.71 8.7 8.7 0 0 1 3.639 0 1.08 1.08 0 0 1 1.08 1.536 1.14 1.14 0 0 1-1.308 1.023"/><path fill="#00152B" d="M78.474 61.61a1.934 1.934 0 0 0-2.217 1.364 1.193 1.193 0 0 1-1.536.796 1.25 1.25 0 0 1-.682-1.65 4.32 4.32 0 0 1 4.776-2.899c.967 0 1.365.682 1.251 1.422s-.569 1.023-1.592.966m1.878 3.754a1.137 1.137 0 0 1-1.195 1.137 2.05 2.05 0 0 1-1.535-1.876 1.14 1.14 0 0 1 1.194-1.194 1.93 1.93 0 0 1 1.536 1.933"/><path fill="#00152B" d="m113.613 104.652-1.535-2.616a.97.97 0 0 1 0-.682c.341-3.582.682-7.221 1.08-10.86a18.31 18.31 0 0 0-6.481-17.058c-3.014-2.615-6.084-5.117-9.098-7.676a5.2 5.2 0 0 1-1.137-1.364 2561 2561 0 0 0-9.78-17.058 4.834 4.834 0 0 0-6.993-1.933l-4.378 2.502-1.82 1.023v-7.164a6.65 6.65 0 0 0-4.549-6.368c-.34-.398-.739-.114-1.08-.398H41.687a4.9 4.9 0 0 0-2.33.74A6.6 6.6 0 0 0 36 41.424V91.46a6.71 6.71 0 0 0 4.89 6.595c1.08.341 1.08.341 1.08 1.535v11.827a1.762 1.762 0 0 0 2.73 1.763l1.307-.626a1.77 1.77 0 0 1 1.82 0l1.82.796a2.73 2.73 0 0 0 2.558 0l1.82-.853a1.7 1.7 0 0 1 1.478 0l2.104.91a2.45 2.45 0 0 0 2.33 0c.57-.341 1.195-.569 1.764-.853a1.66 1.66 0 0 1 1.364 0q.944.478 1.933.853a1.82 1.82 0 0 0 2.295-.71 1.8 1.8 0 0 0 .264-.825 6 6 0 0 0 0-1.024v-11.37c0-1.024 0-1.024.966-1.365a6.82 6.82 0 0 0 4.834-5.686c.086-1.23.086-2.465 0-3.696q.261.597.625 1.138a3.01 3.01 0 0 1 .455 2.842 6.1 6.1 0 0 0 0 2.047 4.378 4.378 0 0 0 5.686 3.696 1.08 1.08 0 0 1 1.307 0 4.1 4.1 0 0 0 3.98.967c.626 0 .796 0 1.024.511a24.3 24.3 0 0 0 5.686 8.927 18.4 18.4 0 0 1 4.094 5.231 1.48 1.48 0 0 0 1.023.91h1.308c.568-.455 1.023-1.023.568-1.706a19 19 0 0 0-3.752-5.288 22.4 22.4 0 0 1-7.62-13.816c-.36-3.4-.55-6.816-.568-10.235a7 7 0 0 0-.853-3.127c-1.194-1.99-2.331-4.094-3.525-6.14a2.73 2.73 0 0 1-.455-1.593 2.44 2.44 0 0 1 1.649-1.933 2.22 2.22 0 0 1 2.445 1.023c.796 1.308 1.478 2.616 2.274 3.924a1.08 1.08 0 0 0 1.65.455 1.192 1.192 0 0 0 .34-1.763c-.796-1.365-1.535-2.786-2.388-4.094a4.15 4.15 0 0 0-4.207-2.047 4.548 4.548 0 0 0-3.525 6.994c.682 1.25 1.364 2.502 2.16 3.696a10.3 10.3 0 0 1 2.104 6.993c0 .512 0 .796-.569 1.024l-3.695 2.16a2.616 2.616 0 0 1-3.98-1.137l-8.757-15.01-.34-.57a1.08 1.08 0 0 0-1.536-.397 1.14 1.14 0 0 0-.512 1.592l.512.796 1.535 2.73a5.7 5.7 0 0 0-2.104 0h-1.933a2.105 2.105 0 0 0-2.274 2.16 18 18 0 0 0 0 2.445 2.16 2.16 0 0 0 2.217 2.217h2.616c1.762 0 2.558-.853 2.558-2.615v-1.933a33 33 0 0 1 1.99 3.184c.12.389.12.804 0 1.194v6.993a4.434 4.434 0 0 1-4.605 4.606H43.222a4.264 4.264 0 0 1-4.662-4.606V41.994a4.32 4.32 0 0 1 4.662-4.663h23.142a4.21 4.21 0 0 1 4.492 4.435v8.756l-2.104 1.194v-5.344c0-1.763-.626-2.445-2.445-2.445H43.564c-1.877-.057-2.616.625-2.673 2.445v4.492c0 .852.455 1.364 1.194 1.364a1.193 1.193 0 0 0 1.194-1.308v-4.15c0-.398 0-.512.512-.512h21.834c.398 0 .568 0 .568.569v5.685a.85.85 0 0 1-.568.797l-4.776 2.785a4.83 4.83 0 0 0-2.275 5.345c0 .512 0 .682-.511.682H43.905c-.569 0-.626 0-.626-.682v-5.686c0-.852-.455-1.364-1.137-1.364s-1.194.511-1.25 1.364v6.54c0 1.591.738 2.274 2.387 2.274h16.034a1.14 1.14 0 0 1 1.138.682c.739 1.421 1.592 2.786 2.388 4.207.186.375.513.66.91.796a1.25 1.25 0 0 0 1.25-.511 1.19 1.19 0 0 0 0-1.365 339 339 0 0 0-3.525-6.14 2.73 2.73 0 0 1 1.137-4.493l17.797-10.007a2.672 2.672 0 0 1 4.207 1.138l5.118 8.87 10.12 17.682a2.614 2.614 0 0 1-1.023 3.81l-3.639 2.104c-.512.284-.682 0-.91-.285l-1.023-1.762a1.195 1.195 0 0 0-1.649-.512 1.137 1.137 0 0 0-.398 1.706l1.365 2.388c.625 1.023 1.137 2.047 1.762 3.07a1.14 1.14 0 0 0 1.65.398 1.25 1.25 0 0 0 .397-1.592v-.511c-.284-.398 0-.626 0-.853l3.98-2.275a4.89 4.89 0 0 0 1.706-6.311c-.455-.853-.91-1.706-1.421-2.502-.512-.796 0 0 0-.512l4.321 3.64a16.66 16.66 0 0 1 4.947 7.562 23.4 23.4 0 0 1 .284 9.722l-.853 8.87c-.14.367-.14.771 0 1.138.625 1.023 1.194 2.103 1.819 3.184.626 1.08 1.081 1.023 1.706.682.626-.341 1.194-1.08.739-1.933m-29.964-13.59c0-.625.739-.739 1.137-.91.398-.17 0 .285 0 .456.02 1.41.153 2.818.398 4.207v1.08c0 .853 0 1.251-1.08 1.251a1.706 1.706 0 0 1-1.706-1.876c.625-1.421.967-2.843 1.25-4.207m-6.539 2.844c0-1.365 0-1.365 1.422-1.251a5.7 5.7 0 0 0 2.445-.398c0 .966-.342 1.82-.57 2.558a1.65 1.65 0 0 1-1.99 1.137 1.706 1.706 0 0 1-1.364-1.762.6.6 0 0 1 .057-.284M65.738 81.85h-.852c-1.308 0-1.251 0-1.308-1.307-.057-1.308 0-.91.739-.796h.398c1.478 0 1.478 0 1.478 1.478 0 .455-.113.682-.568.626zM45.27 98.17h19.162c.511 0 .682 0 .682.682v10.974c0 .625 0 .682-.625.398a3.41 3.41 0 0 0-4.151 0 2.73 2.73 0 0 1-3.127 0c-2.786-1.308-1.99-1.251-4.663 0a2.9 2.9 0 0 1-3.013 0 3.694 3.694 0 0 0-4.89.284v-11.94c-.114-.569.17-.398.512-.398z"/><path fill="#00152B" d="M68.582 88.504a2.104 2.104 0 0 0-2.16-2.332H63.35a2.103 2.103 0 0 0-2.16 2.047q-.087 1.364 0 2.73a2.104 2.104 0 0 0 2.16 1.99h3.013a2.22 2.22 0 0 0 2.218-2.218 18 18 0 0 0 0-2.218m-3.014 2.274h-.682c-1.308 0-1.25 0-1.308-1.308-.057-1.308 0-.853.796-.796h.341c1.479 0 1.479 0 1.479 1.535 0 .512-.17.626-.626.569M48.283 88.39a2.104 2.104 0 0 0-1.933-2.217h-3.525a1.99 1.99 0 0 0-1.876 2.046q-.086 1.337 0 2.673a2.047 2.047 0 0 0 1.933 2.047h3.411a2.104 2.104 0 0 0 1.99-2.104zm-2.331 1.023c0 1.365 0 1.365-1.478 1.365h-1.137a4 4 0 0 1 0-1.649c0-.34 0-.284.397-.284h1.877c.284 0 .398 0 .398.398s-.057.057-.057.17m.284-11.997h-3.354a2.047 2.047 0 0 0-1.934 1.99q-.084 1.365 0 2.73a1.99 1.99 0 0 0 1.877 2.046h3.525a2.104 2.104 0 0 0 1.933-2.047V79.52a2.104 2.104 0 0 0-2.047-2.104m-1.649 4.435c-1.307 0-1.307 0-1.307-1.364s0-.796.739-.74h.796c1.137 0 1.137 0 1.137 1.08s0 1.024-1.365 1.024m1.649-13.362H42.94a2.05 2.05 0 0 0-1.99 2.16 18 18 0 0 0 0 2.502 2.047 2.047 0 0 0 1.933 2.104c1.134.114 2.277.114 3.411 0a2.104 2.104 0 0 0 1.99-2.104V70.65a2.105 2.105 0 0 0-2.047-2.161m-.966 4.435h-.74c-1.25 0-1.194 0-1.25-1.308s0-.853.796-.796h.455c1.421 0 1.364 0 1.421 1.365s-.17.796-.682.739m13.474 6.539a2.22 2.22 0 0 0-2.104-2.047h-3.582a2.046 2.046 0 0 0-1.934 1.877 18.5 18.5 0 0 0 0 3.07 1.933 1.933 0 0 0 1.934 1.82h3.468a2.104 2.104 0 0 0 2.218-2.048zm-2.389 1.877c0 .397 0 .511-.511.511h-1.592c-.683 0-.853 0-.853-.853s0-1.194 1.308-1.194c1.307 0 1.421-.056 1.364 1.535zm2.389-10.747a2.16 2.16 0 0 0-2.104-2.104H53.06a2.104 2.104 0 0 0-1.99 1.933 25 25 0 0 0 0 2.9 2.104 2.104 0 0 0 1.99 1.933c1.135.114 2.278.114 3.412 0a2.104 2.104 0 0 0 2.274-2.104zm-2.843 2.331h-1.706c-.682 0-.796 0-.796-.74 0-.738 0-1.307 1.422-1.307h1.194c.086.565.086 1.14 0 1.706 0 0-.17.341-.398.341zm2.843 15.466a2.16 2.16 0 0 0-2.332-2.217H53.06a2.046 2.046 0 0 0-1.934 1.876 18.5 18.5 0 0 0 0 3.07 1.99 1.99 0 0 0 1.763 1.82h3.525a2.105 2.105 0 0 0 2.332-1.933zm-3.185 2.388h-.739c-1.364 0-1.364 0-1.421-1.365s0-.852.739-.739h.682c1.251 0 1.194 0 1.251 1.308s-.17.91-.796.796z"/></svg>