<svg xmlns="http://www.w3.org/2000/svg" width="150" height="150" fill="none" viewBox="0 0 150 150"><circle cx="75" cy="75" r="75" fill="#FFF"/><path fill="#00152B" d="M90.773 103.829c2.21 3.796 4.319 7.413 6.422 11.021-.14.216-.325.123-.474.123-1.161.01-2.324-.024-3.484.019a1.05 1.05 0 0 1-1.094-.617c-1.916-3.321-3.877-6.614-5.796-9.932a.98.98 0 0 0-.99-.556c-6.969.016-13.936.053-20.903-.028a2.23 2.23 0 0 0-1.386.288c-.42.244-.75.618-.94 1.067-1.731 3.107-3.59 6.144-5.373 9.223a.91.91 0 0 1-.928.553c-1.16-.033-2.322-.01-3.483-.012-.663 0-.666-.003-.335-.573l5.82-9.992c.083-.144.16-.291.27-.492a23.4 23.4 0 0 0-3.36-.083 2 2 0 0 1-1.577-.644 97 97 0 0 0-3.057-3.054 1.92 1.92 0 0 1-.636-1.522c.022-.957-.021-1.915.015-2.872a1.32 1.32 0 0 0-.143-.834 1.3 1.3 0 0 0-.62-.572 2.8 2.8 0 0 1-1.385-1.26 2.83 2.83 0 0 1-.287-1.86c.091-4.632.025-9.27.018-13.905l-.038-27.432c-.003-2.254.015-4.508.042-6.761.019-.852.21-1.692.563-2.466a6.2 6.2 0 0 1 1.488-2.039c.428-.417.97-.695 1.558-.796 4.123-.76 8.224-1.65 12.388-2.166 2.68-.333 5.373-.507 8.073-.599a95 95 0 0 1 13.204.464c4.677.46 9.32 1.23 13.898 2.302a5 5 0 0 1 2.256 1.473 5.1 5.1 0 0 1 1.18 2.435c.174.592.254 1.208.237 1.825l.039 25.263q.015 9.315.045 18.628c.006 1.766-.093 3.525-.182 5.286a.91.91 0 0 1-.547.858c-1.59.682-1.888 1.929-1.843 3.55.076 2.802.393 1.978-1.655 4.076-.696.712-1.432 1.384-2.123 2.099a1.67 1.67 0 0 1-1.303.519c-1.136-.015-2.27-.005-3.574-.005m-8-58.248c-4.56 0-9.12.046-13.678-.026a2.18 2.18 0 0 0-1.741.636 2.21 2.21 0 0 0-.637 1.752c.045 2.765.014 5.53.014 8.294 0 2.891-.006 5.783.003 8.674a2.03 2.03 0 0 0 .514 1.564 2 2 0 0 0 1.5.657q13.995.014 27.991 0a1.41 1.41 0 0 0 1.238-.4 1.44 1.44 0 0 0 .4-1.246q.012-9.093 0-18.18c-.004-1.267-.486-1.724-1.736-1.725zm-32.13 10.783c0 3.02-.008 6.04.002 9.06.003 1.224.49 1.71 1.69 1.71q5.541.007 11.084 0a1.97 1.97 0 0 0 1.533-.565 2 2 0 0 0 .59-1.534q.012-8.676 0-17.353a1.97 1.97 0 0 0-.565-1.541 1.94 1.94 0 0 0-1.533-.56H52.489c-1.433 0-1.844.41-1.846 1.851q-.005 4.467 0 8.932M74.45 85.777h24.318c1.019 0 1.255-.237 1.25-1.278-.001-.66-.027-1.318-.031-1.977-.008-1.037-.177-1.21-1.22-1.21q-18.936-.002-37.871-.001l-10.955.001c-.733.002-.98.263-.979 1.001v2.294c0 1.036.135 1.17 1.17 1.17zm19.379-9.123a2.54 2.54 0 0 0-.416-1.41 2.5 2.5 0 0 0-1.125-.939 2.49 2.49 0 0 0-2.742.546 2.54 2.54 0 0 0-.54 2.762c.193.462.518.856.933 1.132s.903.422 1.4.418a2.5 2.5 0 0 0 1.759-.737c.466-.47.729-1.107.73-1.772m-39.16-.02c0 .672.264 1.317.736 1.792a2.506 2.506 0 0 0 3.558.001c.471-.475.737-1.12.737-1.791a2.55 2.55 0 0 0-.733-1.798 2.52 2.52 0 0 0-1.782-.746 2.5 2.5 0 0 0-1.782.745 2.53 2.53 0 0 0-.734 1.797"/></svg>