<svg xmlns="http://www.w3.org/2000/svg" width="150" height="150" fill="none" viewBox="0 0 150 150"><circle cx="75" cy="75" r="75" fill="#FFF"/><path fill="#00152B" d="m104.194 38.784-5.936 5.936 1.181 1.18 5.936-5.935zM109.044 48.322h-8.395v1.67h8.395zM95.702 35h-1.67v8.395h1.67zM72.569 58.788A5.773 5.773 0 0 0 77.03 49.4a2.5 2.5 0 0 0-.825-.804 5.772 5.772 0 0 0-9.304 4.525 5.667 5.667 0 0 0 5.667 5.667"/><path fill="#00152B" d="M86.525 57.14c-1.036.845-4.906 3.53-5.16 3.657a3.2 3.2 0 0 1-.888.254h-14.02S58 60.88 58 70.65v19.03a2.537 2.537 0 0 0 2.537 2.411 2.475 2.475 0 0 0 2.495-2.495V70.059a.867.867 0 0 1 .846-.888.846.846 0 0 1 .825.888v42.274s.625 1.243 1.297 1.778c.731.582 1.287.889 2.222.889s1.48-.321 2.222-.889c.7-.534 1.385-1.778 1.385-1.778V95.031h1.65v17.302s.391 1.236.965 1.778c.68.642 1.288.889 2.223.889s1.486-.313 2.222-.889c.683-.535 1.333-1.778 1.333-1.778l.446-42.38s0-1.417.528-1.86c.529-.445 7.316-5.604 9.156-7.127.19-.148 5.18-9.007 5.455-9.494a2.474 2.474 0 0 0-.655-3.68 2.71 2.71 0 0 0-3.743 1.354s-4.715 7.824-4.884 7.993"/></svg>