<svg xmlns="http://www.w3.org/2000/svg" width="150" height="150" fill="none" viewBox="0 0 150 150"><circle cx="75" cy="75" r="75" fill="#FFF"/><path fill="#00152B" d="M45.51 106.681c0-1.04-.03-2.081.016-3.119.018-.453-.177-.595-.554-.652a9.3 9.3 0 0 1-2.31-.608 2.093 2.093 0 0 1-1.401-1.835c-.45-3.787-1.015-7.56-1.47-11.346a62 62 0 0 1-.307-10.564c.2-3.882.72-7.741 1.555-11.539.104-.478-.027-.51-.424-.504-1.266.018-2.53.008-3.796.007-.34.03-.682-.026-.996-.16a1.191 1.191 0 0 1-.821-1.205c.06-.965.017-1.935.017-2.902 0-.877.405-1.412 1.331-1.427a40.6 40.6 0 0 1 5.965.09c.353.045.404-.093.486-.348 1.27-3.739 2.76-7.4 4.464-10.964a11.6 11.6 0 0 1 4.442-5.42 11.7 11.7 0 0 1 6.771-1.884q3.975-.066 7.953.012c.652.011.87-.222.993-.797.165-.774.397-1.538.633-2.294a2.8 2.8 0 0 1 1.06-1.648 2.83 2.83 0 0 1 1.886-.558q3.978-.032 7.955 0a2.8 2.8 0 0 1 1.885.547c.541.403.917.988 1.058 1.645.263.827.512 1.66.707 2.503.106.461.304.595.78.595 2.99-.01 5.984-.082 8.97.058 2.191.035 4.324.706 6.137 1.93a11.2 11.2 0 0 1 4.064 4.964 89 89 0 0 1 4.618 11.288c.052.165.02.48.386.387a17.8 17.8 0 0 1 3.631-.133c.728-.031 1.46-.024 2.188-.001 1.15.036 1.608.512 1.608 1.627v2.539a1.376 1.376 0 0 1-1.48 1.537 71 71 0 0 1-3.939.01c-.55-.011-.743.035-.595.7a69 69 0 0 1 1.588 13.636 82.4 82.4 0 0 1-1.054 13.63c-.291 1.957-.559 3.919-.765 5.886a2.14 2.14 0 0 1-.425 1.204 2.16 2.16 0 0 1-1.036.752 7 7 0 0 1-2.028.544c-.685.053-.802.357-.79.964.037 1.911.017 3.822.012 5.733a2.2 2.2 0 0 1-.54 1.571 2.22 2.22 0 0 1-1.49.75 36.3 36.3 0 0 1-5.827.002 2.183 2.183 0 0 1-1.535-.738 2.16 2.16 0 0 1-.527-1.613c-.003-1.668-.016-3.338.008-5.006.009-.458-.13-.574-.58-.55-3.978.213-7.96.362-11.945.385-2.65.016-5.298.124-7.946.091-6.049-.078-12.1-.103-18.14-.481-.452-.029-.514.148-.509.532.017 1.645.01 3.29.005 4.935a2.24 2.24 0 0 1-.587 1.741 2.27 2.27 0 0 1-1.695.73c-1.796.08-3.601.083-5.397.002a2.25 2.25 0 0 1-1.694-.727 2.22 2.22 0 0 1-.568-1.746c-.004-.919 0-1.839 0-2.758m29.583-59.53c-5.571 0-11.144-.022-16.713.007a6.84 6.84 0 0 0-3.892 1.041 6.8 6.8 0 0 0-2.62 3.046c-.372.76-.68 1.55-1.03 2.32A72 72 0 0 0 46.36 65.8a3.3 3.3 0 0 0 .51 2.934 3.33 3.33 0 0 0 2.672 1.343c.509.03.72-.136.833-.647.203-.917.49-1.818.78-2.713.149-.581.492-1.095.974-1.456a2.67 2.67 0 0 1 1.676-.533q4.197-.045 8.394-.001a2.67 2.67 0 0 1 1.677.526c.483.359.829.87.981 1.451q.458 1.26.747 2.569c.128.681.435.813 1.075.812q16.604-.03 33.208-.013h.291a3.36 3.36 0 0 0 2.919-1.294 3.307 3.307 0 0 0 .489-3.14A84 84 0 0 0 98.16 51.36a6.77 6.77 0 0 0-2.647-3.16 6.82 6.82 0 0 0-4-1.047c-5.472-.015-10.947-.004-16.42-.004m-.15 49.074 25.678-.003a3.93 3.93 0 0 0 2.74-1.164 3.89 3.89 0 0 0 1.127-2.743 3.97 3.97 0 0 0-1.132-2.745 4.01 4.01 0 0 0-2.725-1.206q-25.64-.01-51.283-.007a3.56 3.56 0 0 0-1.482.318 4.03 4.03 0 0 0-1.913 1.814 4 4 0 0 0-.376 2.603 3.82 3.82 0 0 0 1.368 2.288 3.86 3.86 0 0 0 2.539.845q12.73.004 25.46 0m25.513-12.751a3.92 3.92 0 0 0 2.854-1.102 3.87 3.87 0 0 0 1.178-2.81 3.93 3.93 0 0 0-1.21-2.758 3.973 3.973 0 0 0-5.592.095 3.93 3.93 0 0 0-1.115 2.797 3.87 3.87 0 0 0 1.173 2.671 3.92 3.92 0 0 0 2.712 1.107m-51.077 0a3.93 3.93 0 0 0 2.855-1.101 3.88 3.88 0 0 0 1.178-2.81 3.93 3.93 0 0 0-1.211-2.755 3.97 3.97 0 0 0-5.588.094 3.93 3.93 0 0 0-1.117 2.794 3.87 3.87 0 0 0 1.172 2.671 3.92 3.92 0 0 0 2.711 1.107"/></svg>