<svg xmlns="http://www.w3.org/2000/svg" width="150" height="150" fill="none" viewBox="0 0 150 150"><circle cx="75" cy="75" r="75" fill="#FFF"/><path fill="#00152B" d="M108.057 50.913h-3.426v-10.19a2.9 2.9 0 0 0-1.843-2.571S93.258 35 74.499 35c-18.758 0-28.286 3.152-28.286 3.152a2.9 2.9 0 0 0-1.303 1.01 2.9 2.9 0 0 0-.541 1.56v10.19h-3.423a1.95 1.95 0 0 0-1.374.574c-.365.366-.57.862-.572 1.38V67.8c.001.518.206 1.015.571 1.381s.86.573 1.375.574h3.423v35.075c.001.517.207 1.013.571 1.379s.858.572 1.373.574h4.226v6.179a2.24 2.24 0 0 0 .775 1.504c.444.38 1.02.57 1.602.528h4.42a2.22 2.22 0 0 0 1.602-.528c.444-.38.722-.92.774-1.504v-6.179H89.68v6.179a2.24 2.24 0 0 0 .775 1.504c.444.38 1.02.57 1.602.528h4.418a2.22 2.22 0 0 0 1.603-.527c.445-.38.724-.921.776-1.505v-6.179h3.833a1.95 1.95 0 0 0 1.373-.574c.364-.366.57-.862.571-1.379V69.755h3.426a1.95 1.95 0 0 0 1.373-.575c.364-.366.569-.862.57-1.38V52.866a1.96 1.96 0 0 0-.57-1.379 1.95 1.95 0 0 0-1.373-.574M53.269 97.167c-.81 0-1.602-.241-2.275-.693a4.1 4.1 0 0 1-1.508-1.846 4.13 4.13 0 0 1 .888-4.481 4.078 4.078 0 0 1 4.462-.891 4.1 4.1 0 0 1 1.837 1.514 4.125 4.125 0 0 1-.509 5.193 4.09 4.09 0 0 1-2.895 1.204m42.781 0c-.81 0-1.601-.242-2.275-.694a4.1 4.1 0 0 1-1.507-1.846 4.13 4.13 0 0 1 .889-4.48 4.079 4.079 0 0 1 4.462-.89 4.1 4.1 0 0 1 1.837 1.513 4.125 4.125 0 0 1-1.838 6.085 4.1 4.1 0 0 1-1.568.312m4.847-31.682v14.722a4 4 0 0 1-.873 2.351 3.96 3.96 0 0 1-2.103 1.357A149 149 0 0 1 74.5 85.636c-7.84.043-15.67-.538-23.418-1.739a3.93 3.93 0 0 1-2.105-1.344 3.96 3.96 0 0 1-.875-2.346V49.494a4 4 0 0 1 .875-2.35 3.96 3.96 0 0 1 2.101-1.355 142.5 142.5 0 0 1 23.11-1.721c7.944-.032 15.877.55 23.732 1.737a3.93 3.93 0 0 1 2.103 1.344 3.95 3.95 0 0 1 .875 2.345z"/></svg>