<svg xmlns="http://www.w3.org/2000/svg" width="87.263" height="87.264" viewBox="0 0 87.263 87.264"><g data-name="Layer 2"><g data-name="Layer 1"><path d="M0 65.448V21.816A21.88 21.88 0 0 1 21.815 0h43.634a21.88 21.88 0 0 1 21.814 21.815V65.45a21.88 21.88 0 0 1-21.815 21.814H21.816A21.88 21.88 0 0 1 0 65.448" style="fill:#fff"/><path d="M54.467 61.244c1.473 2.51 2.878 4.904 4.28 7.29-.094.144-.217.083-.316.083-.774.006-1.549-.016-2.322.012a.7.7 0 0 1-.729-.408c-1.277-2.197-2.584-4.376-3.863-6.571a.65.65 0 0 0-.66-.368c-4.644.01-9.287.035-13.93-.018a1.5 1.5 0 0 0-1.55.896c-1.154 2.056-2.393 4.065-3.58 6.102a.61.61 0 0 1-.62.366c-.773-.022-1.547-.007-2.32-.008-.443 0-.445-.002-.224-.38l3.88-6.61c.054-.095.105-.192.18-.325a16 16 0 0 0-2.24-.055 1.34 1.34 0 0 1-1.052-.426q-.996-1.034-2.037-2.021a1.26 1.26 0 0 1-.424-1.007c.015-.633-.014-1.267.01-1.9a.866.866 0 0 0-.508-.93 1.86 1.86 0 0 1-1.115-2.064c.061-3.065.017-6.133.012-9.2l-.025-18.15c-.002-1.49.01-2.981.028-4.472a4.13 4.13 0 0 1 1.367-2.98 1.97 1.97 0 0 1 1.038-.527c2.748-.503 5.481-1.091 8.256-1.433a61 61 0 0 1 5.38-.396 64 64 0 0 1 8.8.307 72 72 0 0 1 9.262 1.523 3.35 3.35 0 0 1 2.29 2.585 3.9 3.9 0 0 1 .158 1.208q.014 8.356.026 16.714.011 6.162.03 12.324c.004 1.168-.062 2.332-.12 3.497a.6.6 0 0 1-.366.568c-1.059.45-1.258 1.276-1.228 2.348.051 1.854.262 1.309-1.103 2.697-.464.47-.954.916-1.415 1.389a1.11 1.11 0 0 1-.868.343c-.757-.01-1.513-.003-2.382-.003m-5.332-38.537c-3.038 0-6.078.03-9.115-.017a1.46 1.46 0 0 0-1.585 1.58c.03 1.829.01 3.658.01 5.487 0 1.913-.005 3.826.001 5.739a1.335 1.335 0 0 0 1.343 1.469q9.327.009 18.654 0a.95.95 0 0 0 1.091-1.09q.01-6.014 0-12.027c-.002-.838-.323-1.14-1.156-1.141zM27.722 29.84c0 1.998-.005 3.996.002 5.994.002.81.326 1.13 1.126 1.132q3.693.004 7.387 0a1.32 1.32 0 0 0 1.415-1.39q.008-5.74 0-11.48a1.29 1.29 0 0 0-1.398-1.39h-7.302c-.955 0-1.229.27-1.23 1.225q-.003 2.955 0 5.909M43.59 49.3h16.207c.68 0 .836-.157.833-.846 0-.436-.018-.872-.02-1.308-.006-.686-.119-.8-.814-.8q-12.619-.002-25.239-.001h-7.3c-.489.002-.654.175-.653.663v1.518c0 .685.09.774.78.774zm12.915-6.036a1.672 1.672 0 1 0-1.659 1.66 1.664 1.664 0 0 0 1.66-1.66m-26.099-.013a1.677 1.677 0 0 0 3.353 0 1.677 1.677 0 1 0-3.353 0" style="fill:#00152b"/></g></g></svg>