<?xml version="1.0" encoding="utf-8"?>
<!-- Generator: Adobe Illustrator 24.1.1, SVG Export Plug-In . SVG Version: 6.00 Build 0)  -->
<svg version="1.1" id="Layer_1" xmlns="http://www.w3.org/2000/svg" xmlns:xlink="http://www.w3.org/1999/xlink" x="0px" y="0px"
	 viewBox="0 0 87.3 87.3" style="enable-background:new 0 0 87.3 87.3;" xml:space="preserve">
<style type="text/css">
	.st0{fill:#00152B;}
	.st1{fill:#FFFFFF;}
</style>
<g id="Layer_2_1_">
	<g id="Layer_1-2">
		<path class="st0" d="M0,65.4V21.8C0,9.8,9.8,0,21.8,0h43.6c12,0,21.8,9.8,21.8,21.8v43.6c0,12-9.8,21.8-21.8,21.8H21.8
			C9.8,87.2,0,77.5,0,65.4L0,65.4z"/>
		<path class="st1" d="M66.2,27h-2.3v-6.8c0-0.8-0.5-1.4-1.2-1.7c0,0-6.4-2.1-19-2.1s-19,2.1-19,2.1c-0.7,0.3-1.2,1-1.2,1.7V27h-2.3
			c-0.7,0-1.3,0.6-1.3,1.3v10c0,0.7,0.6,1.3,1.3,1.3h2.3v23.4c0,0.7,0.6,1.3,1.3,1.3h2.8v4.1c0.1,0.8,0.8,1.4,1.6,1.4h3
			c0.8,0.1,1.5-0.5,1.6-1.4v-4.1h20.1v4.1c0.1,0.8,0.8,1.4,1.6,1.4h3c0.8,0.1,1.5-0.5,1.6-1.4v-4.1h2.6c0.7,0,1.3-0.6,1.3-1.3V39.6
			h2.3c0.7,0,1.3-0.6,1.3-1.3v-10C67.5,27.6,66.9,27,66.2,27L66.2,27z M29.4,58c-1.5,0-2.7-1.2-2.7-2.7c0-1.5,1.2-2.7,2.7-2.7
			c1.5,0,2.7,1.2,2.7,2.7C32.1,56.7,30.9,58,29.4,58L29.4,58z M58.1,58c-1.5,0-2.7-1.2-2.7-2.7s1.2-2.7,2.7-2.7
			c1.5,0,2.7,1.2,2.7,2.7C60.8,56.7,59.6,58,58.1,58C58.1,58,58.1,58,58.1,58L58.1,58z M61.3,36.8v9.8c0,1.2-0.9,2.2-2,2.5
			c-5.2,0.8-10.5,1.2-15.7,1.2c-5.3,0-10.5-0.4-15.7-1.2c-1.1-0.3-2-1.3-2-2.5V26.1c0-1.2,0.9-2.2,2-2.5c5.1-0.8,10.3-1.2,15.5-1.1
			c5.3,0,10.7,0.4,15.9,1.2c1.1,0.3,2,1.3,2,2.5L61.3,36.8z"/>
	</g>
</g>
</svg>
