<?xml version="1.0" encoding="utf-8"?>
<!-- Generator: Adobe Illustrator 24.1.1, SVG Export Plug-In . SVG Version: 6.00 Build 0)  -->
<svg version="1.1" id="Layer_1" xmlns="http://www.w3.org/2000/svg" xmlns:xlink="http://www.w3.org/1999/xlink" x="0px" y="0px"
	 viewBox="0 0 87.3 87.3" style="enable-background:new 0 0 87.3 87.3;" xml:space="preserve">
<style type="text/css">
	.st0{fill:#00152B;}
	.st1{fill:#FFFFFF;}
</style>
<g id="Layer_2_1_">
	<g id="Layer_1-2">
		<path class="st0" d="M0,65.4V21.8C0,9.8,9.8,0,21.8,0h43.6c12,0,21.8,9.8,21.8,21.8v43.6c0,12-9.8,21.8-21.8,21.8H21.8
			C9.8,87.2,0,77.5,0,65.4"/>
		<path class="st1" d="M45.6,24.7c2.7,0,4.8-2.2,4.8-4.8c0-2.7-2.2-4.8-4.8-4.8c-2.7,0-4.8,2.2-4.8,4.8C40.8,22.5,43,24.7,45.6,24.7
			L45.6,24.7"/>
		<path class="st1" d="M57.3,39.9l-6.8-2.3l-2.8-7.8c0-0.1-0.1-0.2-0.1-0.2c-0.6-2.1-2.5-3.6-4.7-3.6c-0.7,0-1.5,0.2-2.1,0.5
			c-0.1,0-0.1,0-0.2,0.1l-10.3,3.2c-0.8,0.3-1.4,1-1.4,1.9v9.3c0,1.1,0.9,2,2,2s2-0.9,2-2v-7.8l5-1.5l-3.4,15.9h0
			c-0.1,0.6,0.1,1.3,0.5,1.8l9.4,9.4l3.1,12.3c0.3,1,1.3,1.7,2.3,1.4l0.6-0.2c1-0.3,1.7-1.3,1.4-2.3L48.4,57c-0.1-0.5-0.4-1-0.7-1.5
			l-5.5-7.9l3.7-11.3l1.3,3.5c0.2,0.6,0.7,1,1.2,1.2l7.7,2.6c1,0.3,2.1-0.2,2.5-1.2S58.3,40.3,57.3,39.9
			C57.3,40,57.3,39.9,57.3,39.9"/>
		<path class="st1" d="M28.7,69.3c-0.3,1,0.3,2.1,1.4,2.4l0.6,0.2c1,0.3,2.1-0.3,2.4-1.4l4.7-17L34.1,50L28.7,69.3z"/>
	</g>
</g>
</svg>
