<svg xmlns="http://www.w3.org/2000/svg" xml:space="preserve" viewBox="0 0 87.3 87.3"><path d="M0 65.4V21.8C0 9.8 9.8 0 21.8 0h43.6c12 0 21.8 9.8 21.8 21.8v43.6c0 12-9.8 21.8-21.8 21.8H21.8C9.8 87.2 0 77.5 0 65.4" style="fill:#00152b"/><path d="M66.2 27h-2.3v-6.8c0-.8-.5-1.4-1.2-1.7 0 0-6.4-2.1-19-2.1s-19 2.1-19 2.1c-.7.3-1.2 1-1.2 1.7V27h-2.3c-.7 0-1.3.6-1.3 1.3v10c0 .7.6 1.3 1.3 1.3h2.3V63c0 .7.6 1.3 1.3 1.3h2.8v4.1c.1.8.8 1.4 1.6 1.4h3c.8.1 1.5-.5 1.6-1.4v-4.1h20.1v4.1c.1.8.8 1.4 1.6 1.4h3c.8.1 1.5-.5 1.6-1.4v-4.1h2.6c.7 0 1.3-.6 1.3-1.3V39.6h2.3c.7 0 1.3-.6 1.3-1.3v-10c-.1-.7-.7-1.3-1.4-1.3M29.4 58c-1.5 0-2.7-1.2-2.7-2.7s1.2-2.7 2.7-2.7 2.7 1.2 2.7 2.7c0 1.4-1.2 2.7-2.7 2.7m28.7 0c-1.5 0-2.7-1.2-2.7-2.7s1.2-2.7 2.7-2.7 2.7 1.2 2.7 2.7c0 1.4-1.2 2.7-2.7 2.7m3.2-21.2v9.8c0 1.2-.9 2.2-2 2.5-5.2.8-10.5 1.2-15.7 1.2-5.3 0-10.5-.4-15.7-1.2-1.1-.3-2-1.3-2-2.5V26.1c0-1.2.9-2.2 2-2.5 5.1-.8 10.3-1.2 15.5-1.1 5.3 0 10.7.4 15.9 1.2 1.1.3 2 1.3 2 2.5z" style="fill:#fff"/></svg>