<svg xmlns="http://www.w3.org/2000/svg" xml:space="preserve" id="Layer_1" x="0" y="0" viewBox="0 0 87.3 87.3"><style>.st1{fill:#fff}</style><g id="Layer_2_1_"><g id="Layer_1-2"><path d="M0 65.4V21.8C0 9.8 9.8 0 21.8 0h43.6c12 0 21.8 9.8 21.8 21.8v43.6c0 12-9.8 21.8-21.8 21.8H21.8C9.8 87.2 0 77.5 0 65.4" style="fill:#00152b"/><path d="M45.6 24.7c2.7 0 4.8-2.2 4.8-4.8 0-2.7-2.2-4.8-4.8-4.8-2.7 0-4.8 2.2-4.8 4.8s2.2 4.8 4.8 4.8m11.7 15.2-6.8-2.3-2.8-7.8c0-.1-.1-.2-.1-.2-.6-2.1-2.5-3.6-4.7-3.6-.7 0-1.5.2-2.1.5-.1 0-.1 0-.2.1l-10.3 3.2c-.8.3-1.4 1-1.4 1.9V41c0 1.1.9 2 2 2s2-.9 2-2v-7.8l5-1.5-3.4 15.9c-.1.6.1 1.3.5 1.8l9.4 9.4 3.1 12.3c.3 1 1.3 1.7 2.3 1.4l.6-.2c1-.3 1.7-1.3 1.4-2.3l-3.4-13c-.1-.5-.4-1-.7-1.5l-5.5-7.9 3.7-11.3 1.3 3.5c.2.6.7 1 1.2 1.2l7.7 2.6c1 .3 2.1-.2 2.5-1.2s-.3-2.1-1.3-2.5c0 .1 0 0 0 0" class="st1"/><path d="M28.7 69.3c-.3 1 .3 2.1 1.4 2.4l.6.2c1 .3 2.1-.3 2.4-1.4l4.7-17-3.7-3.5z" class="st1"/></g></g></svg>