<svg xmlns="http://www.w3.org/2000/svg" width="87.263" height="87.264" viewBox="0 0 87.263 87.264"><g data-name="Layer 2"><g data-name="Layer 1"><path d="M0 65.448V21.816A21.88 21.88 0 0 1 21.815 0h43.634a21.88 21.88 0 0 1 21.814 21.815V65.45a21.88 21.88 0 0 1-21.815 21.814H21.816A21.88 21.88 0 0 1 0 65.448" style="fill:#fff"/><path d="M25.897 62.605c0-.629-.019-1.259.009-1.887.011-.274-.106-.36-.333-.394a5.6 5.6 0 0 1-1.389-.368 1.27 1.27 0 0 1-.843-1.11c-.271-2.29-.611-4.573-.884-6.863a38 38 0 0 1-.185-6.39 43 43 0 0 1 .935-6.98c.063-.289-.016-.308-.255-.305-.761.011-1.522.005-2.283.004a1.24 1.24 0 0 1-.599-.097.72.72 0 0 1-.494-.729c.036-.583.01-1.17.01-1.755 0-.53.244-.854.801-.863a24 24 0 0 1 3.588.054c.212.028.243-.056.292-.21a61 61 0 0 1 2.685-6.632 7 7 0 0 1 6.745-4.418q2.391-.04 4.784.007c.392.007.523-.134.597-.482.099-.468.239-.93.381-1.388a1.7 1.7 0 0 1 1.772-1.334q2.393-.02 4.785 0a1.68 1.68 0 0 1 1.77 1.326c.158.5.308 1.004.425 1.514.064.28.183.36.469.36 1.799-.006 3.6-.05 5.396.035a6.76 6.76 0 0 1 6.136 4.17 54 54 0 0 1 2.778 6.828c.031.1.012.29.232.234a10.6 10.6 0 0 1 2.184-.08 18 18 0 0 1 1.316 0c.692.021.967.31.967.983v1.536a.83.83 0 0 1-.89.93c-.789.028-1.58.022-2.369.006-.331-.007-.447.021-.358.423a42 42 0 0 1 .955 8.25 50 50 0 0 1-.634 8.243 84 84 0 0 0-.46 3.561 1.3 1.3 0 0 1-.879 1.183 4.2 4.2 0 0 1-1.22.33c-.412.031-.482.215-.475.582.022 1.156.01 2.312.007 3.468a1.33 1.33 0 0 1-1.221 1.404 22 22 0 0 1-3.505.001 1.307 1.307 0 0 1-1.24-1.422c-.002-1.009-.01-2.019.005-3.028.005-.277-.078-.347-.349-.333-2.393.13-4.788.22-7.185.233-1.594.01-3.187.075-4.78.055-3.638-.047-7.278-.062-10.911-.29-.272-.018-.309.09-.306.321.01.995.006 1.99.003 2.985a1.366 1.366 0 0 1-1.373 1.495c-1.08.048-2.166.05-3.246.001a1.345 1.345 0 0 1-1.361-1.496q-.002-.834 0-1.668m17.794-36.01c-3.351 0-6.703-.013-10.053.005a4.1 4.1 0 0 0-3.917 2.472c-.224.46-.409.937-.62 1.403a44 44 0 0 0-2.693 7.401 2.004 2.004 0 0 0 1.914 2.587c.306.018.433-.082.501-.39.122-.556.295-1.1.469-1.642a1.6 1.6 0 0 1 1.594-1.203q2.524-.027 5.049 0a1.6 1.6 0 0 1 1.599 1.195 12 12 0 0 1 .449 1.554c.077.412.262.492.647.491q9.987-.017 19.975-.008h.175a2.01 2.01 0 0 0 2.05-2.682 51 51 0 0 0-3.264-8.636 4.09 4.09 0 0 0-3.998-2.545c-3.292-.009-6.585-.002-9.877-.002m-.09 29.685 15.445-.002a2.36 2.36 0 0 0 2.326-2.363 2.41 2.41 0 0 0-2.32-2.39q-15.423-.006-30.847-.004a2.1 2.1 0 0 0-.891.192 2.43 2.43 0 0 0-1.377 2.672 2.31 2.31 0 0 0 2.35 1.895q7.658.003 15.314 0m15.346-7.713a2.35 2.35 0 0 0 2.425-2.366 2.381 2.381 0 0 0-4.762.081 2.35 2.35 0 0 0 2.337 2.285m-30.723 0a2.35 2.35 0 0 0 2.426-2.366 2.381 2.381 0 0 0-4.762.081 2.35 2.35 0 0 0 2.336 2.285" style="fill:#00152b"/></g></g></svg>