<?xml version="1.0" encoding="utf-8"?>
<!-- Generator: Adobe Illustrator 24.1.1, SVG Export Plug-In . SVG Version: 6.00 Build 0)  -->
<svg version="1.1" id="Layer_1" xmlns="http://www.w3.org/2000/svg" xmlns:xlink="http://www.w3.org/1999/xlink" x="0px" y="0px"
	 viewBox="0 0 87.3 87.3" style="enable-background:new 0 0 87.3 87.3;" xml:space="preserve">
<style type="text/css">
	.st0{fill:#00152B;}
	.st1{fill:#FFFFFF;}
</style>
<g id="Layer_2_1_">
	<g id="Layer_1-2">
		<path class="st0" d="M0,65.4V21.8C0,9.8,9.8,0,21.8,0h43.6c12,0,21.8,9.8,21.8,21.8v43.6c0,12-9.8,21.8-21.8,21.8H21.8
			C9.8,87.2,0,77.5,0,65.4"/>
		<path class="st1" d="M54.5,61.2c1.5,2.5,2.9,4.9,4.3,7.3c-0.1,0.1-0.2,0.1-0.3,0.1c-0.8,0-1.5,0-2.3,0c-0.3,0-0.6-0.1-0.7-0.4
			c-1.3-2.2-2.6-4.4-3.9-6.6c-0.1-0.3-0.4-0.4-0.7-0.4c-4.6,0-9.3,0-13.9,0c-0.7-0.1-1.3,0.3-1.6,0.9c-1.2,2.1-2.4,4.1-3.6,6.1
			c-0.1,0.2-0.4,0.4-0.6,0.4c-0.8,0-1.5,0-2.3,0c-0.4,0-0.4,0-0.2-0.4c1.3-2.2,2.6-4.4,3.9-6.6c0.1-0.1,0.1-0.2,0.2-0.3
			c-0.7-0.1-1.5-0.1-2.2-0.1c-0.4,0-0.8-0.1-1.1-0.4c-0.7-0.7-1.3-1.4-2-2c-0.3-0.3-0.4-0.6-0.4-1c0-0.6,0-1.3,0-1.9
			c0.1-0.4-0.1-0.8-0.5-0.9c-0.8-0.3-1.3-1.2-1.1-2.1c0.1-3.1,0-6.1,0-9.2c0-6,0-12.1,0-18.1c0-1.5,0-3,0-4.5c0-1.1,0.5-2.2,1.4-3
			c0.3-0.3,0.6-0.5,1-0.5c2.7-0.5,5.5-1.1,8.3-1.4c1.8-0.2,3.6-0.3,5.4-0.4c2.9-0.1,5.9,0,8.8,0.3c3.1,0.3,6.2,0.8,9.3,1.5
			c1.2,0.4,2.1,1.4,2.3,2.6c0.1,0.4,0.2,0.8,0.2,1.2c0,5.6,0,11.1,0,16.7c0,4.1,0,8.2,0,12.3c0,1.2-0.1,2.3-0.1,3.5
			c0,0.2-0.1,0.5-0.4,0.6c-1.1,0.5-1.3,1.3-1.2,2.3c0.1,1.9,0.3,1.3-1.1,2.7c-0.5,0.5-1,0.9-1.4,1.4c-0.2,0.2-0.5,0.4-0.9,0.3
			C56.1,61.2,55.3,61.2,54.5,61.2 M49.1,22.7c-3,0-6.1,0-9.1,0c-0.8-0.1-1.5,0.5-1.6,1.3c0,0.1,0,0.2,0,0.3c0,1.8,0,3.7,0,5.5
			c0,1.9,0,3.8,0,5.7c-0.1,0.7,0.5,1.4,1.2,1.5c0,0,0.1,0,0.1,0c6.2,0,12.4,0,18.7,0c0.5,0.1,1-0.3,1.1-0.8c0-0.1,0-0.2,0-0.3
			c0-4,0-8,0-12c0-0.8-0.3-1.1-1.2-1.1L49.1,22.7 M27.7,29.8c0,2,0,4,0,6c0,0.8,0.3,1.1,1.1,1.1c2.5,0,4.9,0,7.4,0
			c0.7,0.1,1.4-0.5,1.4-1.2c0-0.1,0-0.1,0-0.2c0-3.8,0-7.7,0-11.5c0.1-0.7-0.5-1.3-1.2-1.4c-0.1,0-0.1,0-0.2,0H29
			c-1,0-1.2,0.3-1.2,1.2C27.7,25.9,27.7,27.9,27.7,29.8 M43.6,49.3h16.2c0.7,0,0.8-0.2,0.8-0.8c0-0.4,0-0.9,0-1.3
			c0-0.7-0.1-0.8-0.8-0.8c-8.4,0-16.8,0-25.2,0c-2.4,0-4.9,0-7.3,0c-0.5,0-0.7,0.2-0.7,0.7c0,0.5,0,1,0,1.5c0,0.7,0.1,0.8,0.8,0.8
			H43.6 M56.5,43.3c0-0.9-0.7-1.7-1.7-1.7s-1.7,0.7-1.7,1.7c0,0.9,0.7,1.7,1.7,1.7c0,0,0,0,0,0C55.8,44.9,56.5,44.2,56.5,43.3
			 M30.4,43.3c0,0.9,0.8,1.7,1.7,1.7c0.9,0,1.7-0.8,1.7-1.7l0,0c0-0.9-0.7-1.7-1.7-1.7C31.2,41.6,30.4,42.3,30.4,43.3
			C30.4,43.2,30.4,43.2,30.4,43.3"/>
	</g>
</g>
</svg>
