<svg xmlns="http://www.w3.org/2000/svg" width="87.263" height="87.26404" viewBox="0 0 87.263 87.26404">
  <defs>
    <style>
      .cls-1 {
        fill: #fff;
      }

      .cls-2 {
        fill: #00152b;
      }
    </style>
  </defs>
  <g id="Layer_2" data-name="Layer 2">
    <g id="Layer_1-2" data-name="Layer 1">
      <path class="cls-1" d="M0,65.448V21.816A21.881,21.881,0,0,1,21.815,0H65.449A21.8793,21.8793,0,0,1,87.263,21.815V65.45A21.87865,21.87865,0,0,1,65.448,87.264H21.816A21.87989,21.87989,0,0,1,0,65.448"/>
      <path class="cls-2" d="M25.897,62.60547c0-.629-.019-1.259.009-1.887.011-.274-.106-.36-.333-.394a5.56227,5.56227,0,0,1-1.389-.368,1.26927,1.26927,0,0,1-.843-1.11c-.271-2.291-.611-4.573-.884-6.863a37.77986,37.77986,0,0,1-.185-6.39,43.05446,43.05446,0,0,1,.935-6.98c.063-.289-.016-.308-.255-.305-.761.011-1.522.005-2.283.004a1.23505,1.23505,0,0,1-.599-.09705.72336.72336,0,0,1-.494-.729c.036-.58295.01-1.17.01-1.755,0-.53.244-.854.801-.863a24.27811,24.27811,0,0,1,3.588.054c.212.028.243-.056.292-.21a60.90368,60.90368,0,0,1,2.685-6.632,6.99615,6.99615,0,0,1,6.745-4.418q2.391-.04047,4.784.007c.392.007.523-.134.597-.482.099-.468.239-.93005.381-1.388a1.69659,1.69659,0,0,1,1.772-1.334q2.3925-.0195,4.785,0a1.68059,1.68059,0,0,1,1.77,1.326c.158.5.308,1.004.425,1.514.064.279.183.36.469.36,1.799-.006,3.6-.05,5.396.035a6.75827,6.75827,0,0,1,6.136,4.17,54.15374,54.15374,0,0,1,2.778,6.828c.031.1.012.29.232.234a10.63087,10.63087,0,0,1,2.184-.08c.438-.019.878-.015,1.316-.001.692.022.967.31.967.984v1.536a.83045.83045,0,0,1-.89.93c-.789.028-1.58.022-2.369.006-.331-.007-.447.021-.358.423a41.96427,41.96427,0,0,1,.955,8.249,50.12174,50.12174,0,0,1-.634,8.244c-.175,1.184-.336,2.371-.46,3.561a1.29994,1.29994,0,0,1-.879,1.183,4.22487,4.22487,0,0,1-1.22.329c-.412.032-.482.216-.475.583.022,1.156.01,2.312.007,3.468a1.3318,1.3318,0,0,1-1.221,1.404,21.70574,21.70574,0,0,1-3.505.001,1.30675,1.30675,0,0,1-1.24-1.42206c-.002-1.009-.01-2.019.005-3.02795.005-.277-.078-.347-.349-.333-2.393.129-4.788.219-7.185.233-1.594.01-3.187.075-4.78.055-3.638-.047-7.278-.06195-10.911-.291-.272-.017-.309.09-.306.322.01.995.006,1.99005.003,2.98505a1.36554,1.36554,0,0,1-1.373,1.495c-1.08.048-2.166.05-3.246.001a1.34547,1.34547,0,0,1-1.361-1.496c-.002-.556,0-1.112,0-1.668m17.794-36.01c-3.351,0-6.703-.013-10.053.005a4.09912,4.09912,0,0,0-3.917,2.472c-.224.46-.409.937-.62,1.403a43.77852,43.77852,0,0,0-2.693,7.401,2.00367,2.00367,0,0,0,1.914,2.587c.306.01795.433-.082.501-.391.122-.555.295-1.1.469-1.641a1.59841,1.59841,0,0,1,1.594-1.203q2.52447-.027,5.049-.001a1.60049,1.60049,0,0,1,1.599,1.196,12.39537,12.39537,0,0,1,.449,1.554c.077.412.262.492.647.491q9.987-.01794,19.975-.008c.058,0,.117.001.175,0a2.0092,2.0092,0,0,0,2.05-2.682,50.99518,50.99518,0,0,0-3.264-8.636,4.08694,4.08694,0,0,0-3.998-2.545c-3.292-.009-6.585-.002-9.877-.002m-.09,29.685q7.722,0,15.445-.002a2.35874,2.35874,0,0,0,2.326-2.363,2.40907,2.40907,0,0,0-2.32-2.39q-15.423-.006-30.847-.004a2.12713,2.12713,0,0,0-.891.192,2.43023,2.43023,0,0,0-1.377,2.672,2.31159,2.31159,0,0,0,2.35,1.895q7.65752.003,15.314,0m15.346-7.713a2.34836,2.34836,0,0,0,2.425-2.366,2.38135,2.38135,0,0,0-4.762.081,2.34876,2.34876,0,0,0,2.337,2.285m-30.723,0a2.34922,2.34922,0,0,0,2.426-2.366,2.38136,2.38136,0,0,0-4.762.081,2.34787,2.34787,0,0,0,2.336,2.285"/>
    </g>
  </g>
</svg>
