<svg xmlns="http://www.w3.org/2000/svg" xml:space="preserve" viewBox="0 0 87.3 87.3"><path d="M0 65.4V21.8C0 9.8 9.8 0 21.8 0h43.6c12 0 21.8 9.8 21.8 21.8v43.6c0 12-9.8 21.8-21.8 21.8H21.8C9.8 87.2 0 77.5 0 65.4" style="fill:#00152b"/><path d="M25.9 62.6v-1.9c0-.3-.1-.4-.3-.4-.5-.1-.9-.2-1.4-.4s-.8-.6-.8-1.1l-.9-6.9c-.2-2.1-.3-4.3-.2-6.4.1-2.3.4-4.7.9-7 .1-.3 0-.3-.3-.3h-2.3c-.2 0-.4 0-.6-.1-.3-.1-.5-.4-.5-.7v-1.8c0-.5.2-.9.8-.9 1.2-.1 2.4-.1 3.6.1.2 0 .2-.1.3-.2q1.2-3.45 2.7-6.6c1.1-2.8 3.8-4.5 6.7-4.4h4.8c.4 0 .5-.1.6-.5.1-.5.2-.9.4-1.4.2-.8.9-1.4 1.8-1.3H46c.8-.1 1.6.5 1.8 1.3.2.5.3 1 .4 1.5.1.3.2.4.5.4h5.4c2.7 0 5.1 1.7 6.1 4.2 1.1 2.2 2 4.5 2.8 6.8 0 .1 0 .3.2.2.7-.1 1.5-.1 2.2-.1h1.3c.7 0 1 .3 1 1v1.5c.1.5-.3.9-.7.9h-2.6c-.3 0-.4 0-.4.4.6 2.7.9 5.5 1 8.2 0 2.8-.2 5.5-.6 8.2-.2 1.2-.3 2.4-.5 3.6 0 .5-.4 1-.9 1.2q-.6.3-1.2.3c-.4 0-.5.2-.5.6v3.5c0 .7-.5 1.3-1.2 1.4-1.2.1-2.3.1-3.5 0-.7 0-1.3-.6-1.2-1.4V61c0-.3-.1-.3-.3-.3-2.4.1-4.8.2-7.2.2-1.6 0-3.2.1-4.8.1-3.6 0-7.3-.1-10.9-.3-.3 0-.3.1-.3.3v3c.1.8-.5 1.4-1.2 1.5h-.1c-1.1 0-2.2.1-3.2 0-.7 0-1.4-.6-1.4-1.3V64c-.1-.3-.1-.8-.1-1.4m17.8-36H33.6c-1.7-.1-3.2.9-3.9 2.5-.2.5-.4.9-.6 1.4-1.1 2.4-2 4.9-2.7 7.4-.3 1.1.3 2.2 1.3 2.5.2.1.4.1.6.1.3 0 .4-.1.5-.4.1-.6.3-1.1.5-1.6.2-.7.8-1.2 1.6-1.2h5c.7 0 1.4.5 1.6 1.2.2.5.3 1 .4 1.6.1.4.3.5.6.5h20.2c1.1.1 2.1-.7 2.2-1.8 0-.3 0-.6-.1-.8-.8-3-1.9-5.9-3.3-8.6-.7-1.6-2.3-2.6-4-2.5-3.2-.3-6.5-.3-9.8-.3m-.1 29.7H59c1.3 0 2.3-1.1 2.3-2.4s-1-2.3-2.3-2.4H28.2c-.3 0-.6.1-.9.2-1 .5-1.6 1.6-1.4 2.7s1.2 1.9 2.4 1.9zm15.3-7.7c1.3 0 2.4-1 2.4-2.3v-.1c0-1.3-1.1-2.4-2.4-2.3-1.3 0-2.4 1.1-2.3 2.4 0 1.3 1.1 2.3 2.3 2.3m-30.7 0c1.3 0 2.4-1 2.4-2.3v-.1c0-1.3-1.1-2.4-2.4-2.3-1.3 0-2.3 1.1-2.3 2.4 0 1.2 1.1 2.3 2.3 2.3" style="fill:#fff"/></svg>