<svg xmlns="http://www.w3.org/2000/svg" width="87.263" height="87.26404" viewBox="0 0 87.263 87.26404">
  <defs>
    <style>
      .cls-1 {
        fill: #fff;
      }

      .cls-2 {
        fill: #00152b;
      }
    </style>
  </defs>
  <g id="Layer_2" data-name="Layer 2">
    <g id="Layer_1-2" data-name="Layer 1">
      <path class="cls-1" d="M0,65.448V21.816A21.881,21.881,0,0,1,21.815,0H65.449A21.87934,21.87934,0,0,1,87.263,21.815V65.45A21.87865,21.87865,0,0,1,65.448,87.264H21.816A21.87989,21.87989,0,0,1,0,65.448"/>
      <path class="cls-2" d="M66.15228,27.0462h-2.299v-6.809a1.93681,1.93681,0,0,0-1.237-1.718s-6.396-2.106-18.985-2.106-18.983,2.106-18.983,2.106a1.93781,1.93781,0,0,0-1.238,1.718v6.809h-2.297a1.30877,1.30877,0,0,0-1.306,1.30506v9.979a1.30892,1.30892,0,0,0,1.306,1.306h2.297v23.437a1.30916,1.30916,0,0,0,1.305,1.305h2.836v4.129a1.49472,1.49472,0,0,0,1.595,1.358h2.966a1.49409,1.49409,0,0,0,1.595-1.358v-4.129h20.112v4.129a1.49471,1.49471,0,0,0,1.595,1.358h2.965a1.496,1.496,0,0,0,1.597-1.358v-4.129h2.572a1.30916,1.30916,0,0,0,1.305-1.305v-23.437h2.299a1.30849,1.30849,0,0,0,1.304-1.306v-9.979a1.30835,1.30835,0,0,0-1.304-1.30506m-36.769,30.90705a2.748,2.748,0,1,1,2.748-2.748,2.74824,2.74824,0,0,1-2.748,2.748m28.711,0a2.748,2.748,0,1,1,2.749-2.748,2.74738,2.74738,0,0,1-2.749,2.748m3.253-21.17v9.837a2.65624,2.65624,0,0,1-1.997,2.478,100.579,100.579,0,0,1-15.719,1.15,99.503,99.503,0,0,1-15.716-1.162,2.63648,2.63648,0,0,1-2-2.466v-20.522a2.656,2.656,0,0,1,1.997-2.476,96.04853,96.04853,0,0,1,15.51-1.15,104.20535,104.20535,0,0,1,15.926,1.161,2.63715,2.63715,0,0,1,1.999,2.465Z"/>
    </g>
  </g>
</svg>
