<svg xmlns="http://www.w3.org/2000/svg" width="87.263" height="87.26404" viewBox="0 0 87.263 87.26404">
  <defs>
    <style>
      .cls-1 {
        fill: #fff;
      }

      .cls-2 {
        fill: #00152b;
      }
    </style>
  </defs>
  <g id="Layer_2" data-name="Layer 2">
    <g id="Layer_1-2" data-name="Layer 1">
      <path class="cls-1" d="M0,65.448V21.816A21.881,21.881,0,0,1,21.815,0H65.449A21.87929,21.87929,0,0,1,87.263,21.815V65.45A21.87863,21.87863,0,0,1,65.448,87.264H21.816A21.87989,21.87989,0,0,1,0,65.448"/>
      <path class="cls-2" d="M54.46748,61.24384c1.473,2.511,2.878,4.90405,4.28,7.291-.094.143-.217.082-.316.082-.774.006-1.549-.016-2.322.012a.70308.70308,0,0,1-.729-.408c-1.277-2.197-2.584-4.376-3.863-6.571a.65206.65206,0,0,0-.66-.368c-4.644.011-9.287.035-13.93-.018a1.497,1.497,0,0,0-1.551.896c-1.153,2.056-2.392,4.065-3.58,6.102a.6067.6067,0,0,1-.619.366c-.773-.022-1.547-.007-2.321-.008-.442,0-.444-.002-.223-.379q1.9395-3.306,3.879-6.611c.055-.095.106-.192.18-.325a15.62632,15.62632,0,0,0-2.24-.055,1.34135,1.34135,0,0,1-1.051-.426q-.996-1.03344-2.037-2.021a1.26537,1.26537,0,0,1-.424-1.007c.015-.633-.014-1.267.01-1.9a.86631.86631,0,0,0-.508-.93,1.8603,1.8603,0,0,1-1.115-2.064c.061-3.065.017-6.133.012-9.2q-.012-9.07351-.025-18.149c-.002-1.491.01-2.982.028-4.473a4.1296,4.1296,0,0,1,1.367-2.98,1.9676,1.9676,0,0,1,1.038-.527c2.748-.503,5.481-1.091,8.256-1.43305,1.786-.22,3.581-.335,5.38-.396a63.846,63.846,0,0,1,8.8.307,71.6254,71.6254,0,0,1,9.262,1.523,3.34817,3.34817,0,0,1,2.29,2.585,3.86584,3.86584,0,0,1,.158,1.208q.01348,8.35649.026,16.714.01048,6.162.03,12.324c.004,1.168-.062,2.332-.121,3.497a.60062.60062,0,0,1-.365.568c-1.059.451-1.258,1.276-1.228,2.348.051,1.854.262,1.309-1.103,2.697-.464.471-.954.916-1.415,1.389a1.11232,1.11232,0,0,1-.868.343c-.757-.01-1.513-.00305-2.382-.00305m-5.332-38.537c-3.038,0-6.078.031-9.115-.017a1.4612,1.4612,0,0,0-1.585,1.58c.03,1.829.009,3.658.009,5.487,0,1.913-.004,3.826.002,5.739a1.33522,1.33522,0,0,0,1.343,1.469q9.327.00907,18.654,0a.94894.94894,0,0,0,1.091-1.089q.009-6.015,0-12.028c-.002-.838-.323-1.14-1.156-1.141h-9.243m-21.413,7.134c0,1.998-.005,3.996.002,5.994.002.81.326,1.131,1.126,1.132q3.693.00449,7.387,0a1.31971,1.31971,0,0,0,1.415-1.389q.00752-5.74055,0-11.481a1.29081,1.29081,0,0,0-1.398-1.39h-7.302c-.955,0-1.229.271-1.23,1.225q-.003,2.955,0,5.909m15.867,19.46h16.207c.679,0,.836-.157.833-.846-.001-.436-.018-.87194-.021-1.308-.005-.686-.118-.8-.813-.8q-12.6195-.00145-25.239-.001-3.6495,0-7.301.001c-.488.001-.653.174-.652.662,0,.506-.001,1.012,0,1.518,0,.685.09.774.779.774h16.207m12.915-6.036a1.67155,1.67155,0,1,0-1.659,1.66,1.66406,1.66406,0,0,0,1.659-1.66m-26.098-.013a1.6765,1.6765,0,0,0,3.353.001,1.67651,1.67651,0,1,0-3.353-.001"/>
    </g>
  </g>
</svg>
