<svg xmlns="http://www.w3.org/2000/svg" xml:space="preserve" viewBox="0 0 87.3 87.3"><path d="M0 65.4V21.8C0 9.8 9.8 0 21.8 0h43.6c12 0 21.8 9.8 21.8 21.8v43.6c0 12-9.8 21.8-21.8 21.8H21.8C9.8 87.2 0 77.5 0 65.4" style="fill:#00152b"/><path d="M54.5 61.2c1.5 2.5 2.9 4.9 4.3 7.3-.1.1-.2.1-.3.1h-2.3c-.3 0-.6-.1-.7-.4l-3.9-6.6c-.1-.3-.4-.4-.7-.4H37c-.7-.1-1.3.3-1.6.9-1.2 2.1-2.4 4.1-3.6 6.1-.1.2-.4.4-.6.4h-2.3c-.4 0-.4 0-.2-.4l3.9-6.6c.1-.1.1-.2.2-.3-.7-.1-1.5-.1-2.2-.1-.4 0-.8-.1-1.1-.4-.7-.7-1.3-1.4-2-2-.3-.3-.4-.6-.4-1v-1.9c.1-.4-.1-.8-.5-.9-.8-.3-1.3-1.2-1.1-2.1.1-3.1 0-6.1 0-9.2V21.1c0-1.1.5-2.2 1.4-3 .3-.3.6-.5 1-.5 2.7-.5 5.5-1.1 8.3-1.4 1.8-.2 3.6-.3 5.4-.4 2.9-.1 5.9 0 8.8.3q4.65.45 9.3 1.5c1.2.4 2.1 1.4 2.3 2.6.1.4.2.8.2 1.2v29c0 1.2-.1 2.3-.1 3.5 0 .2-.1.5-.4.6-1.1.5-1.3 1.3-1.2 2.3.1 1.9.3 1.3-1.1 2.7-.5.5-1 .9-1.4 1.4-.2.2-.5.4-.9.3zm-5.4-38.5H40c-.8-.1-1.5.5-1.6 1.3v11.5c-.1.7.5 1.4 1.2 1.5h18.8c.5.1 1-.3 1.1-.8V23.9c0-.8-.3-1.1-1.2-1.1zm-21.4 7.1v6c0 .8.3 1.1 1.1 1.1h7.4c.7.1 1.4-.5 1.4-1.2V24c.1-.7-.5-1.3-1.2-1.4H29c-1 0-1.2.3-1.2 1.2-.1 2.1-.1 4.1-.1 6m15.9 19.5h16.2c.7 0 .8-.2.8-.8v-1.3c0-.7-.1-.8-.8-.8H27.3c-.5 0-.7.2-.7.7v1.5c0 .7.1.8.8.8h16.2m12.9-6.1c0-.9-.7-1.7-1.7-1.7s-1.7.7-1.7 1.7c0 .9.7 1.7 1.7 1.7 1-.1 1.7-.8 1.7-1.7m-26.1 0c0 .9.8 1.7 1.7 1.7s1.7-.8 1.7-1.7-.7-1.7-1.7-1.7c-.9 0-1.7.7-1.7 1.7q0-.15 0 0" style="fill:#fff"/></svg>