<svg width="138" height="138" viewBox="0 0 138 138" fill="none" xmlns="http://www.w3.org/2000/svg">
<g filter="url(#filter0_d_100_2)">
<path d="M25 85.448V41.816C25.0171 36.0355 27.321 30.4966 31.4083 26.4091C35.4957 22.3215 41.0345 20.0174 46.815 20L90.449 20C96.2293 20.0172 101.768 22.3212 105.855 26.4086C109.942 30.496 112.246 36.0347 112.263 41.815V85.45C112.246 91.2304 109.942 96.7691 105.855 100.856C101.767 104.944 96.2284 107.247 90.448 107.264H46.816C41.0352 107.247 35.496 104.943 31.4084 100.856C27.3207 96.768 25.0169 91.2288 25 85.448Z" fill="white"/>
<path d="M91.1523 47.0462H88.8532V40.2372C88.836 39.8617 88.7099 39.4993 88.4902 39.1942C88.2706 38.8892 87.9669 38.6546 87.6162 38.5192C87.6162 38.5192 81.2202 36.4132 68.6313 36.4132C56.0423 36.4132 49.6483 38.5192 49.6483 38.5192C49.2975 38.6546 48.9937 38.8891 48.7738 39.1941C48.554 39.4992 48.4277 39.8616 48.4103 40.2372V47.0462H46.1133C45.7673 47.0469 45.4356 47.1846 45.1909 47.4292C44.9462 47.6738 44.8082 48.0053 44.8073 48.3513V58.3303C44.808 58.6764 44.9459 59.0081 45.1906 59.2529C45.4354 59.4977 45.7671 59.6355 46.1133 59.6363H48.4103V83.0733C48.4113 83.419 48.5492 83.7503 48.7937 83.9948C49.0382 84.2393 49.3695 84.3772 49.7153 84.3783H52.5513V88.5073C52.5861 88.8975 52.7728 89.2584 53.0711 89.5124C53.3694 89.7664 53.7555 89.8931 54.1463 89.8653H57.1123C57.5031 89.8933 57.8893 89.7666 58.1876 89.5126C58.4859 89.2586 58.6726 88.8976 58.7073 88.5073V84.3783H78.8193V88.5073C78.8541 88.8975 79.0408 89.2584 79.3391 89.5124C79.6374 89.7664 80.0235 89.8931 80.4143 89.8653H83.3792C83.7703 89.8933 84.1567 89.7667 84.4554 89.5128C84.7541 89.2588 84.9411 88.8977 84.9762 88.5073V84.3783H87.5482C87.894 84.3772 88.2253 84.2393 88.4698 83.9948C88.7143 83.7503 88.8521 83.419 88.8532 83.0733V59.6363H91.1523C91.4981 59.6351 91.8294 59.497 92.0737 59.2523C92.3181 59.0076 92.4556 58.6761 92.4563 58.3303V48.3513C92.4554 48.0056 92.3178 47.6743 92.0734 47.4298C91.8291 47.1853 91.4979 47.0474 91.1523 47.0462ZM54.3833 77.9533C53.8397 77.9533 53.3085 77.7921 52.8565 77.4901C52.4046 77.1882 52.0524 76.759 51.8444 76.2569C51.6364 75.7547 51.582 75.2022 51.6881 74.6692C51.7941 74.1361 52.0558 73.6464 52.4401 73.2621C52.8244 72.8778 53.3141 72.6161 53.8471 72.5101C54.3802 72.404 54.9327 72.4584 55.4349 72.6664C55.937 72.8744 56.3662 73.2266 56.6681 73.6786C56.9701 74.1305 57.1313 74.6618 57.1313 75.2053C57.1312 75.9341 56.8416 76.633 56.3263 77.1483C55.811 77.6637 55.112 77.9532 54.3833 77.9533ZM83.0943 77.9533C82.5508 77.9531 82.0196 77.7917 81.5678 77.4897C81.116 77.1876 80.764 76.7583 80.5561 76.2562C80.3483 75.754 80.294 75.2015 80.4002 74.6685C80.5063 74.1355 80.7681 73.646 81.1525 73.2618C81.5368 72.8776 82.0265 72.6159 82.5595 72.51C83.0925 72.404 83.645 72.4585 84.1471 72.6665C84.6492 72.8745 85.0783 73.2268 85.3802 73.6787C85.6821 74.1305 85.8433 74.6618 85.8433 75.2053C85.8433 75.5662 85.7723 75.9237 85.6341 76.2572C85.496 76.5907 85.2935 76.8937 85.0382 77.1489C84.7829 77.4041 84.4798 77.6065 84.1463 77.7445C83.8127 77.8825 83.4552 77.9535 83.0943 77.9533ZM86.3473 56.7833V66.6203C86.3266 67.1936 86.1209 67.7448 85.7609 68.1914C85.401 68.6381 84.9061 68.9563 84.3503 69.0983C79.1487 69.8922 73.8929 70.2767 68.6313 70.2483C63.3701 70.277 58.115 69.8885 52.9153 69.0863C52.3592 68.9483 51.8633 68.633 51.5024 68.1881C51.1416 67.7431 50.9354 67.1928 50.9153 66.6203V46.0983C50.9363 45.5253 51.1421 44.9745 51.5021 44.5282C51.862 44.082 52.3567 43.7641 52.9123 43.6223C58.0427 42.8203 63.2297 42.4357 68.4223 42.4723C73.7528 42.4513 79.0771 42.8395 84.3483 43.6333C84.9039 43.7714 85.3994 44.0867 85.7601 44.5314C86.1207 44.9761 86.3268 45.5261 86.3473 46.0983V56.7833Z" fill="#00152B"/>
</g>
<defs>
<filter id="filter0_d_100_2" x="0" y="0" width="137.263" height="137.264" filterUnits="userSpaceOnUse" color-interpolation-filters="sRGB">
<feFlood flood-opacity="0" result="BackgroundImageFix"/>
<feColorMatrix in="SourceAlpha" type="matrix" values="0 0 0 0 0 0 0 0 0 0 0 0 0 0 0 0 0 0 127 0" result="hardAlpha"/>
<feOffset dy="5"/>
<feGaussianBlur stdDeviation="12.5"/>
<feComposite in2="hardAlpha" operator="out"/>
<feColorMatrix type="matrix" values="0 0 0 0 0 0 0 0 0 0 0 0 0 0 0 0 0 0 0.25 0"/>
<feBlend mode="normal" in2="BackgroundImageFix" result="effect1_dropShadow_100_2"/>
<feBlend mode="normal" in="SourceGraphic" in2="effect1_dropShadow_100_2" result="shape"/>
</filter>
</defs>
</svg>
