<svg xmlns="http://www.w3.org/2000/svg" width="87.263" height="87.264" viewBox="0 0 87.263 87.264"><g data-name="Layer 2"><g data-name="Layer 1"><path d="M0 65.448V21.816A21.88 21.88 0 0 1 21.815 0h43.634a21.88 21.88 0 0 1 21.814 21.815V65.45a21.88 21.88 0 0 1-21.815 21.814H21.816A21.88 21.88 0 0 1 0 65.448" style="fill:#fff"/><path d="M66.152 27.046h-2.299v-6.809a1.94 1.94 0 0 0-1.237-1.718s-6.396-2.106-18.985-2.106-18.983 2.106-18.983 2.106a1.94 1.94 0 0 0-1.238 1.718v6.81h-2.297a1.31 1.31 0 0 0-1.306 1.304v9.98a1.31 1.31 0 0 0 1.306 1.305h2.297v23.437a1.31 1.31 0 0 0 1.305 1.305h2.836v4.13a1.495 1.495 0 0 0 1.595 1.357h2.966a1.494 1.494 0 0 0 1.595-1.358v-4.129H53.82v4.13a1.495 1.495 0 0 0 1.595 1.357h2.965a1.496 1.496 0 0 0 1.597-1.358v-4.129h2.572a1.31 1.31 0 0 0 1.305-1.305V39.636h2.3a1.31 1.31 0 0 0 1.303-1.306v-9.979a1.31 1.31 0 0 0-1.304-1.305M29.383 57.953a2.748 2.748 0 1 1 2.748-2.748 2.75 2.75 0 0 1-2.748 2.748m28.711 0a2.748 2.748 0 1 1 2.75-2.748 2.747 2.747 0 0 1-2.75 2.748m3.253-21.17v9.837a2.66 2.66 0 0 1-1.997 2.478 100.6 100.6 0 0 1-15.719 1.15 99.5 99.5 0 0 1-15.716-1.162 2.636 2.636 0 0 1-2-2.466V26.098a2.66 2.66 0 0 1 1.997-2.476 96 96 0 0 1 15.51-1.15 104 104 0 0 1 15.926 1.161 2.64 2.64 0 0 1 2 2.465Z" style="fill:#00152b"/></g></g></svg>