<svg xmlns="http://www.w3.org/2000/svg" width="94" height="90" fill="none" viewBox="0 0 94 90"><path fill="#fff" d="M46.169 89.603H47.7q.09.045 0 .085h-1.53q-.09-.042-.001-.085M0 42.394c.162-.207.015-.482.17-.69a4 4 0 0 1-.076 1.122q-.05.083-.094-.002zm.171 5.505c-.156-.208-.008-.484-.171-.69v-.43q.045-.085.097-.004c.075.37.1.748.074 1.124m93.622-2.494v-1.207q.04-.09.076.001v1.204q-.036.09-.076.002"/><path fill="#fff" d="m93.869 44.2-.038-.003h-.038v-.515a.4.4 0 0 1 .076.001zm-.076 1.205.076-.002v.516l-.038.002h-.039zM44.455.073q0-.037.005-.073h.45q.09.045-.007.074zM45.99 0c-.137.118-.302.08-.46.077q-.05-.032-.028-.055A.05.05 0 0 1 45.539 0zm2.35.076c-.159.004-.324.042-.46-.076h.45q.053.019.04.047-.015.03-.03.03M49.41 0a.4.4 0 0 1 .004.072l-.449.002Q48.87.044 48.96 0zm-3.241 89.603v.085h-.45v-.087a1.2 1.2 0 0 1 .45.002m1.531.085v-.084c.148-.03.301-.031.45-.003v.087z"/><path fill="#fff" d="m45.54 0-.01.077-.357-.001Q45.089.03 45.179 0zm2.8.076L48.33 0h.36q.09.03.006.075zM.093 43.084c.009.124.027.25-.093.341v-.344q.048-.087.093.003M0 46.177c.122.092.102.219.091.343q-.045.088-.091.001z"/><path fill="#fff" d="M45.18 0q0 .039-.007.076l-.27-.002L44.91 0zm3.516.075L48.69 0h.27q0 .038.006.074zM.093 43.084 0 43.08v-.258l.094.003zM0 46.521h.091l.006.254-.097.004z"/><path fill="#fff" d="M93.789 41.796a30 30 0 0 0-.823-6.497 43 43 0 0 0-4.235-11.23 45 45 0 0 0-3.142-4.951 47 47 0 0 0-5.312-6.09 45 45 0 0 0-3.568-3.072 45.7 45.7 0 0 0-7.292-4.69 47.7 47.7 0 0 0-9.545-3.73A39 39 0 0 0 49.392.043h-1.049c-.154-.02-.317.045-.464-.043h-1.89c-.149.088-.313.023-.469.043h-1.052c-.36-.001-.719.034-1.076.036-1.884.025-3.76.225-5.608.596a48 48 0 0 0-16.582 6.458 45.7 45.7 0 0 0-8.261 6.578c-.537.54-1.08 1.076-1.586 1.638a46 46 0 0 0-4.534 5.914A43.2 43.2 0 0 0 .904 35.379a29.5 29.5 0 0 0-.814 6.37q.016.518-.045 1.032v.268c-.018.125.042.259-.045.376v2.752c.087.12.027.254.045.381v.269q.063.516.045 1.035c-.015.302.036.6.04.9.072 1.83.33 3.65.77 5.427a43.3 43.3 0 0 0 5.502 13.497 45.7 45.7 0 0 0 9.227 10.685 47.5 47.5 0 0 0 15.29 8.734 44.1 44.1 0 0 0 14.853 2.54h2.338c.82-.084 1.646-.06 2.468-.074a34.4 34.4 0 0 0 6.657-.874A48.4 48.4 0 0 0 70.34 83.83a48.3 48.3 0 0 0 9.581-6.916 44 44 0 0 0 3.355-3.522 43.8 43.8 0 0 0 5.474-7.894 43 43 0 0 0 3.648-8.947c.53-1.86.928-3.756 1.19-5.673.19-1.663.268-3.337.236-5.01v-2.142c-.006-.643-.033-1.288-.035-1.93M46.733 78.83c-19.765-.106-35.41-15.51-35.413-34.025C11.315 26.2 27.101 10.77 46.948 10.763c19.874.015 35.648 15.486 35.616 34.096-.033 18.568-15.84 34.076-35.831 33.97"/><path fill="#fff" d="M63.267 50.404a9.3 9.3 0 0 0-2.13-3.9 9.2 9.2 0 0 0-3.68-2.455 15.8 15.8 0 0 0-3.14-.879c-.123-.021-.238-.03-.243-.19-.004-.15.04-.225.212-.265q.589-.135 1.16-.33a9.4 9.4 0 0 0 3.666-2.065 9.5 9.5 0 0 0 2.408-3.469c.806-2.102.992-4.395.533-6.602a8.9 8.9 0 0 0-1.645-3.642 8.76 8.76 0 0 0-3.07-2.533 15.3 15.3 0 0 0-3.874-1.46 35 35 0 0 0-7.528-.85c-1.86-.038-3.718.021-5.575.093a82 82 0 0 0-8.456.759c-.562.077-.563.068-.563.623v42.124q.007.15-.002.3c-.023.221.052.333.302.38.897.172 1.796.322 2.705.419 2.027.215 4.061.341 6.1.413 1.768.063 3.538.013 5.308.032a28.3 28.3 0 0 0 5.671-.527 19.3 19.3 0 0 0 6.806-2.58 11.16 11.16 0 0 0 5.081-6.638 12.64 12.64 0 0 0-.046-6.758m-23.232-20.88c0-.423.003-.42.427-.464a43 43 0 0 1 6.06-.153 9.3 9.3 0 0 1 3.775.85c.82.346 1.523.925 2.024 1.666.5.74.778 1.612.798 2.509a6 6 0 0 1-.148 1.833 4.75 4.75 0 0 1-1.55 2.462 11.6 11.6 0 0 1-4.236 2.276 8.3 8.3 0 0 1-1.957.23 79 79 0 0 1-4.852.084c-.334-.003-.34-.007-.34-.34q-.004-2.77-.001-5.54zM54.314 54.45a5.6 5.6 0 0 1-.932 2.289 5.55 5.55 0 0 1-1.821 1.658 9.6 9.6 0 0 1-3.825 1.282 21.7 21.7 0 0 1-3.68.087 48 48 0 0 1-3.187-.17c-.834-.078-.834-.072-.834-.843V47.839c0-.101.003-.201 0-.302-.003-.12.049-.187.183-.183.06.002.12-.002.18 0 1.963.005 3.928-.041 5.891.038 1.364.005 2.719.206 4.026.597a6.5 6.5 0 0 1 2.858 1.792 4.75 4.75 0 0 1 1.169 2.827 7.3 7.3 0 0 1-.028 1.843"/></svg>