<svg id="Layer_1" data-name="Layer 1" xmlns="http://www.w3.org/2000/svg" width="268.50513" height="80.63062" viewBox="0 0 268.50513 80.63062">
  <defs>
    <style>
      .cls-1 {
        fill: #00a64f;
      }

      .cls-2 {
        fill: #fff;
      }
    </style>
  </defs>
  <g id="Body">
    <g>
      <path class="cls-1" d="M114.43283,12.23287H108.426V32.24166h-4.55957V12.23287H97.85959V8.25924h16.57324Z"/>
      <path class="cls-1" d="M122.06759,19.15377a4.81134,4.81134,0,0,0-1.59179-.30859,2.77837,2.77837,0,0,0-1.68262.51464,2.5429,2.5429,0,0,0-.959,1.43848V32.24166h-4.30664V15.1108h3.293l.50684,2.05566h.14454a3.989,3.989,0,0,1,1.35742-1.76367,3.42014,3.42014,0,0,1,2.04395-.63379,4.44987,4.44987,0,0,1,1.70117.3418Z"/>
      <path class="cls-1" d="M124.52755,16.13912a10.16834,10.16834,0,0,1,2.71387-.99414,16.45684,16.45684,0,0,1,3.69141-.376q3.07471,0,4.28809,1.50684a6.68552,6.68552,0,0,1,1.21191,4.2832q0,1.60987-.09082,3.16895-.09082,1.55859-.126,3.04883-.0366,1.49121.05371,2.87793a10.74321,10.74321,0,0,0,.48829,2.62109h-3.50977l-.6875-2.08984h-.14453a4.71617,4.71617,0,0,1-1.62793,1.64453,4.938,4.938,0,0,1-2.64162.65136,4.318,4.318,0,0,1-3.36522-1.35351A5.16731,5.16731,0,0,1,123.551,27.5141a4.62166,4.62166,0,0,1,2.31543-4.38574,11.53726,11.53726,0,0,1,6.26073-1.09668,5.6289,5.6289,0,0,0-.27148-2.87793,1.96084,1.96084,0,0,0-1.93653-.89063,11.029,11.029,0,0,0-2.24317.24024,8.6086,8.6086,0,0,0-2.0625.68457Zm5.17481,12.84766a2.57671,2.57671,0,0,0,1.5918-.46289,3.09518,3.09518,0,0,0,.90527-1.00977V24.67037a7.428,7.428,0,0,0-1.59277-.03418,4.596,4.596,0,0,0-1.33887.30762,2.15327,2.15327,0,0,0-.92285.70215,1.92954,1.92954,0,0,0-.34375,1.18261,2.47148,2.47148,0,0,0,.45313,1.61036A1.52847,1.52847,0,0,0,129.70236,28.98678Z"/>
      <path class="cls-1" d="M148.77168,32.24166v-10.415A5.323,5.323,0,0,0,148.302,19.188a1.73131,1.73131,0,0,0-1.59277-.75391,2.53328,2.53328,0,0,0-1.62793.54883,2.98825,2.98825,0,0,0-.97656,1.37012V32.24166H139.7981V15.1108h3.4375l.50683,1.98731h.1084a5.68135,5.68135,0,0,1,1.77344-1.69532,5.448,5.448,0,0,1,2.93066-.70312,5.67433,5.67433,0,0,1,1.93653.30859,3.27024,3.27024,0,0,1,1.42871,1.01074,4.68708,4.68708,0,0,1,.86816,1.88477,12.51608,12.51608,0,0,1,.29,2.92871V32.24166Z"/>
      <path class="cls-1" d="M162.48557,27.685a1.673,1.673,0,0,0-.48829-1.2168,5.637,5.637,0,0,0-1.248-.9248q-.76024-.42774-1.61035-.873a8.62979,8.62979,0,0,1-1.61035-1.09668,5.30265,5.30265,0,0,1-1.248-1.57617,4.948,4.948,0,0,1-.48924-2.33008,4.85362,4.85362,0,0,1,1.375-3.70019,5.68951,5.68951,0,0,1,4.05273-1.30176,13.35407,13.35407,0,0,1,3.00391.32617,8.3022,8.3022,0,0,1,2.24316.80469l-1.01269,3.15234a14.54767,14.54767,0,0,0-1.665-.53125,7.49776,7.49776,0,0,0-1.918-.25683q-1.77246,0-1.77246,1.40429a1.37073,1.37073,0,0,0,.48828,1.0791,6.80792,6.80792,0,0,0,1.248.83985q.76026.41162,1.61037.85644a8.21869,8.21869,0,0,1,1.61035,1.11328,5.39335,5.39335,0,0,1,1.248,1.62793,5.16439,5.16439,0,0,1,.48926,2.36329,4.99448,4.99448,0,0,1-1.52051,3.80371,6.352,6.352,0,0,1-4.52246,1.43847,12.4435,12.4435,0,0,1-2.91308-.34277,7.66766,7.66766,0,0,1-2.29785-.89063l1.19433-3.28906a9.75906,9.75906,0,0,0,1.75488.71973,7.00025,7.00025,0,0,0,2.08008.30859,2.436,2.436,0,0,0,1.375-.36035A1.27452,1.27452,0,0,0,162.48557,27.685Z"/>
      <path class="cls-1" d="M169.43283,15.1108h3.2207l.43457,1.95313h.1084a5.47594,5.47594,0,0,1,1.86328-1.79883,5.24942,5.24942,0,0,1,2.55079-.56543,4.74542,4.74542,0,0,1,4.14355,1.9707q1.393,1.97022,1.39256,6.56055,0,4.59228-1.73631,7.041a5.78436,5.78436,0,0,1-5.0293,2.44922,6.96631,6.96631,0,0,1-1.48437-.13672,4.1803,4.1803,0,0,1-1.15723-.44531V39.0942h-4.30664Zm4.30664,13.294a2.40748,2.40748,0,0,0,.81348.51367,3.37715,3.37715,0,0,0,1.17676.1709,2.40334,2.40334,0,0,0,2.207-1.35254,10.07509,10.07509,0,0,0,.75976-4.6084,8.5942,8.5942,0,0,0-.5791-3.61426,1.98213,1.98213,0,0,0-1.918-1.18262,2.48721,2.48721,0,0,0-2.46,2.02149Z"/>
      <path class="cls-1" d="M185.3176,23.67623q0-4.55567,1.88183-6.7832a6.4971,6.4971,0,0,1,5.24707-2.22754,6.42921,6.42921,0,0,1,5.3916,2.26172q1.77245,2.26025,1.77247,6.749,0,4.59228-1.88086,6.80078a6.56252,6.56252,0,0,1-5.28321,2.21Q185.31709,32.687,185.3176,23.67623Zm4.45117,0a10.19422,10.19422,0,0,0,.61523,3.97461,2.11348,2.11348,0,0,0,2.0625,1.4043,2.1882,2.1882,0,0,0,2.044-1.21582,9.28022,9.28022,0,0,0,.66994-4.16309,10.17051,10.17051,0,0,0-.61524-4.00879,2.1402,2.1402,0,0,0-2.09863-1.37012,2.18465,2.18465,0,0,0-1.97266,1.2168,8.86986,8.86986,0,0,0-.70511,4.16211Z"/>
      <path class="cls-1" d="M210.97189,19.15377a4.81134,4.81134,0,0,0-1.59179-.30859,2.77822,2.77822,0,0,0-1.68262.51464,2.54282,2.54282,0,0,0-.959,1.43848V32.24166h-4.30664V15.1108h3.293l.50683,2.05566h.14454a3.989,3.989,0,0,1,1.35742-1.76367,3.42013,3.42013,0,0,1,2.04394-.63379,4.44993,4.44993,0,0,1,1.70119.3418Z"/>
      <path class="cls-1" d="M212.88986,15.1108h1.99024V11.89107l4.30566-1.26855V15.1108h3.51074v3.63184h-3.51074v7.46875a5.0689,5.0689,0,0,0,.30762,2.08984,1.12513,1.12513,0,0,0,1.10451.61719,4.25909,4.25909,0,0,0,.97656-.10254,6.559,6.559,0,0,0,.94043-.30859l.543,3.25488a9.76427,9.76427,0,0,1-1.84571.63379,9.27038,9.27038,0,0,1-2.207.25683,3.98077,3.98077,0,0,1-3.09375-1.13086,5.60048,5.60048,0,0,1-1.03125-3.80273V18.74264h-1.99023Z"/>
      <path class="cls-1" d="M231.70432,15.1108h1.9541v-.959q0-3.25489,1.28515-4.71094a4.6364,4.6364,0,0,1,3.67285-1.45606,11.09883,11.09883,0,0,1,3.9795.61719l-.7959,3.46a4.84934,4.84934,0,0,0-1.15723-.291,10.43786,10.43786,0,0,0-1.0498-.05176,1.26253,1.26253,0,0,0-1.33887.77051,8.27585,8.27585,0,0,0-.28906,2.62109h3.07519v3.63184h-3.07519v13.499h-4.30664v-13.499h-1.9541Z"/>
      <path class="cls-1" d="M242.343,23.67623q0-4.55567,1.88184-6.7832a6.49709,6.49709,0,0,1,5.24707-2.22754,6.42921,6.42921,0,0,1,5.3916,2.26172q1.77245,2.26025,1.77245,6.749,0,4.59228-1.88086,6.80078a6.56252,6.56252,0,0,1-5.28321,2.21Q242.34248,32.687,242.343,23.67623Zm4.45119,0a10.19422,10.19422,0,0,0,.61523,3.97461,2.11348,2.11348,0,0,0,2.0625,1.4043,2.18822,2.18822,0,0,0,2.04395-1.21582,9.28035,9.28035,0,0,0,.66992-4.16309,10.17068,10.17068,0,0,0-.61523-4.00879,2.14021,2.14021,0,0,0-2.09864-1.37012,2.18464,2.18464,0,0,0-1.97265,1.2168,8.86961,8.86961,0,0,0-.70511,4.16211Z"/>
      <path class="cls-1" d="M267.99826,19.15377a4.81125,4.81125,0,0,0-1.5918-.30859,2.77832,2.77832,0,0,0-1.68261.51464,2.54275,2.54275,0,0,0-.959,1.43848V32.24166h-4.30664V15.1108h3.293l.50684,2.05566h.14453A3.98913,3.98913,0,0,1,264.76,15.40279,3.42014,3.42014,0,0,1,266.804,14.769a4.44987,4.44987,0,0,1,1.70117.3418Z"/>
      <path class="cls-1" d="M113.67306,54.92232a7.96309,7.96309,0,0,1-.19922,1.76465,6.07646,6.07646,0,0,1-.63379,1.64453,4.79611,4.79611,0,0,1-1.13964,1.35352,4.94548,4.94548,0,0,1-1.68262.89062v.20508a6.93232,6.93232,0,0,1,1.64648.61719,4.45035,4.45035,0,0,1,1.35742,1.11328,5.41959,5.41959,0,0,1,.92286,1.71289,7.42986,7.42986,0,0,1,.34375,2.38185,7.149,7.149,0,0,1-.66993,3.20311,6.08617,6.08617,0,0,1-1.80957,2.21,7.73335,7.73335,0,0,1-2.65918,1.26758,12.31088,12.31088,0,0,1-3.2207.41113h-1.30273q-.79542,0-1.71875-.05175-.92286-.05127-1.89942-.15429a13.43426,13.43426,0,0,1-1.80957-.30762V49.54342q1.19532-.20508,2.94922-.35938,1.75488-.15525,3.49218-.15429a18.99976,18.99976,0,0,1,3.05762.23925,7.367,7.367,0,0,1,2.56933.89161,4.79568,4.79568,0,0,1,1.75488,1.79785A5.97256,5.97256,0,0,1,113.67306,54.92232Zm-8.86523,4.625q.397,0,.92285-.05078a8.06791,8.06791,0,0,0,.84961-.12011,4.2181,4.2181,0,0,0,1.791-1.2334,3.28085,3.28085,0,0,0,.74219-2.22657,3.993,3.993,0,0,0-.25293-1.50781,2.4506,2.4506,0,0,0-.6875-.97656,2.61617,2.61617,0,0,0-1.03125-.51367,5.14507,5.14507,0,0,0-1.28515-.1543,11.04208,11.04208,0,0,0-2.09864.13672v6.64648Zm1.22949,10.416a3.48686,3.48686,0,0,0,2.49707-.9248,3.55437,3.55437,0,0,0,.97754-2.707,4.1535,4.1535,0,0,0-.32617-1.79882,2.52038,2.52038,0,0,0-.86817-1.02735,3.01016,3.01016,0,0,0-1.249-.46289,10.16488,10.16488,0,0,0-1.46485-.10254H103.758v6.81739a4.27017,4.27017,0,0,0,.99512.15429q.70608.05125,1.2842.05174Z"/>
      <path class="cls-1" d="M117.25412,57.2524a10.16759,10.16759,0,0,1,2.71386-.99414,16.4569,16.4569,0,0,1,3.69141-.376q3.0747,0,4.2881,1.50683a6.68546,6.68546,0,0,1,1.2119,4.2832q0,1.60988-.09082,3.169-.09084,1.55859-.126,3.04883-.0366,1.49121.05371,2.87793a10.7436,10.7436,0,0,0,.48829,2.62108H125.9748l-.6875-2.08984h-.14453a4.71592,4.71592,0,0,1-1.62793,1.64453,4.938,4.938,0,0,1-2.6416.65137,4.318,4.318,0,0,1-3.36524-1.35352,5.16733,5.16733,0,0,1-1.23047-3.61426,4.62166,4.62166,0,0,1,2.31543-4.38574,11.53722,11.53722,0,0,1,6.26075-1.09668,5.62913,5.62913,0,0,0-.2715-2.87793,1.96079,1.96079,0,0,0-1.93652-.89063,11.02973,11.02973,0,0,0-2.24317.24024,8.6086,8.6086,0,0,0-2.0625.68457Zm5.1748,12.84766a2.57676,2.57676,0,0,0,1.59179-.46289,3.0951,3.0951,0,0,0,.90528-1.00977V65.78365a7.42876,7.42876,0,0,0-1.59278-.03418,4.596,4.596,0,0,0-1.33886.30762,2.15329,2.15329,0,0,0-.92285.70215,1.92957,1.92957,0,0,0-.34375,1.18262,2.47145,2.47145,0,0,0,.45311,1.61035A1.5285,1.5285,0,0,0,122.42892,70.10006Z"/>
      <path class="cls-1" d="M141.49826,73.35494V62.9399a5.32278,5.32278,0,0,0-.46973-2.63867,1.73131,1.73131,0,0,0-1.59277-.75391,2.53328,2.53328,0,0,0-1.62793.54883,2.98825,2.98825,0,0,0-.97656,1.37012V73.35494h-4.30664V56.22408h3.4375l.50683,1.98731h.1084a5.68124,5.68124,0,0,1,1.77344-1.69532,5.44787,5.44787,0,0,1,2.93066-.70312,5.6743,5.6743,0,0,1,1.93653.30859,3.27013,3.27013,0,0,1,1.42871,1.01075,4.687,4.687,0,0,1,.86816,1.88476,12.51668,12.51668,0,0,1,.29,2.92871V73.35494Z"/>
      <path class="cls-1" d="M162.12326,67.32467q0,1.43994.03613,2.87793a27.17566,27.17566,0,0,0,.29,3.18652h-3.04l-.57812-1.9873h-.14549a4.42455,4.42455,0,0,1-4.30567,2.39843,5.1482,5.1482,0,0,1-4.32422-2.05565q-1.57322-2.0552-1.5742-6.68066,0-4.522,1.70117-6.86914a5.85227,5.85227,0,0,1,5.06543-2.34766,8.496,8.496,0,0,1,1.44727.10351,4.85164,4.85164,0,0,1,1.12207.34278V49.37254h4.30566Zm-6.72949,2.74121a2.42371,2.42371,0,0,0,1.55566-.46289,2.76956,2.76956,0,0,0,.86817-1.35254V60.16451a2.24578,2.24578,0,0,0-.81446-.44531,4.17772,4.17772,0,0,0-1.17578-.13672,2.35865,2.35865,0,0,0-2.1709,1.2334,9.3783,9.3783,0,0,0-.72363,4.38476,8.6525,8.6525,0,0,0,.59668,3.61426,1.95872,1.95872,0,0,0,1.86424,1.251Z"/>
      <path class="cls-1" d="M169.758,56.22408V66.46822a6.86758,6.86758,0,0,0,.39843,2.80957,1.47417,1.47417,0,0,0,1.44727.7881,2.28979,2.28979,0,0,0,1.70117-.70215,3.96808,3.96808,0,0,0,.97656-1.69629V56.22408h4.30567V68.14693q0,1.40625.10937,2.75879a13.95467,13.95467,0,0,0,.39746,2.44921H175.8371l-.75977-2.33007h-.1084a5.901,5.901,0,0,1-1.86328,1.98731,5.11769,5.11769,0,0,1-2.91308.78808,6.27428,6.27428,0,0,1-1.99024-.291,3.30886,3.30886,0,0,1-1.4834-1.01075,4.88324,4.88324,0,0,1-.94043-1.96972,12.82823,12.82823,0,0,1-.32617-3.16992V56.22408Z"/>
      <path class="cls-1" d="M191.07053,73.35494V62.9399a5.32312,5.32312,0,0,0-.46973-2.63867,1.73132,1.73132,0,0,0-1.59277-.75391,2.53324,2.53324,0,0,0-1.62793.54883,2.98834,2.98834,0,0,0-.97657,1.37012V73.35494h-4.30664V56.22408h3.4375l.50684,1.98731h.10838a5.68124,5.68124,0,0,1,1.77344-1.69532,5.44787,5.44787,0,0,1,2.93066-.70312,5.6743,5.6743,0,0,1,1.93653.30859,3.27013,3.27013,0,0,1,1.42871,1.01075,4.687,4.687,0,0,1,.86816,1.88476,12.51668,12.51668,0,0,1,.29,2.92871V73.35494Z"/>
      <path class="cls-1" d="M211.65939,73.35494q0,3.73389-1.80859,5.499a6.90324,6.90324,0,0,1-5.03027,1.76465,14.78338,14.78338,0,0,1-3.50977-.32617,8.70885,8.70885,0,0,1-1.9541-.70215l.90527-3.46q.79539.30762,1.71875.582a7.73283,7.73283,0,0,0,2.18848.27442,3.00564,3.00564,0,0,0,2.55174-.94239,4.767,4.767,0,0,0,.70509-2.8603v-.92578h-.10839a3.07314,3.07314,0,0,1-1.35743,1.02832,5.94232,5.94232,0,0,1-2.18847.34278,4.889,4.889,0,0,1-4.28809-2.03907q-1.42971-2.0376-1.42969-6.458,0-4.76221,1.97266-7.02344a7.06318,7.06318,0,0,1,5.62695-2.26172,19.17192,19.17192,0,0,1,3.50977.292,11.82618,11.82618,0,0,1,2.49609.70215Zm-6.69336-3.2207a2.40941,2.40941,0,0,0,1.53711-.44531,2.72684,2.72684,0,0,0,.85059-1.26758V59.85592a4.65721,4.65721,0,0,0-.88672-.27344,5.51828,5.51828,0,0,0-1.13965-.10352,2.3121,2.3121,0,0,0-2.08105,1.2334,8.79562,8.79562,0,0,0-.74121,4.249q0,5.17238,2.4609,5.17288Z"/>
    </g>
    <g>
      <path class="cls-2" d="M41.88126,80.54816l1.38923.00084q.08112.03856-.00073.07573h-1.3879Q41.8001,80.587,41.88126,80.54816Z"/>
      <path class="cls-2" d="M0,38.10948c.14681-.18527.01394-.43308.1546-.61973a3.52942,3.52942,0,0,1-.06954,1.00838Q.04039,38.573,0,38.496Z"/>
      <path class="cls-2" d="M.15555,43.05862C.01392,42.872.1475,42.62358,0,42.43831V42.0518q.04054-.0768.08818-.00373A3.76321,3.76321,0,0,1,.15555,43.05862Z"/>
      <path class="cls-2" d="M85.08258,40.81649l.00023-1.085q.03611-.08.06879.0013V40.815Q85.11907,40.89618,85.08258,40.81649Z"/>
      <path class="cls-2" d="M85.1516,39.73276l-.03437-.002-.03441.00074v-.46383a.37666.37666,0,0,1,.06881.00133Z"/>
      <path class="cls-2" d="M85.08257,40.81649a.44037.44037,0,0,0,.069-.00152v.4638l-.03471.0019L85.08213,41.28Z"/>
      <path class="cls-2" d="M40.32667.06533a.44566.44566,0,0,1,.004-.065h.4082q.08271.03936-.00555.06579Z"/>
      <path class="cls-2" d="M41.71856.00032c-.124.10575-.27376.07118-.41763.06863Q41.2577.04036,41.27627.01938a.04668.04668,0,0,1,.03408-.01906Z"/>
      <path class="cls-2" d="M43.851.0686c-.144.003-.29376.03739-.418-.06828h.4082c.03271.01126.045.0251.03706.04161C43.86975.05969,43.86071.0686,43.851.0686Z"/>
      <path class="cls-2" d="M44.82091.00032a.30612.30612,0,0,1,.00452.06426l-.40727.00178q-.08808-.0267-.00545-.066Z"/>
      <path class="cls-2" d="M41.88126,80.54816q.00123.03828.0006.07657h-.4082l-.0001-.07862A1.09746,1.09746,0,0,1,41.88126,80.54816Z"/>
      <path class="cls-2" d="M43.26976,80.62474q-.00031-.03786.00072-.07573a1.065,1.065,0,0,1,.40761-.00268l-.00013.07841Z"/>
      <path class="cls-2" d="M41.31035.00032Q41.30683.03482,41.301.069L40.97786.06817Q40.90118.028,40.98379.00032Z"/>
      <path class="cls-2" d="M43.851.0686q-.00582-.034-.00977-.06828h.32657q.08175.027.00631.06723Z"/>
      <path class="cls-2" d="M.0841,38.72991c.00847.11135.0248.22463-.0841.30718v-.30921Q.04419,38.64939.0841,38.72991Z"/>
      <path class="cls-2" d="M0,41.5107c.11029.08289.09211.19668.08271.30835Q.04225,41.89771,0,41.8199Z"/>
      <path class="cls-2" d="M40.98379.00032a.37459.37459,0,0,1-.00588.06793L40.73332.06613a.51243.51243,0,0,0,.00554-.06581Z"/>
      <path class="cls-2" d="M44.1741.06755a.44058.44058,0,0,1-.00631-.06723h.24492a.458.458,0,0,0,.00544.06605Z"/>
      <path class="cls-2" d="M.0841,38.72991,0,38.72788V38.496l.08506.00215Z"/>
      <path class="cls-2" d="M0,41.8199l.0827-.00085.00547.229L0,42.0518Z"/>
      <path class="cls-1" d="M85.07924,37.57272A26.81931,26.81931,0,0,0,84.333,31.732a38.51159,38.51159,0,0,0-3.84225-10.0955,40.47039,40.47039,0,0,0-2.84961-4.4505,42.41973,42.41973,0,0,0-4.81932-5.47425A40.44157,40.44157,0,0,0,69.58588,8.9496,41.51415,41.51415,0,0,0,62.971,4.7346a43.47742,43.47742,0,0,0-8.65847-3.3539A35.78075,35.78075,0,0,0,44.806.039h-.9522c-.13992-.0184-.28761.03974-.42053-.039H41.71849c-.13525.07875-.28372.02061-.42519.039h-.95453c-.32647-.00147-.65217.03017-.97631.03165A28.0274,28.0274,0,0,0,34.275.60645,43.82565,43.82565,0,0,0,19.23322,6.4119a41.43287,41.43287,0,0,0-7.494,5.91364c-.48659.485-.97863.96708-1.4388,1.4727a41.1815,41.1815,0,0,0-4.11275,5.316,39.21047,39.21047,0,0,0-3.33855,6.30591A38.57979,38.57979,0,0,0,.82029,31.8041a26.2865,26.2865,0,0,0-.73844,5.726,6.07329,6.07329,0,0,1-.0412.92808v.24066c-.01632.11261.03887.23257-.04042.33782V41.5103c.07929.10746.0241.22889.04042.343v.24141a5.82592,5.82592,0,0,1,.0412.931c-.01321.27084.03265.53947.03653.80884a24.01217,24.01217,0,0,0,.698,4.87811A38.72613,38.72613,0,0,0,5.80753,60.846a41.169,41.169,0,0,0,8.37008,9.60533A43.1548,43.1548,0,0,0,28.048,78.30285a40.318,40.318,0,0,0,13.47313,2.283h2.12128c.74389-.07508,1.49322-.05446,2.23866-.06623a31.5,31.5,0,0,0,6.03893-.786A44.15045,44.15045,0,0,0,63.80814,75.3589a43.7736,43.7736,0,0,0,8.69111-6.2176,39.74108,39.74108,0,0,0,3.04317-3.16546,39.36018,39.36018,0,0,0,4.96623-7.0971,38.58875,38.58875,0,0,0,3.309-8.04284,36.46775,36.46775,0,0,0,1.07969-5.09963,33.78108,33.78108,0,0,0,.21376-4.50422v-1.9246C85.10566,38.729,85.08157,38.14973,85.07924,37.57272Zm-42.686,33.29006C24.46377,70.76784,10.2724,56.9203,10.26851,40.276,10.26539,23.55224,24.58579,9.68262,42.58831,9.67525,60.61648,9.68923,74.926,23.59638,74.89646,40.326c-.02953,16.69143-14.36858,30.63245-32.50324,30.53678Z"/>
      <path class="cls-1" d="M57.39143,45.31013a8.36633,8.36633,0,0,0-5.27017-5.71271,14.4095,14.4095,0,0,0-2.84885-.78971c-.11115-.01913-.21531-.02723-.22-.17148-.00388-.13469.03654-.20166.192-.23772a10.60877,10.60877,0,0,0,1.05325-.29734,8.51935,8.51935,0,0,0,5.50881-4.97378,10.47863,10.47863,0,0,0,.48426-5.935,7.93273,7.93273,0,0,0-4.27832-5.55153A13.95162,13.95162,0,0,0,48.499,20.32862a31.96043,31.96043,0,0,0-6.82867-.76468c-1.68677-.03312-3.37276.01987-5.058.0839-.97785.0368-1.95571.09641-2.932.1678-1.58572.11629-3.16443.29808-4.73849.51446-.50914.06992-.51069.06182-.51069.56082V58.75805a2.4049,2.4049,0,0,1-.00156.2701c-.021.198.04742.29881.27362.3415.81384.15382,1.63.28924,2.454.37609,1.83912.19356,3.68445.3069,5.5329.37167,1.60437.05593,3.21029.01177,4.81544.0287a25.92782,25.92782,0,0,0,5.145-.474A17.59535,17.59535,0,0,0,52.824,57.353a10.04623,10.04623,0,0,0,4.60945-5.96737A11.26271,11.26271,0,0,0,57.39143,45.31013ZM36.317,26.54033c0-.37977.00233-.37756.3871-.41657a39.16931,39.16931,0,0,1,5.49714-.13763,8.48875,8.48875,0,0,1,3.42483.764,4.17024,4.17024,0,0,1,2.55969,3.75279,5.41643,5.41643,0,0,1-.1337,1.64787,4.26181,4.26181,0,0,1-1.40693,2.2131,10.58857,10.58857,0,0,1-3.84225,2.046,7.55457,7.55457,0,0,1-1.7746.20608c-1.466.078-2.93435.08905-4.40191.07655-.30315-.00294-.30859-.00662-.30859-.30618q-.0035-2.49057-.00078-4.9804ZM49.27008,48.94884a5.02149,5.02149,0,0,1-2.4975,3.54745,8.74144,8.74144,0,0,1-3.46991,1.15329,19.83647,19.83647,0,0,1-3.33855.07727c-.96464-.02575-1.92929-.06182-2.89082-.15161-.75632-.07065-.75632-.0655-.75632-.7588V43.0043c0-.09053.00311-.18032,0-.27084-.00233-.10893.04431-.16854.16635-.16486.05363.00221.10882-.00147.16323-.00074,1.78082.00515,3.5632-.03606,5.344.03459a13.0397,13.0397,0,0,1,3.6518.53727,5.92669,5.92669,0,0,1,2.59311,1.61033A4.24873,4.24873,0,0,1,49.295,47.29141,6.53708,6.53708,0,0,1,49.27008,48.94884Z"/>
    </g>
  </g>
</svg>
