<svg width="650" height="95" viewBox="0 0 650 95" fill="none" xmlns="http://www.w3.org/2000/svg">
<g clip-path="url(#clip0_10_8)">
<path d="M422.285 33.696C422.285 25.9564 422.286 18.2168 422.29 10.4773C422.256 9.28498 422.405 8.09462 422.732 6.94817C423.794 3.56822 426.787 1.41143 430.743 1.17303C431.103 1.1513 431.465 1.14209 431.827 1.14202C441.496 1.14039 451.165 1.14051 460.835 1.14239C463.907 1.14382 466.278 2.50398 467.268 4.80704C468.931 8.67321 465.825 13.001 461.34 13.0116C453.019 13.0313 444.699 13.0173 436.378 13.0173C436.148 13.0281 435.917 13.0268 435.688 13.0133C435.21 12.9624 435.071 13.1543 435.073 13.5998C435.086 18.2372 435.093 22.8748 435.069 27.5121C435.065 28.3081 435.625 28.0503 436.01 28.0509C443.804 28.0621 451.599 28.0655 459.394 28.0612C462.875 28.064 465.292 29.8542 465.949 32.8882C466.087 33.7541 466.036 34.6399 465.799 35.4837C465.563 36.3276 465.147 37.1092 464.58 37.774C464.013 38.4388 463.31 38.9707 462.518 39.3327C461.727 39.6948 460.866 39.8781 459.997 39.8699C452.038 39.8842 444.079 39.8783 436.12 39.8522C435.241 39.848 435.053 40.0599 435.059 40.8747C435.1 46.4519 435.083 52.0296 435.08 57.607C435.109 59.2347 434.506 60.8093 433.399 61.9933C432.291 63.1773 430.768 63.8763 429.156 63.9407C427.51 64.0683 425.878 63.5427 424.61 62.4755C423.341 61.4083 422.535 59.8838 422.363 58.2262C422.312 57.728 422.287 57.2275 422.288 56.7267C422.283 49.0498 422.282 41.3729 422.285 33.696Z" fill="white"/>
<path d="M569.571 35.9581C569.571 43.1958 569.571 50.4336 569.57 57.6714C569.596 59.23 569.037 60.741 568.006 61.9016C566.974 63.0622 565.547 63.7868 564.009 63.9303C562.412 64.1065 560.807 63.6819 559.501 62.7379C558.195 61.7939 557.28 60.3969 556.932 58.8145C556.865 58.4132 556.838 58.0061 556.852 57.5994C556.848 43.0925 556.853 28.5856 556.868 14.0787C556.869 13.2456 556.685 12.9843 555.758 12.9941C551.056 13.0442 546.353 13.0373 541.65 13.0091C540.371 13.002 539.124 12.6029 538.075 11.8649C537.026 11.1268 536.224 10.0845 535.775 8.87604C535.39 7.70966 535.389 6.44932 535.771 5.28207C536.152 4.11483 536.897 3.10291 537.894 2.3965C539.272 1.48995 540.9 1.04844 542.542 1.13566C556.322 1.1446 570.101 1.14634 583.881 1.14088C584.538 1.12916 585.194 1.17963 585.842 1.29161C587.278 1.47844 588.595 2.19605 589.537 3.30568C590.479 4.41531 590.98 5.83813 590.943 7.299C590.775 8.85367 590.049 10.2925 588.902 11.3442C587.755 12.3959 586.266 12.9877 584.717 13.008C580.113 13.0433 575.509 13.0114 570.904 13.0206C569.428 13.0235 569.575 12.7962 569.574 14.2447C569.568 21.4825 569.567 28.7203 569.571 35.9581Z" fill="white"/>
<path d="M649.79 42.6079C649.54 40.7596 648.929 38.9798 647.993 37.3718C647.056 35.7637 645.812 34.3595 644.333 33.2405C643.065 32.3561 641.685 31.6491 640.229 31.1387C641.764 30.3645 643.177 29.3678 644.426 28.1802C648.869 23.8183 649.175 15.5371 646.686 10.6983C643.395 4.30073 637.736 1.37406 630.488 1.20663C623.127 1.03659 615.758 1.10975 608.393 1.15429C602.735 1.18842 599.192 4.65703 599.19 10.0393C599.184 24.9516 599.184 39.8639 599.19 54.7761C599.193 60.1687 602.779 63.5639 608.45 63.565C615.421 63.5671 622.392 63.5555 629.363 63.5717C631.465 63.6014 633.565 63.4077 635.627 62.9939C642.95 61.438 647.82 57.4355 649.513 50.2811C649.537 49.6051 649.703 48.9419 650 48.3354V43.0706C649.732 42.9989 649.819 42.7765 649.79 42.6079ZM611.926 13.765C611.921 13.092 612.141 12.9324 612.814 12.9414C615.41 12.9764 618.008 12.9555 621.145 12.9555C623.622 13.0784 626.653 12.7271 629.662 13.1533C633.525 13.7008 635.447 15.8644 635.428 19.6441C635.416 23.3394 633.372 25.6142 629.587 26.1362C628.741 26.2545 627.888 26.3132 627.035 26.312C622.334 26.2982 617.633 26.2924 612.933 26.3193C612.206 26.3233 611.911 26.2094 611.921 25.415C611.969 21.5322 611.96 17.6483 611.926 13.765ZM636.312 48.3626C634.929 50.8945 632.427 51.7482 629.663 51.8779C626.877 52.0089 624.078 51.9068 621.285 51.9068C621.285 51.9175 621.285 51.9282 621.285 51.9386C618.459 51.9386 615.632 51.9181 612.805 51.9533C612.12 51.962 611.923 51.7827 611.927 51.1213C611.957 46.6749 611.945 42.2283 611.939 37.7816C611.939 37.3241 611.881 36.9337 612.609 36.9421C618.261 37.0071 623.917 36.7911 629.564 37.0459C635.815 37.328 639.208 43.0602 636.312 48.3626Z" fill="white"/>
<path d="M531.284 19.869C530.478 16.6731 529.001 13.6889 526.955 11.1179C524.908 8.547 522.338 6.4492 519.419 4.96621C515.341 2.84128 510.863 1.61119 506.28 1.35677C499.848 0.903017 493.397 1.08898 486.958 1.2009C481.676 1.29257 478.469 4.60934 478.467 9.63211C478.464 17.1824 478.464 24.7328 478.466 32.2831C478.466 39.8331 478.466 47.3833 478.467 54.9338C478.467 60.1384 482.077 63.5631 487.565 63.5654C492.366 63.5671 497.167 63.5527 501.968 63.5706C504.825 63.5983 507.679 63.344 510.488 62.8112C521.08 60.7391 528.209 54.9236 531.175 44.9328C533.535 36.7532 533.573 28.0692 531.284 19.869ZM519.165 40.6058C517.616 46.7102 513.272 50.4281 506.75 51.3512C505.125 51.5853 503.484 51.7 501.843 51.6945C498.587 51.6765 495.332 51.667 492.077 51.706C491.339 51.7147 491.141 51.5293 491.144 50.8211C491.174 44.6499 491.162 38.4785 491.162 32.3071C491.162 26.1984 491.177 20.0897 491.142 13.981C491.138 13.1985 491.35 12.9801 492.174 13.0001C496.444 13.1024 500.726 12.8089 504.987 13.1878C511.238 13.743 516.072 16.3134 518.473 22.1534C519.243 24.0106 519.701 25.9843 519.829 27.9934C520.265 32.2067 520.041 36.463 519.165 40.6058Z" fill="white"/>
<path d="M381.956 9.22524C376.858 9.22544 371.76 9.22542 366.663 9.22516C365.206 9.22495 364.554 8.65467 364.547 7.38247C364.541 6.2049 365.329 5.48135 366.698 5.47708C370.907 5.46383 375.117 5.46993 379.327 5.46985C385.246 5.46973 391.166 5.47924 397.086 5.46353C397.536 5.42207 397.987 5.52988 398.371 5.77059C398.755 6.0113 399.051 6.37179 399.213 6.79738C399.354 7.16705 399.372 7.57286 399.265 7.9538C399.157 8.33475 398.93 8.67024 398.618 8.90985C398.456 9.04363 398.268 9.14091 398.065 9.19517C397.863 9.24943 397.652 9.25941 397.446 9.22446C392.282 9.22526 387.119 9.22552 381.956 9.22524Z" fill="white"/>
<path d="M408.342 34.2612C408.358 31.0623 408.216 27.8645 407.915 24.6799C407.512 21.715 407.684 18.6947 407.381 15.6853C407.039 12.2959 407.019 8.84237 406.859 5.41656C406.886 5.14088 406.86 4.86244 406.781 4.59697C406.317 3.59527 405.583 2.74525 404.664 2.14372C403.744 1.54219 402.676 1.21333 401.58 1.19459C399.384 1.07602 397.177 1.14109 394.975 1.14254C383.994 1.14948 373.014 1.16153 362.035 1.17869C360.255 1.18245 357.599 2.61947 357.222 4.34017C356.887 5.96921 356.682 7.62274 356.609 9.28485C356.441 12.2561 356.423 15.2278 356.16 18.2051C355.904 21.1031 355.935 24.0266 355.617 26.9365C355.416 28.7862 355.423 30.6709 355.39 32.5336C355.282 38.7337 355.394 44.9369 355.325 51.1381C355.301 53.2828 357.92 56.3833 360.306 56.6335C361.081 56.7147 361.221 57.045 361.214 57.6529C361.199 58.8432 361.211 60.0335 361.209 61.2236C361.169 61.9131 361.371 62.5947 361.777 63.1502C362.505 63.9913 363.408 64.6585 364.423 65.1034C365.212 65.0872 366.001 65.0709 366.789 65.0545C368.805 64.0042 370.183 62.5892 369.97 60.1981C369.901 59.4219 370.013 58.6309 369.944 57.8547C369.875 57.0719 370.154 56.8611 370.976 56.8648C377.836 56.896 384.697 56.8827 391.557 56.8827C392.116 56.8827 392.676 56.9106 393.231 56.875C393.758 56.8411 393.914 57.0326 393.896 57.5225C393.859 58.4595 393.868 59.3988 393.889 60.3366C393.881 61.3462 394.173 62.3349 394.727 63.1753C395.282 64.0156 396.073 64.669 396.999 65.0511C397.914 65.0496 398.829 65.0483 399.744 65.047C399.902 64.892 400.03 64.6604 400.222 64.5939C400.957 64.3595 401.592 63.8799 402.022 63.2338C402.451 62.5876 402.651 61.8132 402.587 61.0376C402.618 59.8794 402.596 58.72 402.592 57.5609C402.591 57.13 402.654 56.7882 403.204 56.6534C406.549 55.8333 408.423 53.8526 408.43 50.552C408.443 45.1211 408.54 39.6859 408.342 34.2612ZM368.845 50.2344C367.77 50.1418 366.68 50.2156 365.597 50.2159C364.481 50.2159 363.365 50.2127 362.249 50.2168C361.694 50.1988 361.166 49.973 360.767 49.5833C360.367 49.1936 360.126 48.6679 360.09 48.1087C360.054 47.5494 360.226 46.9966 360.571 46.5579C360.917 46.1193 361.412 45.8261 361.96 45.7357C364.322 45.6822 366.687 45.6767 369.048 45.7374C369.341 45.7432 369.63 45.8151 369.892 45.9478C370.154 46.0806 370.384 46.2707 370.564 46.5045C370.744 46.7382 370.87 47.0096 370.933 47.2989C370.996 47.5881 370.994 47.8878 370.927 48.1762C370.816 49.3682 370.176 50.3492 368.845 50.2344ZM401.43 50.2167C400.379 50.2121 399.327 50.2159 398.276 50.2156C397.159 50.2156 396.041 50.2263 394.924 50.2127C394.681 50.2434 394.434 50.2196 394.2 50.143C393.967 50.0664 393.753 49.9388 393.574 49.7695C393.395 49.6001 393.255 49.3931 393.165 49.1631C393.074 48.933 393.035 48.6857 393.049 48.4385C393.038 48.1571 393.042 47.8749 393.048 47.5932C393.031 47.3354 393.07 47.0769 393.163 46.8361C393.255 46.5952 393.399 46.3778 393.584 46.1991C393.769 46.0205 393.991 45.885 394.233 45.8022C394.476 45.7195 394.734 45.6914 394.988 45.7201C397.189 45.6929 399.391 45.6886 401.592 45.7201C403.086 45.7412 403.746 46.5709 403.69 48.2349C403.686 48.52 403.622 48.8009 403.503 49.0595C403.384 49.318 403.212 49.5483 402.999 49.7353C402.786 49.9223 402.536 50.0619 402.266 50.1448C401.995 50.2278 401.711 50.2523 401.43 50.2167ZM401.028 36.4927C400.195 36.6309 399.351 36.6936 398.507 36.6801C392.949 36.674 387.39 36.6729 381.831 36.6769C376.174 36.6769 370.516 36.6766 364.859 36.676C363.607 36.7391 362.36 36.4856 361.23 35.9386C360.721 35.7406 360.283 35.3927 359.973 34.9402C359.663 34.4876 359.495 33.9514 359.491 33.4012C359.505 29.8143 359.856 26.2415 359.973 22.6575C360.044 20.4854 360.051 18.3017 360.278 16.1258C360.295 15.6183 360.411 15.1192 360.621 14.6577C360.831 14.1961 361.129 13.7813 361.5 13.4374C361.87 13.0936 362.304 12.8276 362.777 12.6549C363.251 12.4823 363.753 12.4065 364.256 12.4319C375.528 12.0892 386.803 12.3567 398.077 12.3095C399.441 12.1582 400.817 12.4647 401.991 13.1817C402.372 13.4234 402.69 13.7541 402.918 14.1458C403.146 14.5375 403.277 14.9787 403.3 15.4322C403.418 18.3557 403.625 21.2766 403.767 24.1986C403.912 27.1999 403.951 30.213 404.247 33.2105C404.406 34.8159 403.063 36.1265 401.028 36.4927Z" fill="white"/>
<path d="M126.148 13.608H119.526V35.8661H114.5V13.608H107.878V9.18768H126.148V13.608Z" fill="white"/>
<path d="M134.564 21.3069C134.003 21.0931 133.409 20.9771 132.809 20.9636C132.146 20.9466 131.495 21.1475 130.954 21.5361C130.428 21.9286 130.054 22.4947 129.897 23.1363V35.8661H125.15V16.8095H128.78L129.339 19.0962H129.498C129.802 18.3122 130.321 17.6318 130.994 17.1343C131.651 16.6621 132.441 16.415 133.247 16.4292C133.891 16.4306 134.528 16.5598 135.123 16.8095L134.564 21.3069Z" fill="white"/>
<path d="M137.276 17.9534C138.216 17.4429 139.223 17.0705 140.268 16.8475C141.604 16.5537 142.969 16.4134 144.337 16.4292C146.596 16.4292 148.172 16.988 149.064 18.1054C150.036 19.493 150.507 21.1745 150.4 22.8701C150.4 24.064 150.367 25.2391 150.3 26.3953C150.233 27.5512 150.187 28.6817 150.161 29.7869C150.134 30.8928 150.154 31.9599 150.22 32.9883C150.279 33.979 150.46 34.9585 150.758 35.9041H146.889L146.131 33.5793H145.972C145.534 34.33 144.917 34.9588 144.177 35.4087C143.293 35.9206 142.284 36.1717 141.265 36.1333C140.576 36.1688 139.887 36.0526 139.246 35.7926C138.606 35.5326 138.029 35.1351 137.556 34.6276C136.612 33.5113 136.126 32.0728 136.199 30.6071C136.121 29.6332 136.32 28.657 136.772 27.7929C137.224 26.9289 137.911 26.2127 138.752 25.7283C140.894 24.6776 143.285 24.2549 145.653 24.5083C145.832 23.4331 145.728 22.3296 145.354 21.3069C145.131 20.9516 144.811 20.669 144.432 20.4932C144.053 20.3175 143.632 20.256 143.219 20.3161C142.388 20.3197 141.56 20.4092 140.747 20.5834C139.96 20.7393 139.196 20.9952 138.473 21.3449L137.276 17.9534ZM142.98 32.2453C143.606 32.2734 144.222 32.0924 144.735 31.7304C145.146 31.435 145.487 31.0514 145.733 30.6071V27.4437C145.151 27.3675 144.562 27.3548 143.977 27.4056C143.471 27.4444 142.974 27.5598 142.501 27.7478C142.098 27.9094 141.746 28.1796 141.484 28.5289C141.219 28.9139 141.086 29.376 141.105 29.8445C141.06 30.482 141.237 31.1155 141.605 31.6359C141.772 31.8379 141.983 31.9981 142.221 32.1039C142.46 32.2096 142.72 32.2581 142.98 32.2453Z" fill="white"/>
<path d="M164.002 35.8661V24.2803C164.08 23.2733 163.902 22.2629 163.484 21.345C163.293 21.0594 163.029 20.8309 162.72 20.6834C162.411 20.5359 162.069 20.4747 161.728 20.5063C161.078 20.4927 160.443 20.7086 159.934 21.1169C159.438 21.5104 159.064 22.0394 158.857 22.641V35.8661H154.11V16.8095H157.899L158.458 19.0202H158.577C159.085 18.2554 159.752 17.6117 160.532 17.1343C161.515 16.5722 162.635 16.3011 163.763 16.3521C164.489 16.3407 165.211 16.4568 165.898 16.6954C166.514 16.9188 167.059 17.3075 167.473 17.8198C167.943 18.4377 168.27 19.1541 168.43 19.9164C168.663 20.9859 168.77 22.0795 168.749 23.1743V35.8661H164.002Z" fill="white"/>
<path d="M179.12 30.7972C179.125 30.5466 179.08 30.2976 178.987 30.065C178.895 29.8324 178.757 29.621 178.581 29.4436C178.172 29.0383 177.709 28.692 177.206 28.4148C176.647 28.0976 176.055 27.7739 175.431 27.4436C174.795 27.1059 174.2 26.6966 173.655 26.2237C173.09 25.7331 172.623 25.138 172.28 24.4703C171.893 23.6635 171.708 22.7737 171.74 21.8783C171.693 21.1233 171.804 20.3668 172.065 19.6577C172.326 18.9486 172.732 18.3028 173.256 17.7622C174.503 16.7143 176.105 16.1953 177.724 16.3141C178.837 16.3082 179.948 16.4299 181.035 16.6769C181.898 16.8537 182.73 17.1552 183.508 17.572L182.391 21.0788C181.792 20.8448 181.179 20.6475 180.556 20.4878C179.866 20.3008 179.156 20.2048 178.442 20.2021C177.139 20.2021 176.488 20.7228 176.488 21.7642C176.483 21.9922 176.529 22.2184 176.622 22.4261C176.715 22.6339 176.853 22.8179 177.026 22.9646C177.449 23.3264 177.91 23.6397 178.402 23.8989C178.96 24.2042 179.552 24.5217 180.177 24.8516C180.816 25.1916 181.411 25.6073 181.952 26.09C182.521 26.5993 182.988 27.2141 183.328 27.901C183.711 28.722 183.896 29.6229 183.867 30.5299C183.9 31.3147 183.768 32.0976 183.479 32.827C183.19 33.5563 182.751 34.2156 182.191 34.7612C180.797 35.9246 179.01 36.498 177.206 36.3614C176.124 36.3625 175.046 36.2345 173.994 35.9801C173.103 35.7898 172.247 35.4553 171.461 34.9894L172.778 31.3306C173.395 31.6602 174.043 31.9283 174.712 32.1312C175.455 32.3615 176.228 32.4772 177.005 32.4745C177.539 32.4959 178.067 32.3563 178.521 32.0736C178.723 31.9322 178.884 31.7399 178.989 31.5159C179.094 31.292 179.139 31.0442 179.12 30.7972Z" fill="white"/>
<path d="M186.778 16.8095H190.329L190.808 18.9821H190.927C191.443 18.159 192.148 17.4728 192.981 16.9811C193.851 16.5356 194.818 16.3193 195.793 16.3521C196.676 16.298 197.558 16.4707 198.357 16.8541C199.156 17.2375 199.845 17.819 200.361 18.5443C201.385 20.0055 201.896 22.4382 201.896 25.8424C201.896 29.2481 201.258 31.8589 199.982 33.6749C199.362 34.5651 198.528 35.282 197.558 35.7585C196.588 36.2349 195.515 36.4555 194.438 36.3995C193.889 36.408 193.34 36.357 192.801 36.2474C192.354 36.1471 191.924 35.9802 191.526 35.752V43.4889H186.778V16.8095ZM191.526 31.5979C191.784 31.8473 192.089 32.0417 192.423 32.1693C192.84 32.3096 193.28 32.374 193.72 32.3594C194.225 32.369 194.723 32.2325 195.154 31.9659C195.585 31.6993 195.932 31.3138 196.153 30.8548C196.826 29.2358 197.113 27.4798 196.99 25.7284C197.066 24.3575 196.848 22.9862 196.352 21.7078C196.173 21.2978 195.876 20.9524 195.498 20.7174C195.12 20.4824 194.681 20.369 194.238 20.3923C193.596 20.3879 192.974 20.6105 192.478 21.0214C191.983 21.4322 191.646 22.0053 191.526 22.641L191.526 31.5979Z" fill="white"/>
<path d="M204.289 26.3378C204.289 22.9592 204.981 20.444 206.364 18.792C207.078 17.9625 207.97 17.3081 208.972 16.8788C209.974 16.4494 211.061 16.2563 212.148 16.3141C213.265 16.2296 214.386 16.4135 215.419 16.8508C216.453 17.2882 217.368 17.9665 218.091 18.8301C219.394 20.5063 220.045 23.0088 220.045 26.3377C220.045 29.7434 219.354 32.2652 217.972 33.903C217.248 34.7303 216.348 35.3813 215.34 35.8071C214.331 36.233 213.24 36.4225 212.148 36.3615C206.908 36.3615 204.289 33.0202 204.289 26.3378ZM209.196 26.3378C209.129 27.8424 209.359 29.3454 209.874 30.7592C210.04 31.2293 210.349 31.6341 210.758 31.915C211.167 32.1958 211.654 32.3381 212.148 32.3213C212.613 32.3391 213.073 32.2209 213.472 31.9809C213.872 31.741 214.195 31.3895 214.401 30.9688C214.996 29.5028 215.249 27.9182 215.14 26.3378C215.212 24.8204 214.982 23.3038 214.461 21.8783C214.283 21.4111 213.964 21.0124 213.549 20.7388C213.134 20.4652 212.643 20.3306 212.148 20.3542C211.696 20.3513 211.253 20.4766 210.868 20.716C210.484 20.9553 210.173 21.299 209.973 21.7078C209.349 23.1655 209.082 24.7538 209.196 26.3378Z" fill="white"/>
<path d="M232.57 21.3069C232.008 21.0931 231.415 20.9771 230.815 20.9636C230.152 20.9466 229.501 21.1475 228.96 21.5361C228.433 21.9286 228.059 22.4947 227.903 23.1363V35.8661H223.155V16.8095H226.786L227.344 19.0962H227.504C227.808 18.3122 228.327 17.6317 229 17.1343C229.657 16.6621 230.447 16.415 231.253 16.4292C231.897 16.4306 232.534 16.5598 233.129 16.8095L232.57 21.3069Z" fill="white"/>
<path d="M234.684 16.8095H236.878V13.2278L241.625 11.8166V16.8095H245.495V20.8496H241.625V29.1579C241.575 29.9483 241.69 30.7404 241.964 31.4827C242.075 31.7071 242.251 31.8926 242.468 32.015C242.685 32.1375 242.933 32.1912 243.181 32.1693C243.543 32.1732 243.904 32.135 244.258 32.0552C244.611 31.9673 244.958 31.8525 245.294 31.7119L245.893 35.3327C245.24 35.6357 244.558 35.8719 243.858 36.0377C243.062 36.231 242.245 36.327 241.425 36.3234C240.801 36.3715 240.173 36.2841 239.585 36.0671C238.997 35.8501 238.462 35.5086 238.015 35.0654C237.141 33.8409 236.737 32.3377 236.878 30.8352V20.8496H234.684L234.684 16.8095Z" fill="white"/>
<path d="M255.425 16.8095H257.579V15.7427C257.579 13.3288 258.051 11.582 258.996 10.5021C259.511 9.94788 260.141 9.51528 260.84 9.23528C261.54 8.95527 262.293 8.83477 263.044 8.8824C264.536 8.83939 266.023 9.07208 267.431 9.56897L266.554 13.4179C266.143 13.2574 265.715 13.1487 265.278 13.0942C264.894 13.0554 264.507 13.0362 264.121 13.0366C263.816 12.9944 263.505 13.0557 263.238 13.2108C262.971 13.3659 262.762 13.6061 262.645 13.8938C262.385 14.8422 262.277 15.8266 262.326 16.8095H265.716V20.8496H262.326V35.8661H257.579V20.8496H255.425V16.8095Z" fill="white"/>
<path d="M267.152 26.3378C267.152 22.9592 267.844 20.444 269.227 18.792C269.941 17.9625 270.833 17.3081 271.835 16.8788C272.838 16.4494 273.924 16.2563 275.011 16.3141C276.128 16.2296 277.25 16.4135 278.283 16.8508C279.316 17.2882 280.232 17.9665 280.955 18.8301C282.257 20.5063 282.909 23.0088 282.909 26.3377C282.909 29.7434 282.218 32.2652 280.835 33.903C280.112 34.7303 279.212 35.3813 278.203 35.8071C277.194 36.233 276.103 36.4225 275.011 36.3615C269.772 36.3615 267.152 33.0202 267.152 26.3378ZM272.059 26.3378C271.992 27.8424 272.223 29.3454 272.738 30.7592C272.903 31.2293 273.213 31.6341 273.622 31.915C274.03 32.1958 274.517 32.3381 275.011 32.3213C275.476 32.3391 275.936 32.2209 276.336 31.9809C276.736 31.741 277.058 31.3895 277.264 30.9688C277.859 29.5028 278.112 27.9182 278.003 26.3378C278.076 24.8204 277.845 23.3038 277.325 21.8783C277.147 21.4111 276.827 21.0124 276.412 20.7388C275.997 20.4652 275.507 20.3306 275.011 20.3542C274.559 20.3513 274.116 20.4766 273.731 20.716C273.347 20.9553 273.037 21.299 272.837 21.7078C272.212 23.1655 271.945 24.7538 272.059 26.3378Z" fill="white"/>
<path d="M295.434 21.3069C294.873 21.0931 294.279 20.9771 293.679 20.9636C293.016 20.9466 292.365 21.1475 291.825 21.5361C291.298 21.9286 290.924 22.4947 290.767 23.1363V35.8661H286.02V16.8095H289.65L290.209 19.0962H290.368C290.672 18.3122 291.191 17.6317 291.864 17.1343C292.521 16.6621 293.311 16.415 294.118 16.4292C294.761 16.4306 295.399 16.5598 295.993 16.8095L295.434 21.3069Z" fill="white"/>
<path d="M125.31 61.0963C125.31 61.7569 125.236 62.4153 125.091 63.0594C124.947 63.7002 124.712 64.3165 124.392 64.8888C124.069 65.4649 123.643 65.9755 123.136 66.3944C122.587 66.8428 121.957 67.1793 121.281 67.3852V67.6133C121.912 67.7635 122.522 67.9942 123.096 68.2999C123.671 68.6083 124.18 69.0293 124.592 69.5383C125.042 70.1063 125.387 70.7519 125.609 71.4438C125.878 72.3003 126.006 73.1952 125.988 74.0933C126.019 75.3227 125.766 76.5424 125.25 77.6565C124.788 78.6241 124.104 79.4668 123.255 80.115C122.376 80.7702 121.381 81.2489 120.324 81.5251C119.165 81.835 117.972 81.9888 116.773 81.9824H115.337C114.753 81.9824 114.121 81.9632 113.442 81.9248C112.764 81.8868 112.066 81.8296 111.349 81.7532C110.677 81.6851 110.01 81.5708 109.354 81.411V55.1128C110.232 54.9607 111.316 54.8274 112.605 54.713C113.895 54.5979 115.178 54.5406 116.455 54.5414C117.583 54.5383 118.711 54.6273 119.825 54.8075C120.822 54.9579 121.783 55.2942 122.658 55.7994C123.467 56.2807 124.135 56.971 124.592 57.7993C125.109 58.8176 125.356 59.9533 125.31 61.0963ZM115.537 66.2413C115.829 66.2413 116.168 66.2224 116.555 66.1848C116.869 66.157 117.182 66.1124 117.491 66.0512C118.257 65.7758 118.938 65.3027 119.466 64.6791C120.032 63.9835 120.323 63.1014 120.284 62.2022C120.299 61.6302 120.204 61.0607 120.005 60.5249C119.845 60.1053 119.585 59.7321 119.247 59.4386C118.915 59.1652 118.527 58.97 118.11 58.8672C117.647 58.75 117.171 58.6923 116.694 58.6955C115.919 58.6718 115.145 58.7228 114.38 58.8476V66.2413H115.537ZM116.893 77.8282C117.909 77.8662 118.899 77.4963 119.645 76.7994C120.023 76.401 120.314 75.9273 120.5 75.4087C120.685 74.8901 120.761 74.3381 120.723 73.7881C120.752 73.1024 120.629 72.4189 120.363 71.7871C120.153 71.3257 119.822 70.9306 119.406 70.6442C118.991 70.371 118.521 70.195 118.03 70.1293C117.495 70.052 116.955 70.0139 116.415 70.0152H114.38V77.599C114.738 77.6997 115.106 77.7573 115.477 77.7706C115.996 77.8086 116.468 77.8278 116.893 77.8282Z" fill="white"/>
<path d="M129.258 63.6884C130.198 63.1779 131.205 62.8055 132.25 62.5825C133.586 62.2887 134.951 62.1484 136.319 62.1642C138.578 62.1642 140.154 62.723 141.046 63.8404C142.018 65.228 142.489 66.9095 142.382 68.6051C142.382 69.799 142.349 70.9741 142.282 72.1303C142.215 73.2862 142.169 74.4167 142.143 75.5219C142.116 76.6278 142.136 77.6949 142.202 78.7233C142.261 79.714 142.442 80.6935 142.74 81.6391H138.871L138.113 79.3143H137.954C137.516 80.065 136.899 80.6938 136.159 81.1437C135.275 81.6556 134.266 81.9067 133.247 81.8683C132.558 81.9038 131.869 81.7876 131.228 81.5276C130.588 81.2676 130.011 80.8701 129.538 80.3626C128.594 79.2463 128.108 77.8078 128.181 76.3421C128.103 75.3681 128.302 74.392 128.754 73.5279C129.206 72.6639 129.893 71.9477 130.734 71.4633C132.876 70.4126 135.267 69.9899 137.635 70.2433C137.814 69.1681 137.71 68.0646 137.336 67.0419C137.113 66.6866 136.793 66.404 136.414 66.2282C136.035 66.0524 135.614 65.9909 135.201 66.0511C134.37 66.0547 133.542 66.1442 132.729 66.3184C131.942 66.4743 131.178 66.7302 130.455 67.0799L129.258 63.6884ZM134.962 77.9803C135.588 78.0084 136.204 77.8274 136.717 77.4654C137.128 77.17 137.469 76.7864 137.715 76.3421V73.1787C137.133 73.1025 136.544 73.0898 135.959 73.1406C135.453 73.1794 134.956 73.2948 134.483 73.4828C134.08 73.6444 133.728 73.9146 133.466 74.2639C133.201 74.6489 133.068 75.111 133.087 75.5795C133.042 76.217 133.219 76.8505 133.587 77.3709C133.754 77.5729 133.965 77.7331 134.203 77.8389C134.442 77.9446 134.702 77.993 134.962 77.9803Z" fill="white"/>
<path d="M155.984 81.6011V70.0152C156.062 69.0082 155.884 67.9978 155.466 67.0799C155.275 66.7943 155.011 66.5658 154.702 66.4183C154.393 66.2708 154.051 66.2096 153.71 66.2413C153.06 66.2276 152.425 66.4436 151.916 66.8518C151.42 67.2453 151.046 67.7743 150.839 68.3759V81.6011H146.092V62.5444H149.881L150.44 64.7552H150.559C151.067 63.9904 151.734 63.3467 152.514 62.8693C153.497 62.3072 154.617 62.0361 155.745 62.0871C156.471 62.0756 157.193 62.1918 157.88 62.4304C158.496 62.6538 159.041 63.0425 159.455 63.5548C159.925 64.1727 160.252 64.8891 160.412 65.6514C160.645 66.7209 160.752 67.8144 160.731 68.9093V81.6011H155.984Z" fill="white"/>
<path d="M178.72 74.8929C178.72 75.9608 178.734 77.0279 178.76 78.0944C178.798 79.2812 178.904 80.4649 179.08 81.6391H175.729L175.091 79.4284H174.931C174.491 80.298 173.805 81.016 172.96 81.4911C172.115 81.9662 171.149 82.1769 170.185 82.0964C169.266 82.1334 168.352 81.9446 167.522 81.5463C166.691 81.148 165.969 80.552 165.418 79.8097C164.261 78.2855 163.683 75.8083 163.682 72.378C163.682 69.0245 164.307 66.4774 165.558 64.7367C166.199 63.8665 167.046 63.1717 168.021 62.7157C168.996 62.2596 170.069 62.0566 171.142 62.1251C171.676 62.1175 172.209 62.1561 172.737 62.2403C173.163 62.3164 173.578 62.4445 173.974 62.6216V54.9227H178.72V74.8929ZM171.302 77.9423C171.915 77.9746 172.521 77.7928 173.017 77.4273C173.476 77.0323 173.809 76.5087 173.974 75.9228V66.9278C173.712 66.7014 173.406 66.5327 173.076 66.4325C172.653 66.32 172.217 66.2687 171.78 66.2804C171.294 66.2602 170.812 66.3781 170.389 66.6207C169.966 66.8632 169.619 67.2207 169.387 67.6524C168.737 69.1903 168.464 70.8632 168.589 72.5301C168.521 73.9023 168.746 75.2732 169.247 76.5507C169.407 76.9672 169.69 77.3241 170.057 77.5731C170.425 77.822 170.859 77.9509 171.302 77.9423Z" fill="white"/>
<path d="M187.137 62.5444V73.9402C187.066 75.0015 187.215 76.066 187.576 77.0656C187.725 77.3554 187.957 77.5937 188.241 77.7499C188.525 77.9061 188.849 77.9731 189.171 77.9423C189.52 77.9501 189.867 77.8847 190.19 77.7502C190.513 77.6158 190.805 77.4152 191.047 77.1612C191.556 76.6328 191.926 75.984 192.123 75.2742V62.5444H196.87V75.8076C196.87 76.8505 196.91 77.8735 196.99 78.8765C197.056 79.796 197.202 80.7078 197.428 81.6011H193.838L193.001 79.009H192.881C192.377 79.8975 191.673 80.6546 190.827 81.2198C189.868 81.8311 188.749 82.1366 187.616 82.0964C186.872 82.1083 186.131 81.999 185.422 81.7727C184.784 81.5571 184.219 81.168 183.787 80.6484C183.282 80.0063 182.927 79.2572 182.75 78.4572C182.485 77.3014 182.364 76.1169 182.39 74.9309V62.5444H187.137Z" fill="white"/>
<path d="M210.631 81.6011V70.0152C210.709 69.0082 210.531 67.9978 210.113 67.0799C209.922 66.7943 209.658 66.5658 209.349 66.4183C209.04 66.2708 208.698 66.2096 208.357 66.2413C207.707 66.2276 207.072 66.4436 206.563 66.8518C206.067 67.2453 205.693 67.7743 205.486 68.3759V81.6011H200.739V62.5444H204.528L205.087 64.7552H205.206C205.714 63.9904 206.381 63.3467 207.161 62.8693C208.144 62.3072 209.264 62.0361 210.392 62.0871C211.118 62.0756 211.84 62.1918 212.527 62.4304C213.143 62.6538 213.688 63.0425 214.102 63.5548C214.572 64.1727 214.899 64.8891 215.059 65.6514C215.292 66.7209 215.399 67.8144 215.379 68.9093V81.6011H210.631Z" fill="white"/>
<path d="M233.328 81.6011C233.328 84.3702 232.663 86.4092 231.334 87.7182C230.585 88.4 229.709 88.9247 228.757 89.2617C227.805 89.5987 226.796 89.7413 225.789 89.6813C224.489 89.7164 223.19 89.5946 221.92 89.3184C221.173 89.1457 220.45 88.8835 219.766 88.5373L220.763 84.6884C221.348 84.9165 221.98 85.1323 222.658 85.3358C223.444 85.5534 224.256 85.6562 225.071 85.6411C225.588 85.7018 226.113 85.6386 226.601 85.4564C227.09 85.2743 227.529 84.9784 227.884 84.5927C228.469 83.6415 228.741 82.5277 228.661 81.4109V80.3811H228.541C228.159 80.897 227.641 81.2935 227.045 81.525C226.272 81.8036 225.453 81.9329 224.633 81.9063C223.719 81.9646 222.805 81.787 221.978 81.3901C221.151 80.9932 220.438 80.3902 219.905 79.638C218.855 78.1269 218.329 75.7322 218.329 72.454C218.329 68.9223 219.054 66.318 220.504 64.6411C221.288 63.7832 222.251 63.1123 223.324 62.6771C224.397 62.2419 225.553 62.0533 226.707 62.1251C228.004 62.1133 229.299 62.2221 230.576 62.4499C231.519 62.6077 232.442 62.8696 233.328 63.231V81.6011ZM225.949 78.0183C226.553 78.0528 227.151 77.8781 227.644 77.5229C228.083 77.1526 228.408 76.6634 228.581 76.1129V66.5846C228.266 66.4506 227.939 66.3487 227.604 66.2804C227.19 66.1982 226.769 66.1596 226.347 66.1652C225.877 66.1579 225.413 66.2822 225.008 66.5243C224.603 66.7665 224.273 67.1171 224.053 67.5373C223.396 69.02 223.116 70.6444 223.236 72.2639C223.236 76.0998 224.141 78.0179 225.949 78.0183Z" fill="white"/>
<path d="M350.705 75.1851H357.776V76.6843H352.41V82.0508H357.413V83.5499H352.41V90.3939H350.705V75.1851Z" fill="white"/>
<path d="M359.71 84.9622C359.592 83.4472 359.963 81.9344 360.767 80.6494C361.122 80.1919 361.582 79.8277 362.106 79.5875C362.631 79.3474 363.205 79.2384 363.78 79.2697C364.37 79.2244 364.962 79.3301 365.5 79.577C366.039 79.8239 366.507 80.2039 366.861 80.682C367.61 81.9759 367.955 83.4675 367.851 84.9622C367.972 86.4825 367.596 88.001 366.782 89.2858C366.425 89.7382 365.967 90.0984 365.445 90.3364C364.923 90.5745 364.352 90.6835 363.78 90.6546C363.19 90.7 362.598 90.5944 362.06 90.3475C361.521 90.1007 361.053 89.7205 360.698 89.2424C359.95 87.9483 359.605 86.4567 359.71 84.9622ZM361.415 84.9622C361.411 85.544 361.452 86.1253 361.54 86.7004C361.607 87.168 361.745 87.6224 361.949 88.0474C362.117 88.3994 362.372 88.7023 362.689 88.9273C363.012 89.1433 363.393 89.2533 363.78 89.2424C364.14 89.2577 364.496 89.1711 364.81 88.9926C365.123 88.8141 365.381 88.5506 365.553 88.2321C366.018 87.2092 366.222 86.0849 366.144 84.9622C366.147 84.384 366.106 83.8065 366.019 83.2349C365.954 82.7636 365.816 82.3054 365.61 81.877C365.442 81.525 365.187 81.2221 364.871 80.9971C364.548 80.7813 364.167 80.6712 363.78 80.682C363.421 80.6699 363.066 80.7591 362.755 80.9395C362.444 81.1199 362.188 81.3844 362.018 81.7032C361.546 82.7203 361.339 83.8419 361.415 84.9622Z" fill="white"/>
<path d="M370.26 79.5305H371.42L371.715 80.682H371.784C371.975 80.2879 372.26 79.948 372.613 79.6934C372.98 79.4469 373.413 79.3216 373.853 79.3349C374.255 79.3435 374.653 79.4093 375.035 79.5305L374.717 81.1165C374.381 80.9967 374.028 80.9307 373.672 80.921C373.241 80.9017 372.819 81.045 372.488 81.323C372.178 81.6047 371.97 81.9834 371.897 82.3984V90.3939H370.26L370.26 79.5305Z" fill="white"/>
<path d="M378.196 79.5305V86.1789C378.145 86.9811 378.266 87.785 378.549 88.5363C378.669 88.7697 378.856 88.9616 379.084 89.0874C379.313 89.2132 379.574 89.2672 379.834 89.2424C380.128 89.2475 380.42 89.1844 380.686 89.0577C380.936 88.9353 381.163 88.7699 381.357 88.5689C381.559 88.3595 381.734 88.126 381.88 87.8736C382.029 87.6193 382.151 87.3499 382.244 87.0697V79.5305H383.881V87.3087C383.881 87.8302 383.9 88.3697 383.938 88.9274C383.968 89.419 384.025 89.9086 384.108 90.3939H382.949L382.54 88.873H382.471C382.198 89.3689 381.817 89.796 381.357 90.1223C380.823 90.4922 380.186 90.6789 379.539 90.6546C379.108 90.6625 378.678 90.6039 378.265 90.4808C377.901 90.3648 377.578 90.1462 377.333 89.8507C377.045 89.4858 376.847 89.0579 376.753 88.6014C376.609 87.9343 376.544 87.2525 376.559 86.57V79.5305H378.196Z" fill="white"/>
<path d="M392.135 90.3939V83.941C392.135 83.362 392.116 82.8659 392.078 82.4528C392.056 82.1047 391.975 81.763 391.839 81.4425C391.737 81.2024 391.562 81.001 391.34 80.8667C391.08 80.7327 390.79 80.6691 390.498 80.682C390.252 80.6782 390.008 80.7276 389.782 80.8269C389.557 80.9262 389.355 81.0731 389.191 81.2578C388.842 81.6286 388.588 82.0799 388.451 82.5723V90.3939H386.814V79.5305H387.974L388.269 80.682H388.338C388.647 80.2696 389.033 79.9226 389.475 79.6608C389.991 79.3813 390.572 79.2462 391.158 79.2697C391.656 79.2493 392.149 79.3737 392.579 79.6282C393.003 79.9412 393.311 80.3887 393.454 80.8993C393.723 80.3962 394.13 79.9815 394.625 79.7043C395.135 79.4139 395.712 79.264 396.297 79.2697C396.732 79.2603 397.166 79.3227 397.581 79.4544C397.931 79.5726 398.234 79.8011 398.446 80.1062C398.691 80.481 398.857 80.9025 398.935 81.3446C399.052 81.9859 399.105 82.6372 399.094 83.2891V90.3938H397.457V83.4848C397.49 82.7707 397.394 82.0563 397.172 81.3773C397.056 81.1363 396.866 80.9391 396.631 80.8141C396.396 80.6891 396.127 80.6428 395.864 80.682C395.613 80.6694 395.361 80.7081 395.125 80.7959C394.888 80.8836 394.672 81.0185 394.489 81.1926C394.125 81.5749 393.877 82.0533 393.773 82.5723V90.3939L392.135 90.3939Z" fill="white"/>
<path d="M407.006 75.1851C407.274 75.1386 407.543 75.106 407.814 75.0874C408.109 75.0656 408.408 75.0512 408.712 75.0439C409.015 75.0363 409.315 75.0298 409.61 75.0222C409.906 75.0146 410.182 75.011 410.44 75.0113C411.408 74.9838 412.37 75.1691 413.26 75.5545C414.012 75.899 414.662 76.4342 415.147 77.108C415.655 77.8354 416.011 78.6597 416.194 79.5305C416.614 81.5578 416.617 83.6504 416.204 85.6792C416.023 86.5786 415.672 87.4343 415.17 88.1995C414.679 88.9284 414.02 89.5251 413.248 89.9377C412.321 90.4024 411.293 90.6264 410.258 90.5895C410.061 90.5895 409.81 90.5858 409.507 90.5786C409.205 90.571 408.889 90.5569 408.564 90.5351C408.238 90.5134 407.935 90.4953 407.655 90.4808C407.437 90.4735 407.221 90.4517 407.006 90.4157V75.1851ZM410.531 76.5105H410.042C409.868 76.5105 409.697 76.5181 409.531 76.5322C409.363 76.5463 409.208 76.5615 409.065 76.5756C408.921 76.5898 408.803 76.605 408.712 76.6191V89.0034C408.821 89.0227 408.931 89.0336 409.041 89.036C409.2 89.0436 409.367 89.0501 409.542 89.0577C409.716 89.0653 409.883 89.0718 410.042 89.0795C410.202 89.0871 410.319 89.0903 410.394 89.0903C411.126 89.1163 411.851 88.9357 412.487 88.5689C413.043 88.2256 413.501 87.7428 413.817 87.1675C414.16 86.531 414.394 85.8405 414.51 85.1252C414.65 84.3109 414.719 83.4857 414.716 82.6592C414.716 81.9022 414.655 81.1465 414.534 80.3996C414.429 79.712 414.21 79.0473 413.886 78.4333C413.582 77.8701 413.145 77.3922 412.612 77.0428C411.985 76.6639 411.261 76.4788 410.531 76.5105Z" fill="white"/>
<path d="M419.036 76.228C419.023 75.9157 419.133 75.611 419.342 75.3807C419.447 75.2719 419.572 75.1867 419.712 75.1305C419.851 75.0743 420 75.0485 420.15 75.0547C420.457 75.0447 420.755 75.158 420.98 75.3698C421.092 75.4813 421.179 75.6155 421.235 75.7634C421.292 75.9113 421.317 76.0696 421.309 76.228C421.317 76.3799 421.292 76.5318 421.235 76.6727C421.178 76.8135 421.091 76.9399 420.98 77.0427C420.75 77.2422 420.453 77.3469 420.15 77.3361C420.002 77.3428 419.854 77.3193 419.715 77.267C419.577 77.2147 419.45 77.1348 419.342 77.0319C419.239 76.9264 419.159 76.8006 419.106 76.6623C419.053 76.524 419.029 76.3761 419.036 76.228ZM419.332 79.5305H420.969V90.3939H419.332V79.5305Z" fill="white"/>
<path d="M424.038 88.6123C424.38 88.8024 424.743 88.9519 425.119 89.0577C425.536 89.1808 425.969 89.243 426.403 89.2424C426.855 89.2565 427.299 89.1306 427.677 88.8817C427.856 88.7483 427.998 88.5708 428.09 88.3661C428.181 88.1615 428.219 87.9365 428.2 87.7128C428.216 87.3163 428.104 86.9252 427.882 86.5982C427.656 86.2941 427.383 86.0285 427.074 85.8118C426.738 85.5719 426.384 85.3573 426.017 85.1697C425.639 84.9763 425.285 84.7402 424.96 84.4658C424.635 84.1931 424.361 83.8634 424.152 83.4924C423.925 83.0519 423.815 82.5592 423.834 82.0628C423.806 81.6779 423.862 81.2916 423.997 80.9307C424.133 80.5699 424.345 80.2433 424.619 79.9738C425.245 79.4693 426.035 79.2184 426.835 79.2698C427.378 79.2615 427.92 79.3161 428.45 79.4328C428.863 79.5255 429.261 79.6753 429.633 79.8782L429.2 81.1818C428.526 80.8559 427.788 80.6852 427.041 80.682C426.617 80.6458 426.195 80.7612 425.847 81.008C425.713 81.1396 425.61 81.2994 425.545 81.476C425.48 81.6526 425.455 81.8415 425.471 82.0292C425.462 82.3659 425.575 82.6944 425.79 82.9526C426.023 83.2241 426.295 83.4585 426.597 83.6478C426.922 83.8575 427.275 84.0711 427.654 84.2888C428.033 84.5064 428.388 84.765 428.712 85.0601C429.042 85.3627 429.316 85.7234 429.519 86.1246C429.747 86.6093 429.856 87.142 429.838 87.6781C429.839 88.0713 429.77 88.4616 429.633 88.8296C429.498 89.1884 429.284 89.5115 429.008 89.7748C428.704 90.0564 428.349 90.2743 427.961 90.4157C427.491 90.5842 426.994 90.6652 426.495 90.6547C425.913 90.664 425.333 90.602 424.766 90.47C424.335 90.3693 423.922 90.2046 423.539 89.9812L424.038 88.6123Z" fill="white"/>
<path d="M434.636 85.5054H433.771V90.3939H432.134V75.1851H433.771V84.4408L434.522 84.1366L437.183 79.5305H439.07L436.386 83.9193L435.591 84.6146L436.523 85.4619L439.457 90.3939H437.5L434.636 85.5054Z" fill="white"/>
<path d="M442.661 79.5305V86.1789C442.611 86.9811 442.731 87.785 443.014 88.5363C443.134 88.7697 443.321 88.9616 443.55 89.0874C443.778 89.2132 444.039 89.2672 444.299 89.2424C444.593 89.2475 444.885 89.1844 445.151 89.0577C445.401 88.9353 445.628 88.7699 445.822 88.5689C446.024 88.3595 446.2 88.126 446.345 87.8736C446.494 87.6193 446.616 87.3499 446.709 87.0697V79.5305H448.346V87.3087C448.346 87.8302 448.365 88.3697 448.404 88.9274C448.434 89.419 448.49 89.9086 448.574 90.3939H447.414L447.005 88.873H446.936C446.663 89.3689 446.282 89.796 445.822 90.1223C445.288 90.4922 444.651 90.6789 444.004 90.6546C443.573 90.6625 443.143 90.6039 442.73 90.4808C442.366 90.3648 442.043 90.1462 441.798 89.8507C441.51 89.4858 441.312 89.0579 441.218 88.6014C441.074 87.9343 441.009 87.2525 441.024 86.57V79.5305H442.661Z" fill="white"/>
<path d="M451.098 88.6123C451.44 88.8024 451.803 88.9519 452.179 89.0577C452.596 89.1808 453.029 89.243 453.463 89.2424C453.914 89.2565 454.359 89.1306 454.737 88.8817C454.916 88.7483 455.058 88.5708 455.149 88.3661C455.241 88.1615 455.279 87.9365 455.26 87.7128C455.276 87.3163 455.164 86.9252 454.941 86.5982C454.716 86.2941 454.443 86.0285 454.134 85.8118C453.798 85.5719 453.444 85.3573 453.077 85.1697C452.699 84.9763 452.344 84.7402 452.02 84.4658C451.694 84.1931 451.421 83.8634 451.212 83.4924C450.985 83.0519 450.875 82.5592 450.894 82.0628C450.866 81.6779 450.922 81.2916 451.057 80.9307C451.193 80.5699 451.405 80.2433 451.678 79.9738C452.305 79.4693 453.095 79.2184 453.895 79.2698C454.438 79.2615 454.979 79.3161 455.51 79.4328C455.923 79.5255 456.321 79.6753 456.693 79.8782L456.26 81.1818C455.586 80.8559 454.848 80.6852 454.101 80.6821C453.677 80.6458 453.254 80.7612 452.907 81.008C452.773 81.1396 452.67 81.2994 452.605 81.476C452.54 81.6526 452.515 81.8415 452.531 82.0292C452.522 82.3659 452.635 82.6944 452.85 82.9526C453.082 83.2241 453.355 83.4585 453.657 83.6478C453.982 83.8575 454.335 84.0711 454.714 84.2888C455.093 84.5064 455.448 84.7651 455.771 85.0601C456.102 85.3628 456.376 85.7235 456.579 86.1247C456.806 86.6093 456.916 87.142 456.897 87.6781C456.899 88.0713 456.83 88.4616 456.693 88.8297C456.558 89.1884 456.344 89.5116 456.067 89.7748C455.764 90.0564 455.409 90.2743 455.021 90.4157C454.551 90.5842 454.054 90.6652 453.555 90.6547C452.973 90.664 452.393 90.602 451.826 90.47C451.395 90.3694 450.981 90.2046 450.599 89.9812L451.098 88.6123Z" fill="white"/>
<path d="M459.17 76.228C459.157 75.9157 459.267 75.611 459.477 75.3807C459.581 75.2719 459.707 75.1867 459.846 75.1305C459.985 75.0743 460.135 75.0485 460.284 75.0547C460.591 75.0447 460.89 75.158 461.114 75.3698C461.226 75.4813 461.313 75.6155 461.37 75.7634C461.427 75.9113 461.452 76.0696 461.444 76.228C461.452 76.3799 461.426 76.5318 461.37 76.6727C461.313 76.8135 461.225 76.9399 461.114 77.0427C460.884 77.2422 460.588 77.3469 460.284 77.3361C460.136 77.3428 459.989 77.3193 459.85 77.267C459.711 77.2147 459.584 77.1348 459.477 77.0319C459.374 76.9264 459.293 76.8006 459.24 76.6623C459.187 76.524 459.164 76.3761 459.17 76.228ZM459.466 79.5305H461.104V90.3939H459.466V79.5305Z" fill="white"/>
<path d="M477.316 76.6843H473.405V90.3939H471.7V76.6843H467.789V75.1851H477.316V76.6843Z" fill="white"/>
<path d="M477.271 79.5305H478.431L478.726 80.682H478.795C478.986 80.2879 479.271 79.948 479.624 79.6934C479.991 79.4469 480.424 79.3216 480.864 79.3349C481.266 79.3435 481.664 79.4093 482.046 79.5305L481.728 81.1165C481.392 80.9967 481.039 80.9307 480.683 80.921C480.252 80.9016 479.83 81.045 479.499 81.323C479.189 81.6047 478.981 81.9834 478.908 82.3984V90.3939H477.271L477.271 79.5305Z" fill="white"/>
<path d="M483.616 80.1823C484.116 79.8979 484.657 79.6927 485.219 79.574C485.872 79.4266 486.539 79.3537 487.208 79.3567C487.733 79.3355 488.257 79.4281 488.744 79.6283C489.106 79.7895 489.42 80.0443 489.653 80.367C489.875 80.6842 490.023 81.0483 490.085 81.4316C490.155 81.8443 490.189 82.2622 490.187 82.6808C490.187 83.5499 490.168 84.3973 490.129 85.2229C490.089 86.0485 490.07 86.8307 490.071 87.5694C490.071 88.1201 490.089 88.6307 490.129 89.1012C490.164 89.5519 490.237 89.9989 490.347 90.4374H489.064L488.667 89.1555H488.577C488.327 89.556 487.987 89.8911 487.584 90.1332C487.047 90.4334 486.437 90.5764 485.823 90.546C485.452 90.5588 485.083 90.4928 484.739 90.3525C484.395 90.2121 484.084 90.0005 483.826 89.7313C483.556 89.4266 483.348 89.0711 483.215 88.6852C483.081 88.2993 483.024 87.8906 483.048 87.4825C483.03 86.9422 483.142 86.4055 483.374 85.9182C483.588 85.5021 483.907 85.15 484.299 84.897C484.733 84.6221 485.215 84.4341 485.72 84.343C486.326 84.2291 486.942 84.1746 487.558 84.1801H488.008C488.159 84.1801 488.317 84.1877 488.483 84.2018C488.527 83.7531 488.549 83.3548 488.55 83.0068C488.604 82.4014 488.471 81.794 488.168 81.2687C487.988 81.0828 487.769 80.9411 487.527 80.8544C487.284 80.7678 487.026 80.7385 486.77 80.7689C486.306 80.7748 485.845 80.8368 485.396 80.9536C484.964 81.0523 484.547 81.2094 484.157 81.4207L483.616 80.1823ZM488.505 85.4402C488.355 85.4261 488.205 85.4153 488.056 85.4076C487.905 85.4 487.755 85.3968 487.606 85.3968C487.252 85.3965 486.899 85.4255 486.55 85.4837C486.228 85.5338 485.917 85.6366 485.629 85.7878C485.351 85.9266 485.12 86.1448 484.964 86.4153C484.808 86.6857 484.735 86.9964 484.753 87.3087C484.722 87.7979 484.879 88.2803 485.191 88.6558C485.335 88.8132 485.511 88.9373 485.707 89.0198C485.902 89.1023 486.114 89.1412 486.326 89.1338C486.848 89.1673 487.365 89.0134 487.785 88.6992C488.102 88.4475 488.349 88.1184 488.505 87.7433L488.505 85.4402Z" fill="white"/>
<path d="M498.874 90.3939V83.7673C498.926 82.9608 498.79 82.1533 498.475 81.4099C498.332 81.1644 498.122 80.9654 497.87 80.8364C497.619 80.7074 497.335 80.6539 497.054 80.6821C496.507 80.6612 495.972 80.8471 495.554 81.2035C495.161 81.5483 494.863 81.99 494.689 82.4854V90.394H493.052V79.5305H494.235L494.53 80.682H494.599C494.941 80.2285 495.386 79.8639 495.896 79.6183C496.406 79.3727 496.967 79.2532 497.531 79.2698C497.968 79.2621 498.402 79.3282 498.817 79.4653C499.184 79.5922 499.507 79.8221 499.749 80.128C500.026 80.4979 500.22 80.9242 500.317 81.3772C500.46 82.0261 500.525 82.6899 500.511 83.3544V90.3939L498.874 90.3939Z" fill="white"/>
<path d="M503.08 88.6123C503.422 88.8025 503.785 88.9519 504.161 89.0577C504.578 89.1808 505.01 89.243 505.445 89.2424C505.896 89.2565 506.341 89.1306 506.718 88.8817C506.897 88.7483 507.04 88.5708 507.131 88.3661C507.223 88.1615 507.261 87.9365 507.242 87.7128C507.258 87.3163 507.146 86.9252 506.923 86.5982C506.697 86.2941 506.425 86.0285 506.116 85.8118C505.779 85.5719 505.426 85.3573 505.058 85.1697C504.681 84.9763 504.326 84.7402 504.001 84.4658C503.676 84.1931 503.403 83.8634 503.194 83.4924C502.967 83.0519 502.857 82.5592 502.875 82.0628C502.847 81.6779 502.903 81.2916 503.039 80.9307C503.174 80.5699 503.386 80.2433 503.66 79.9738C504.287 79.4693 505.077 79.2184 505.877 79.2698C506.419 79.2615 506.961 79.3161 507.491 79.4328C507.904 79.5255 508.302 79.6753 508.675 79.8782L508.242 81.1818C507.568 80.8559 506.83 80.6852 506.082 80.6821C505.659 80.6458 505.236 80.7612 504.888 81.008C504.755 81.1396 504.652 81.2994 504.587 81.476C504.522 81.6526 504.497 81.8415 504.513 82.0292C504.503 82.3659 504.617 82.6944 504.831 82.9526C505.064 83.2241 505.336 83.4585 505.639 83.6478C505.964 83.8575 506.316 84.0711 506.696 84.2888C507.075 84.5064 507.429 84.7651 507.753 85.0601C508.084 85.3628 508.357 85.7235 508.56 86.1247C508.788 86.6093 508.897 87.142 508.879 87.6781C508.881 88.0713 508.812 88.4616 508.675 88.8297C508.54 89.1884 508.326 89.5116 508.049 89.7748C507.746 90.0564 507.39 90.2743 507.003 90.4157C506.532 90.5842 506.036 90.6652 505.536 90.6547C504.955 90.664 504.374 90.602 503.808 90.47C503.377 90.3694 502.963 90.2046 502.58 89.9812L503.08 88.6123Z" fill="white"/>
<path d="M511.175 79.5305H512.336L512.586 80.7038H512.676C512.94 80.2407 513.327 79.8613 513.793 79.6079C514.259 79.3546 514.786 79.2375 515.315 79.2698C515.834 79.2364 516.354 79.3364 516.825 79.5605C517.297 79.7847 517.704 80.1257 518.009 80.5517C518.71 81.8303 519.022 83.2886 518.907 84.7449C518.917 85.5765 518.817 86.4058 518.611 87.2109C518.443 87.8792 518.158 88.5119 517.77 89.0795C517.428 89.5742 516.971 89.9769 516.44 90.2527C515.9 90.5248 515.303 90.6627 514.7 90.6546C514.35 90.6619 514 90.6364 513.655 90.5786C513.361 90.5146 513.077 90.4085 512.813 90.2636V94.7393H511.175V79.5305ZM512.813 88.6775C513.028 88.8531 513.27 88.9925 513.529 89.0903C513.87 89.2032 514.228 89.2547 514.587 89.2424C514.981 89.2425 515.368 89.133 515.705 88.9261C516.042 88.7192 516.316 88.4227 516.497 88.0691C517.023 87.0373 517.267 85.8821 517.202 84.7232C517.206 84.1703 517.164 83.6179 517.077 83.072C517.009 82.6303 516.875 82.2017 516.679 81.801C516.519 81.4721 516.281 81.1885 515.985 80.9753C515.679 80.7722 515.317 80.6698 514.951 80.682C513.844 80.682 513.131 81.3266 512.813 82.6157L512.813 88.6775Z" fill="white"/>
<path d="M520.795 84.9622C520.678 83.4472 521.049 81.9344 521.852 80.6494C522.208 80.1919 522.667 79.8277 523.192 79.5875C523.716 79.3474 524.291 79.2384 524.866 79.2697C525.456 79.2244 526.047 79.3301 526.586 79.577C527.124 79.8239 527.592 80.2039 527.947 80.682C528.695 81.9759 529.04 83.4675 528.936 84.9622C529.057 86.4825 528.682 88.001 527.867 89.2858C527.511 89.7382 527.052 90.0984 526.53 90.3364C526.008 90.5745 525.438 90.6835 524.866 90.6546C524.276 90.7 523.684 90.5944 523.145 90.3475C522.606 90.1007 522.138 89.7205 521.784 89.2424C521.035 87.9483 520.691 86.4567 520.795 84.9622ZM522.501 84.9622C522.496 85.544 522.538 86.1253 522.625 86.7004C522.692 87.168 522.83 87.6224 523.035 88.0474C523.203 88.3994 523.457 88.7023 523.774 88.9273C524.097 89.1433 524.478 89.2533 524.866 89.2424C525.225 89.2577 525.582 89.1711 525.895 88.9926C526.208 88.8141 526.466 88.5506 526.639 88.2321C527.104 87.2092 527.307 86.0849 527.23 84.9622C527.233 84.384 527.191 83.8065 527.105 83.2349C527.039 82.7636 526.901 82.3054 526.696 81.877C526.527 81.525 526.273 81.2221 525.956 80.9971C525.634 80.7813 525.253 80.6712 524.866 80.682C524.507 80.6699 524.152 80.7591 523.84 80.9395C523.529 81.1199 523.274 81.3844 523.103 81.7032C522.632 82.7203 522.424 83.8419 522.501 84.9622Z" fill="white"/>
<path d="M531.345 79.5305H532.506L532.801 80.682H532.87C533.06 80.2879 533.345 79.948 533.699 79.6934C534.065 79.4469 534.499 79.3216 534.939 79.3349C535.34 79.3435 535.738 79.4093 536.121 79.5305L535.802 81.1165C535.466 80.9967 535.113 80.9307 534.757 80.921C534.327 80.9016 533.905 81.045 533.574 81.323C533.263 81.6047 533.055 81.9834 532.983 82.3984V90.3939H531.345V79.5305Z" fill="white"/>
<path d="M537.211 79.5305H538.599V77.3795L540.235 76.8798V79.5305H542.692V80.9427H540.235V87.4173C540.203 87.8899 540.285 88.3633 540.474 88.797C540.552 88.9353 540.667 89.0485 540.806 89.1235C540.945 89.1985 541.102 89.2322 541.259 89.2207C541.524 89.2256 541.788 89.1927 542.044 89.1229C542.264 89.0577 542.502 88.9744 542.76 88.873L543.079 90.1115C542.725 90.2775 542.355 90.405 541.975 90.4917C541.561 90.5874 541.138 90.6348 540.713 90.6329C540.405 90.6624 540.095 90.6131 539.811 90.4897C539.527 90.3663 539.278 90.1727 539.088 89.9268C538.707 89.2271 538.537 88.4304 538.599 87.6346V80.9427H537.211L537.211 79.5305Z" fill="white"/>
<path d="M544.716 80.1823C545.216 79.8979 545.757 79.6927 546.319 79.574C546.972 79.4266 547.639 79.3537 548.308 79.3567C548.833 79.3355 549.357 79.4281 549.843 79.6283C550.206 79.7895 550.52 80.0443 550.753 80.367C550.975 80.6842 551.123 81.0483 551.185 81.4316C551.255 81.8443 551.289 82.2622 551.287 82.6808C551.287 83.5499 551.268 84.3973 551.229 85.2229C551.189 86.0485 551.17 86.8307 551.171 87.5694C551.171 88.1201 551.189 88.6307 551.229 89.1012C551.264 89.5519 551.337 89.9989 551.446 90.4374H550.164L549.767 89.1555H549.677C549.427 89.556 549.087 89.8911 548.684 90.1332C548.146 90.4334 547.537 90.5764 546.923 90.546C546.552 90.5588 546.183 90.4928 545.839 90.3525C545.495 90.2121 545.184 90.0005 544.926 89.7313C544.656 89.4266 544.448 89.0711 544.315 88.6852C544.181 88.2993 544.124 87.8906 544.148 87.4825C544.13 86.9422 544.242 86.4055 544.474 85.9182C544.688 85.5021 545.007 85.15 545.398 84.897C545.833 84.6221 546.315 84.4341 546.82 84.343C547.426 84.2291 548.042 84.1746 548.658 84.1801H549.108C549.259 84.1801 549.417 84.1877 549.583 84.2018C549.627 83.7531 549.649 83.3548 549.65 83.0068C549.704 82.4014 549.571 81.794 549.268 81.2687C549.088 81.0828 548.869 80.9411 548.627 80.8544C548.384 80.7678 548.126 80.7385 547.87 80.7689C547.406 80.7748 546.945 80.8368 546.496 80.9536C546.064 81.0523 545.647 81.2094 545.256 81.4207L544.716 80.1823ZM549.604 85.4402C549.455 85.4261 549.305 85.4153 549.156 85.4076C549.005 85.4 548.855 85.3968 548.706 85.3968C548.352 85.3965 547.999 85.4255 547.65 85.4837C547.328 85.5338 547.017 85.6366 546.729 85.7878C546.451 85.9266 546.22 86.1448 546.064 86.4153C545.908 86.6857 545.835 86.9964 545.853 87.3087C545.822 87.7979 545.979 88.2803 546.291 88.6558C546.435 88.8132 546.611 88.9373 546.806 89.0198C547.002 89.1023 547.213 89.1412 547.426 89.1338C547.948 89.1673 548.465 89.0134 548.885 88.6992C549.202 88.4475 549.449 88.1184 549.604 87.7433L549.604 85.4402Z" fill="white"/>
<path d="M553.97 88.6123C554.312 88.8024 554.675 88.9519 555.051 89.0577C555.468 89.1808 555.9 89.243 556.335 89.2424C556.786 89.2565 557.231 89.1306 557.609 88.8817C557.787 88.7483 557.93 88.5708 558.021 88.3661C558.113 88.1615 558.151 87.9365 558.132 87.7128C558.148 87.3163 558.036 86.9252 557.813 86.5982C557.587 86.2941 557.315 86.0285 557.006 85.8118C556.669 85.5719 556.316 85.3573 555.948 85.1697C555.571 84.9763 555.216 84.7402 554.891 84.4658C554.566 84.1931 554.293 83.8634 554.084 83.4924C553.857 83.0519 553.747 82.5592 553.765 82.0628C553.737 81.6779 553.793 81.2916 553.929 80.9307C554.064 80.5699 554.276 80.2433 554.55 79.9738C555.177 79.4693 555.967 79.2184 556.767 79.2698C557.309 79.2615 557.851 79.3161 558.381 79.4328C558.794 79.5255 559.192 79.6753 559.565 79.8782L559.132 81.1818C558.457 80.8559 557.72 80.6852 556.972 80.6821C556.549 80.6458 556.126 80.7612 555.778 81.008C555.645 81.1396 555.542 81.2994 555.477 81.476C555.412 81.6526 555.387 81.8415 555.403 82.0292C555.393 82.3659 555.507 82.6944 555.721 82.9526C555.954 83.2241 556.226 83.4585 556.529 83.6478C556.854 83.8575 557.206 84.0711 557.586 84.2888C557.965 84.5064 558.319 84.7651 558.643 85.0601C558.974 85.3628 559.247 85.7235 559.45 86.1247C559.678 86.6093 559.787 87.142 559.769 87.6781C559.771 88.0713 559.702 88.4616 559.565 88.8297C559.43 89.1884 559.216 89.5116 558.939 89.7748C558.636 90.0564 558.28 90.2743 557.893 90.4157C557.422 90.5842 556.925 90.6652 556.426 90.6547C555.845 90.664 555.264 90.602 554.698 90.47C554.267 90.3694 553.853 90.2046 553.47 89.9812L553.97 88.6123Z" fill="white"/>
<path d="M562.043 76.228C562.03 75.9157 562.14 75.611 562.35 75.3807C562.454 75.2719 562.58 75.1867 562.719 75.1305C562.858 75.0743 563.007 75.0485 563.157 75.0547C563.464 75.0447 563.763 75.158 563.987 75.3698C564.099 75.4813 564.186 75.6155 564.243 75.7634C564.299 75.9113 564.325 76.0696 564.316 76.228C564.325 76.3799 564.299 76.5318 564.242 76.6727C564.185 76.8135 564.098 76.9399 563.987 77.0427C563.757 77.2422 563.46 77.3469 563.157 77.3361C563.009 77.3428 562.861 77.3193 562.723 77.267C562.584 77.2147 562.457 77.1348 562.35 77.0319C562.246 76.9264 562.166 76.8006 562.113 76.6623C562.06 76.524 562.036 76.3761 562.043 76.228ZM562.339 79.5305H563.976V90.3939H562.339V79.5305Z" fill="white"/>
<path d="M580.28 78.6397C580.28 79.0205 580.234 79.3997 580.144 79.7695C580.053 80.1442 579.907 80.503 579.711 80.8341C579.513 81.1687 579.264 81.4694 578.972 81.7249C578.658 81.9958 578.29 82.1958 577.893 82.3115V82.3984C578.255 82.4709 578.607 82.5914 578.938 82.7569C579.276 82.9273 579.578 83.1636 579.825 83.4522C580.095 83.7721 580.304 84.1407 580.439 84.5385C580.601 85.0322 580.678 85.5503 580.667 86.0703C580.683 86.7675 580.551 87.4602 580.28 88.1017C580.043 88.6471 579.68 89.1274 579.222 89.5031C578.764 89.8708 578.239 90.144 577.676 90.307C577.074 90.4835 576.45 90.5713 575.822 90.5677H575.084C574.803 90.5677 574.504 90.5569 574.186 90.5351C573.867 90.5134 573.552 90.4841 573.242 90.4482C572.954 90.4168 572.669 90.3623 572.389 90.2853V75.3155C572.844 75.2286 573.378 75.1562 573.992 75.0982C574.606 75.0407 575.269 75.0117 575.982 75.0113C576.501 75.0114 577.018 75.0587 577.529 75.1526C578.021 75.2381 578.492 75.4188 578.915 75.6849C579.335 75.9568 579.676 76.3352 579.905 76.7821C580.178 77.3611 580.307 77.9989 580.28 78.6397ZM575.027 81.9422C575.239 81.9422 575.482 81.9346 575.755 81.9205C575.983 81.9107 576.211 81.889 576.437 81.8553C577.001 81.6362 577.498 81.2731 577.881 80.8015C578.289 80.2968 578.503 79.6603 578.484 79.0091C578.495 78.5974 578.425 78.1876 578.279 77.8032C578.161 77.5027 577.969 77.2373 577.721 77.0319C577.477 76.8388 577.194 76.7016 576.891 76.63C576.564 76.5493 576.228 76.5092 575.891 76.5105C575.496 76.5105 575.141 76.5213 574.822 76.5431C574.504 76.5648 574.261 76.5898 574.095 76.6191V81.9422L575.027 81.9422ZM575.959 89.0686C576.346 89.0721 576.73 89.0097 577.096 88.8839C577.441 88.7655 577.758 88.5745 578.024 88.3236C578.291 88.0726 578.502 87.7675 578.643 87.4282C578.965 86.5556 578.944 85.5921 578.586 84.7341C578.417 84.3885 578.162 84.0928 577.846 83.8759C577.533 83.6688 577.181 83.5284 576.812 83.4631C576.418 83.3898 576.018 83.3534 575.618 83.3544H574.095V88.9165C574.21 88.9504 574.328 88.9722 574.448 88.9817C574.591 88.9958 574.75 89.011 574.925 89.0251C575.099 89.0393 575.277 89.0501 575.459 89.0577C575.641 89.0654 575.807 89.0686 575.959 89.0686Z" fill="white"/>
<path d="M583.1 80.1823C583.6 79.8979 584.141 79.6927 584.703 79.574C585.356 79.4266 586.023 79.3537 586.692 79.3567C587.217 79.3355 587.741 79.4281 588.227 79.6283C588.59 79.7895 588.903 80.0443 589.137 80.367C589.359 80.6842 589.507 81.0483 589.569 81.4316C589.638 81.8442 589.673 82.2622 589.671 82.6808C589.671 83.5499 589.652 84.3973 589.613 85.2229C589.573 86.0485 589.554 86.8307 589.555 87.5694C589.555 88.1201 589.573 88.6307 589.613 89.1012C589.648 89.5519 589.721 89.9989 589.83 90.4374H588.548L588.151 89.1555H588.061C587.811 89.556 587.471 89.8911 587.068 90.1332C586.53 90.4334 585.92 90.5764 585.307 90.546C584.936 90.5588 584.567 90.4928 584.223 90.3525C583.879 90.2121 583.568 90.0005 583.31 89.7313C583.04 89.4266 582.832 89.0711 582.698 88.6852C582.565 88.2993 582.508 87.8906 582.531 87.4825C582.514 86.9422 582.626 86.4055 582.858 85.9182C583.072 85.5021 583.391 85.15 583.782 84.897C584.217 84.6221 584.699 84.4341 585.203 84.343C585.81 84.2291 586.425 84.1746 587.042 84.1801H587.492C587.643 84.1801 587.801 84.1877 587.967 84.2018C588.011 83.7531 588.033 83.3548 588.034 83.0068C588.088 82.4014 587.955 81.794 587.652 81.2687C587.472 81.0828 587.253 80.9411 587.011 80.8544C586.768 80.7678 586.509 80.7385 586.254 80.7689C585.79 80.7748 585.329 80.8368 584.879 80.9536C584.447 81.0523 584.031 81.2094 583.64 81.4207L583.1 80.1823ZM587.988 85.4402C587.839 85.4261 587.689 85.4153 587.539 85.4076C587.389 85.4 587.239 85.3968 587.089 85.3968C586.736 85.3965 586.383 85.4255 586.033 85.4837C585.712 85.5338 585.401 85.6366 585.113 85.7878C584.835 85.9266 584.604 86.1448 584.448 86.4153C584.292 86.6857 584.219 86.9964 584.237 87.3087C584.206 87.7979 584.363 88.2803 584.675 88.6558C584.819 88.8132 584.995 88.9373 585.19 89.0198C585.386 89.1023 585.597 89.1412 585.809 89.1338C586.332 89.1673 586.849 89.0134 587.269 88.6992C587.586 88.4475 587.833 88.1184 587.988 87.7433V85.4402Z" fill="white"/>
<path d="M598.358 90.3939V83.7673C598.41 82.9608 598.273 82.1533 597.959 81.4099C597.816 81.1644 597.606 80.9654 597.354 80.8364C597.102 80.7074 596.819 80.6539 596.538 80.6821C595.991 80.6612 595.456 80.8471 595.038 81.2035C594.645 81.5483 594.347 81.99 594.173 82.4854V90.394H592.536V79.5305H593.719L594.014 80.682H594.083C594.425 80.2285 594.87 79.8639 595.38 79.6183C595.89 79.3727 596.45 79.2532 597.015 79.2698C597.451 79.2621 597.886 79.3282 598.3 79.4653C598.667 79.5922 598.991 79.8221 599.233 80.128C599.51 80.4979 599.704 80.9242 599.801 81.3772C599.944 82.0261 600.009 82.6899 599.995 83.3544V90.3939L598.358 90.3939Z" fill="white"/>
<path d="M609.91 86.6569C609.91 87.3956 609.917 88.0655 609.932 88.6666C609.947 89.2598 610 89.8513 610.092 90.4374H608.978L608.614 89.1338H608.523C608.297 89.5833 607.95 89.9597 607.522 90.2201C607.029 90.5206 606.461 90.6715 605.885 90.6546C605.349 90.6889 604.814 90.5805 604.333 90.3402C603.852 90.1 603.443 89.7364 603.145 89.2859C602.451 87.9655 602.14 86.4746 602.247 84.9839C602.145 83.4948 602.532 82.0132 603.349 80.7689C603.704 80.3014 604.165 79.9269 604.694 79.6773C605.222 79.4277 605.802 79.3103 606.385 79.335C606.736 79.3278 607.086 79.3533 607.432 79.411C607.718 79.4704 608 79.554 608.272 79.6609V75.1851H609.91V86.6569ZM608.272 81.2469C608.061 81.0735 607.818 80.9442 607.557 80.8667C607.211 80.7776 606.856 80.7374 606.499 80.7472C606.123 80.7369 605.751 80.8281 605.421 81.0114C605.091 81.1948 604.816 81.4636 604.623 81.7901C604.108 82.7783 603.876 83.8918 603.952 85.0057C603.948 85.5839 603.989 86.1616 604.077 86.733C604.145 87.1941 604.275 87.6437 604.464 88.0692C604.613 88.4138 604.848 88.7133 605.146 88.9382C605.45 89.1484 605.813 89.255 606.181 89.2424C606.695 89.2543 607.195 89.0712 607.582 88.7294C607.97 88.3875 608.216 87.9116 608.272 87.3956V81.2469Z" fill="white"/>
<path d="M614.298 79.5305V86.1789C614.247 86.9811 614.368 87.785 614.651 88.5363C614.771 88.7697 614.957 88.9616 615.186 89.0874C615.415 89.2132 615.676 89.2672 615.935 89.2424C616.23 89.2475 616.521 89.1844 616.788 89.0577C617.038 88.9353 617.265 88.7699 617.459 88.5689C617.66 88.3595 617.836 88.126 617.982 87.8736C618.131 87.6193 618.253 87.3499 618.346 87.0697V79.5305H619.983V87.3087C619.983 87.8302 620.002 88.3697 620.04 88.9274C620.07 89.419 620.127 89.9086 620.21 90.3939H619.051L618.642 88.873H618.573C618.299 89.3689 617.919 89.796 617.459 90.1223C616.925 90.4922 616.287 90.6789 615.64 90.6546C615.209 90.6625 614.78 90.6039 614.367 90.4808C614.003 90.3648 613.679 90.1462 613.434 89.8507C613.147 89.4858 612.948 89.0579 612.854 88.6014C612.711 87.9343 612.646 87.2525 612.66 86.57V79.5305H614.298Z" fill="white"/>
<path d="M628.739 90.3939V83.7673C628.791 82.9608 628.654 82.1533 628.34 81.4099C628.197 81.1644 627.987 80.9654 627.735 80.8364C627.483 80.7074 627.2 80.6539 626.919 80.6821C626.372 80.6612 625.837 80.8471 625.418 81.2035C625.026 81.5483 624.728 81.99 624.554 82.4854V90.394H622.917V79.5305H624.1L624.395 80.682H624.464C624.806 80.2285 625.251 79.8639 625.761 79.6183C626.271 79.3727 626.831 79.2532 627.396 79.2698C627.832 79.2621 628.267 79.3282 628.681 79.4653C629.048 79.5922 629.372 79.8221 629.614 80.128C629.891 80.4979 630.085 80.9242 630.182 81.3772C630.325 82.0261 630.39 82.6899 630.376 83.3544V90.3939L628.739 90.3939Z" fill="white"/>
<path d="M640.29 90.8936C640.383 92.0189 640.032 93.1359 639.312 94.0006C638.93 94.3527 638.481 94.6228 637.992 94.7945C637.504 94.9663 636.985 95.0362 636.469 95C635.843 95.0137 635.217 94.9517 634.605 94.8154C634.196 94.7206 633.799 94.5784 633.423 94.3917L633.899 93.0446C634.203 93.175 634.537 93.2981 634.901 93.414C635.336 93.5399 635.789 93.5985 636.242 93.5878C636.594 93.631 636.952 93.5862 637.283 93.4574C637.614 93.3286 637.909 93.1197 638.141 92.8491C638.544 92.0904 638.722 91.2303 638.652 90.3722V89.5683H638.584C638.342 89.9018 638.022 90.1704 637.652 90.3505C637.195 90.5547 636.697 90.6513 636.197 90.6329C635.667 90.6701 635.136 90.5639 634.661 90.3252C634.185 90.0865 633.781 89.7239 633.49 89.275C632.822 87.9581 632.523 86.4816 632.627 85.0057C632.522 83.5062 632.918 82.0146 633.752 80.769C634.156 80.2819 634.669 79.8981 635.248 79.6489C635.827 79.3997 636.456 79.2921 637.084 79.335C637.703 79.3248 638.322 79.3904 638.926 79.5305C639.392 79.6445 639.848 79.7971 640.29 79.9868V90.8936ZM638.652 81.0948C638.103 80.8435 637.504 80.7245 636.902 80.7472C636.532 80.7416 636.166 80.8314 635.84 81.0082C635.513 81.185 635.237 81.4429 635.037 81.7575C634.492 82.7392 634.247 83.8618 634.332 84.984C634.329 85.5473 634.367 86.1101 634.445 86.6678C634.508 87.1336 634.638 87.5875 634.832 88.0149C634.987 88.3649 635.226 88.6709 635.526 88.9057C635.827 89.1222 636.191 89.2329 636.561 89.2207C637.053 89.2486 637.538 89.0941 637.925 88.7862C638.293 88.4363 638.546 87.9816 638.652 87.4826V81.0948Z" fill="white"/>
<path d="M46.1688 89.6029L47.7002 89.6039C47.7598 89.6325 47.7596 89.6605 47.6994 89.6881H46.1694C46.1094 89.6601 46.1091 89.6317 46.1688 89.6029Z" fill="white"/>
<path d="M0 42.3935C0.161839 42.1874 0.0153671 41.9118 0.170427 41.7041C0.19834 42.0798 0.172523 42.4576 0.0937679 42.8259C0.0609392 42.8814 0.0296832 42.8806 0 42.8235V42.3935Z" fill="white"/>
<path d="M0.171474 47.899C0.015345 47.6914 0.1626 47.4151 0 47.209V46.779C0.0297935 46.7221 0.0621959 46.7207 0.0972073 46.7749C0.172046 47.1445 0.197028 47.5226 0.171474 47.899Z" fill="white"/>
<path d="M93.7928 45.4048L93.793 44.1979C93.8196 44.1385 93.8449 44.139 93.8689 44.1993V45.4032C93.845 45.4634 93.8196 45.4639 93.7928 45.4048Z" fill="white"/>
<path d="M93.8689 44.1993L93.831 44.1971L93.793 44.1979V43.6819C93.8183 43.6801 93.8437 43.6806 93.8689 43.6834L93.8689 44.1993Z" fill="white"/>
<path d="M93.7928 45.4048C93.8181 45.4063 93.8436 45.4057 93.8688 45.4031V45.9191L93.8306 45.9212L93.7923 45.9204L93.7928 45.4048Z" fill="white"/>
<path d="M44.4551 0.0726731C44.4548 0.0484944 44.4562 0.0243273 44.4595 0.000366211H44.9094C44.9702 0.029556 44.9682 0.0539512 44.9033 0.0735519L44.4551 0.0726731Z" fill="white"/>
<path d="M45.9894 0.000350952C45.8527 0.117989 45.6876 0.0795326 45.529 0.0766959C45.4973 0.0554933 45.4882 0.0371125 45.5019 0.0215536C45.5062 0.0154924 45.5118 0.0104588 45.5183 0.00679875C45.5248 0.00313873 45.532 0.00093907 45.5394 0.000350952H45.9894Z" fill="white"/>
<path d="M48.3402 0.0763066C48.1814 0.0796438 48.0164 0.1179 47.8794 0.000350952H48.3294C48.3654 0.0128767 48.379 0.0282725 48.3702 0.0466385C48.3609 0.066395 48.3509 0.0763066 48.3402 0.0763066Z" fill="white"/>
<path d="M49.4094 0.000350952C49.4135 0.0239359 49.4152 0.0478963 49.4144 0.0718347L48.9654 0.0738148C48.9006 0.0540138 48.8986 0.0295407 48.9594 0.000395449L49.4094 0.000350952Z" fill="white"/>
<path d="M46.1688 89.6029C46.1697 89.6313 46.1699 89.6597 46.1695 89.6881H45.7195L45.7194 89.6006C45.868 89.5731 46.0204 89.5738 46.1688 89.6029Z" fill="white"/>
<path d="M47.6994 89.6881C47.6992 89.66 47.6995 89.6319 47.7002 89.6039C47.8484 89.5737 48.001 89.5727 48.1496 89.6009L48.1494 89.6881H47.6994Z" fill="white"/>
<path d="M45.5394 0.000350952C45.5368 0.0259365 45.5334 0.0514033 45.5291 0.0767515L45.1729 0.0758282C45.1165 0.0460378 45.1187 0.0208787 45.1794 0.000350952H45.5394Z" fill="white"/>
<path d="M48.3402 0.0763066C48.3359 0.0510919 48.3323 0.0257733 48.3294 0.000350952H48.6894C48.7495 0.0203744 48.7518 0.0453036 48.6964 0.0751386L48.3402 0.0763066Z" fill="white"/>
<path d="M0.0927096 43.0837C0.102047 43.2076 0.120048 43.3336 0 43.4254V43.0814C0.0324759 43.0232 0.0633791 43.024 0.0927096 43.0837Z" fill="white"/>
<path d="M0 46.1771C0.121581 46.2693 0.10154 46.3959 0.0911773 46.5201C0.0614426 46.5784 0.0310502 46.5788 0 46.5211V46.1771Z" fill="white"/>
<path d="M45.1794 0.000350952C45.1796 0.0256863 45.1774 0.05098 45.173 0.0759172L44.9033 0.0735589C44.9069 0.049314 44.909 0.0248606 44.9094 0.000350952H45.1794Z" fill="white"/>
<path d="M48.6963 0.0751386C48.6921 0.0504254 48.6898 0.0254229 48.6894 0.000350952H48.9594C48.9596 0.0249566 48.9616 0.0495125 48.9654 0.0738259L48.6963 0.0751386Z" fill="white"/>
<path d="M0.0927096 43.0837L0 43.0814V42.8235L0.0937679 42.8259L0.0927096 43.0837Z" fill="white"/>
<path d="M0 46.521L0.0911663 46.5201L0.0971963 46.7748L0 46.779V46.521Z" fill="white"/>
<path d="M93.7889 41.7964C93.7518 39.6068 93.4759 37.4279 92.9662 35.2991C92.0842 31.3735 90.6583 27.5928 88.7306 24.0687C87.7915 22.3512 86.7422 20.6974 85.5893 19.118C83.9949 16.9379 82.2174 14.9005 80.2766 13.0283C79.1418 11.9416 77.951 10.916 76.7094 9.95566C74.4308 8.16399 71.9892 6.59404 69.4173 5.26684C66.3767 3.68294 63.1769 2.43217 59.8724 1.53591C56.4615 0.565591 52.9365 0.0635643 49.3927 0.0433842H48.343C48.1888 0.0229157 48.026 0.0875915 47.8794 0H45.9891C45.84 0.0876026 45.6763 0.0229269 45.5204 0.0433842H44.4681C44.1083 0.0417489 43.7492 0.0769457 43.3919 0.0785921C41.5084 0.104335 39.6311 0.303843 37.7836 0.674624C31.9082 1.77398 26.2858 3.96372 21.2019 7.13269C18.2062 8.99698 15.4341 11.2044 12.9408 13.7111C12.4043 14.2506 11.8619 14.7869 11.3547 15.3494C9.68625 17.1926 8.16993 19.1704 6.82087 21.263C5.38538 23.4835 4.1535 25.8315 3.14054 28.2777C2.1924 30.575 1.44407 32.9512 0.904013 35.3793C0.401726 37.466 0.128734 39.6021 0.0899757 41.749C0.10098 42.0938 0.0857968 42.439 0.0445579 42.7814V43.0491C0.0265672 43.1744 0.0874072 43.3078 0 43.4249V46.1766C0.0874072 46.2962 0.0265672 46.4313 0.0445579 46.5582V46.8268C0.0870757 47.1702 0.102264 47.5165 0.0899757 47.8624C0.0754134 48.1637 0.125968 48.4625 0.130245 48.7622C0.201635 50.5928 0.459478 52.4112 0.899702 54.1887C1.95966 58.9708 3.82039 63.5354 6.40181 67.686C8.90939 71.7092 12.0223 75.3141 15.6288 78.3711C20.1439 82.2152 25.3291 85.1771 30.9191 87.1052C35.6907 88.7984 40.7136 89.6573 45.7715 89.6448H48.11C48.93 89.5613 49.7561 89.5843 50.5778 89.5712C52.8197 89.4974 55.0491 89.2045 57.235 88.6968C61.8125 87.7187 66.2263 86.0797 70.3402 83.8303C73.8017 81.9283 77.0193 79.6055 79.921 76.9138C81.1027 75.8033 82.2226 74.6277 83.2757 73.3924C85.3829 70.9721 87.2189 68.3244 88.7504 65.4975C90.2965 62.6634 91.5202 59.6621 92.3981 56.5506C92.9284 54.6907 93.3262 52.7949 93.5883 50.8777C93.7774 49.2146 93.8561 47.5407 93.824 45.8671V43.7262C93.818 43.0827 93.7914 42.4383 93.7889 41.7964ZM46.7329 78.8288C26.968 78.7231 11.3238 63.3189 11.3195 44.8036C11.316 26.1998 27.1025 10.7711 46.948 10.7629C66.8218 10.7784 82.5962 26.2489 82.5636 44.8592C82.5311 63.427 66.7241 78.9352 46.7329 78.8288Z" fill="white"/>
<path d="M63.2668 50.4036C62.8802 48.9491 62.1495 47.6109 61.1376 46.5041C60.1257 45.3972 58.8627 44.5546 57.4571 44.0487C56.4429 43.648 55.3905 43.3536 54.3166 43.1702C54.1941 43.149 54.0792 43.14 54.0741 42.9795C54.0698 42.8297 54.1144 42.7552 54.2857 42.715C54.6781 42.625 55.0657 42.5146 55.4468 42.3843C56.8071 41.9841 58.06 41.2784 59.1117 40.3202C60.1633 39.3621 60.9865 38.1762 61.5196 36.8514C62.3265 34.7491 62.5119 32.4557 62.0534 30.2492C61.7885 28.9241 61.2255 27.678 60.4078 26.6073C59.59 25.5365 58.5395 24.6697 57.3371 24.0736C56.1171 23.4133 54.8143 22.9223 53.464 22.6138C50.9923 22.0581 48.4685 21.7729 45.9363 21.7632C44.0768 21.7264 42.2182 21.7853 40.3605 21.8565C39.2825 21.8975 38.2045 21.9638 37.1283 22.0432C35.3802 22.1726 33.6399 22.3748 31.9047 22.6155C31.3434 22.6933 31.3417 22.6843 31.3417 23.2394V65.3633C31.3467 65.4634 31.3462 65.5637 31.34 65.6637C31.3169 65.884 31.3923 65.9961 31.6417 66.0436C32.5388 66.2147 33.4385 66.3654 34.3469 66.462C36.3743 66.6773 38.4085 66.8034 40.4462 66.8754C42.2148 66.9377 43.9851 66.8885 45.7546 66.9074C47.6579 66.9226 49.5579 66.746 51.4263 66.3801C53.8356 65.9607 56.1446 65.0854 58.2317 63.8003C60.7154 62.3373 62.5376 59.9567 63.3131 57.1621C63.9115 54.9476 63.8954 52.6097 63.2668 50.4036ZM40.0349 29.5238C40.0349 29.1014 40.0375 29.1038 40.4616 29.0604C42.4755 28.8662 44.5005 28.815 46.5215 28.9073C47.8249 28.9222 49.1109 29.2117 50.297 29.7572C51.1169 30.1034 51.8198 30.6819 52.3206 31.4228C52.8214 32.1637 53.0986 33.0353 53.1187 33.9319C53.1628 34.5469 53.1131 35.1652 52.9713 35.765C52.7236 36.7297 52.1809 37.5911 51.4204 38.2269C50.1799 39.2734 48.7376 40.0484 47.1848 40.5029C46.5439 40.6571 45.8873 40.7341 45.2285 40.7321C43.6124 40.8189 41.9937 40.8312 40.3759 40.8173C40.0418 40.814 40.0358 40.8099 40.0358 40.4767C40.0332 38.6296 40.0329 36.7829 40.0349 34.9364C40.0349 33.1319 40.0349 31.3278 40.0349 29.5238ZM54.314 54.4514C54.1767 55.275 53.858 56.0571 53.3816 56.74C52.9051 57.423 52.2829 57.9894 51.5608 58.3976C50.3897 59.0926 49.0861 59.5298 47.7357 59.6805C46.5135 59.8135 45.2824 59.8423 44.0554 59.7665C42.992 59.7379 41.9286 59.6977 40.8686 59.5979C40.0349 59.5193 40.0349 59.525 40.0349 58.7538V47.8386C40.0349 47.7379 40.0383 47.638 40.0349 47.5373C40.0323 47.4161 40.0837 47.3498 40.2183 47.3539C40.2774 47.3564 40.3382 47.3523 40.3982 47.3531C42.3613 47.3588 44.3262 47.313 46.2893 47.3916C47.6525 47.3972 49.0079 47.5984 50.3149 47.9892C51.4064 48.3243 52.392 48.9419 53.1735 49.7806C53.863 50.566 54.2739 51.5606 54.3415 52.6076C54.4099 53.2209 54.4007 53.8405 54.314 54.4514Z" fill="white"/>
<path d="M323.43 1.13985V90.1816" stroke="white" stroke-width="2" stroke-miterlimit="10" stroke-linecap="round"/>
</g>
<defs>
<clipPath id="clip0_10_8">
<rect width="650" height="95" fill="white"/>
</clipPath>
</defs>
</svg>
