<svg xmlns="http://www.w3.org/2000/svg" width="259" height="82" fill="none" viewBox="0 0 259 82"><path fill="#00A64F" d="M93.71 11.66h-6.12V29h-4.11V11.66h-6.15V8h16.38zm7.167 6q-.93-.33-1.68-.33-1.05 0-1.77.57-.69.54-.93 1.41V29h-3.9V14h3.03l.45 1.98h.12q.51-1.11 1.38-1.71t2.04-.6q.78 0 1.77.33zm2.147-2.79q1.2-.54 2.85-.84 1.65-.33 3.45-.33 1.56 0 2.61.39 1.05.36 1.65 1.05.63.69.87 1.65.27.96.27 2.16 0 1.32-.09 2.67-.09 1.32-.12 2.61 0 1.29.09 2.52.09 1.2.45 2.28h-3.18l-.63-2.07h-.15q-.6.93-1.68 1.62-1.05.66-2.73.66-1.05 0-1.89-.3-.84-.33-1.44-.9-.6-.6-.93-1.38a4.7 4.7 0 0 1-.33-1.8q0-1.38.6-2.31.63-.96 1.77-1.53 1.17-.6 2.76-.81 1.62-.24 3.6-.15.21-1.68-.24-2.4-.45-.75-2.01-.75-1.17 0-2.49.24-1.29.24-2.13.63zm4.95 11.16q1.17 0 1.86-.51.69-.54 1.02-1.14v-1.95q-.93-.09-1.8-.03-.84.06-1.5.27t-1.05.6-.39.99q0 .84.48 1.32.51.45 1.38.45M127.177 29v-8.52q0-1.83-.54-2.64-.51-.81-1.77-.81-1.11 0-1.89.66-.75.63-1.08 1.59V29h-3.9V14h3.09l.45 1.98h.12q.69-.96 1.83-1.68t2.94-.72q1.11 0 1.98.3t1.47.99.9 1.89q.3 1.17.3 2.91V29zm13.378-4.14q0-.6-.51-.96t-1.26-.66-1.65-.6q-.9-.33-1.65-.87-.75-.57-1.26-1.41-.51-.87-.51-2.22 0-2.22 1.32-3.39t3.81-1.17q1.71 0 3.09.36t2.16.81l-.87 2.82q-.69-.27-1.74-.57t-2.13-.3q-1.74 0-1.74 1.35 0 .54.51.87t1.26.63q.75.27 1.65.6t1.65.87q.75.51 1.26 1.35t.51 2.16q0 2.28-1.47 3.6-1.44 1.29-4.35 1.29-1.59 0-3-.42-1.38-.39-2.25-.93l1.08-2.91q.69.39 1.83.78 1.14.36 2.34.36.87 0 1.38-.33.54-.33.54-1.11M147.001 14h2.85l.45 1.8h.12q.78-1.14 1.83-1.68 1.08-.54 2.61-.54 2.82 0 4.23 1.8 1.41 1.77 1.41 5.73 0 1.92-.45 3.48-.45 1.53-1.35 2.61-.87 1.08-2.16 1.65-1.26.57-2.91.57-.93 0-1.53-.15-.6-.12-1.2-.42V35h-3.9zm6.69 2.88q-1.14 0-1.8.57-.63.57-.99 1.71v6.24q.42.33.9.54.51.18 1.32.18 1.68 0 2.52-1.17.84-1.2.84-3.93 0-1.98-.66-3.06t-2.13-1.08m8.791 4.62q0-3.81 1.86-5.85 1.86-2.07 5.22-2.07 1.8 0 3.12.57t2.19 1.62q.87 1.02 1.29 2.49.45 1.47.45 3.24 0 3.81-1.86 5.88-1.83 2.04-5.19 2.04-1.8 0-3.12-.57t-2.22-1.59q-.87-1.05-1.32-2.52-.42-1.47-.42-3.24m4.02 0q0 .99.18 1.83t.54 1.47.93.99q.6.33 1.41.33 1.53 0 2.28-1.11t.75-3.51q0-2.07-.69-3.33-.69-1.29-2.34-1.29-1.44 0-2.25 1.08t-.81 3.54m21.093-3.84q-.93-.33-1.68-.33-1.05 0-1.77.57-.69.54-.93 1.41V29h-3.9V14h3.03l.45 1.98h.12q.51-1.11 1.38-1.71t2.04-.6q.78 0 1.77.33zm1.586-3.66h2.07v-2.82l3.9-1.11V14h3.66v3.3h-3.66v5.76q0 1.56.3 2.25.33.66 1.2.66.6 0 1.02-.12.45-.12.99-.36l.69 3q-.81.39-1.89.66t-2.19.27q-2.07 0-3.06-1.05-.96-1.08-.96-3.51V17.3h-2.07zm18.227 0h2.07v-.84q0-2.85 1.2-4.11 1.2-1.29 3.48-1.29 2.4 0 3.99.57l-.75 3.12q-.69-.24-1.23-.3-.51-.09-1.08-.09-.6 0-.96.18-.33.18-.51.57-.15.36-.21.93-.03.54-.03 1.26h3.3v3.3h-3.3V29h-3.9V17.3h-2.07zm10.152 7.5q0-3.81 1.86-5.85 1.86-2.07 5.22-2.07 1.8 0 3.12.57t2.19 1.62q.87 1.02 1.29 2.49.45 1.47.45 3.24 0 3.81-1.86 5.88-1.83 2.04-5.19 2.04-1.8 0-3.12-.57t-2.22-1.59q-.87-1.05-1.32-2.52-.42-1.47-.42-3.24m4.02 0q0 .99.18 1.83t.54 1.47.93.99q.6.33 1.41.33 1.53 0 2.28-1.11t.75-3.51q0-2.07-.69-3.33-.69-1.29-2.34-1.29-1.44 0-2.25 1.08t-.81 3.54m21.094-3.84q-.93-.33-1.68-.33-1.05 0-1.77.57-.69.54-.93 1.41V29h-3.9V14h3.03l.45 1.98h.12q.51-1.11 1.38-1.71t2.04-.6q.78 0 1.77.33zM92.93 48.89q0 .78-.21 1.56-.18.78-.63 1.44-.45.63-1.17 1.14-.72.48-1.74.72v.18q.9.15 1.71.51t1.41.99.93 1.53q.36.9.36 2.13 0 1.62-.69 2.82-.69 1.17-1.86 1.92-1.14.75-2.61 1.11t-3.03.36h-1.32q-.78 0-1.71-.06-.9-.03-1.86-.12-.93-.09-1.71-.27v-20.7q.57-.09 1.29-.18.75-.09 1.59-.15t1.71-.09q.9-.03 1.77-.03 1.47 0 2.85.24 1.41.21 2.49.78 1.11.57 1.77 1.59t.66 2.58m-7.5 13.02q.75 0 1.44-.18a4 4 0 0 0 1.26-.54q.54-.39.87-.96t.33-1.35q0-.99-.39-1.56t-1.02-.87q-.63-.33-1.41-.42t-1.56-.09h-2.19v5.79q.15.06.48.09l.69.06q.39 0 .78.03zm-1.35-9.09q.42 0 .96-.03.57-.03.93-.09 1.14-.36 1.95-1.08.84-.72.84-1.89 0-.78-.3-1.29t-.81-.81q-.48-.3-1.11-.42t-1.32-.12q-.78 0-1.44.03t-1.02.09v5.61zm12.265-1.95q1.2-.54 2.85-.84 1.65-.33 3.45-.33 1.56 0 2.61.39 1.05.36 1.65 1.05.63.69.87 1.65.27.96.27 2.16 0 1.32-.09 2.67-.09 1.32-.12 2.61 0 1.29.09 2.52.09 1.2.45 2.28h-3.18l-.63-2.07h-.15q-.6.93-1.68 1.62-1.05.66-2.73.66-1.05 0-1.89-.3-.84-.33-1.44-.9-.6-.6-.93-1.38a4.7 4.7 0 0 1-.33-1.8q0-1.38.6-2.31.63-.96 1.77-1.53 1.17-.6 2.76-.81 1.62-.24 3.6-.15.21-1.68-.24-2.4-.45-.75-2.01-.75-1.17 0-2.49.24-1.29.24-2.13.63zm4.95 11.16q1.17 0 1.86-.51.69-.54 1.02-1.14v-1.95q-.93-.09-1.8-.03-.84.06-1.5.27t-1.05.6-.39.99q0 .84.48 1.32.51.45 1.38.45M120.497 65v-8.52q0-1.83-.54-2.64-.51-.81-1.77-.81-1.11 0-1.89.66-.75.63-1.08 1.59V65h-3.9V50h3.09l.45 1.98h.12q.69-.96 1.83-1.68t2.94-.72q1.11 0 1.98.3t1.47.99.9 1.89q.3 1.17.3 2.91V65zm19.918-5.28q0 1.26.03 2.52t.27 2.79h-2.79l-.54-1.95h-.12q-.6 1.05-1.74 1.71-1.11.63-2.64.63-2.82 0-4.38-1.86t-1.56-5.82q0-3.84 1.74-5.97t5.1-2.13q.93 0 1.53.12.6.09 1.2.33V44h3.9zm-6.63 2.4q1.14 0 1.8-.54.66-.57.93-1.62V53.6q-.42-.33-.93-.48-.51-.18-1.32-.18-1.65 0-2.49 1.11-.81 1.11-.81 3.81 0 1.92.66 3.09.69 1.17 2.16 1.17M147.587 50v8.52q0 1.83.42 2.64.45.81 1.71.81 1.11 0 1.83-.66.75-.66 1.11-1.62V50h3.9v10.44q0 1.23.12 2.43.12 1.17.36 2.13h-2.94l-.69-2.22h-.12q-.69 1.14-1.92 1.89t-2.91.75q-1.14 0-2.04-.3t-1.5-.99-.93-1.86q-.3-1.17-.3-2.94V50zm21.573 15v-8.52q0-1.83-.54-2.64-.51-.81-1.77-.81-1.11 0-1.89.66-.75.63-1.08 1.59V65h-3.9V50h3.09l.45 1.98h.12q.69-.96 1.83-1.68t2.94-.72q1.11 0 1.98.3t1.47.99.9 1.89q.3 1.17.3 2.91V65zm19.857 0q0 3.27-1.77 4.8-1.77 1.56-4.95 1.56-2.16 0-3.42-.3-1.23-.3-1.86-.63l.81-3.09q.69.27 1.59.54.93.27 2.28.27 2.04 0 2.76-.9.75-.87.75-2.46v-.96h-.12q-1.05 1.41-3.72 1.41-2.91 0-4.35-1.8-1.41-1.8-1.41-5.64 0-4.02 1.92-6.09t5.58-2.07q1.92 0 3.42.27 1.53.27 2.49.63zm-6.6-2.88q1.14 0 1.74-.51.63-.51.96-1.53v-6.75q-.93-.39-2.31-.39-1.5 0-2.34 1.14-.84 1.11-.84 3.57 0 2.19.72 3.33t2.07 1.14"/><path fill="#fff" d="M31.165 67.439H32.2q.06.03 0 .057h-1.033q-.06-.03 0-.057M0 35.859c.11-.138.01-.323.115-.462q.028.38-.052.75-.033.056-.063 0zm.116 3.682C.01 39.403.11 39.218 0 39.08v-.288q.03-.057.066-.003.075.373.05.752m63.197-1.668v-.807q.027-.06.051 0v.806q-.024.06-.051.001"/><path fill="#fff" d="m63.364 37.067-.025-.002h-.026v-.345a.3.3 0 0 1 .051.001zm-.051.806.051-.001v.345l-.026.001h-.026zM30.008 7.549q0-.025.003-.049h.304q.062.03-.004.05zm1.036-.049c-.092.079-.204.053-.31.051q-.033-.02-.019-.037a.03.03 0 0 1 .025-.014zm1.587.051c-.107.002-.219.028-.311-.05h.304q.036.012.027.03-.01.02-.02.02m.722-.051a.2.2 0 0 1 .003.048l-.303.001q-.066-.02-.004-.049zm-2.188 59.939v.057h-.303v-.059a.8.8 0 0 1 .303.002m1.034.057v-.057q.151-.03.303-.002v.059z"/><path fill="#fff" d="m30.74 7.5-.006.051h-.241q-.058-.03.005-.05zm1.891.051-.007-.05h.243q.06.02.005.05zM.063 36.32c.006.083.018.167-.063.229v-.23q.033-.06.063.001M0 38.39c.082.061.069.146.062.229q-.03.06-.062 0z"/><path fill="#fff" d="M30.497 7.5a.3.3 0 0 1-.004.05h-.182l.004-.05zm2.374.05-.004-.05h.182q0 .025.004.05zM.063 36.32H0v-.173l.063.002zM0 38.62l.062-.001.004.17-.066.003z"/><path fill="#00A64F" d="M63.31 35.46a20 20 0 0 0-.555-4.347 28.7 28.7 0 0 0-2.86-7.512 30 30 0 0 0-2.12-3.312 31.6 31.6 0 0 0-3.586-4.074 30 30 0 0 0-2.408-2.055 31 31 0 0 0-4.922-3.137 32.4 32.4 0 0 0-6.443-2.496 26.6 26.6 0 0 0-7.074-.998h-.71c-.103-.014-.213.03-.312-.029h-1.276c-.1.059-.211.015-.316.029h-.71c-.244-.001-.486.022-.727.024-1.272.017-2.539.15-3.786.398a32.6 32.6 0 0 0-11.193 4.32 30.8 30.8 0 0 0-5.577 4.4c-.362.362-.728.72-1.07 1.097a31 31 0 0 0-3.06 3.956A28.7 28.7 0 0 0 .61 31.167a19.6 19.6 0 0 0-.55 4.26q.01.347-.03.691v.18c-.013.083.028.172-.031.25v1.841c.059.08.018.17.03.255v.18q.044.346.03.693c-.01.201.025.401.028.602.048 1.224.222 2.44.52 3.63a28.8 28.8 0 0 0 3.713 9.029 30.6 30.6 0 0 0 6.229 7.147 32.1 32.1 0 0 0 10.321 5.843 30 30 0 0 0 10.026 1.699h1.579c.553-.056 1.11-.04 1.666-.05a23.4 23.4 0 0 0 4.493-.585c3.09-.654 6.07-1.75 8.847-3.255a32.6 32.6 0 0 0 6.467-4.627 30 30 0 0 0 2.265-2.355 29.3 29.3 0 0 0 3.695-5.281 28.7 28.7 0 0 0 2.462-5.985c.358-1.244.627-2.513.804-3.795a25 25 0 0 0 .159-3.352V36.75c-.004-.43-.022-.861-.024-1.29M31.546 60.23C18.204 60.16 7.644 49.855 7.641 37.47c-.002-12.445 10.654-22.766 24.05-22.771 13.416.01 24.064 10.359 24.042 22.808-.022 12.42-10.692 22.795-24.187 22.723"/><path fill="#00A64F" d="M42.707 41.217a6.23 6.23 0 0 0-3.922-4.251 10.7 10.7 0 0 0-2.12-.588c-.082-.014-.16-.02-.163-.127-.003-.1.027-.15.142-.177q.398-.09.784-.222a6.34 6.34 0 0 0 4.1-3.7 7.8 7.8 0 0 0 .36-4.417 5.9 5.9 0 0 0-3.184-4.131 10.4 10.4 0 0 0-2.614-.977 23.8 23.8 0 0 0-5.082-.569c-1.255-.024-2.51.015-3.764.063q-1.091.042-2.181.125c-1.18.086-2.355.221-3.526.382-.38.052-.38.046-.38.418v28.178q.005.1-.002.2c-.015.148.036.223.204.255.606.114 1.213.215 1.826.28 1.369.144 2.742.228 4.117.276 1.194.042 2.39.01 3.584.022 1.284.01 2.567-.108 3.828-.353a13.1 13.1 0 0 0 4.594-1.726 7.48 7.48 0 0 0 3.43-4.44 8.4 8.4 0 0 0-.031-4.521M27.025 27.25c0-.283.001-.281.288-.31q2.042-.195 4.09-.103a6.3 6.3 0 0 1 2.549.569 3.1 3.1 0 0 1 1.905 2.792c.03.412-.004.825-.1 1.226a3.17 3.17 0 0 1-1.047 1.647 7.9 7.9 0 0 1-2.859 1.523 5.6 5.6 0 0 1-1.32.153 53 53 0 0 1-3.276.057c-.226-.002-.23-.005-.23-.228q-.003-1.852 0-3.706zm9.639 16.675a3.74 3.74 0 0 1-1.859 2.64c-.79.464-1.67.757-2.582.858-.825.088-1.656.108-2.484.057a33 33 0 0 1-2.152-.113c-.562-.052-.562-.049-.562-.564V39.5q.002-.1 0-.202c-.002-.08.033-.125.123-.122h.122c1.325.003 2.651-.028 3.977.025a9.7 9.7 0 0 1 2.717.4 4.4 4.4 0 0 1 1.93 1.198c.465.525.742 1.19.788 1.891.046.41.04.825-.019 1.233"/></svg>