<svg xmlns="http://www.w3.org/2000/svg" width="64" height="61" fill="none" viewBox="0 0 64 61"><path fill="#fff" d="M31.165 60.439H32.2q.06.03 0 .057h-1.033q-.06-.03 0-.057M0 28.859c.11-.138.01-.323.115-.462q.028.38-.052.75-.033.056-.063 0zM.116 32.541C.01 32.403.11 32.218 0 32.08v-.288q.03-.057.066-.003.075.373.05.752M63.313 30.873v-.807q.027-.06.051 0v.806q-.024.06-.051 0"/><path fill="#fff" d="m63.364 30.067-.025-.002h-.026v-.345a.3.3 0 0 1 .051.001zM63.313 30.873l.051-.001v.345l-.026.001h-.026zM30.009.549q0-.025.002-.049h.304q.062.03-.004.05zM31.044.5c-.092.079-.204.053-.31.051q-.033-.02-.019-.037A.03.03 0 0 1 30.74.5zM32.631.551c-.107.002-.219.028-.311-.05h.304q.036.012.027.03-.01.02-.02.02M33.353.5a.2.2 0 0 1 .003.048l-.303.001Q32.987.53 33.05.5zM31.165 60.439v.057h-.303v-.059a.8.8 0 0 1 .303.002M32.199 60.496v-.057q.151-.03.303-.002v.059z"/><path fill="#fff" d="m30.74.5-.006.051h-.241q-.057-.03.004-.05zM32.631.551l-.007-.05h.243q.06.02.005.05zM.063 29.32c.006.083.018.167-.063.229v-.23q.033-.06.063.001M0 31.39c.082.061.069.146.062.229q-.03.06-.062 0z"/><path fill="#fff" d="M30.497.5a.3.3 0 0 1-.004.05h-.182l.004-.05zM32.872.55a.3.3 0 0 1-.005-.05h.182q0 .025.004.05zM.063 29.32 0 29.32v-.173l.063.002zM0 31.62l.062-.001.004.17-.066.003z"/><path fill="#00A64F" d="M63.31 28.46a20 20 0 0 0-.555-4.347 28.7 28.7 0 0 0-2.86-7.512 30 30 0 0 0-2.12-3.312 31.6 31.6 0 0 0-3.586-4.074 30 30 0 0 0-2.408-2.055 31 31 0 0 0-4.922-3.137 32.4 32.4 0 0 0-6.443-2.496A26.6 26.6 0 0 0 33.342.53h-.71C32.53.515 32.42.559 32.32.5h-1.276c-.1.059-.211.015-.316.029h-.71c-.244-.001-.486.022-.727.024-1.272.017-2.539.15-3.786.398a32.6 32.6 0 0 0-11.193 4.32 30.8 30.8 0 0 0-5.577 4.4c-.362.362-.728.72-1.07 1.097a30.7 30.7 0 0 0-3.06 3.956A28.707 28.707 0 0 0 .61 24.167a19.6 19.6 0 0 0-.55 4.26q.01.347-.03.691v.18c-.013.083.028.172-.031.25v1.841c.059.08.018.17.03.256v.18q.044.344.03.692c-.01.201.025.401.028.602.048 1.224.222 2.44.52 3.63a28.8 28.8 0 0 0 3.713 9.029 30.6 30.6 0 0 0 6.229 7.147 32.1 32.1 0 0 0 10.321 5.843 30 30 0 0 0 10.026 1.699h1.579c.553-.056 1.11-.04 1.666-.05a23.4 23.4 0 0 0 4.493-.584c3.09-.655 6.07-1.751 8.847-3.256a32.6 32.6 0 0 0 6.467-4.627 30 30 0 0 0 2.265-2.355 29.3 29.3 0 0 0 3.695-5.281 28.7 28.7 0 0 0 2.462-5.985c.358-1.244.627-2.513.804-3.795a25 25 0 0 0 .159-3.352V29.75c-.004-.43-.022-.861-.024-1.29M31.546 53.23c-13.342-.07-23.902-10.375-23.905-22.76C7.639 18.026 18.295 7.705 31.691 7.7c13.416.01 24.064 10.359 24.042 22.808-.022 12.42-10.692 22.795-24.187 22.723"/><path fill="#00A64F" d="M42.707 34.217a6.23 6.23 0 0 0-3.922-4.251 10.7 10.7 0 0 0-2.12-.588c-.082-.014-.16-.02-.163-.128-.003-.1.027-.15.142-.176q.398-.09.784-.222a6.34 6.34 0 0 0 4.1-3.7c.544-1.407.67-2.941.36-4.417a5.9 5.9 0 0 0-3.184-4.131 10.4 10.4 0 0 0-2.614-.977 23.8 23.8 0 0 0-5.082-.569c-1.255-.024-2.51.015-3.764.063q-1.091.043-2.181.124c-1.18.087-2.355.222-3.526.383-.38.052-.38.046-.38.418v28.178q.005.1-.002.2c-.015.148.036.223.204.255.606.114 1.213.215 1.826.28 1.369.144 2.742.228 4.117.276 1.194.042 2.39.01 3.584.022 1.284.01 2.567-.108 3.828-.353a13.1 13.1 0 0 0 4.594-1.726 7.48 7.48 0 0 0 3.43-4.44 8.4 8.4 0 0 0-.031-4.521M27.025 20.25c0-.283.002-.281.288-.31a29 29 0 0 1 4.09-.103c.88.01 1.748.204 2.549.569a3.1 3.1 0 0 1 1.905 2.792 4 4 0 0 1-.1 1.226 3.17 3.17 0 0 1-1.047 1.647 7.9 7.9 0 0 1-2.859 1.523 5.6 5.6 0 0 1-1.32.153c-1.091.058-2.184.067-3.276.057-.226-.002-.23-.005-.23-.228q-.002-1.852 0-3.706zm9.639 16.675a3.74 3.74 0 0 1-1.859 2.64c-.79.464-1.67.757-2.582.858-.825.088-1.656.108-2.484.057a33 33 0 0 1-2.152-.113c-.562-.052-.562-.049-.562-.564V32.5q.002-.1 0-.202c-.002-.08.033-.125.123-.122h.122c1.325.003 2.652-.028 3.977.025.92.004 1.835.138 2.717.4a4.4 4.4 0 0 1 1.93 1.198c.465.525.742 1.19.788 1.891.046.41.04.825-.018 1.233"/></svg>