<svg xmlns="http://www.w3.org/2000/svg" width="650" height="95" fill="none" viewBox="0 0 650 95"><g clip-path="url(#a)"><path fill="#fff" d="M422.285 33.696q0-11.61.005-23.219a11.7 11.7 0 0 1 .442-3.529c1.062-3.38 4.055-5.537 8.011-5.775q.54-.031 1.084-.031 14.503-.002 29.008 0c3.072.002 5.443 1.362 6.433 3.665 1.663 3.866-1.443 8.194-5.928 8.205-8.321.02-16.641.005-24.962.005q-.346.017-.69-.004c-.478-.05-.617.141-.615.587.013 4.637.02 9.275-.004 13.912-.004.796.556.538.941.539q11.691.017 23.384.01c3.481.003 5.898 1.793 6.555 4.827a6.07 6.07 0 0 1-1.369 4.886 6 6 0 0 1-2.062 1.559 5.9 5.9 0 0 1-2.521.537q-11.939.021-23.877-.018c-.879-.004-1.067.208-1.061 1.023.041 5.577.024 11.155.021 16.732a6.26 6.26 0 0 1-1.681 4.386 6.15 6.15 0 0 1-4.243 1.948 6.3 6.3 0 0 1-4.546-1.466 6.42 6.42 0 0 1-2.247-4.249 14 14 0 0 1-.075-1.5q-.007-11.514-.003-23.03m147.286 2.262-.001 21.713a6.22 6.22 0 0 1-1.564 4.23 6.1 6.1 0 0 1-3.997 2.03 6.48 6.48 0 0 1-4.508-1.193 6.58 6.58 0 0 1-2.569-3.923 6 6 0 0 1-.08-1.216q-.006-21.76.016-43.52c.001-.833-.183-1.095-1.11-1.085-4.702.05-9.405.043-14.108.015a6.27 6.27 0 0 1-3.575-1.144 6.36 6.36 0 0 1-2.3-2.989 5.76 5.76 0 0 1-.004-3.594 5.7 5.7 0 0 1 2.123-2.885 7.7 7.7 0 0 1 4.648-1.261q20.67.013 41.339.005a10.4 10.4 0 0 1 1.961.15 5.84 5.84 0 0 1 3.695 2.015 5.94 5.94 0 0 1 1.406 3.993 6.42 6.42 0 0 1-2.041 4.045 6.32 6.32 0 0 1-4.185 1.664c-4.604.035-9.208.003-13.813.013-1.476.002-1.329-.225-1.33 1.224q-.009 10.856-.003 21.713m80.219 6.65a14.2 14.2 0 0 0-1.797-5.236 14 14 0 0 0-3.66-4.132 17 17 0 0 0-4.104-2.101 17.6 17.6 0 0 0 4.197-2.959c4.443-4.362 4.749-12.643 2.26-17.482-3.291-6.397-8.95-9.324-16.198-9.491-7.361-.17-14.73-.097-22.095-.053-5.658.034-9.201 3.503-9.203 8.885q-.009 22.37 0 44.737c.003 5.393 3.589 8.788 9.26 8.789 6.971.002 13.942-.01 20.913.007 2.102.03 4.202-.164 6.264-.578 7.323-1.556 12.193-5.559 13.886-12.713.024-.676.19-1.34.487-1.946v-5.264c-.268-.072-.181-.294-.21-.463m-37.864-28.843c-.005-.673.215-.833.888-.824 2.596.035 5.194.014 8.331.014 2.477.123 5.508-.228 8.517.198q5.794.821 5.766 6.491c-.012 3.695-2.056 5.97-5.841 6.492q-1.27.178-2.552.176c-4.701-.014-9.402-.02-14.102.007-.727.004-1.022-.11-1.012-.904.048-3.883.039-7.767.005-11.65m24.386 34.598c-1.383 2.532-3.885 3.385-6.649 3.515-2.786.13-5.585.029-8.378.029v.032c-2.826 0-5.653-.02-8.48.014-.685.009-.882-.17-.878-.832.03-4.446.018-8.893.012-13.34 0-.457-.058-.847.67-.839 5.652.065 11.308-.15 16.955.104 6.251.282 9.644 6.014 6.748 11.317M531.284 19.869a23.1 23.1 0 0 0-4.329-8.751 22.9 22.9 0 0 0-7.536-6.152 32.3 32.3 0 0 0-13.139-3.61c-6.432-.453-12.883-.267-19.322-.155-5.282.092-8.489 3.408-8.491 8.431q-.004 11.325-.001 22.651l.001 22.65c0 5.205 3.61 8.63 9.098 8.632 4.801.002 9.602-.012 14.403.006a43.5 43.5 0 0 0 8.52-.76c10.592-2.072 17.721-7.887 20.687-17.878a45.9 45.9 0 0 0 .109-25.064m-12.119 20.737c-1.549 6.104-5.893 9.822-12.415 10.745a34 34 0 0 1-4.907.343 558 558 0 0 0-9.766.012c-.738.009-.936-.177-.933-.885.03-6.171.018-12.343.018-18.514 0-6.109.015-12.217-.02-18.326-.004-.783.208-1 1.032-.98 4.27.101 8.552-.192 12.813.187 6.251.555 11.085 3.125 13.486 8.965a18.3 18.3 0 0 1 1.356 5.84c.436 4.214.212 8.47-.664 12.613M381.956 9.225h-15.293c-1.457 0-2.109-.57-2.116-1.843-.006-1.177.782-1.9 2.151-1.905 4.209-.013 8.419-.007 12.629-.007 5.919 0 11.839.01 17.759-.006a2.082 2.082 0 0 1 2.127 1.333 1.84 1.84 0 0 1-.595 2.112 1.46 1.46 0 0 1-1.172.315q-7.746.002-15.49.001"/><path fill="#fff" d="M408.342 34.261a97 97 0 0 0-.427-9.581c-.403-2.965-.231-5.985-.534-8.995-.342-3.39-.362-6.843-.522-10.268a2.1 2.1 0 0 0-.078-.82 5.9 5.9 0 0 0-2.117-2.453 5.8 5.8 0 0 0-3.084-.95c-2.196-.118-4.403-.053-6.605-.051q-16.472.01-32.94.036c-1.78.003-4.436 1.44-4.813 3.161a31.4 31.4 0 0 0-.613 4.945c-.168 2.971-.186 5.943-.449 8.92-.256 2.898-.225 5.822-.543 8.732-.201 1.85-.194 3.734-.227 5.597-.108 6.2.004 12.403-.065 18.604-.024 2.145 2.595 5.245 4.981 5.496.775.08.915.411.908 1.019-.015 1.19-.003 2.38-.005 3.57-.04.69.162 1.372.568 1.927a7.5 7.5 0 0 0 2.646 1.953l2.366-.048c2.016-1.05 3.394-2.466 3.181-4.857-.069-.776.043-1.567-.026-2.343-.069-.783.21-.994 1.032-.99 6.86.031 13.721.018 20.581.018.559 0 1.119.028 1.674-.008.527-.034.683.158.665.648a46 46 0 0 0-.007 2.814 5.1 5.1 0 0 0 .838 2.838 5 5 0 0 0 2.272 1.876l2.745-.004c.158-.155.286-.387.478-.453a3.4 3.4 0 0 0 1.8-1.36c.429-.646.629-1.42.565-2.196.031-1.159.009-2.318.005-3.477-.001-.431.062-.773.612-.908 3.345-.82 5.219-2.8 5.226-6.101.013-5.43.11-10.866-.088-16.29m-39.497 15.973c-1.075-.092-2.165-.018-3.248-.018-1.116 0-2.232-.003-3.348 0a2.22 2.22 0 0 1-1.482-.633 2.274 2.274 0 0 1-.196-3.025 2.23 2.23 0 0 1 1.389-.822c2.362-.054 4.727-.06 7.088.001a1.96 1.96 0 0 1 1.516.767 2 2 0 0 1 .363 1.672c-.111 1.192-.751 2.173-2.082 2.058m32.585-.017c-1.051-.005-2.103-.001-3.154-.001-1.117 0-2.235.01-3.352-.003a1.66 1.66 0 0 1-1.35-.444 1.7 1.7 0 0 1-.525-1.331 14 14 0 0 1-.001-.845 1.78 1.78 0 0 1 .536-1.394 1.75 1.75 0 0 1 1.404-.479 248 248 0 0 1 6.604 0c1.494.021 2.154.85 2.098 2.515a2.04 2.04 0 0 1-.691 1.5 2 2 0 0 1-1.569.482m-.402-13.724c-.833.138-1.677.2-2.521.187q-8.337-.009-16.676-.003l-16.972-.001a7.46 7.46 0 0 1-3.629-.737 2.7 2.7 0 0 1-1.257-.999 2.76 2.76 0 0 1-.482-1.539c.014-3.587.365-7.16.482-10.744.071-2.172.078-4.355.305-6.531a3.86 3.86 0 0 1 1.222-2.689 3.78 3.78 0 0 1 2.756-1.005c11.272-.343 22.547-.075 33.821-.123a6.2 6.2 0 0 1 3.914.873 2.84 2.84 0 0 1 1.309 2.25c.118 2.924.325 5.845.467 8.767.145 3 .184 6.014.48 9.012.159 1.605-1.184 2.916-3.219 3.282m-274.88-22.886h-6.622v22.258H114.5V13.608h-6.622v-4.42h18.27z"/><path fill="#fff" d="M134.564 21.307a5.3 5.3 0 0 0-1.755-.343 3.05 3.05 0 0 0-1.855.572 2.84 2.84 0 0 0-1.057 1.6v12.73h-4.747V16.81h3.63l.559 2.286h.159a4.43 4.43 0 0 1 1.496-1.962 3.75 3.75 0 0 1 2.253-.705c.644.002 1.281.13 1.876.38zm2.712-3.354a11.1 11.1 0 0 1 2.992-1.105 18 18 0 0 1 4.069-.419q3.389 0 4.727 1.676a7.5 7.5 0 0 1 1.336 4.765q0 1.792-.1 3.525a99 99 0 0 0-.139 3.392 36 36 0 0 0 .059 3.201c.059.991.24 1.97.538 2.916h-3.869l-.758-2.325h-.159a5.2 5.2 0 0 1-1.795 1.83 5.4 5.4 0 0 1-2.912.724 4.72 4.72 0 0 1-3.709-1.505 5.78 5.78 0 0 1-1.357-4.02 5.2 5.2 0 0 1 .573-2.815 5.1 5.1 0 0 1 1.98-2.065 12.6 12.6 0 0 1 6.901-1.22 6.3 6.3 0 0 0-.299-3.201 2.15 2.15 0 0 0-2.135-.99c-.831.003-1.659.092-2.472.266a9.4 9.4 0 0 0-2.274.762zm5.704 14.292a2.82 2.82 0 0 0 1.755-.515c.411-.295.752-.679.998-1.123v-3.163a8 8 0 0 0-1.756-.038 5 5 0 0 0-1.476.342 2.4 2.4 0 0 0-1.017.78 2.17 2.17 0 0 0-.379 1.317 2.77 2.77 0 0 0 .5 1.79 1.67 1.67 0 0 0 1.375.61m21.022 3.621V24.28a6 6 0 0 0-.518-2.935 1.91 1.91 0 0 0-1.756-.839 2.78 2.78 0 0 0-1.794.61 3.33 3.33 0 0 0-1.077 1.525v13.225h-4.747V16.81h3.789l.559 2.21h.119a6.3 6.3 0 0 1 1.955-1.886 5.97 5.97 0 0 1 3.231-.782 6.2 6.2 0 0 1 2.135.343 3.6 3.6 0 0 1 1.575 1.125c.47.618.797 1.334.957 2.096.233 1.07.34 2.163.319 3.258v12.692zm15.118-5.069a1.87 1.87 0 0 0-.539-1.353 6.2 6.2 0 0 0-1.375-1.03 69 69 0 0 0-1.775-.97 9.5 9.5 0 0 1-1.776-1.22 5.9 5.9 0 0 1-1.375-1.754 5.54 5.54 0 0 1-.54-2.592 5.45 5.45 0 0 1 .325-2.22 5.4 5.4 0 0 1 1.191-1.896 6.23 6.23 0 0 1 4.468-1.448 14.6 14.6 0 0 1 3.311.363 9.1 9.1 0 0 1 2.473.895l-1.117 3.507a16 16 0 0 0-1.835-.591 8.2 8.2 0 0 0-2.114-.286q-1.954 0-1.954 1.562a1.54 1.54 0 0 0 .538 1.2q.636.545 1.376.935.837.458 1.775.953c.639.34 1.234.755 1.775 1.238a6 6 0 0 1 1.376 1.811c.383.821.568 1.722.539 2.629a5.6 5.6 0 0 1-.388 2.297 5.6 5.6 0 0 1-1.288 1.934 6.96 6.96 0 0 1-4.985 1.6 13.6 13.6 0 0 1-3.212-.38 8.4 8.4 0 0 1-2.533-.992l1.317-3.658c.617.33 1.265.597 1.934.8.743.23 1.516.346 2.293.343a2.67 2.67 0 0 0 1.516-.4 1.4 1.4 0 0 0 .468-.558c.105-.224.15-.472.131-.719m7.658-13.987h3.551l.479 2.172h.119a6.06 6.06 0 0 1 2.054-2 5.74 5.74 0 0 1 2.812-.63 5.2 5.2 0 0 1 2.564.502 5.25 5.25 0 0 1 2.004 1.69q1.536 2.192 1.535 7.298 0 5.109-1.914 7.833a6.4 6.4 0 0 1-2.424 2.084 6.33 6.33 0 0 1-3.12.64 7.6 7.6 0 0 1-1.637-.152 4.6 4.6 0 0 1-1.275-.495v7.737h-4.748zm4.748 14.788c.258.25.563.444.897.571.417.14.857.205 1.297.19a2.63 2.63 0 0 0 1.434-.393c.431-.267.778-.652.999-1.111a11.3 11.3 0 0 0 .837-5.127 9.6 9.6 0 0 0-.638-4.02 2.2 2.2 0 0 0-.854-.99 2.17 2.17 0 0 0-1.26-.326 2.73 2.73 0 0 0-1.76.63c-.495.41-.832.983-.952 1.619zm12.763-5.26q0-5.068 2.075-7.546a7.2 7.2 0 0 1 2.608-1.913 7.1 7.1 0 0 1 3.176-.565 7 7 0 0 1 3.271.537 7.1 7.1 0 0 1 2.672 1.98q1.954 2.513 1.954 7.507 0 5.108-2.073 7.565a7.25 7.25 0 0 1-2.632 1.904 7.2 7.2 0 0 1-3.192.554q-7.86 0-7.859-10.023m4.907 0a11.4 11.4 0 0 0 .678 4.421c.166.47.475.875.884 1.156s.896.423 1.39.406c.465.018.925-.1 1.324-.34.4-.24.723-.591.929-1.012a10.4 10.4 0 0 0 .739-4.631 11.4 11.4 0 0 0-.679-4.46 2.38 2.38 0 0 0-.912-1.14 2.34 2.34 0 0 0-1.401-.384 2.4 2.4 0 0 0-1.28.362c-.384.24-.695.583-.895.992a9.95 9.95 0 0 0-.777 4.63m23.374-5.031a5.3 5.3 0 0 0-1.755-.343 3.05 3.05 0 0 0-1.855.572 2.83 2.83 0 0 0-1.057 1.6v12.73h-4.748V16.81h3.631l.558 2.286h.16A4.43 4.43 0 0 1 229 17.134a3.75 3.75 0 0 1 2.253-.705c.644.002 1.281.13 1.876.38zm2.114-4.497h2.194v-3.582l4.747-1.411v4.993h3.87v4.04h-3.87v8.308c-.05.79.065 1.582.339 2.325a1.245 1.245 0 0 0 1.217.686q.544.006 1.077-.114a7 7 0 0 0 1.036-.343l.599 3.62c-.653.304-1.335.54-2.035.706-.796.193-1.613.289-2.433.285a4.35 4.35 0 0 1-1.84-.256 4.4 4.4 0 0 1-1.57-1.002 6.28 6.28 0 0 1-1.137-4.23V20.85h-2.194zm20.741 0h2.154v-1.067q0-3.621 1.417-5.24a5.1 5.1 0 0 1 1.844-1.268c.7-.28 1.453-.4 2.204-.353a12.1 12.1 0 0 1 4.387.687l-.877 3.849a5.3 5.3 0 0 0-1.276-.324 11 11 0 0 0-1.157-.057 1.38 1.38 0 0 0-.883.174 1.4 1.4 0 0 0-.593.683 9.3 9.3 0 0 0-.319 2.915h3.39v4.04h-3.39v15.017h-4.747V20.85h-2.154zm11.727 9.528q0-5.068 2.075-7.546a7.2 7.2 0 0 1 2.608-1.913 7.1 7.1 0 0 1 3.176-.565 7 7 0 0 1 3.272.537 7.1 7.1 0 0 1 2.672 1.98q1.954 2.513 1.954 7.507 0 5.108-2.074 7.565a7.2 7.2 0 0 1-2.632 1.904 7.2 7.2 0 0 1-3.192.554q-7.859 0-7.859-10.023m4.907 0a11.4 11.4 0 0 0 .679 4.421c.165.47.475.875.884 1.156.408.28.895.423 1.389.406.465.018.925-.1 1.325-.34s.722-.591.928-1.012a10.4 10.4 0 0 0 .739-4.631 11.4 11.4 0 0 0-.678-4.46 2.38 2.38 0 0 0-.913-1.14 2.34 2.34 0 0 0-1.401-.384 2.4 2.4 0 0 0-1.28.362c-.384.24-.694.583-.894.992a9.94 9.94 0 0 0-.778 4.63m23.375-5.031a5.3 5.3 0 0 0-1.755-.343 3.04 3.04 0 0 0-1.854.572 2.83 2.83 0 0 0-1.058 1.6v12.73h-4.747V16.81h3.63l.559 2.286h.159a4.43 4.43 0 0 1 1.496-1.962 3.75 3.75 0 0 1 2.254-.705c.643.002 1.281.13 1.875.38zM125.31 61.096a9 9 0 0 1-.219 1.963 6.8 6.8 0 0 1-.699 1.83 5.3 5.3 0 0 1-1.256 1.505 5.4 5.4 0 0 1-1.855.991v.228a7.6 7.6 0 0 1 1.815.687 4.9 4.9 0 0 1 1.496 1.238c.45.568.795 1.214 1.017 1.906.269.856.397 1.751.379 2.65a8 8 0 0 1-.738 3.563 6.75 6.75 0 0 1-1.995 2.458 8.5 8.5 0 0 1-2.931 1.41c-1.159.31-2.352.464-3.551.457h-1.436q-.876 0-1.895-.057a42 42 0 0 1-2.093-.172 15 15 0 0 1-1.995-.342V55.113a41 41 0 0 1 3.251-.4 43 43 0 0 1 3.85-.172 21 21 0 0 1 3.37.267 8.1 8.1 0 0 1 2.833.991 5.3 5.3 0 0 1 1.934 2 6.7 6.7 0 0 1 .718 3.297m-9.773 5.145q.438 0 1.018-.056a9 9 0 0 0 .936-.134 4.65 4.65 0 0 0 1.975-1.372 3.67 3.67 0 0 0 .818-2.477 4.5 4.5 0 0 0-.279-1.677c-.16-.42-.42-.793-.758-1.086a2.9 2.9 0 0 0-1.137-.572 5.6 5.6 0 0 0-1.416-.171 12 12 0 0 0-2.314.152v7.393zm1.356 11.587a3.82 3.82 0 0 0 2.752-1.029 3.96 3.96 0 0 0 1.078-3.01 4.65 4.65 0 0 0-.36-2.002 2.8 2.8 0 0 0-.957-1.143 3.3 3.3 0 0 0-1.376-.515 11 11 0 0 0-1.615-.114h-2.035V77.6q.539.15 1.097.172.779.057 1.416.057m12.365-14.141a11.1 11.1 0 0 1 2.992-1.105 18 18 0 0 1 4.069-.419q3.389 0 4.727 1.676a7.5 7.5 0 0 1 1.336 4.765q0 1.792-.1 3.525a99 99 0 0 0-.139 3.392 36 36 0 0 0 .059 3.201c.059.991.24 1.97.538 2.916h-3.869l-.758-2.325h-.159a5.2 5.2 0 0 1-1.795 1.83 5.4 5.4 0 0 1-2.912.724 4.72 4.72 0 0 1-3.709-1.505 5.78 5.78 0 0 1-1.357-4.02 5.2 5.2 0 0 1 .573-2.815 5.1 5.1 0 0 1 1.98-2.065 12.6 12.6 0 0 1 6.901-1.22 6.3 6.3 0 0 0-.299-3.201 2.16 2.16 0 0 0-.922-.814 2.15 2.15 0 0 0-1.213-.177c-.831.004-1.659.093-2.472.267a9.4 9.4 0 0 0-2.274.762zm5.704 14.292a2.82 2.82 0 0 0 1.755-.515c.411-.295.752-.679.998-1.123V73.18a8 8 0 0 0-1.756-.038 5 5 0 0 0-1.476.342 2.4 2.4 0 0 0-1.017.78 2.17 2.17 0 0 0-.379 1.316 2.77 2.77 0 0 0 .5 1.792 1.68 1.68 0 0 0 1.375.61m21.022 3.619V70.015a6 6 0 0 0-.518-2.935 1.91 1.91 0 0 0-1.756-.839 2.77 2.77 0 0 0-1.794.61 3.33 3.33 0 0 0-1.077 1.525V81.6h-4.747V62.544h3.789l.559 2.211h.119a6.3 6.3 0 0 1 1.955-1.886 5.97 5.97 0 0 1 3.231-.782 6.2 6.2 0 0 1 2.135.343 3.6 3.6 0 0 1 1.575 1.125c.47.618.797 1.334.957 2.096.233 1.07.34 2.163.319 3.258v12.692zm22.736-6.708q0 1.602.04 3.201.057 1.782.32 3.545h-3.351l-.638-2.21h-.16a4.9 4.9 0 0 1-1.971 2.062 4.84 4.84 0 0 1-2.775.605 5.6 5.6 0 0 1-2.663-.55 5.7 5.7 0 0 1-2.104-1.736q-1.735-2.287-1.736-7.432 0-5.03 1.876-7.641a6.46 6.46 0 0 1 2.463-2.021 6.4 6.4 0 0 1 3.121-.59 9.3 9.3 0 0 1 1.595.114c.426.076.841.204 1.237.382v-7.7h4.746zm-7.418 3.05a2.66 2.66 0 0 0 1.715-.516 3.1 3.1 0 0 0 .957-1.504v-8.995a2.5 2.5 0 0 0-.898-.495 4.6 4.6 0 0 0-1.296-.153 2.6 2.6 0 0 0-1.391.34c-.423.243-.77.6-1.002 1.032a10.5 10.5 0 0 0-.798 4.878 9.7 9.7 0 0 0 .658 4.02c.16.417.443.774.81 1.023s.802.378 1.245.37m15.835-15.399V73.94a7.7 7.7 0 0 0 .439 3.126c.149.29.381.528.665.684s.608.223.93.192a2.5 2.5 0 0 0 1.876-.78 4.4 4.4 0 0 0 1.076-1.888v-12.73h4.747v13.264q0 1.564.12 3.068c.066.92.212 1.832.438 2.725h-3.59l-.837-2.592h-.12a6.54 6.54 0 0 1-2.054 2.21 5.6 5.6 0 0 1-3.211.877 6.9 6.9 0 0 1-2.194-.323 3.64 3.64 0 0 1-1.635-1.125 5.45 5.45 0 0 1-1.037-2.19 14.4 14.4 0 0 1-.36-3.527V62.544zm23.494 19.057V70.015a6 6 0 0 0-.518-2.935 1.91 1.91 0 0 0-1.756-.839 2.77 2.77 0 0 0-1.794.61 3.33 3.33 0 0 0-1.077 1.525V81.6h-4.747V62.544h3.789l.559 2.211h.119a6.3 6.3 0 0 1 1.955-1.886 5.97 5.97 0 0 1 3.231-.782 6.2 6.2 0 0 1 2.135.343 3.6 3.6 0 0 1 1.575 1.125c.47.618.797 1.334.957 2.096a14 14 0 0 1 .32 3.258v12.692zm22.697 0q0 4.154-1.994 6.117a7.6 7.6 0 0 1-2.577 1.544 7.55 7.55 0 0 1-2.968.42 16.2 16.2 0 0 1-3.869-.364 9.5 9.5 0 0 1-2.154-.78l.997-3.85q.878.342 1.895.648c.786.217 1.598.32 2.413.305a3.3 3.3 0 0 0 1.53-.185 3.3 3.3 0 0 0 1.283-.863 5.35 5.35 0 0 0 .777-3.182v-1.03h-.12c-.382.516-.9.912-1.496 1.144a6.5 6.5 0 0 1-2.412.381 5.35 5.35 0 0 1-2.655-.516c-.827-.397-1.54-1-2.073-1.752q-1.576-2.267-1.576-7.184 0-5.298 2.175-7.813a7.8 7.8 0 0 1 2.82-1.964 7.7 7.7 0 0 1 3.383-.552 21 21 0 0 1 3.869.325c.943.158 1.866.42 2.752.781zm-7.379-3.583a2.64 2.64 0 0 0 1.695-.495c.439-.37.764-.86.937-1.41v-9.528a5 5 0 0 0-.977-.305 6 6 0 0 0-1.257-.115 2.53 2.53 0 0 0-1.339.36 2.57 2.57 0 0 0-.955 1.012 9.9 9.9 0 0 0-.817 4.727q0 5.754 2.713 5.754m124.756-2.833h7.071v1.5h-5.366v5.366h5.003v1.499h-5.003v6.844h-1.705zm9.005 9.777a7.1 7.1 0 0 1 1.057-4.313 3.56 3.56 0 0 1 3.013-1.38 3.5 3.5 0 0 1 1.72.308 3.5 3.5 0 0 1 1.361 1.105 7.5 7.5 0 0 1 .99 4.28 7.04 7.04 0 0 1-1.069 4.324 3.6 3.6 0 0 1-1.337 1.05 3.6 3.6 0 0 1-1.665.319 3.5 3.5 0 0 1-1.72-.308 3.5 3.5 0 0 1-1.362-1.105 7.5 7.5 0 0 1-.988-4.28m1.705 0q-.007.874.125 1.738c.067.468.205.922.409 1.347.168.352.423.655.74.88.323.216.704.326 1.091.315a1.92 1.92 0 0 0 1.773-1.01 6.8 6.8 0 0 0 .591-3.27 11 11 0 0 0-.125-1.727 4.6 4.6 0 0 0-.409-1.358 2.3 2.3 0 0 0-.739-.88 1.87 1.87 0 0 0-1.091-.315 1.9 1.9 0 0 0-1.025.257c-.311.18-.567.445-.737.764a6.7 6.7 0 0 0-.603 3.26m8.845-5.433h1.16l.295 1.152h.069a2.64 2.64 0 0 1 .829-.989c.367-.246.8-.371 1.24-.358.402.009.8.074 1.182.196l-.318 1.585a3.4 3.4 0 0 0-1.045-.195 1.72 1.72 0 0 0-1.184.402c-.31.282-.518.66-.591 1.075v7.996h-1.637zm7.936 0v6.649a5.7 5.7 0 0 0 .353 2.357 1.3 1.3 0 0 0 1.285.706c.294.005.586-.058.852-.184.25-.123.477-.288.671-.49q.304-.315.523-.694.224-.383.364-.804v-7.54h1.637v7.779q0 .781.057 1.618.045.739.17 1.467h-1.159l-.409-1.521h-.069a3.75 3.75 0 0 1-1.114 1.25 3 3 0 0 1-1.818.532 4.2 4.2 0 0 1-1.274-.174 2 2 0 0 1-.932-.63 3 3 0 0 1-.58-1.25 8.7 8.7 0 0 1-.194-2.031v-7.04zm13.939 10.864V83.94q0-.868-.057-1.488a3.1 3.1 0 0 0-.239-1.01 1.24 1.24 0 0 0-.499-.576 1.7 1.7 0 0 0-.842-.185 1.71 1.71 0 0 0-1.307.576 3.15 3.15 0 0 0-.74 1.314v7.822h-1.637V79.53h1.16l.295 1.152h.069c.309-.412.695-.76 1.137-1.021a3.26 3.26 0 0 1 1.683-.391c.498-.02.991.104 1.421.358.424.313.732.76.875 1.271a3 3 0 0 1 1.171-1.195c.51-.29 1.087-.44 1.672-.434.435-.01.869.053 1.284.184.35.119.653.347.865.652.245.375.411.797.489 1.239.117.64.17 1.292.159 1.944v7.105h-1.637v-6.91a5.9 5.9 0 0 0-.285-2.107 1.25 1.25 0 0 0-1.308-.695 1.86 1.86 0 0 0-1.375.51 2.8 2.8 0 0 0-.716 1.38v7.822zm14.871-15.209q.402-.07.808-.098.442-.032.898-.043l.898-.022a31 31 0 0 1 .83-.01 6.6 6.6 0 0 1 2.82.543c.752.344 1.402.88 1.887 1.553a6.6 6.6 0 0 1 1.047 2.422c.42 2.028.423 4.12.01 6.15a7.2 7.2 0 0 1-1.034 2.52 5.4 5.4 0 0 1-1.922 1.738 6.2 6.2 0 0 1-2.99.651q-.296 0-.751-.01a23 23 0 0 1-.943-.044q-.489-.033-.909-.054a5 5 0 0 1-.649-.065zm3.525 1.325h-.489q-.261 0-.511.022-.252.022-.466.044-.216.021-.353.043v12.384q.164.03.329.033l.501.022.5.021q.24.011.352.011a3.9 3.9 0 0 0 2.093-.521 3.8 3.8 0 0 0 1.33-1.401 6.5 6.5 0 0 0 .693-2.043c.14-.814.209-1.64.206-2.466q0-1.138-.182-2.26a6.2 6.2 0 0 0-.648-1.966 3.84 3.84 0 0 0-1.274-1.39 3.7 3.7 0 0 0-2.081-.533m8.505-.282a1.2 1.2 0 0 1 .306-.847 1.06 1.06 0 0 1 .808-.326c.307-.01.605.103.83.315a1.13 1.13 0 0 1 .329.858 1.04 1.04 0 0 1-.329.815c-.23.2-.527.304-.83.293a1.1 1.1 0 0 1-.808-.304 1.08 1.08 0 0 1-.306-.804m.296 3.303h1.637v10.863h-1.637zm4.706 9.081c.342.19.705.34 1.081.446.417.123.85.185 1.284.184a2.2 2.2 0 0 0 1.274-.36 1.31 1.31 0 0 0 .523-1.17 1.85 1.85 0 0 0-.318-1.114 3.5 3.5 0 0 0-.808-.786 8.4 8.4 0 0 0-1.057-.642 5.6 5.6 0 0 1-1.057-.704 3.5 3.5 0 0 1-.808-.974 2.9 2.9 0 0 1-.318-1.43 2.66 2.66 0 0 1 .785-2.089 3.2 3.2 0 0 1 2.216-.703 7 7 0 0 1 1.615.163c.413.092.811.242 1.183.445l-.433 1.304a5 5 0 0 0-2.159-.5 1.8 1.8 0 0 0-1.194.326 1.27 1.27 0 0 0-.376 1.021c-.009.337.104.665.319.924.233.271.505.505.807.695q.488.315 1.057.64.57.328 1.058.772c.33.303.604.663.807 1.065a3.4 3.4 0 0 1 .319 1.553 3.3 3.3 0 0 1-.205 1.152 2.55 2.55 0 0 1-.625.945 3.1 3.1 0 0 1-1.047.64 4.1 4.1 0 0 1-1.466.24 7 7 0 0 1-1.729-.185 4.4 4.4 0 0 1-1.227-.489zm10.598-3.107h-.865v4.889h-1.637V75.185h1.637v9.256l.751-.304 2.661-4.606h1.887l-2.684 4.388-.795.696.932.847 2.934 4.932H437.5zm8.025-5.975v6.649c-.05.802.07 1.606.353 2.357a1.31 1.31 0 0 0 1.285.706c.294.005.586-.058.852-.184.25-.123.477-.288.671-.49q.304-.315.523-.694.224-.383.364-.804v-7.54h1.637v7.779q0 .781.058 1.618.044.739.17 1.467h-1.16l-.409-1.521h-.069a3.75 3.75 0 0 1-1.114 1.25 3 3 0 0 1-1.818.532 4.2 4.2 0 0 1-1.274-.174 2 2 0 0 1-.932-.63 3 3 0 0 1-.58-1.25 8.7 8.7 0 0 1-.194-2.031v-7.04zm8.437 9.082c.342.19.705.34 1.081.446.417.123.85.185 1.284.184.451.014.896-.111 1.274-.36a1.32 1.32 0 0 0 .523-1.169 1.85 1.85 0 0 0-.319-1.115 3.5 3.5 0 0 0-.807-.786 8.4 8.4 0 0 0-1.057-.642 5.5 5.5 0 0 1-1.057-.704 3.5 3.5 0 0 1-.808-.974 2.9 2.9 0 0 1-.318-1.43 2.67 2.67 0 0 1 .784-2.089 3.2 3.2 0 0 1 2.217-.703 7 7 0 0 1 1.615.163c.413.092.811.242 1.183.445l-.433 1.304a5 5 0 0 0-2.159-.5 1.8 1.8 0 0 0-1.194.326 1.27 1.27 0 0 0-.376 1.021c-.009.337.104.665.319.924.232.271.505.505.807.695q.488.315 1.057.64.57.328 1.057.772c.331.303.605.663.808 1.065.227.484.337 1.017.318 1.553.002.393-.067.784-.204 1.152a2.5 2.5 0 0 1-.626.945 3.1 3.1 0 0 1-1.046.64 4.1 4.1 0 0 1-1.466.24 7 7 0 0 1-1.729-.185 4.4 4.4 0 0 1-1.227-.489zm8.072-12.384a1.18 1.18 0 0 1 .307-.847 1.06 1.06 0 0 1 .807-.326c.307-.01.606.103.83.315a1.13 1.13 0 0 1 .33.858 1.03 1.03 0 0 1-.33.815 1.2 1.2 0 0 1-.83.293 1.1 1.1 0 0 1-.807-.304 1.1 1.1 0 0 1-.307-.804m.296 3.303h1.638v10.863h-1.638zm17.85-2.847h-3.911v13.71H471.7v-13.71h-3.911v-1.499h9.527zm-.045 2.846h1.16l.295 1.152h.069a2.64 2.64 0 0 1 .829-.989c.367-.246.8-.371 1.24-.358.402.009.8.074 1.182.196l-.318 1.585a3.4 3.4 0 0 0-1.045-.195 1.72 1.72 0 0 0-1.184.402c-.31.282-.518.66-.591 1.075v7.996h-1.637zm6.345.652c.5-.284 1.041-.49 1.603-.608a9 9 0 0 1 1.989-.217 3.65 3.65 0 0 1 1.536.271c.362.162.676.416.909.739.222.317.37.681.432 1.065q.105.62.102 1.249 0 1.303-.058 2.542-.06 1.239-.058 2.346-.001.827.058 1.532.053.677.218 1.336h-1.283l-.397-1.281h-.09c-.25.4-.59.735-.993.977-.537.3-1.147.443-1.761.413a2.63 2.63 0 0 1-1.997-.815 3.1 3.1 0 0 1-.778-2.249 3.4 3.4 0 0 1 .326-1.564c.214-.416.533-.768.925-1.021a4 4 0 0 1 1.421-.554 9.5 9.5 0 0 1 1.838-.163h.45q.226 0 .475.022.066-.673.067-1.195a2.95 2.95 0 0 0-.382-1.738 1.67 1.67 0 0 0-1.398-.5 5.8 5.8 0 0 0-1.374.185 5 5 0 0 0-1.239.467zm4.889 5.258q-.225-.021-.449-.032a9 9 0 0 0-.45-.011q-.532 0-1.056.087a3 3 0 0 0-.921.304 1.6 1.6 0 0 0-.665.627c-.156.27-.229.581-.211.894a1.92 1.92 0 0 0 .438 1.347 1.48 1.48 0 0 0 1.135.478 2.2 2.2 0 0 0 1.459-.435 2.4 2.4 0 0 0 .72-.956zm10.369 4.954v-6.627a5.2 5.2 0 0 0-.399-2.357 1.48 1.48 0 0 0-1.421-.728 2.18 2.18 0 0 0-1.5.522 3.05 3.05 0 0 0-.865 1.281v7.909h-1.637V79.53h1.183l.295 1.152h.069a3.56 3.56 0 0 1 1.297-1.064 3.5 3.5 0 0 1 1.635-.348c.437-.008.871.058 1.286.195.367.127.69.357.932.663a3.2 3.2 0 0 1 .568 1.25c.143.648.208 1.312.194 1.976v7.04zm4.206-1.782c.342.19.705.34 1.081.446a4.5 4.5 0 0 0 1.284.184c.451.014.896-.111 1.273-.36a1.32 1.32 0 0 0 .524-1.169 1.85 1.85 0 0 0-.319-1.115 3.5 3.5 0 0 0-.807-.786 8.4 8.4 0 0 0-1.058-.642 5.6 5.6 0 0 1-1.057-.704 3.5 3.5 0 0 1-.807-.974 2.9 2.9 0 0 1-.319-1.43 2.66 2.66 0 0 1 .785-2.088 3.2 3.2 0 0 1 2.217-.704 7 7 0 0 1 1.614.163c.413.092.811.242 1.184.445l-.433 1.304a5 5 0 0 0-2.16-.5 1.8 1.8 0 0 0-1.194.326 1.28 1.28 0 0 0-.375 1.021c-.01.337.104.665.318.924.233.271.505.505.808.695q.487.315 1.057.64.57.328 1.057.772c.331.303.604.663.807 1.065a3.4 3.4 0 0 1 .319 1.553c.002.393-.067.784-.204 1.152a2.5 2.5 0 0 1-.626.945 3.1 3.1 0 0 1-1.046.64c-.471.17-.967.25-1.467.24a7 7 0 0 1-1.728-.185 4.4 4.4 0 0 1-1.228-.489zm8.095-9.082h1.161l.25 1.174h.09a2.86 2.86 0 0 1 1.117-1.096 2.83 2.83 0 0 1 1.522-.338 3.06 3.06 0 0 1 1.51.29c.472.225.879.566 1.184.992a7.5 7.5 0 0 1 .898 4.193 9.5 9.5 0 0 1-.296 2.466 5.8 5.8 0 0 1-.841 1.868 3.7 3.7 0 0 1-1.33 1.174c-.54.272-1.137.41-1.74.402q-.526.01-1.045-.076a3.1 3.1 0 0 1-.842-.315v4.475h-1.638zm1.638 9.147c.215.176.457.316.716.413.341.113.699.165 1.058.152.394 0 .781-.109 1.118-.316a2.16 2.16 0 0 0 .792-.857 6.56 6.56 0 0 0 .705-3.346 10 10 0 0 0-.125-1.651 4.4 4.4 0 0 0-.398-1.271 2.2 2.2 0 0 0-.694-.826 1.77 1.77 0 0 0-1.034-.293q-1.66 0-2.138 1.934zm7.982-3.715a7.1 7.1 0 0 1 1.057-4.313 3.6 3.6 0 0 1 1.34-1.061 3.56 3.56 0 0 1 1.674-.318c.59-.046 1.181.06 1.72.307a3.5 3.5 0 0 1 1.361 1.105 7.5 7.5 0 0 1 .989 4.28 7.03 7.03 0 0 1-1.069 4.324 3.6 3.6 0 0 1-1.337 1.05 3.6 3.6 0 0 1-1.664.319 3.5 3.5 0 0 1-1.721-.308 3.5 3.5 0 0 1-1.361-1.105 7.5 7.5 0 0 1-.989-4.28m1.706 0a11 11 0 0 0 .124 1.738 4.6 4.6 0 0 0 .41 1.347c.168.352.422.655.739.88.323.216.704.326 1.092.315a1.935 1.935 0 0 0 1.773-1.01 6.8 6.8 0 0 0 .591-3.27 11 11 0 0 0-.125-1.727 4.6 4.6 0 0 0-.409-1.358 2.3 2.3 0 0 0-.74-.88 1.87 1.87 0 0 0-1.09-.315 1.92 1.92 0 0 0-1.763 1.021 6.7 6.7 0 0 0-.602 3.26m8.844-5.433h1.161l.295 1.152h.069c.19-.394.475-.734.829-.989.366-.246.8-.371 1.24-.358.401.009.799.074 1.182.196l-.319 1.585a3.4 3.4 0 0 0-1.045-.195c-.43-.02-.852.124-1.183.402-.311.282-.519.66-.591 1.075v7.996h-1.638zm5.866 0h1.388v-2.15l1.636-.5v2.65h2.457v1.413h-2.457v6.474c-.032.473.05.946.239 1.38a.84.84 0 0 0 .785.424q.4.007.785-.098.33-.098.716-.25l.319 1.239a5.5 5.5 0 0 1-1.104.38 5.5 5.5 0 0 1-1.262.14 1.83 1.83 0 0 1-1.625-.705 4.1 4.1 0 0 1-.489-2.292v-6.692h-1.388zm7.505.652c.5-.284 1.041-.49 1.603-.608a9 9 0 0 1 1.989-.217 3.65 3.65 0 0 1 1.535.271c.363.162.677.416.91.739.222.317.37.681.432 1.065q.105.62.102 1.249 0 1.303-.058 2.542-.06 1.239-.058 2.346-.001.827.058 1.532.053.677.217 1.336h-1.282l-.397-1.281h-.09c-.25.4-.59.735-.993.977-.538.3-1.147.443-1.761.413a2.63 2.63 0 0 1-1.997-.815 3.1 3.1 0 0 1-.778-2.249 3.4 3.4 0 0 1 .326-1.564c.214-.416.533-.768.924-1.021a4 4 0 0 1 1.422-.554 9.5 9.5 0 0 1 1.838-.163h.45q.226 0 .475.022.066-.673.067-1.195a2.95 2.95 0 0 0-.382-1.738 1.67 1.67 0 0 0-1.398-.5 5.8 5.8 0 0 0-1.374.185 5 5 0 0 0-1.24.467zm4.888 5.258a9 9 0 0 0-.898-.043q-.532 0-1.056.087a3 3 0 0 0-.921.304 1.6 1.6 0 0 0-.665.627c-.156.27-.229.581-.211.894a1.92 1.92 0 0 0 .438 1.347 1.47 1.47 0 0 0 1.135.478 2.2 2.2 0 0 0 1.459-.435 2.4 2.4 0 0 0 .719-.956zm4.366 3.172c.342.19.705.34 1.081.446a4.5 4.5 0 0 0 1.284.184c.451.014.896-.111 1.274-.36a1.31 1.31 0 0 0 .523-1.17 1.85 1.85 0 0 0-.319-1.114 3.5 3.5 0 0 0-.807-.786 8.4 8.4 0 0 0-1.058-.642 5.6 5.6 0 0 1-1.057-.704 3.5 3.5 0 0 1-.807-.974 2.9 2.9 0 0 1-.319-1.43 2.66 2.66 0 0 1 .785-2.088 3.2 3.2 0 0 1 2.217-.704 7 7 0 0 1 1.614.163c.413.092.811.242 1.184.445l-.433 1.304a5 5 0 0 0-2.16-.5 1.8 1.8 0 0 0-1.194.326 1.28 1.28 0 0 0-.375 1.021c-.01.337.104.665.318.924.233.271.505.505.808.695q.487.315 1.057.64.57.328 1.057.772c.331.303.604.663.807 1.065a3.4 3.4 0 0 1 .319 1.553c.002.393-.067.784-.204 1.152a2.5 2.5 0 0 1-.626.945 3.1 3.1 0 0 1-1.046.64c-.471.17-.968.25-1.467.24a7 7 0 0 1-1.728-.185 4.4 4.4 0 0 1-1.228-.489zm8.073-12.384a1.18 1.18 0 0 1 .307-.847 1.06 1.06 0 0 1 .807-.326c.307-.01.606.103.83.315a1.13 1.13 0 0 1 .329.858 1.02 1.02 0 0 1-.329.815c-.23.2-.527.304-.83.293a1.1 1.1 0 0 1-.807-.304 1.07 1.07 0 0 1-.307-.804m.296 3.303h1.637v10.863h-1.637zm17.941-.891c0 .38-.046.76-.136 1.13a3.9 3.9 0 0 1-.433 1.064 3.7 3.7 0 0 1-.739.89 2.9 2.9 0 0 1-1.079.587v.087a4.2 4.2 0 0 1 1.045.359c.338.17.64.407.887.695.27.32.479.689.614 1.087.162.493.239 1.011.228 1.531a4.9 4.9 0 0 1-.387 2.032 3.74 3.74 0 0 1-1.058 1.401 4.4 4.4 0 0 1-1.546.804 6.5 6.5 0 0 1-1.854.26h-.738q-.421 0-.898-.032a20 20 0 0 1-.944-.087 5.4 5.4 0 0 1-.853-.163v-14.97q.682-.13 1.603-.217a22 22 0 0 1 1.99-.087q.78 0 1.547.142a3.8 3.8 0 0 1 1.386.532c.42.272.761.65.99 1.097a4 4 0 0 1 .375 1.858m-5.253 3.302q.318 0 .728-.021.342-.015.682-.066a3.5 3.5 0 0 0 1.444-1.053 2.73 2.73 0 0 0 .603-1.793 3.2 3.2 0 0 0-.205-1.206c-.118-.3-.31-.566-.558-.771a2.1 2.1 0 0 0-.83-.402 4 4 0 0 0-1-.12q-.592 0-1.069.033a8 8 0 0 0-.727.076v5.323zm.932 7.127c.387.003.771-.06 1.137-.185a2.6 2.6 0 0 0 1.547-1.456 3.7 3.7 0 0 0-.057-2.694 2.2 2.2 0 0 0-.74-.858 2.7 2.7 0 0 0-1.034-.413 6.4 6.4 0 0 0-1.194-.109h-1.523v5.563q.173.05.353.065.215.022.477.043a14 14 0 0 0 1.034.044m7.141-8.887c.5-.284 1.041-.49 1.603-.608a9 9 0 0 1 1.989-.217 3.65 3.65 0 0 1 1.535.271c.363.162.676.416.91.739.222.317.37.681.432 1.065q.104.62.102 1.249 0 1.303-.058 2.542-.06 1.239-.058 2.346-.001.827.058 1.532.053.677.217 1.336h-1.282l-.397-1.281h-.09c-.25.4-.59.735-.993.977a3.3 3.3 0 0 1-1.761.413 2.63 2.63 0 0 1-1.997-.815 3.12 3.12 0 0 1-.779-2.248 3.4 3.4 0 0 1 .327-1.565c.214-.416.533-.768.924-1.021a4 4 0 0 1 1.421-.554 9.5 9.5 0 0 1 1.839-.163h.45q.226 0 .475.022.066-.673.067-1.195a2.95 2.95 0 0 0-.382-1.738 1.67 1.67 0 0 0-1.398-.5 5.8 5.8 0 0 0-1.375.185 5 5 0 0 0-1.239.467zm4.888 5.258a11 11 0 0 0-.899-.043q-.53 0-1.056.087c-.321.05-.632.153-.92.304a1.6 1.6 0 0 0-.665.627c-.156.27-.229.581-.211.894a1.92 1.92 0 0 0 .438 1.347 1.46 1.46 0 0 0 1.134.478 2.2 2.2 0 0 0 1.46-.435 2.4 2.4 0 0 0 .719-.956zm10.37 4.954v-6.627a5.2 5.2 0 0 0-.399-2.357 1.48 1.48 0 0 0-1.421-.728 2.18 2.18 0 0 0-1.5.522 3.05 3.05 0 0 0-.865 1.281v7.909h-1.637V79.53h1.183l.295 1.152h.069a3.56 3.56 0 0 1 1.297-1.064 3.5 3.5 0 0 1 1.635-.348c.436-.008.871.058 1.285.195.367.127.691.357.933.663a3.2 3.2 0 0 1 .568 1.25c.143.648.208 1.312.194 1.976v7.04zm11.552-3.737q0 1.109.022 2.01.022.89.16 1.77h-1.114l-.364-1.303h-.091a2.7 2.7 0 0 1-1.001 1.086c-.493.3-1.061.451-1.637.435a3.04 3.04 0 0 1-1.552-.315 3.07 3.07 0 0 1-1.188-1.054 8 8 0 0 1-.898-4.302 6.83 6.83 0 0 1 1.102-4.215 3.64 3.64 0 0 1 1.345-1.092 3.6 3.6 0 0 1 1.691-.342q.527-.01 1.047.076.43.09.84.25v-4.476h1.638zm-1.638-5.41a2 2 0 0 0-.715-.38 3.8 3.8 0 0 0-1.058-.12 2.1 2.1 0 0 0-1.078.264c-.33.184-.605.453-.798.78a6.07 6.07 0 0 0-.671 3.215q-.006.869.125 1.727c.068.461.198.91.387 1.336.149.345.384.644.682.87.304.21.667.316 1.035.303a2.05 2.05 0 0 0 1.401-.513c.388-.341.634-.817.69-1.333zm6.026-1.717v6.649a5.7 5.7 0 0 0 .353 2.357 1.3 1.3 0 0 0 1.284.706 1.9 1.9 0 0 0 .853-.184c.25-.123.477-.288.671-.49q.303-.315.523-.694.224-.383.364-.804v-7.54h1.637v7.779q0 .781.057 1.618.045.739.17 1.467h-1.159l-.409-1.521h-.069a3.76 3.76 0 0 1-1.114 1.25 3 3 0 0 1-1.819.532 4.2 4.2 0 0 1-1.273-.174 2 2 0 0 1-.933-.63 3 3 0 0 1-.58-1.25 8.8 8.8 0 0 1-.194-2.031v-7.04zm14.441 10.864v-6.627a5.2 5.2 0 0 0-.399-2.357 1.48 1.48 0 0 0-1.421-.728 2.2 2.2 0 0 0-1.501.522 3.05 3.05 0 0 0-.864 1.281v7.909h-1.637V79.53h1.183l.295 1.152h.069a3.56 3.56 0 0 1 1.297-1.064 3.5 3.5 0 0 1 1.635-.348c.436-.008.871.058 1.285.195.367.127.691.357.933.663a3.2 3.2 0 0 1 .568 1.25c.143.648.208 1.312.194 1.976v7.04zm11.551.5a4.3 4.3 0 0 1-.978 3.107 3.8 3.8 0 0 1-2.843.999 7.8 7.8 0 0 1-1.864-.185 5.4 5.4 0 0 1-1.182-.423l.476-1.347q.456.195 1.002.369a4.5 4.5 0 0 0 1.341.174 2.15 2.15 0 0 0 1.899-.739 4.5 4.5 0 0 0 .511-2.477v-.804h-.068a2.5 2.5 0 0 1-.932.782 3.3 3.3 0 0 1-1.455.283 2.96 2.96 0 0 1-1.536-.308 3 3 0 0 1-1.171-1.05 8.17 8.17 0 0 1-.863-4.27 6.77 6.77 0 0 1 1.125-4.236c.404-.487.917-.87 1.496-1.12a3.96 3.96 0 0 1 1.836-.314 7.6 7.6 0 0 1 1.842.196 9 9 0 0 1 1.364.456zm-1.638-9.8a3.86 3.86 0 0 0-1.75-.347 2.18 2.18 0 0 0-1.865 1.01 5.75 5.75 0 0 0-.705 3.227q-.004.846.113 1.684c.063.466.193.92.387 1.347.155.35.394.656.694.89.301.217.665.328 1.035.316.492.028.977-.127 1.364-.435a2.5 2.5 0 0 0 .727-1.303zM46.169 89.603H47.7q.09.045 0 .085h-1.53q-.09-.042-.001-.085M0 42.394c.162-.207.015-.482.17-.69.028.376.003.754-.076 1.122q-.05.083-.094-.002zm.171 5.505c-.156-.208-.008-.484-.171-.69v-.43q.045-.085.097-.004c.075.37.1.748.074 1.124m93.622-2.494v-1.207q.04-.09.076.001v1.204q-.036.09-.076.002"/><path fill="#fff" d="m93.869 44.2-.038-.003h-.038v-.515a.4.4 0 0 1 .076.001zm-.076 1.205.076-.002v.516l-.038.002h-.039zM44.455.073q0-.037.005-.073h.45q.09.045-.007.074zM45.99 0c-.137.118-.302.08-.461.077q-.047-.033-.027-.055A.05.05 0 0 1 45.539 0zm2.35.076c-.159.004-.324.042-.46-.076h.45q.053.019.04.047-.015.03-.03.03M49.41 0a.4.4 0 0 1 .004.072l-.449.002Q48.87.044 48.96 0zm-3.241 89.603v.085h-.45v-.087a1.2 1.2 0 0 1 .45.002m1.531.085v-.084c.148-.03.301-.031.45-.003v.087z"/><path fill="#fff" d="m45.54 0-.01.077-.357-.001Q45.089.03 45.179 0zm2.8.076L48.33 0h.36q.09.03.006.075zM.093 43.084c.009.124.027.25-.093.341v-.344q.048-.087.093.003M0 46.177c.122.092.102.219.091.343q-.045.088-.091.001z"/><path fill="#fff" d="M45.18 0q0 .039-.007.076l-.27-.002L44.91 0zm3.516.075L48.69 0h.27q0 .038.006.074zM.093 43.084 0 43.08v-.258l.094.003zM0 46.521h.091l.006.254-.097.004z"/><path fill="#fff" d="M93.789 41.796a30 30 0 0 0-.823-6.497 43 43 0 0 0-4.235-11.23 45 45 0 0 0-3.142-4.951 47 47 0 0 0-5.312-6.09 45 45 0 0 0-3.568-3.072 45.7 45.7 0 0 0-7.292-4.69 47.7 47.7 0 0 0-9.545-3.73A39 39 0 0 0 49.392.043h-1.049c-.154-.02-.317.045-.464-.043h-1.89c-.149.088-.313.023-.469.043h-1.052c-.36-.001-.719.034-1.076.036-1.884.025-3.76.225-5.608.596a48 48 0 0 0-16.582 6.458 45.7 45.7 0 0 0-8.261 6.578c-.537.54-1.08 1.076-1.586 1.638a46 46 0 0 0-4.534 5.914A43.2 43.2 0 0 0 .904 35.379a29.5 29.5 0 0 0-.814 6.37q.016.518-.045 1.032v.268c-.018.125.042.259-.045.376v2.752c.087.12.027.254.045.381v.269q.063.516.045 1.035c-.015.302.036.6.04.9.072 1.83.33 3.65.77 5.427a43.3 43.3 0 0 0 5.502 13.497 45.7 45.7 0 0 0 9.227 10.685 47.5 47.5 0 0 0 15.29 8.734 44.1 44.1 0 0 0 14.853 2.54h2.338c.82-.084 1.646-.06 2.468-.074a34.4 34.4 0 0 0 6.657-.874A48.4 48.4 0 0 0 70.34 83.83a48.3 48.3 0 0 0 9.581-6.916 44 44 0 0 0 3.355-3.522 43.8 43.8 0 0 0 5.474-7.894 43 43 0 0 0 3.648-8.947c.53-1.86.928-3.756 1.19-5.673.19-1.663.268-3.337.236-5.01v-2.142c-.006-.643-.033-1.288-.035-1.93M46.733 78.83c-19.765-.106-35.41-15.51-35.413-34.025C11.315 26.2 27.101 10.77 46.948 10.763c19.874.015 35.648 15.486 35.616 34.096-.033 18.568-15.84 34.076-35.831 33.97"/><path fill="#fff" d="M63.267 50.404a9.3 9.3 0 0 0-2.13-3.9 9.2 9.2 0 0 0-3.68-2.455 15.8 15.8 0 0 0-3.14-.879c-.123-.021-.238-.03-.243-.19-.004-.15.04-.225.212-.265q.589-.135 1.16-.33a9.4 9.4 0 0 0 3.666-2.065 9.5 9.5 0 0 0 2.408-3.469c.806-2.102.992-4.395.533-6.602a8.9 8.9 0 0 0-1.645-3.642 8.76 8.76 0 0 0-3.07-2.533 15.3 15.3 0 0 0-3.874-1.46 35 35 0 0 0-7.528-.85c-1.86-.038-3.718.021-5.575.093a82 82 0 0 0-8.456.759c-.562.077-.563.068-.563.623v42.124q.007.15-.002.3c-.023.221.052.333.302.38.897.172 1.796.322 2.705.419 2.027.215 4.061.341 6.1.413 1.768.063 3.538.013 5.308.032a28.3 28.3 0 0 0 5.671-.527 19.3 19.3 0 0 0 6.806-2.58 11.16 11.16 0 0 0 5.081-6.638 12.64 12.64 0 0 0-.046-6.758m-23.232-20.88c0-.423.003-.42.427-.464a43 43 0 0 1 6.06-.153 9.3 9.3 0 0 1 3.775.85c.82.346 1.523.925 2.024 1.666.5.74.778 1.612.798 2.509a6 6 0 0 1-.148 1.833 4.75 4.75 0 0 1-1.55 2.462 11.6 11.6 0 0 1-4.236 2.276 8.3 8.3 0 0 1-1.957.23 79 79 0 0 1-4.852.084c-.334-.003-.34-.007-.34-.34q-.004-2.77-.001-5.54zM54.314 54.45a5.6 5.6 0 0 1-.932 2.289 5.55 5.55 0 0 1-1.821 1.658 9.6 9.6 0 0 1-3.825 1.282 21.7 21.7 0 0 1-3.68.087 48 48 0 0 1-3.187-.17c-.834-.078-.834-.072-.834-.843V47.839c0-.101.003-.201 0-.302-.003-.12.049-.187.183-.183.06.002.12-.002.18 0 1.963.005 3.928-.041 5.891.038 1.364.005 2.719.206 4.026.597a6.5 6.5 0 0 1 2.858 1.792 4.75 4.75 0 0 1 1.169 2.827 7.3 7.3 0 0 1-.028 1.843"/><path stroke="#fff" stroke-linecap="round" stroke-miterlimit="10" stroke-width="2" d="M323.43 1.14v89.042"/></g><defs><clipPath id="a"><path fill="#fff" d="M0 0h650v95H0z"/></clipPath></defs></svg>