<svg xmlns="http://www.w3.org/2000/svg" width="60" height="60" fill="none" viewBox="0 0 60 60"><circle cx="30" cy="30" r="30" fill="#fff"/><path fill="#fff" d="M29.51 59.939h.98q.056.03-.001.057h-.978q-.057-.03 0-.057M0 28.359c.103-.138.01-.323.109-.462a2.8 2.8 0 0 1-.05.75q-.03.056-.059 0zm.11 3.682c-.1-.138-.006-.323-.11-.461v-.288q.029-.057.062-.003.072.373.048.752m59.841-1.668v-.808q.026-.06.05.002v.805q-.023.06-.05 0"/><path fill="#fff" d="m60 29.567-.024-.002h-.024v-.345a.3.3 0 0 1 .049.001zm-.049.806.05-.001v.345l-.025.001h-.025zM28.415.049q0-.025.003-.049h.288q.057.03-.004.05zM29.396 0c-.087.079-.193.053-.294.051q-.03-.02-.018-.037l.01-.01.014-.004zm1.503.051c-.102.002-.207.028-.295-.05h.288q.034.012.026.03-.01.02-.02.02M31.582 0a.2.2 0 0 1 .003.048l-.287.001Q31.237.03 31.294 0zM29.51 59.939l.001.057h-.288v-.059a.7.7 0 0 1 .288.002m.978.057v-.057a.7.7 0 0 1 .288-.002v.059z"/><path fill="#fff" d="m29.108 0-.006.051h-.228q-.054-.03.004-.05zm1.791.051-.007-.05h.23q.057.02.004.05zM.06 28.82c.005.083.017.167-.06.229v-.23q.03-.06.06.001M0 30.89c.078.061.065.146.058.229q-.028.06-.058 0z"/><path fill="#fff" d="M28.878 0a.3.3 0 0 1-.004.05h-.172l.004-.05zm2.248.05L31.122 0h.172q0 .025.004.05zM.06 28.82H0v-.173l.06.002zM0 31.12l.058-.001.004.17-.062.003z"/><path fill="#00A64F" d="M59.949 27.96a21 21 0 0 0-.526-4.347 29.7 29.7 0 0 0-2.707-7.512 30 30 0 0 0-2.008-3.312 31 31 0 0 0-3.396-4.074 29 29 0 0 0-2.28-2.055 29 29 0 0 0-4.661-3.137 29.7 29.7 0 0 0-6.101-2.496 24 24 0 0 0-6.7-.997h-.67c-.1-.014-.203.03-.297-.029h-1.208c-.096.059-.2.015-.3.029h-.672c-.23-.001-.46.022-.688.024A18.7 18.7 0 0 0 24.15.45 29.9 29.9 0 0 0 8.27 9.17c-.342.362-.689.72-1.013 1.097a30.5 30.5 0 0 0-2.898 3.956 30 30 0 0 0-2.353 4.692 30 30 0 0 0-1.43 4.75 20.6 20.6 0 0 0-.52 4.261 5 5 0 0 1-.029.691v.18c-.011.083.028.172-.028.25v1.841c.056.08.017.17.028.256v.18q.041.344.03.692c-.01.201.023.401.025.602.046 1.224.21 2.44.492 3.63a29.7 29.7 0 0 0 3.517 9.029 30.2 30.2 0 0 0 5.898 7.147 30 30 0 0 0 9.773 5.843 27 27 0 0 0 9.494 1.699h1.494c.525-.056 1.052-.04 1.578-.05a21 21 0 0 0 4.255-.584 30 30 0 0 0 8.377-3.256 31 31 0 0 0 6.124-4.627 29 29 0 0 0 2.144-2.355 29.4 29.4 0 0 0 3.5-5.281 29.7 29.7 0 0 0 2.33-5.985 28 28 0 0 0 .762-3.795q.18-1.67.15-3.352V29.25c-.004-.43-.02-.861-.022-1.29M29.87 52.73C17.237 52.66 7.237 42.355 7.234 29.97 7.233 17.526 17.324 7.205 30.01 7.2c12.703.01 22.786 10.359 22.765 22.808-.021 12.42-10.125 22.795-22.903 22.723"/><path fill="#00A64F" d="M40.44 33.717a6.3 6.3 0 0 0-1.361-2.609 5.9 5.9 0 0 0-2.353-1.642 9.7 9.7 0 0 0-2.007-.588c-.079-.014-.152-.02-.155-.128-.003-.1.025-.15.135-.176q.375-.09.742-.222c.87-.267 1.67-.74 2.342-1.38a6.35 6.35 0 0 0 1.54-2.32 8.2 8.2 0 0 0 .34-4.417 6.1 6.1 0 0 0-1.051-2.436 5.7 5.7 0 0 0-1.963-1.695 9.5 9.5 0 0 0-2.475-.977 21.4 21.4 0 0 0-4.812-.569c-1.189-.024-2.377.015-3.564.063q-1.034.043-2.066.124c-1.117.087-2.23.222-3.339.383-.359.052-.36.046-.36.418v28.178q.005.1 0 .2c-.016.148.033.223.192.255a20 20 0 0 0 1.73.28c1.295.144 2.595.228 3.898.276 1.13.042 2.262.01 3.393.022 1.216.01 2.43-.108 3.625-.353 1.54-.28 3.016-.866 4.35-1.726 1.588-.978 2.752-2.57 3.248-4.44a8.84 8.84 0 0 0-.03-4.521M25.59 19.75c0-.283.002-.281.273-.31a26 26 0 0 1 3.873-.103c.833.01 1.655.204 2.413.569.524.231.974.618 1.294 1.114.32.495.497 1.078.51 1.678.028.412-.004.825-.094 1.226a3.2 3.2 0 0 1-.992 1.647 7.3 7.3 0 0 1-2.707 1.523c-.41.103-.83.154-1.25.153a48 48 0 0 1-3.102.057c-.214-.002-.218-.005-.218-.228zm9.127 16.675a3.85 3.85 0 0 1-.596 1.53 3.6 3.6 0 0 1-1.164 1.11 5.9 5.9 0 0 1-2.445.858c-.781.088-1.568.108-2.352.057-.68-.02-1.36-.046-2.037-.113-.533-.052-.533-.049-.533-.564V32q.002-.1 0-.202c-.002-.08.031-.125.117-.122h.115c1.255.003 2.51-.028 3.766.025a8.7 8.7 0 0 1 2.573.4 4.15 4.15 0 0 1 1.827 1.198c.44.525.703 1.19.746 1.891.044.41.038.825-.017 1.233"/></svg>