<svg xmlns="http://www.w3.org/2000/svg" xml:space="preserve" width="256" height="256" viewBox="0 0 256 256"><g style="stroke:none;stroke-width:0;stroke-dasharray:none;stroke-linecap:butt;stroke-linejoin:miter;stroke-miterlimit:10;fill:none;fill-rule:nonzero;opacity:1"><path d="M.576 44.596A44.5 44.5 0 0 0 6.53 66.892L.201 90l23.65-6.201a44.6 44.6 0 0 0 21.318 5.429h.019c24.586 0 44.601-20.009 44.612-44.597.004-11.917-4.633-23.122-13.055-31.552C68.321 4.65 57.121.005 45.188 0 20.597 0 .585 20.005.575 44.595m14.083 21.132-.883-1.402a37 37 0 0 1-5.669-19.726C8.115 24.161 24.748 7.532 45.201 7.532c9.905.004 19.213 3.865 26.215 10.871s10.854 16.32 10.851 26.224c-.009 20.439-16.643 37.068-37.08 37.068h-.015A37.03 37.03 0 0 1 26.3 76.527l-1.355-.803-14.035 3.68zm30.53 23.501q-.002 0 0 0" style="stroke:none;stroke-width:1;stroke-dasharray:none;stroke-linecap:butt;stroke-linejoin:miter;stroke-miterlimit:10;fill:#000;fill-rule:nonzero;opacity:1" transform="translate(1.407 1.407)scale(2.81)"/><path d="M34.038 25.95c-.835-1.856-1.714-1.894-2.508-1.926-.65-.028-1.394-.026-2.136-.026-.744 0-1.951.279-2.972 1.394-1.022 1.116-3.902 3.812-3.902 9.296 0 5.485 3.995 10.784 4.551 11.529.558.743 7.712 12.357 19.041 16.825 9.416 3.713 11.333 2.975 13.376 2.789 2.044-.186 6.595-2.696 7.524-5.299s.929-4.834.651-5.299c-.279-.465-1.022-.744-2.137-1.301-1.115-.558-6.595-3.254-7.617-3.626s-1.765-.557-2.509.559c-.743 1.115-2.878 3.625-3.528 4.368-.65.745-1.301.838-2.415.28-1.115-.559-4.705-1.735-8.964-5.532-3.314-2.955-5.551-6.603-6.201-7.719-.65-1.115-.069-1.718.489-2.274.501-.499 1.115-1.301 1.673-1.952.556-.651.742-1.116 1.113-1.859.372-.744.186-1.395-.093-1.953s-2.445-6.07-3.436-8.274" style="stroke:none;stroke-width:1;stroke-dasharray:none;stroke-linecap:butt;stroke-linejoin:miter;stroke-miterlimit:10;fill:#000;fill-rule:nonzero;opacity:1" transform="translate(1.407 1.407)scale(2.81)"/></g></svg>